<svg width="31" height="30" viewBox="0 0 31 30" fill="none" xmlns="http://www.w3.org/2000/svg">
<rect x="0.75" width="30" height="30" rx="15" fill="#7544F1"/>
<g clip-path="url(#clip0_436_5519)">
<path d="M16.5078 14.2565L16.5078 7.82457C16.5079 7.40611 16.1696 7.06786 15.7512 7.06796C15.3328 7.06796 14.9946 7.40621 14.9946 7.82457L14.9945 14.2566L8.56265 14.2565C8.14417 14.2566 7.80605 14.5947 7.80605 15.0131C7.80595 15.4316 8.14417 15.7698 8.56265 15.7697L14.9945 15.7698L14.9947 22.2017C14.9946 22.6202 15.3328 22.9584 15.7513 22.9583C15.8507 22.9584 15.9491 22.9389 16.0409 22.9009C16.1327 22.8629 16.2161 22.8071 16.2863 22.7367C16.4233 22.5998 16.5079 22.4104 16.5079 22.2017L16.5078 15.7698L22.9398 15.7698C23.0392 15.7699 23.1376 15.7504 23.2294 15.7124C23.3212 15.6744 23.4047 15.6186 23.4749 15.5482C23.6118 15.4113 23.6964 15.2219 23.6964 15.0132C23.6965 14.5947 23.3582 14.2565 22.9398 14.2566L16.5078 14.2565Z" fill="white"/>
</g>
<defs>
<clipPath id="clip0_436_5519">
<rect width="16" height="16" fill="white" transform="translate(7.75 7)"/>
</clipPath>
</defs>
</svg>
