<svg width="15" height="10" viewBox="0 0 15 10" fill="none" xmlns="http://www.w3.org/2000/svg">
<path d="M7.98777 9.03603C8.1199 9.03615 8.25076 9.01018 8.37283 8.95962C8.49491 8.90906 8.60581 8.8349 8.69916 8.7414L14.6935 2.68819C14.8817 2.49821 14.9866 2.24129 14.9853 1.97393C14.984 1.70657 14.8765 1.45069 14.6866 1.26256C14.4966 1.07443 14.2397 0.969476 13.9723 0.970782C13.705 0.972088 13.4491 1.07955 13.2609 1.26952L7.97595 6.61647L2.63904 1.33144C2.44618 1.1679 2.19871 1.08316 1.94608 1.09415C1.69345 1.10515 1.45428 1.21107 1.27635 1.39074C1.09842 1.57041 0.99485 1.81061 0.986324 2.06333C0.977798 2.31605 1.06495 2.56269 1.23036 2.75394L7.28357 8.74831C7.47148 8.93287 7.72438 9.0362 7.98777 9.03603Z" fill="#708090"/>
</svg>
