<svg width="107" height="101" viewBox="0 0 107 101" fill="none" xmlns="http://www.w3.org/2000/svg">
<path d="M1.00836 41.4682C0.263279 41.8303 -0.0471656 42.7279 0.314967 43.473C0.677099 44.218 1.57468 44.5285 2.31976 44.1664L1.00836 41.4682ZM106.664 42.8173L96.7754 28.5971L89.4047 44.271L106.664 42.8173ZM2.31976 44.1664C3.21387 43.7318 4.11265 43.3092 5.01586 42.8985L3.77416 40.1676C2.84763 40.5888 1.92561 41.0224 1.00836 41.4682L2.31976 44.1664ZM10.5009 40.5721C12.3512 39.8425 14.2174 39.1612 16.0973 38.5283L15.1401 35.6851C13.2122 36.3342 11.2982 37.0329 9.40037 37.7812L10.5009 40.5721ZM21.7904 36.7705C23.7044 36.2322 25.63 35.7426 27.5653 35.3018L26.8991 32.3767C24.915 32.8286 22.9406 33.3306 20.9781 33.8826L21.7904 36.7705ZM33.4073 34.1243C35.3651 33.7804 37.3303 33.4855 39.301 33.2398L38.9297 30.2629C36.9098 30.5148 34.8952 30.817 32.8883 31.1695L33.4073 34.1243ZM45.2314 32.6495C47.2131 32.5019 49.198 32.4034 51.184 32.3542L51.1097 29.3551C49.0742 29.4056 47.0397 29.5065 45.0085 29.6578L45.2314 32.6495ZM57.1441 32.3542C59.1301 32.4034 61.115 32.5019 63.0967 32.6495L63.3196 29.6578C61.2884 29.5065 59.254 29.4056 57.2184 29.3551L57.1441 32.3542ZM69.0272 33.2398C70.9978 33.4855 72.9631 33.7804 74.9208 34.1243L75.4399 31.1695C73.4329 30.817 71.4184 30.5148 69.3984 30.2629L69.0272 33.2398ZM80.7628 35.3018C82.6981 35.7426 84.6238 36.2322 86.5377 36.7705L87.3501 33.8826C85.3876 33.3306 83.4132 32.8286 81.429 32.3767L80.7628 35.3018ZM92.2308 38.5283C94.1107 39.1612 95.9769 39.8425 97.8273 40.5721L98.9278 37.7813C97.0299 37.0329 95.1159 36.3342 93.188 35.6851L92.2308 38.5283ZM1.00836 41.4682C0.263279 41.8303 -0.0471656 42.7279 0.314967 43.473C0.677099 44.218 1.57468 44.5285 2.31976 44.1664L1.00836 41.4682ZM106.664 42.8173L96.7754 28.5971L89.4047 44.271L106.664 42.8173ZM2.31976 44.1664C3.21387 43.7318 4.11265 43.3092 5.01586 42.8985L3.77416 40.1676C2.84763 40.5888 1.92561 41.0224 1.00836 41.4682L2.31976 44.1664ZM10.5009 40.5721C12.3512 39.8425 14.2174 39.1612 16.0973 38.5283L15.1401 35.6851C13.2122 36.3342 11.2982 37.0329 9.40037 37.7812L10.5009 40.5721ZM21.7904 36.7705C23.7044 36.2322 25.63 35.7426 27.5653 35.3018L26.8991 32.3767C24.915 32.8286 22.9406 33.3306 20.9781 33.8826L21.7904 36.7705ZM33.4073 34.1243C35.3651 33.7804 37.3303 33.4855 39.301 33.2398L38.9297 30.2629C36.9098 30.5148 34.8952 30.817 32.8883 31.1695L33.4073 34.1243ZM45.2314 32.6495C47.2131 32.5019 49.198 32.4034 51.184 32.3542L51.1097 29.3551C49.0742 29.4056 47.0397 29.5065 45.0085 29.6578L45.2314 32.6495ZM57.1441 32.3542C59.1301 32.4034 61.115 32.5019 63.0967 32.6495L63.3196 29.6578C61.2884 29.5065 59.254 29.4056 57.2184 29.3551L57.1441 32.3542ZM69.0272 33.2398C70.9978 33.4855 72.9631 33.7804 74.9208 34.1243L75.4399 31.1695C73.4329 30.817 71.4184 30.5148 69.3984 30.2629L69.0272 33.2398ZM80.7628 35.3018C82.6981 35.7426 84.6238 36.2322 86.5377 36.7705L87.3501 33.8826C85.3876 33.3306 83.4132 32.8286 81.429 32.3767L80.7628 35.3018ZM92.2308 38.5283C94.1107 39.1612 95.9769 39.8425 97.8273 40.5721L98.9278 37.7813C97.0299 37.0329 95.1159 36.3342 93.188 35.6851L92.2308 38.5283Z" fill="url(#paint0_linear_215_305)"/>
<defs>
<linearGradient id="paint0_linear_215_305" x1="1.66406" y1="36.8173" x2="106.664" y2="36.8173" gradientUnits="userSpaceOnUse">
<stop stop-color="#7544F1" stop-opacity="0"/>
<stop offset="1" stop-color="#7544F1"/>
</linearGradient>
</defs>
</svg>
