<svg width="11" height="7" viewBox="0 0 11 7" fill="none" xmlns="http://www.w3.org/2000/svg">
<path d="M5.54977 0.0269263C5.44595 0.0260197 5.34298 0.0456145 5.24675 0.084587C5.15053 0.123559 5.06294 0.181143 4.98902 0.254036L0.242042 4.97308C0.0930626 5.12119 0.0090189 5.3224 0.00839907 5.53247C0.00777925 5.74254 0.0906341 5.94425 0.238736 6.09323C0.386839 6.24221 0.588057 6.32625 0.798125 6.32687C1.00819 6.32749 1.2099 6.24464 1.35888 6.09653L5.54416 1.92802L9.70478 6.11327C9.85531 6.24295 10.0492 6.31105 10.2478 6.30397C10.4463 6.29688 10.6349 6.21514 10.7758 6.07507C10.9167 5.93499 10.9996 5.74691 11.0078 5.5484C11.0161 5.34989 10.9491 5.15558 10.8203 5.00429L6.10128 0.257317C5.95478 0.111151 5.75671 0.0284082 5.54977 0.0269263Z" fill="#708090"/>
</svg>
