<svg width="22" height="23" viewBox="0 0 22 23" fill="none" xmlns="http://www.w3.org/2000/svg">
<path d="M18.8194 6.86755H3.17437C2.09431 6.86755 1.21875 7.74311 1.21875 8.82317V18.6013C1.21875 19.6813 2.09431 20.5569 3.17437 20.5569H18.8194C19.8994 20.5569 20.7751 19.6813 20.7751 18.6013V8.82317C20.7751 7.74311 19.8994 6.86755 18.8194 6.86755Z" stroke="#7544F1" stroke-width="1.41176" stroke-linecap="round" stroke-linejoin="round"/>
<path d="M14.9085 20.557V4.91205C14.9085 4.39338 14.7024 3.89596 14.3356 3.52921C13.9688 3.16247 13.4715 2.95642 12.9528 2.95642H9.04155C8.52289 2.95642 8.02548 3.16247 7.65872 3.52921C7.29197 3.89596 7.08594 4.39338 7.08594 4.91205V20.557" stroke="#7544F1" stroke-width="1.41176" stroke-linecap="round" stroke-linejoin="round"/>
</svg>
