<svg width="70" height="71" viewBox="0 0 70 71" fill="none" xmlns="http://www.w3.org/2000/svg">
<g clip-path="url(#clip0_215_264)">
<path d="M54.4444 39.7671C51.3678 39.7671 48.3603 40.6794 45.8022 42.3886C43.2441 44.0979 41.2503 46.5274 40.073 49.3698C38.8956 52.2122 38.5876 55.3399 39.1878 58.3574C39.788 61.3748 41.2695 64.1466 43.445 66.3221C45.6205 68.4975 48.3922 69.9791 51.4097 70.5793C54.4272 71.1795 57.5549 70.8714 60.3973 69.6941C63.2397 68.5167 65.6691 66.5229 67.3784 63.9648C69.0877 61.4067 70 58.3992 70 55.3226C69.9959 51.1983 68.3557 47.2441 65.4393 44.3277C62.523 41.4114 58.5688 39.7712 54.4444 39.7671ZM61.963 59.0741C61.8109 59.3789 61.6002 59.6508 61.343 59.8741C61.0858 60.0975 60.7871 60.268 60.464 60.3758C60.1409 60.4837 59.7997 60.5268 59.4599 60.5028C59.1201 60.4787 58.7884 60.3879 58.4837 60.2356L53.2985 57.643C52.8651 57.4294 52.5 57.099 52.2444 56.689C51.9888 56.279 51.8528 55.8058 51.8518 55.3226V47.5448C51.8518 46.8572 52.125 46.1978 52.6112 45.7116C53.0974 45.2254 53.7568 44.9522 54.4444 44.9522C55.132 44.9522 55.7915 45.2254 56.2777 45.7116C56.7639 46.1978 57.037 46.8572 57.037 47.5448V53.7204L60.7885 55.5948C61.0944 55.7458 61.3676 55.9556 61.5923 56.2123C61.817 56.469 61.9888 56.7675 62.0979 57.0907C62.207 57.4139 62.2512 57.7555 62.2281 58.0958C62.2049 58.4362 62.1148 58.7686 61.963 59.0741ZM64.8148 13.8411C64.8148 11.7783 63.9954 9.80003 62.5368 8.34142C61.0781 6.8828 59.0998 6.06336 57.037 6.06336H49.2593V3.47077C49.2593 2.78317 48.9861 2.12373 48.4999 1.63753C48.0137 1.15132 47.3543 0.878174 46.6667 0.878174C45.9791 0.878174 45.3196 1.15132 44.8334 1.63753C44.3472 2.12373 44.0741 2.78317 44.0741 3.47077V6.06336H20.7407V3.47077C20.7407 2.78317 20.4676 2.12373 19.9814 1.63753C19.4952 1.15132 18.8357 0.878174 18.1481 0.878174C17.4605 0.878174 16.8011 1.15132 16.3149 1.63753C15.8287 2.12373 15.5556 2.78317 15.5556 3.47077V6.06336H7.77778C5.71498 6.06336 3.73667 6.8828 2.27806 8.34142C0.819442 9.80003 0 11.7783 0 13.8411V21.6189H64.8148V13.8411Z" fill="#ED9144"/>
<path d="M54.4444 34.5819C58.0887 34.5767 61.6684 35.5433 64.8148 37.3819V26.8041H0V57.9152C0.00615505 59.9761 0.827574 61.9509 2.28486 63.4081C3.74214 64.8654 5.71688 65.6868 7.77778 65.693H36.5037C34.6651 62.5466 33.6985 58.9669 33.7037 55.3226C33.7112 49.8242 35.8988 44.553 39.7869 40.665C43.6749 36.777 48.946 34.5894 54.4444 34.5819ZM15.5556 55.3226H10.3704C9.68277 55.3226 9.02334 55.0495 8.53713 54.5633C8.05093 54.0771 7.77778 53.4176 7.77778 52.73C7.77778 52.0424 8.05093 51.383 8.53713 50.8968C9.02334 50.4106 9.68277 50.1374 10.3704 50.1374H15.5556C16.2432 50.1374 16.9026 50.4106 17.3888 50.8968C17.875 51.383 18.1481 52.0424 18.1481 52.73C18.1481 53.4176 17.875 54.0771 17.3888 54.5633C16.9026 55.0495 16.2432 55.3226 15.5556 55.3226ZM15.5556 42.3597H10.3704C9.68277 42.3597 9.02334 42.0865 8.53713 41.6003C8.05093 41.1141 7.77778 40.4547 7.77778 39.7671C7.77778 39.0795 8.05093 38.42 8.53713 37.9338C9.02334 37.4476 9.68277 37.1745 10.3704 37.1745H15.5556C16.2432 37.1745 16.9026 37.4476 17.3888 37.9338C17.875 38.42 18.1481 39.0795 18.1481 39.7671C18.1481 40.4547 17.875 41.1141 17.3888 41.6003C16.9026 42.0865 16.2432 42.3597 15.5556 42.3597ZM31.1111 42.3597H25.9259C25.2383 42.3597 24.5789 42.0865 24.0927 41.6003C23.6065 41.1141 23.3333 40.4547 23.3333 39.7671C23.3333 39.0795 23.6065 38.42 24.0927 37.9338C24.5789 37.4476 25.2383 37.1745 25.9259 37.1745H31.1111C31.7987 37.1745 32.4581 37.4476 32.9443 37.9338C33.4306 38.42 33.7037 39.0795 33.7037 39.7671C33.7037 40.4547 33.4306 41.1141 32.9443 41.6003C32.4581 42.0865 31.7987 42.3597 31.1111 42.3597Z" fill="#ED9144"/>
</g>
<defs>
<clipPath id="clip0_215_264">
<rect width="70" height="70" fill="white" transform="translate(0 0.878174)"/>
</clipPath>
</defs>
</svg>
