<svg width="32" height="32" viewBox="0 0 32 32" fill="none" xmlns="http://www.w3.org/2000/svg">
<path d="M9.37967 1.52382C9.37967 0.682236 8.69743 0 7.85585 0C7.01427 0 6.33203 0.682236 6.33203 1.52382V3.04764C6.33203 3.88922 7.01427 4.57145 7.85585 4.57145C8.69743 4.57145 9.37967 3.88922 9.37967 3.04764V1.52382Z" fill="#7544F1"/>
<path d="M26.1414 1.52382C26.1414 0.682236 25.4591 0 24.6176 0C23.776 0 23.0938 0.682236 23.0938 1.52382V3.04764C23.0938 3.88922 23.776 4.57145 24.6176 4.57145C25.4591 4.57145 26.1414 3.88922 26.1414 3.04764V1.52382Z" fill="#7544F1"/>
<path d="M1 11.4285V28.9525C1 29.7607 1.32109 30.5359 1.89263 31.1075C2.46417 31.679 3.23935 32.0001 4.04764 32.0001H28.4287C29.237 32.0001 30.0122 31.679 30.5837 31.1075C31.1553 30.5359 31.4764 29.7607 31.4764 28.9525V11.4285H1ZM10.1429 26.6667C10.1429 27.0709 9.98236 27.4585 9.69659 27.7442C9.41082 28.03 9.02323 28.1905 8.61909 28.1905H7.09527C6.69113 28.1905 6.30354 28.03 6.01777 27.7442C5.732 27.4585 5.57145 27.0709 5.57145 26.6667V25.1429C5.57145 24.7388 5.732 24.3512 6.01777 24.0654C6.30354 23.7796 6.69113 23.6191 7.09527 23.6191H8.61909C9.02323 23.6191 9.41082 23.7796 9.69659 24.0654C9.98236 24.3512 10.1429 24.7388 10.1429 25.1429V26.6667ZM10.1429 18.2857C10.1429 18.6899 9.98236 19.0775 9.69659 19.3632C9.41082 19.649 9.02323 19.8095 8.61909 19.8095H7.09527C6.69113 19.8095 6.30354 19.649 6.01777 19.3632C5.732 19.0775 5.57145 18.6899 5.57145 18.2857V16.7619C5.57145 16.3578 5.732 15.9702 6.01777 15.6844C6.30354 15.3986 6.69113 15.2381 7.09527 15.2381H8.61909C9.02323 15.2381 9.41082 15.3986 9.69659 15.6844C9.98236 15.9702 10.1429 16.3578 10.1429 16.7619V18.2857ZM18.5239 26.6667C18.5239 27.0709 18.3634 27.4585 18.0776 27.7442C17.7918 28.03 17.4042 28.1905 17.0001 28.1905H15.4763C15.0721 28.1905 14.6845 28.03 14.3988 27.7442C14.113 27.4585 13.9524 27.0709 13.9524 26.6667V25.1429C13.9524 24.7388 14.113 24.3512 14.3988 24.0654C14.6845 23.7796 15.0721 23.6191 15.4763 23.6191H17.0001C17.4042 23.6191 17.7918 23.7796 18.0776 24.0654C18.3634 24.3512 18.5239 24.7388 18.5239 25.1429V26.6667ZM18.5239 18.2857C18.5239 18.6899 18.3634 19.0775 18.0776 19.3632C17.7918 19.649 17.4042 19.8095 17.0001 19.8095H15.4763C15.0721 19.8095 14.6845 19.649 14.3988 19.3632C14.113 19.0775 13.9524 18.6899 13.9524 18.2857V16.7619C13.9524 16.3578 14.113 15.9702 14.3988 15.6844C14.6845 15.3986 15.0721 15.2381 15.4763 15.2381H17.0001C17.4042 15.2381 17.7918 15.3986 18.0776 15.6844C18.3634 15.9702 18.5239 16.3578 18.5239 16.7619V18.2857ZM26.9049 26.6667C26.9049 27.0709 26.7444 27.4585 26.4586 27.7442C26.1728 28.03 25.7852 28.1905 25.3811 28.1905H23.8573C23.4531 28.1905 23.0655 28.03 22.7798 27.7442C22.494 27.4585 22.3334 27.0709 22.3334 26.6667V25.1429C22.3334 24.7388 22.494 24.3512 22.7798 24.0654C23.0655 23.7796 23.4531 23.6191 23.8573 23.6191H25.3811C25.7852 23.6191 26.1728 23.7796 26.4586 24.0654C26.7444 24.3512 26.9049 24.7388 26.9049 25.1429V26.6667ZM26.9049 18.2857C26.9049 18.6899 26.7444 19.0775 26.4586 19.3632C26.1728 19.649 25.7852 19.8095 25.3811 19.8095H23.8573C23.4531 19.8095 23.0655 19.649 22.7798 19.3632C22.494 19.0775 22.3334 18.6899 22.3334 18.2857V16.7619C22.3334 16.3578 22.494 15.9702 22.7798 15.6844C23.0655 15.3986 23.4531 15.2381 23.8573 15.2381H25.3811C25.7852 15.2381 26.1728 15.3986 26.4586 15.6844C26.7444 15.9702 26.9049 16.3578 26.9049 16.7619V18.2857ZM31.4764 9.90473V5.33328C31.4764 4.525 31.1553 3.74982 30.5837 3.17828C30.0122 2.60673 29.237 2.28564 28.4287 2.28564H27.6668V3.04755C27.6668 4.72832 26.2999 6.09519 24.6192 6.09519C22.9384 6.09519 21.5715 4.72832 21.5715 3.04755V2.28564H10.9048V3.04755C10.9048 4.72832 9.53795 6.09519 7.85718 6.09519C6.17641 6.09519 4.80954 4.72832 4.80954 3.04755V2.28564H4.04764C3.23935 2.28564 2.46417 2.60673 1.89263 3.17828C1.32109 3.74982 1 4.525 1 5.33328V9.90473H31.4764Z" fill="#7544F1"/>
</svg>
