<svg width="40" height="40" viewBox="0 0 40 40" fill="none" xmlns="http://www.w3.org/2000/svg">
<path d="M4.6127 31.1984C3.2761 31.1984 1.97029 30.8573 0.786846 30.1927C0.177949 29.8792 -0.0578878 29.0946 0.305867 28.5045C1.51445 26.5732 1.95088 24.2125 1.39753 21.9923C0.823974 19.6907 -0.00590875 17.7522 3.17148e-05 15.3156C0.0206253 6.76722 7.13581 -0.162922 15.6755 0.00291561C23.9239 0.169051 30.7216 7.10276 30.7217 15.3533C30.7218 26.1286 19.4292 33.6937 9.45982 29.5328C8.08569 30.6113 6.3585 31.1984 4.6127 31.1984ZM2.98858 28.5675C4.86656 29.1508 6.97869 28.6849 8.42687 27.2848C8.6011 27.1163 8.82269 27.0051 9.0619 26.9662C9.30112 26.9273 9.54652 26.9625 9.76516 27.0671C18.3003 31.1479 28.3455 24.7516 28.3454 15.3533C28.3454 8.34015 22.6402 2.51979 15.6277 2.37861C8.40094 2.23504 2.39364 8.08798 2.37622 15.3214C2.37057 17.6357 3.27352 19.4853 3.76698 21.6776C4.28687 23.9879 4.01301 26.431 2.98858 28.5675Z" fill="white"/>
<path d="M35.3859 40.0001C33.6402 40.0001 31.9129 39.413 30.539 38.3346C25.2372 40.5473 18.9306 39.5396 14.5834 35.7854C14.0868 35.3565 14.032 34.6063 14.4608 34.1096C14.8897 33.6131 15.6398 33.558 16.1365 33.987C19.992 37.3167 25.6385 38.0657 30.2336 35.8689C30.4522 35.7643 30.6976 35.7291 30.9368 35.768C31.1761 35.8069 31.3976 35.9181 31.5719 36.0866C33.0199 37.4866 35.1322 37.9528 37.0102 37.3692C35.8017 34.8486 35.6342 31.9608 36.5708 29.2874C36.5792 29.2634 36.5884 29.2397 36.5983 29.2162C37.2822 27.6038 37.6269 25.8902 37.6226 24.1231C37.6151 21.0075 36.5787 18.1255 34.6253 15.7884C34.2045 15.2849 34.2715 14.5357 34.775 14.1149C35.2783 13.694 36.0277 13.7612 36.4485 14.2646C38.7292 16.9934 39.9901 20.4924 39.9988 24.1174C40.0039 26.1937 39.601 28.2087 38.8015 30.1072C37.9617 32.5382 38.3479 35.141 39.6928 37.306C40.0568 37.8963 39.8208 38.6809 39.2117 38.9947C38.0285 39.6589 36.7223 40 35.3859 40.0001Z" fill="white"/>
<path d="M15.3643 17.2915C16.4026 17.2915 17.2443 16.4503 17.2443 15.4125C17.2443 14.3748 16.4026 13.5336 15.3643 13.5336C14.3261 13.5336 13.4844 14.3748 13.4844 15.4125C13.4844 16.4503 14.3261 17.2915 15.3643 17.2915Z" fill="white"/>
<path d="M8.43465 17.2915C9.47292 17.2915 10.3146 16.4503 10.3146 15.4125C10.3146 14.3748 9.47292 13.5336 8.43465 13.5336C7.39637 13.5336 6.55469 14.3748 6.55469 15.4125C6.55469 16.4503 7.39637 17.2915 8.43465 17.2915Z" fill="white"/>
<path d="M22.2862 17.2915C23.3245 17.2915 24.1662 16.4503 24.1662 15.4125C24.1662 14.3748 23.3245 13.5336 22.2862 13.5336C21.2479 13.5336 20.4062 14.3748 20.4062 15.4125C20.4062 16.4503 21.2479 17.2915 22.2862 17.2915Z" fill="white"/>
</svg>
