<svg width="24" height="24" viewBox="0 0 24 24" fill="none" xmlns="http://www.w3.org/2000/svg">
<path d="M19.9726 7.71425V8.12806L20.265 8.42087L22.4146 10.5734C22.4148 10.5736 22.4151 10.5739 22.4153 10.5742C22.7881 10.9494 22.9973 11.4568 22.9973 11.9858C22.9973 12.5148 22.7879 13.0224 22.415 13.3977C22.4149 13.3978 22.4147 13.398 22.4146 13.3981L20.2642 15.5505L19.9716 15.8433V16.2573V17.9749C19.9716 17.975 19.9716 17.9751 19.9716 17.9753C19.9714 18.5038 19.7615 19.0107 19.388 19.3847C19.0146 19.7585 18.5083 19.9691 17.98 19.9703C17.9796 19.9703 17.9793 19.9703 17.979 19.9703L16.2646 19.9703H15.8501L15.5572 20.2635L13.4065 22.4161C13.4064 22.4163 13.4063 22.4164 13.4062 22.4165C13.0282 22.7943 12.5315 23.0003 11.9986 23.0003C11.4654 23.0003 10.9678 22.794 10.5901 22.4165C10.59 22.4164 10.5898 22.4163 10.5897 22.4161L8.43907 20.2635L8.14612 19.9703H7.73163L6.01764 19.9703C6.01735 19.9703 6.01706 19.9703 6.01677 19.9703C5.48837 19.969 4.982 19.7583 4.6086 19.3844C4.23515 19.0105 4.02516 18.5037 4.02463 17.9753C4.02463 17.9752 4.02463 17.9752 4.02463 17.9752C4.02463 17.975 4.02463 17.9748 4.02463 17.9746L4.02463 16.2573V15.8434L3.73223 15.5506L1.58271 13.3981C1.58249 13.3979 1.58226 13.3977 1.58204 13.3974C1.20924 13.0222 1 12.5147 1 11.9858C1 11.4568 1.20923 10.9493 1.582 10.5741C1.58224 10.5739 1.58247 10.5736 1.58271 10.5734L3.73307 8.42103L4.02563 8.12819V7.71425V5.99658C4.02563 5.99647 4.02563 5.99636 4.02563 5.99625C4.0259 5.46769 4.2358 4.96081 4.60931 4.5868C4.98271 4.2129 5.48913 4.00234 6.01753 4.00125H7.73263H8.14712L8.44007 3.70803L10.5911 1.55504C10.5911 1.55504 10.5911 1.55503 10.5911 1.55503C11.3302 0.815268 12.6665 0.814714 13.4072 1.55503L13.4075 1.55536L15.5582 3.70803L15.8511 4.00125H16.2656H17.9805C18.5089 4.00254 19.0153 4.21319 19.3887 4.5871C19.7623 4.9612 19.9723 5.4682 19.9726 5.99692V7.71425Z" fill="#7544F1" stroke="#7544F1" stroke-width="2"/>
<path d="M18.2022 10.2114L13.1482 15.2064C12.5342 15.8164 11.7252 16.1224 10.9172 16.1224C10.1092 16.1224 9.30418 15.8174 8.68818 15.2094L6.08918 12.7104C5.99588 12.618 5.9217 12.508 5.87087 12.3869C5.82005 12.2658 5.79358 12.1359 5.79298 12.0045C5.79238 11.8732 5.81765 11.743 5.86736 11.6214C5.91706 11.4998 5.99023 11.3892 6.08268 11.2959C6.17513 11.2026 6.28506 11.1284 6.40617 11.0776C6.52729 11.0268 6.65724 11.0003 6.78859 10.9997C6.91993 10.9991 7.05012 11.0244 7.1717 11.0741C7.29328 11.1238 7.40388 11.197 7.49718 11.2894L10.0952 13.7874C10.3142 14.0036 10.6095 14.1248 10.9172 14.1248C11.2249 14.1248 11.5202 14.0036 11.7392 13.7874L16.7942 8.79142C16.9826 8.60471 17.2375 8.5005 17.5028 8.50172C17.768 8.50294 18.022 8.60949 18.2087 8.79792C18.3954 8.98636 18.4996 9.24125 18.4984 9.50652C18.4972 9.77179 18.3906 10.0247 18.2022 10.2114Z" fill="white"/>
</svg>
