<svg width="20" height="20" viewBox="0 0 20 20" fill="none" xmlns="http://www.w3.org/2000/svg">
<g clip-path="url(#clip0_419_1555)">
<path d="M11.8323 10.0163L19.62 2.22847C20.1268 1.72189 20.1268 0.902806 19.62 0.39629C19.1134 -0.110287 18.2943 -0.110287 17.7878 0.39629L9.99991 8.18409L2.21229 0.39629C1.70547 -0.110287 0.886691 -0.110287 0.380115 0.39629C-0.126705 0.902867 -0.126705 1.72189 0.380115 2.22847L8.16767 10.0163L0.380175 17.8041C-0.126644 18.3107 -0.126644 19.1298 0.380175 19.6363C0.500338 19.7568 0.643127 19.8524 0.80034 19.9175C0.957552 19.9827 1.12609 20.0161 1.29627 20.0159C1.62791 20.0159 1.95967 19.889 2.21236 19.6363L9.99991 11.8485L17.7878 19.6363C17.908 19.7568 18.0508 19.8524 18.208 19.9175C18.3652 19.9826 18.5337 20.0161 18.7039 20.0159C19.0356 20.0159 19.3673 19.889 19.62 19.6363C20.1268 19.1297 20.1268 18.3107 19.62 17.8041L11.8323 10.0163Z" fill="#323756"/>
</g>
<defs>
<clipPath id="clip0_419_1555">
<rect width="20" height="20" fill="white"/>
</clipPath>
</defs>
</svg>
