<svg width="18" height="18" viewBox="0 0 18 18" fill="none" xmlns="http://www.w3.org/2000/svg">
<g clip-path="url(#clip0_230_1802)">
<path d="M1.70631 17.8872C1.26502 17.9129 0.831013 17.7662 0.4958 17.478C-0.165267 16.813 -0.165267 15.739 0.4958 15.074L14.971 0.598744C15.6586 -0.0446363 16.7375 -0.00887115 17.3808 0.678697C17.9626 1.30046 17.9965 2.25613 17.4602 2.91753L2.89976 17.478C2.5689 17.762 2.14182 17.9084 1.70631 17.8872Z" fill="white"/>
<path d="M16.1647 17.8872C15.7174 17.8853 15.2887 17.7078 14.9712 17.3928L0.495906 2.91751C-0.116537 2.20232 -0.0332725 1.126 0.681919 0.513496C1.32025 -0.0331445 2.26165 -0.0331445 2.89992 0.513496L17.4604 14.9887C18.1478 15.6323 18.1833 16.7113 17.5398 17.3987C17.5142 17.426 17.4877 17.4524 17.4604 17.478C17.284 17.6314 17.078 17.7469 16.8551 17.8173C16.6321 17.8877 16.3971 17.9115 16.1647 17.8872Z" fill="white"/>
</g>
<defs>
<clipPath id="clip0_230_1802">
<rect width="18" height="18" fill="white"/>
</clipPath>
</defs>
</svg>
