<svg width="31" height="30" viewBox="0 0 31 30" fill="none" xmlns="http://www.w3.org/2000/svg">
<rect x="0.75" width="30" height="30" rx="15" fill="#EAE6F8"/>
<g clip-path="url(#clip0_436_6188)">
<path d="M18.6051 23.0001H12.6109C12.0112 22.9914 11.4369 22.7567 11.0028 22.3428C10.5687 21.929 10.3068 21.3665 10.2695 20.7679L9.55923 9.96594C9.55559 9.88763 9.56751 9.80936 9.59431 9.73568C9.6211 9.662 9.66223 9.59436 9.71533 9.53668C9.77003 9.47689 9.83626 9.42879 9.91003 9.39526C9.9838 9.36172 10.0636 9.34346 10.1446 9.34155H21.0714C21.1517 9.34138 21.2311 9.35771 21.3048 9.38953C21.3785 9.42136 21.4449 9.468 21.4998 9.52656C21.5547 9.58512 21.5969 9.65435 21.624 9.72993C21.651 9.80552 21.6621 9.88585 21.6568 9.96594L20.9778 20.7679C20.9401 21.3718 20.6738 21.9388 20.2331 22.3534C19.7923 22.7681 19.2102 22.9993 18.6051 23.0001ZM10.8002 10.5123L11.4012 20.6976C11.421 21.0048 11.5572 21.2928 11.782 21.5031C12.0067 21.7133 12.3032 21.83 12.6109 21.8294H18.6051C18.9123 21.8282 19.2077 21.7108 19.4321 21.501C19.6565 21.2911 19.7932 21.0041 19.8148 20.6976L20.447 10.5513L10.8002 10.5123Z" fill="#708090"/>
<path d="M22.6341 10.5123H8.58537C8.43012 10.5123 8.28123 10.4506 8.17145 10.3408C8.06167 10.2311 8 10.0822 8 9.92692C8 9.77167 8.06167 9.62278 8.17145 9.513C8.28123 9.40322 8.43012 9.34155 8.58537 9.34155H22.6341C22.7894 9.34155 22.9383 9.40322 23.0481 9.513C23.1578 9.62278 23.2195 9.77167 23.2195 9.92692C23.2195 10.0822 23.1578 10.2311 23.0481 10.3408C22.9383 10.4506 22.7894 10.5123 22.6341 10.5123Z" fill="#708090"/>
<path d="M17.9519 10.5122H13.269C13.1143 10.5102 12.9666 10.4479 12.8573 10.3385C12.7479 10.2292 12.6856 10.0814 12.6836 9.92683V8.52195C12.6935 8.12142 12.857 7.74003 13.1403 7.45672C13.4236 7.17342 13.805 7.00989 14.2055 7H17.0153C17.4225 7.01018 17.8096 7.17913 18.0939 7.47077C18.3783 7.76241 18.5374 8.15365 18.5373 8.56098V9.92683C18.5352 10.0814 18.4729 10.2292 18.3636 10.3385C18.2542 10.4479 18.1065 10.5102 17.9519 10.5122ZM13.8543 9.34146H17.3665V8.56098C17.3665 8.46783 17.3295 8.37849 17.2637 8.31263C17.1978 8.24676 17.1085 8.20976 17.0153 8.20976H14.2055C14.1124 8.20976 14.0231 8.24676 13.9572 8.31263C13.8913 8.37849 13.8543 8.46783 13.8543 8.56098V9.34146ZM17.9519 19.878C17.7973 19.876 17.6495 19.8137 17.5402 19.7044C17.4309 19.595 17.3685 19.4473 17.3665 19.2927V13.0488C17.3665 12.8935 17.4282 12.7446 17.538 12.6349C17.6477 12.5251 17.7966 12.4634 17.9519 12.4634C18.1071 12.4634 18.256 12.5251 18.3658 12.6349C18.4756 12.7446 18.5373 12.8935 18.5373 13.0488V19.2927C18.5352 19.4473 18.4729 19.595 18.3636 19.7044C18.2542 19.8137 18.1065 19.876 17.9519 19.878ZM13.269 19.878C13.1143 19.876 12.9666 19.8137 12.8573 19.7044C12.7479 19.595 12.6856 19.4473 12.6836 19.2927V13.0488C12.6836 12.8935 12.7453 12.7446 12.855 12.6349C12.9648 12.5251 13.1137 12.4634 13.269 12.4634C13.4242 12.4634 13.5731 12.5251 13.6829 12.6349C13.7927 12.7446 13.8543 12.8935 13.8543 13.0488V19.2927C13.8523 19.4473 13.79 19.595 13.6806 19.7044C13.5713 19.8137 13.4236 19.876 13.269 19.878ZM15.6104 19.878C15.4558 19.876 15.3081 19.8137 15.1987 19.7044C15.0894 19.595 15.0271 19.4473 15.0251 19.2927V13.0488C15.0251 12.8935 15.0867 12.7446 15.1965 12.6349C15.3063 12.5251 15.4552 12.4634 15.6104 12.4634C15.7657 12.4634 15.9146 12.5251 16.0243 12.6349C16.1341 12.7446 16.1958 12.8935 16.1958 13.0488V19.2927C16.1938 19.4473 16.1314 19.595 16.0221 19.7044C15.9128 19.8137 15.765 19.876 15.6104 19.878Z" fill="#708090"/>
</g>
<defs>
<clipPath id="clip0_436_6188">
<rect width="16" height="16" fill="white" transform="translate(7.75 7)"/>
</clipPath>
</defs>
</svg>
