<svg width="70" height="71" viewBox="0 0 70 71" fill="none" xmlns="http://www.w3.org/2000/svg">
<g clip-path="url(#clip0_215_245)">
<path d="M39.761 47.3775C39.4996 47.0912 39.1688 46.8771 38.827 46.6987C38.0829 46.3106 37.269 46.0752 36.4609 45.8628V52.1245C37.7726 51.9763 39.2784 51.5002 39.967 50.2758C40.2958 49.6909 40.3612 48.9722 40.2273 48.3211C40.1546 47.9683 40.0046 47.6445 39.761 47.3775Z" fill="#7544F1"/>
<path d="M39.9572 50.2878L39.9641 50.2757C39.9618 50.2797 39.9595 50.2837 39.9572 50.2878ZM30.3058 37.3675C30.0803 37.6967 29.9388 38.0708 29.8998 38.4684C29.8607 38.8669 29.8826 39.3101 30.034 39.6852C30.1781 40.0426 30.4801 40.3065 30.7917 40.5189C31.1414 40.7568 31.526 40.9426 31.9177 41.1C32.2463 41.2323 32.6159 41.3588 33.0143 41.481V35.8149C32.0078 36.0297 30.908 36.4882 30.3058 37.3675ZM39.9901 50.2295C39.9819 50.2441 39.973 50.2594 39.9643 50.2756C39.9745 50.2568 39.9825 50.243 39.9901 50.2295ZM40.0231 50.1708C40.0252 50.1669 40.0255 50.1665 40.0231 50.1708V50.1708Z" fill="#7544F1"/>
<path d="M38.6669 16.109C43.9919 11.6358 47.55 1.55808 45.3603 1.11731C42.4508 0.531422 36.1327 3.10046 33.0789 3.55309C28.7476 4.07606 24.0302 -1.14372 21.3823 1.76579C19.2293 4.1314 22.9258 12.7344 28.7091 16.4823C11.455 24.9624 -12.7968 67.5333 29.5117 70.6222C88.0528 74.8963 58.7392 24.3727 38.6669 16.109ZM43.6944 49.6825C43.5144 51.3421 42.6348 52.843 41.3201 53.8619C39.9318 54.9378 38.1907 55.4382 36.4607 55.5784V57.4121C36.4607 57.9028 36.2464 58.3774 35.8791 58.7022C35.3742 59.1489 34.6324 59.2591 34.0196 58.9768C33.4146 58.6984 33.0172 58.0779 33.0172 57.4121V55.4079C32.7205 55.352 32.4262 55.2842 32.135 55.2047C30.5181 54.7604 29.0184 53.8945 27.9229 52.6134C27.3772 51.9748 26.9323 51.2502 26.6246 50.468C26.5443 50.2634 26.4726 50.0555 26.4098 49.8449C26.353 49.6543 26.2944 49.4606 26.2741 49.2619C26.2405 48.9273 26.3056 48.5901 26.4614 48.2919C26.7806 47.6814 27.4533 47.3126 28.1402 47.3738C28.8161 47.4338 29.4086 47.9029 29.6214 48.5473C29.687 48.7457 29.7315 48.9492 29.8051 49.1455C29.8778 49.3407 29.9664 49.5297 30.0698 49.7106C30.2752 50.067 30.5297 50.3928 30.8258 50.6783C31.4343 51.2645 32.2093 51.6455 33.0172 51.8722V45.0593C31.4374 44.6503 29.8067 44.1221 28.5022 43.1077C27.8682 42.6146 27.3303 42.0019 26.9779 41.2766C26.6062 40.5112 26.4522 39.6585 26.4459 38.8115C26.4395 37.9516 26.6029 37.0992 26.9616 36.3156C27.2977 35.582 27.7814 34.9233 28.3746 34.3773C29.6428 33.2099 31.3275 32.5588 33.0173 32.3197V30.4161C33.0173 29.9256 33.2316 29.4508 33.5989 29.126C34.104 28.6795 34.8455 28.5691 35.4584 28.8515C36.0632 29.13 36.4608 29.7503 36.4608 30.4161V32.3093C36.686 32.3376 36.9105 32.3716 37.1339 32.4121C38.7932 32.7123 40.4161 33.3976 41.6296 34.5939C42.2064 35.1627 42.673 35.8333 43.0059 36.5719C43.0982 36.7774 43.1794 36.9876 43.2492 37.2018C43.3144 37.4016 43.38 37.6073 43.4111 37.8158C43.4604 38.1499 43.4105 38.4912 43.2676 38.7972C42.9758 39.4211 42.3212 39.8184 41.6325 39.7889C40.9559 39.7595 40.3428 39.3188 40.1005 38.6863C40.0284 38.4982 39.9923 38.2991 39.9187 38.1115C39.8434 37.9217 39.7491 37.7401 39.6373 37.5693C39.4219 37.2365 39.1427 36.9513 38.824 36.7162C38.1338 36.2066 37.2968 35.9411 36.4603 35.7927V42.3123C37.4544 42.5504 38.4493 42.8099 39.4016 43.1855C40.8411 43.7531 42.2051 44.6234 42.9907 45.9958C42.8689 45.782 42.7503 45.5737 42.9949 46.0029C43.235 46.4246 43.1204 46.2236 42.9998 46.0123C43.6249 47.1139 43.8303 48.4311 43.6944 49.6825Z" fill="#7544F1"/>
<path d="M39.9398 50.3201L39.9141 50.3659C39.92 50.3555 39.9289 50.3398 39.9398 50.3201Z" fill="#7544F1"/>
</g>
<defs>
<clipPath id="clip0_215_245">
<rect width="70" height="70" fill="white" transform="translate(0 0.878174)"/>
</clipPath>
</defs>
</svg>
