<svg width="51" height="51" viewBox="0 0 51 51" fill="none" xmlns="http://www.w3.org/2000/svg">
<g clip-path="url(#clip0_215_189)">
<path d="M7.65623 5.27284C7.65623 6.8908 6.34452 8.20251 4.72655 8.20251C3.10859 8.20251 1.79688 6.8908 1.79688 5.27284C1.79688 3.65487 3.10859 2.34316 4.72655 2.34316C6.34452 2.34316 7.65623 3.65487 7.65623 5.27284Z" stroke="#ED9144" stroke-width="3" stroke-miterlimit="10" stroke-linecap="round" stroke-linejoin="round"/>
<path d="M7.65623 46.4837C7.65623 48.1016 6.34452 49.4133 4.72655 49.4133C3.10859 49.4133 1.79688 48.1016 1.79688 46.4837C1.79688 44.8657 3.10859 43.554 4.72655 43.554C6.34452 43.554 7.65623 44.8657 7.65623 46.4837Z" stroke="#ED9144" stroke-width="3" stroke-miterlimit="10" stroke-linecap="round" stroke-linejoin="round"/>
<path d="M48.8672 5.27284C48.8672 6.8908 47.5555 8.20251 45.9375 8.20251C44.3195 8.20251 43.0078 6.8908 43.0078 5.27284C43.0078 3.65487 44.3195 2.34316 45.9375 2.34316C47.5555 2.34316 48.8672 3.65487 48.8672 5.27284Z" stroke="#ED9144" stroke-width="3" stroke-miterlimit="10" stroke-linecap="round" stroke-linejoin="round"/>
<path d="M48.8672 46.4837C48.8672 48.1016 47.5555 49.4133 45.9375 49.4133C44.3195 49.4133 43.0078 48.1016 43.0078 46.4837C43.0078 44.8657 44.3195 43.554 45.9375 43.554C47.5555 43.554 48.8672 44.8657 48.8672 46.4837Z" stroke="#ED9144" stroke-width="3" stroke-miterlimit="10" stroke-linecap="round" stroke-linejoin="round"/>
<path d="M39.9765 25.8782C39.9765 33.9683 33.4182 40.5266 25.3281 40.5266C17.238 40.5266 10.6797 33.9683 10.6797 25.8782C10.6797 17.7881 17.238 11.2298 25.3281 11.2298C33.4182 11.2298 39.9765 17.7881 39.9765 25.8782Z" stroke="#ED9144" stroke-width="3" stroke-miterlimit="10" stroke-linecap="round" stroke-linejoin="round"/>
<path d="M31.1875 25.8782C31.1875 33.9683 28.5641 40.5266 25.3281 40.5266C22.0921 40.5266 19.4688 33.9683 19.4688 25.8782C19.4688 17.7881 22.0921 11.2298 25.3281 11.2298C28.5641 11.2298 31.1875 17.7881 31.1875 25.8782Z" stroke="#ED9144" stroke-width="3" stroke-miterlimit="10" stroke-linecap="round" stroke-linejoin="round"/>
<path d="M10.6797 25.8782H39.9765" stroke="#ED9144" stroke-width="3" stroke-miterlimit="10" stroke-linecap="round" stroke-linejoin="round"/>
<path d="M6.79688 7.34441L14.9727 15.5203" stroke="#ED9144" stroke-width="3" stroke-miterlimit="10" stroke-linecap="round" stroke-linejoin="round"/>
<path d="M43.8634 7.34441L35.6875 15.5203" stroke="#ED9144" stroke-width="3" stroke-miterlimit="10" stroke-linecap="round" stroke-linejoin="round"/>
<path d="M35.6875 36.2363L43.8634 44.4121" stroke="#ED9144" stroke-width="3" stroke-miterlimit="10" stroke-linecap="round" stroke-linejoin="round"/>
<path d="M14.9727 36.2363L6.79688 44.4121" stroke="#ED9144" stroke-width="3" stroke-miterlimit="10" stroke-linecap="round" stroke-linejoin="round"/>
</g>
<defs>
<clipPath id="clip0_215_189">
<rect width="50" height="50" fill="white" transform="translate(0.335938 0.878174)"/>
</clipPath>
</defs>
</svg>
