<svg width="16" height="16" viewBox="0 0 16 16" fill="none" xmlns="http://www.w3.org/2000/svg">
<g clip-path="url(#clip0_0_7)">
<path d="M9.8307 1.23535L10.4856 0.580465C11.2595 -0.193488 12.6065 -0.193488 13.3805 0.580465L13.9088 1.10884C14.0995 1.29785 14.2508 1.52274 14.354 1.77053C14.4573 2.01832 14.5104 2.28411 14.5104 2.55256C14.5104 2.821 14.4573 3.08679 14.354 3.33458C14.2508 3.58238 14.0995 3.80727 13.9088 3.99628L13.254 4.65116L9.8307 1.22791V1.23535ZM9.04186 2.02419L2.26233 8.80372C2.04651 9.01953 1.91256 9.30233 1.89023 9.60744L1.6893 11.7879C1.66698 12.0633 1.76372 12.3312 1.95721 12.5321C2.13581 12.7107 2.36651 12.8074 2.61209 12.8074H2.69395L4.87442 12.6065C5.17954 12.5767 5.46233 12.4428 5.67814 12.227L12.4577 5.44744L9.03442 2.02419H9.04186ZM16 15.1814C16 14.8763 15.747 14.6233 15.4419 14.6233H0.55814C0.253023 14.6233 0 14.8763 0 15.1814C0 15.4865 0.253023 15.7395 0.55814 15.7395H15.4419C15.747 15.7395 16 15.4865 16 15.1814Z" fill="white"/>
</g>
<defs>
<clipPath id="clip0_0_7">
<rect width="16" height="16" fill="white"/>
</clipPath>
</defs>
</svg>
