<svg width="51" height="51" viewBox="0 0 51 51" fill="none" xmlns="http://www.w3.org/2000/svg">
<g clip-path="url(#clip0_215_221)">
<path d="M50.2425 35.1935L46.3697 31.3206V18.0363L48.8981 17.1248C49.1815 17.0228 49.4266 16.8358 49.5999 16.5894C49.7731 16.343 49.8662 16.0492 49.8665 15.7479C49.8667 15.4467 49.774 15.1527 49.6011 14.9061C49.4281 14.6595 49.1833 14.4722 48.9 14.3697L25.7675 5.99218C25.4452 5.87549 25.0923 5.87549 24.77 5.99218L1.63758 14.3697C1.3555 14.4719 1.11162 14.6583 0.938911 14.9037C0.766202 15.149 0.672993 15.4415 0.671885 15.7415C0.670777 16.0415 0.761825 16.3347 0.932718 16.5813C1.10361 16.8279 1.34611 17.0161 1.62742 17.1204L10.1646 20.2829V29.9359C10.1646 30.2355 10.2564 30.5279 10.4278 30.7736C10.522 30.9087 11.4146 32.1277 13.6999 33.2779C16.587 34.7313 20.3738 35.4683 24.9548 35.4683C29.5325 35.4683 33.3384 34.7329 36.2667 33.2823C38.5746 32.1392 39.4968 30.933 39.5945 30.7993C39.7773 30.5486 39.8758 30.2463 39.8758 29.9361V20.3774L43.4404 19.0923V31.3206L39.5675 35.1935C39.2929 35.4682 39.1386 35.8407 39.1386 36.2291C39.1386 36.6176 39.2929 36.9901 39.5675 37.2648L43.4404 41.1376V44.3869C43.4404 45.1959 44.0962 45.8516 44.9051 45.8516C45.714 45.8516 46.3698 45.1959 46.3698 44.3869V41.1376L50.2426 37.2648C50.8146 36.693 50.8146 35.7654 50.2425 35.1935ZM25.2688 8.92715L44.0913 15.7438L24.9617 22.6405L6.39474 15.7624L25.2688 8.92715ZM36.9463 29.3522C31.9391 33.8578 17.0598 33.3411 13.094 29.3668V21.3682L24.4459 25.5734C24.6261 25.6019 24.7962 25.7573 25.4515 25.5779L36.9464 21.4338L36.9463 29.3522ZM44.905 38.4596L42.6745 36.2291L44.905 33.9986L47.1355 36.2291L44.905 38.4596Z" fill="#18BC86"/>
</g>
<defs>
<clipPath id="clip0_215_221">
<rect width="50" height="50" fill="white" transform="translate(0.671875 0.878174)"/>
</clipPath>
</defs>
</svg>
