<svg width="456" height="458" viewBox="0 0 456 458" fill="none" xmlns="http://www.w3.org/2000/svg">
<g opacity="0.08">
<mask id="path-1-inside-1_1_4" fill="white">
<ellipse cx="233.602" cy="231.385" rx="81.5" ry="82" transform="rotate(-37.5945 233.602 231.385)"/>
</mask>
<path d="M211.02 248.772C201.974 237.022 203.547 219.188 216.52 209.199L350.735 383.516C435.038 318.607 449.64 198.073 385.337 114.557L211.02 248.772ZM216.52 209.199C229.494 199.21 247.137 202.248 256.184 213.998L81.8673 348.213C146.171 431.729 266.433 448.424 350.735 383.516L216.52 209.199ZM256.184 213.998C265.23 225.747 263.657 243.582 250.684 253.571L116.469 79.2539C32.1662 144.163 17.564 264.697 81.8673 348.213L256.184 213.998ZM250.684 253.571C237.71 263.559 220.067 260.521 211.02 248.772L385.337 114.557C321.033 31.0404 200.771 14.3451 116.469 79.2539L250.684 253.571Z" fill="white" mask="url(#path-1-inside-1_1_4)"/>
</g>
<path opacity="0.06" d="M401 229.195C401 325.13 323.432 402.695 228 402.695C132.568 402.695 55 325.13 55 229.195C55 133.26 132.568 55.6953 228 55.6953C323.432 55.6953 401 133.26 401 229.195Z" stroke="white" stroke-width="110"/>
</svg>
