<svg width="20" height="21" viewBox="0 0 20 21" fill="none" xmlns="http://www.w3.org/2000/svg">
<path opacity="0.75" d="M2.44779 5.03453C2.11641 4.786 1.64631 4.85316 1.39779 5.18454C1.14926 5.51591 1.21642 5.98601 1.54779 6.23454L2.44779 5.03453ZM8.19779 10.2845L7.74779 10.8845L7.7478 10.8845L8.19779 10.2845ZM11.7978 10.2845L12.2478 10.8845L12.2478 10.8845L11.7978 10.2845ZM18.4478 6.23448C18.7792 5.98595 18.8463 5.51585 18.5978 5.18448C18.3493 4.85311 17.8792 4.78595 17.5478 5.03448L18.4478 6.23448ZM1.54779 6.23454L7.74779 10.8845L8.64779 9.68448L2.44779 5.03453L1.54779 6.23454ZM7.7478 10.8845C9.08116 11.8845 10.9144 11.8845 12.2478 10.8845L11.3478 9.68448C10.5478 10.2845 9.44782 10.2845 8.64778 9.68448L7.7478 10.8845ZM12.2478 10.8845L18.4478 6.23448L17.5478 5.03448L11.3478 9.68448L12.2478 10.8845ZM3 4.38428H17V2.88428H3V4.38428ZM17 4.38428C17.6904 4.38428 18.25 4.94392 18.25 5.63428H19.75C19.75 4.11549 18.5188 2.88428 17 2.88428V4.38428ZM18.25 5.63428V15.6343H19.75V5.63428H18.25ZM18.25 15.6343C18.25 16.3246 17.6904 16.8843 17 16.8843V18.3843C18.5188 18.3843 19.75 17.1531 19.75 15.6343H18.25ZM17 16.8843H3V18.3843H17V16.8843ZM3 16.8843C2.30964 16.8843 1.75 16.3246 1.75 15.6343H0.25C0.25 17.1531 1.48122 18.3843 3 18.3843V16.8843ZM1.75 15.6343V5.63428H0.25V15.6343H1.75ZM1.75 5.63428C1.75 4.94392 2.30964 4.38428 3 4.38428V2.88428C1.48122 2.88428 0.25 4.11549 0.25 5.63428H1.75Z" fill="white"/>
</svg>
