<svg width="40" height="41" viewBox="0 0 40 41" fill="none" xmlns="http://www.w3.org/2000/svg">
<rect y="0.938965" width="40" height="40" rx="8" fill="white"/>
<path d="M21.6714 23.1925C21.1739 23.5242 20.5959 23.6996 20 23.6996C19.4041 23.6996 18.8262 23.5242 18.3286 23.1925L10.1332 17.7287C10.0879 17.6985 10.0435 17.667 10 17.6343V26.5873C10 27.6138 10.833 28.4285 11.8411 28.4285H28.1588C29.1853 28.4285 30 27.5954 30 26.5873V17.6343C29.9564 17.667 29.9119 17.6986 29.8665 17.7289L21.6714 23.1925Z" fill="#B275B2"/>
<path d="M10.7832 16.7536L18.9786 22.2174C19.2889 22.4243 19.6444 22.5277 20 22.5277C20.3555 22.5277 20.7111 22.4242 21.0214 22.2174L29.2168 16.7536C29.7072 16.4268 30 15.88 30 15.2897C30 14.2748 29.1743 13.4492 28.1595 13.4492H11.8405C10.8257 13.4493 10 14.2749 10 15.2907C9.9997 15.5802 10.0711 15.8653 10.2077 16.1206C10.3444 16.3759 10.5421 16.5933 10.7832 16.7536Z" fill="#B275B2"/>
</svg>
