<svg width="20" height="21" viewBox="0 0 20 21" fill="none" xmlns="http://www.w3.org/2000/svg">
<g clip-path="url(#clip0_333_4319)">
<path d="M10 4.97827C6.17879 4.97827 2.71351 7.06889 0.15649 10.4646C-0.0521632 10.7428 -0.0521632 11.1315 0.15649 11.4097C2.71351 14.8095 6.17879 16.9001 10 16.9001C13.8212 16.9001 17.2865 14.8095 19.8435 11.4138C20.0522 11.1356 20.0522 10.7469 19.8435 10.4687C17.2865 7.06889 13.8212 4.97827 10 4.97827ZM10.2741 15.1368C7.73755 15.2964 5.64284 13.2057 5.80239 10.6651C5.93331 8.57037 7.63118 6.87251 9.72589 6.74159C12.2625 6.58204 14.3572 8.67266 14.1976 11.2133C14.0626 13.3039 12.3647 15.0018 10.2741 15.1368ZM10.1473 13.1976C8.78081 13.2835 7.65163 12.1584 7.74164 10.7919C7.81119 9.66273 8.72763 8.75039 9.85681 8.67675C11.2233 8.59083 12.3525 9.71592 12.2625 11.0824C12.1888 12.2157 11.2724 13.128 10.1473 13.1976Z" fill="#708090"/>
</g>
<defs>
<clipPath id="clip0_333_4319">
<rect width="20" height="20" fill="white" transform="translate(0 0.939209)"/>
</clipPath>
</defs>
</svg>
