<svg width="33" height="33" viewBox="0 0 33 33" fill="none" xmlns="http://www.w3.org/2000/svg">
<path d="M17.0023 24.4976L14.3023 31.8241C14.2224 32.0394 14.0785 32.2251 13.8899 32.3563C13.7014 32.4874 13.4772 32.5577 13.2476 32.5577C13.0179 32.5577 12.7938 32.4874 12.6052 32.3563C12.4167 32.2251 12.2728 32.0394 12.1929 31.8241L9.49289 24.4976C9.43591 24.3429 9.34605 24.2025 9.22951 24.086C9.11298 23.9694 8.97254 23.8796 8.81789 23.8226L1.49133 21.1226C1.27603 21.0427 1.09035 20.8988 0.959221 20.7102C0.828096 20.5217 0.757812 20.2975 0.757812 20.0679C0.757812 19.8382 0.828096 19.6141 0.959221 19.4256C1.09035 19.237 1.27603 19.0931 1.49133 19.0132L8.81789 16.3132C8.97254 16.2562 9.11298 16.1664 9.22951 16.0498C9.34605 15.9333 9.43591 15.7928 9.49289 15.6382L12.1929 8.31164C12.2728 8.09634 12.4167 7.91066 12.6052 7.77953C12.7938 7.64841 13.0179 7.57812 13.2476 7.57812C13.4772 7.57812 13.7014 7.64841 13.8899 7.77953C14.0785 7.91066 14.2224 8.09634 14.3023 8.31164L17.0023 15.6382C17.0592 15.7928 17.1491 15.9333 17.2656 16.0498C17.3822 16.1664 17.5226 16.2562 17.6773 16.3132L25.0038 19.0132C25.2191 19.0931 25.4048 19.237 25.5359 19.4256C25.6671 19.6141 25.7373 19.8382 25.7373 20.0679C25.7373 20.2975 25.6671 20.5217 25.5359 20.7102C25.4048 20.8988 25.2191 21.0427 25.0038 21.1226L17.6773 23.8226C17.5226 23.8796 17.3822 23.9694 17.2656 24.086C17.1491 24.2025 17.0592 24.3429 17.0023 24.4976Z" fill="#7544F1"/>
<path d="M22.25 2.06738V8.81738" stroke="#7544F1" stroke-width="2.25" stroke-linecap="round" stroke-linejoin="round"/>
<path d="M25.625 5.44238H18.875" stroke="#7544F1" stroke-width="2.25" stroke-linecap="round" stroke-linejoin="round"/>
<path d="M29 9.94238V14.4424" stroke="#7544F1" stroke-width="2.25" stroke-linecap="round" stroke-linejoin="round"/>
<path d="M31.25 12.1924H26.75" stroke="#7544F1" stroke-width="2.25" stroke-linecap="round" stroke-linejoin="round"/>
</svg>
