<svg width="24" height="25" viewBox="0 0 24 25" fill="none" xmlns="http://www.w3.org/2000/svg">
<path d="M5.31891 15.4426L4.4835 18.5613L1.43011 18.6259C0.517594 16.9334 0 14.9969 0 12.9391C0 10.9492 0.483938 9.07271 1.34175 7.42041H1.34241L4.06078 7.91878L5.25159 10.6208C5.00236 11.3475 4.86652 12.1275 4.86652 12.9391C4.86661 13.82 5.02617 14.664 5.31891 15.4426Z" fill="#FBBB00"/>
<path d="M23.7921 10.6975C23.93 11.4234 24.0018 12.1731 24.0018 12.9393C24.0018 13.7984 23.9115 14.6364 23.7394 15.4448C23.1553 18.1955 21.6289 20.5975 19.5144 22.2973L19.5137 22.2966L16.0898 22.1219L15.6052 19.0969C17.0083 18.274 18.1048 16.9863 18.6823 15.4448H12.2656V10.6975H23.7921Z" fill="#518EF8"/>
<path d="M19.5114 22.2967L19.5121 22.2974C17.4556 23.9503 14.8433 24.9393 11.9996 24.9393C7.42969 24.9393 3.45652 22.3851 1.42969 18.6262L5.31848 15.4429C6.33187 18.1475 8.94089 20.0728 11.9996 20.0728C13.3143 20.0728 14.546 19.7174 15.6029 19.0969L19.5114 22.2967Z" fill="#28B446"/>
<path d="M19.6577 3.70183L15.7702 6.88446C14.6763 6.20074 13.3833 5.80577 11.9981 5.80577C8.87017 5.80577 6.21236 7.81938 5.24973 10.621L1.3405 7.42052H1.33984C3.337 3.56997 7.36028 0.939209 11.9981 0.939209C14.9097 0.939209 17.5794 1.97637 19.6577 3.70183Z" fill="#F14336"/>
</svg>
