<svg width="70" height="67" viewBox="0 0 70 67" fill="none" xmlns="http://www.w3.org/2000/svg">
<path fill-rule="evenodd" clip-rule="evenodd" d="M68.9062 64.7994H64.0328V26.4429C64.0328 26.1529 63.9175 25.8747 63.7124 25.6695C63.5073 25.4644 63.2291 25.3492 62.939 25.3492H52.7748C52.4847 25.3492 52.2065 25.4644 52.0014 25.6695C51.7963 25.8747 51.6811 26.1529 51.6811 26.4429V64.7994H48.7949V34.9397C48.7949 34.6497 48.6797 34.3715 48.4746 34.1663C48.2695 33.9612 47.9913 33.846 47.7012 33.846H37.5367C37.2466 33.846 36.9684 33.9612 36.7633 34.1663C36.5582 34.3715 36.4429 34.6497 36.4429 34.9397V64.7991H33.5568V43.4352C33.5568 43.1451 33.4416 42.8669 33.2364 42.6618C33.0313 42.4566 32.7531 42.3414 32.463 42.3414H22.2988C22.0087 42.3414 21.7305 42.4566 21.5254 42.6618C21.3203 42.8669 21.2051 43.1451 21.2051 43.4352V64.7994H18.3189V51.9314C18.3189 51.6413 18.2037 51.3631 17.9986 51.158C17.7935 50.9529 17.5153 50.8377 17.2252 50.8377H7.06111C6.77103 50.8377 6.49283 50.9529 6.28772 51.158C6.0826 51.3631 5.96736 51.6413 5.96736 51.9314V64.7994H1.09375C0.803669 64.7994 0.52547 64.9146 0.320352 65.1197C0.115234 65.3249 0 65.6031 0 65.8931C0 66.1832 0.115234 66.4614 0.320352 66.6665C0.52547 66.8717 0.803669 66.9869 1.09375 66.9869H68.9062C69.1963 66.9869 69.4745 66.8717 69.6796 66.6665C69.8848 66.4614 70 66.1832 70 65.8931C70 65.6031 69.8848 65.3249 69.6796 65.1197C69.4745 64.9146 69.1963 64.7994 68.9062 64.7994ZM10.4664 40.4383C10.1911 40.4375 9.92618 40.3329 9.72458 40.1455C9.52299 39.958 9.39951 39.7014 9.3788 39.4268C9.35809 39.1523 9.44167 38.8801 9.61285 38.6645C9.78404 38.4488 10.0302 38.3057 10.3023 38.2636C25.01 36.0232 38.5396 26.0625 47.5493 10.8804L42.3266 6.92388C42.1638 6.80056 42.0388 6.63411 41.9657 6.44338C41.8926 6.25266 41.8744 6.04527 41.9131 5.84472C41.9518 5.64417 42.0458 5.45846 42.1847 5.30863C42.3235 5.1588 42.5015 5.05084 42.6985 4.99696L58.4953 0.685537C58.6568 0.641418 58.8264 0.634998 58.9908 0.666774C59.1553 0.698549 59.3103 0.767671 59.4438 0.868808C59.5773 0.969945 59.6858 1.1004 59.7609 1.2501C59.836 1.39981 59.8758 1.56476 59.8771 1.73226L60.0038 18.1061C60.0054 18.3104 59.9497 18.511 59.8431 18.6853C59.7365 18.8595 59.5833 19.0005 59.4007 19.0921C59.2181 19.1837 59.0135 19.2224 58.8101 19.2037C58.6067 19.185 58.4125 19.1098 58.2497 18.9864L54.3889 16.0617C49.1973 22.7858 42.7794 28.4659 35.4743 32.8019C27.3834 37.5794 18.7459 40.2204 10.4958 40.4383H10.4664Z" fill="#B375B3"/>
</svg>
