<svg width="58" height="73" viewBox="0 0 58 73" fill="none" xmlns="http://www.w3.org/2000/svg">
<path d="M21.2957 11.7963C15.7957 29.6058 5.26713 66.1677 7.15284 69.9391" stroke="#7544F1" stroke-width="3" stroke-linecap="round"/>
<path d="M43.2962 3.93909C37.5343 21.2248 26.3247 58.6248 27.5819 69.9391" stroke="#7544F1" stroke-width="3" stroke-linecap="round"/>
<path d="M6.36719 29.0817C13.9624 27.2484 34.4958 24.6817 55.8672 29.0817" stroke="#7544F1" stroke-width="3" stroke-linecap="round"/>
<path d="M2.4375 44.0104C9.24702 42.4389 29.4661 39.7675 55.8661 41.6532" stroke="#7544F1" stroke-width="3" stroke-linecap="round"/>
<path d="M2.74219 45.4017C7.98028 44.3541 23.3773 41.3256 28.3899 41.1807" stroke="#7544F1" stroke-width="3" stroke-linecap="round"/>
<path d="M12.0703 44.3701C17.3084 43.3225 27.3776 41.201 32.3903 41.056" stroke="#7544F1" stroke-width="3" stroke-linecap="round"/>
<path d="M6 27.6952C11.9077 25.6173 27.1113 26.8057 32.124 26.6608" stroke="#7544F1" stroke-width="3" stroke-linecap="round"/>
<path d="M55.8672 29.0818C41.6318 25.3654 34.7892 26.7999 29.7765 26.655" stroke="#7544F1" stroke-width="3" stroke-linecap="round"/>
</svg>
