<svg width="32" height="32" viewBox="0 0 32 32" fill="none" xmlns="http://www.w3.org/2000/svg">
<path d="M10.6477 6.70528C9.30477 9.66583 7.65732 13.2984 6.42146 14.7417C6.1787 14.1811 6.20518 13.241 5.92932 10.9458C5.67994 8.87576 3.9718 8.67824 3.23801 8.825C1.61594 9.16376 1.1227 10.8068 1.17677 11.4126C1.26284 12.3781 1.26725 12.345 1.4438 14.681C1.70311 18.0962 0.384493 20.6749 0.263115 23.5991C0.263115 29.1097 5.09291 31.8176 8.47277 31.8176C11.1773 31.8176 13.8841 30.0873 14.8982 29.2222L19.9696 24.59C20.5897 24.1078 22.1246 22.5144 22.7977 21.5974C24.6339 19.1003 21.979 17.38 20.4871 17.8126C20.6041 17.7221 21.3125 16.5723 21.6513 16.0096C22.5616 14.1811 21.6513 12.964 20.9781 12.6286C19.4521 11.8694 18.3299 12.7235 17.9768 13.1891C18.1125 12.9596 18.5362 12.0305 19.2193 10.3257C19.9023 8.62197 18.8021 7.56928 18.1666 7.2559C16.7873 6.617 15.4764 7.42803 15.1486 8.153C14.9875 8.50721 14.1224 10.404 13.745 11.2393C14.0297 10.5464 14.5439 9.16817 14.726 8.53148C15.0879 7.03079 14.2173 6.00238 13.6645 5.73755C12.8976 5.3701 11.2965 5.2741 10.6631 6.66886L10.6477 6.70528Z" fill="url(#paint0_radial_215_115)"/>
<path d="M10.6472 6.70528C9.30429 9.66583 7.65684 13.2984 6.42098 14.7417C6.17822 14.1811 6.2047 13.241 5.92884 10.9458C5.67946 8.87576 3.97132 8.67824 3.23753 8.825C1.61546 9.16376 1.12222 10.8068 1.17629 11.4126C1.26236 12.3781 1.26677 12.345 1.44332 14.681C1.70263 18.0962 0.384012 20.6749 0.262632 23.5991C0.262632 29.1097 5.09243 31.8176 8.47229 31.8176C11.1768 31.8176 13.8836 30.0873 14.8977 29.2222L19.9691 24.59C20.5904 24.1078 22.1241 22.5144 22.7984 21.5974C24.6334 19.1003 21.9785 17.38 20.4866 17.8126C20.6036 17.7221 21.312 16.5723 21.6508 16.0096C22.5611 14.1811 21.6508 12.964 20.9777 12.6286C19.4516 11.8694 18.3294 12.7235 17.9763 13.1891C18.112 12.9596 18.5357 12.0305 19.2188 10.3257C19.9018 8.62197 18.8017 7.56928 18.1661 7.2559C16.7868 6.617 15.4759 7.42803 15.1481 8.153C14.987 8.50721 14.1219 10.404 13.7446 11.2393C14.0293 10.5464 14.5435 9.16817 14.7255 8.53148C15.0875 7.03079 14.2168 6.00238 13.6651 5.73755C12.8971 5.3701 11.296 5.2741 10.6637 6.66886L10.6472 6.70528Z" fill="url(#paint1_radial_215_115)"/>
<path d="M1.17829 11.4128C1.26436 12.3783 1.26877 12.3452 1.44532 14.6812C1.53691 15.8884 0.881461 20.332 0.881461 20.332C2.47594 20.8528 5.93084 20.1632 6.42188 14.7419C6.18022 14.1814 6.2067 13.2412 5.93084 10.9461C5.68146 8.87599 3.97332 8.67847 3.23953 8.82523C1.61746 9.16399 1.12422 10.807 1.17829 11.4128Z" fill="url(#paint2_radial_215_115)"/>
<path d="M1.17829 11.4128C1.26436 12.3783 1.26877 12.3452 1.44532 14.6812C1.53691 15.8884 0.881461 20.332 0.881461 20.332C2.47594 20.8528 5.93084 20.1632 6.42188 14.7419C6.18022 14.1814 6.2067 13.2412 5.93084 10.9461C5.68146 8.87599 3.97332 8.67847 3.23953 8.82523C1.61746 9.16399 1.12422 10.807 1.17829 11.4128Z" fill="url(#paint3_radial_215_115)"/>
<path d="M1.17829 11.4128C1.26436 12.3783 1.26877 12.3452 1.44532 14.6812C1.53691 15.8884 0.881461 20.332 0.881461 20.332C2.47594 20.8528 5.93084 20.1632 6.42188 14.7419C6.18022 14.1814 6.2067 13.2412 5.93084 10.9461C5.68146 8.87599 3.97332 8.67847 3.23953 8.82523C1.61746 9.16399 1.12422 10.807 1.17829 11.4128Z" fill="url(#paint4_radial_215_115)"/>
<path d="M10.6487 6.70528C9.3058 9.66583 7.65835 13.2984 6.42249 14.7417C6.61559 16.3924 8.0909 17.1825 9.36208 16.8868C10.9654 16.4211 11.5745 15.2835 11.5745 15.2835C11.5745 15.2835 11.9938 14.6347 12.4021 13.9207C12.8744 13.0953 12.7883 13.1141 13.5795 11.62C13.735 11.3265 14.4964 9.3359 14.727 8.53148C15.089 7.03079 14.2184 6.00238 13.6655 5.73755C12.8986 5.3701 11.2975 5.2741 10.6641 6.66886L10.6487 6.70528Z" fill="url(#paint5_radial_215_115)"/>
<path d="M10.6487 6.70528C9.3058 9.66583 7.65835 13.2984 6.42249 14.7417C6.61559 16.3924 8.0909 17.1825 9.36208 16.8868C10.9654 16.4211 11.5745 15.2835 11.5745 15.2835C11.5745 15.2835 11.9938 14.6347 12.4021 13.9207C12.8744 13.0953 12.7883 13.1141 13.5795 11.62C13.735 11.3265 14.4964 9.3359 14.727 8.53148C15.089 7.03079 14.2184 6.00238 13.6655 5.73755C12.8986 5.3701 11.2975 5.2741 10.6641 6.66886L10.6487 6.70528Z" fill="url(#paint6_linear_215_115)"/>
<path d="M10.6487 6.70528C9.3058 9.66583 7.65835 13.2984 6.42249 14.7417C6.61559 16.3924 8.0909 17.1825 9.36208 16.8868C10.9654 16.4211 11.5745 15.2835 11.5745 15.2835C11.5745 15.2835 11.9938 14.6347 12.4021 13.9207C12.8744 13.0953 12.7883 13.1141 13.5795 11.62C13.735 11.3265 14.4964 9.3359 14.727 8.53148C15.089 7.03079 14.2184 6.00238 13.6655 5.73755C12.8986 5.3701 11.2975 5.2741 10.6641 6.66886L10.6487 6.70528Z" fill="url(#paint7_radial_215_115)"/>
<path d="M10.6487 6.70528C9.3058 9.66583 7.65835 13.2984 6.42249 14.7417C6.61559 16.3924 8.0909 17.1825 9.36208 16.8868C10.9654 16.4211 11.5745 15.2835 11.5745 15.2835C11.5745 15.2835 11.9938 14.6347 12.4021 13.9207C12.8744 13.0953 12.7883 13.1141 13.5795 11.62C13.735 11.3265 14.4964 9.3359 14.727 8.53148C15.089 7.03079 14.2184 6.00238 13.6655 5.73755C12.8986 5.3701 11.2975 5.2741 10.6641 6.66886L10.6487 6.70528Z" fill="url(#paint8_radial_215_115)"/>
<path d="M10.6487 6.70528C9.3058 9.66583 7.65835 13.2984 6.42249 14.7417C6.61559 16.3924 8.0909 17.1825 9.36208 16.8868C10.9654 16.4211 11.5745 15.2835 11.5745 15.2835C11.5745 15.2835 11.9938 14.6347 12.4021 13.9207C12.8744 13.0953 12.7883 13.1141 13.5795 11.62C13.735 11.3265 14.4964 9.3359 14.727 8.53148C15.089 7.03079 14.2184 6.00238 13.6655 5.73755C12.8986 5.3701 11.2975 5.2741 10.6641 6.66886L10.6487 6.70528Z" fill="url(#paint9_linear_215_115)"/>
<path d="M15.154 8.15302C14.9378 8.62971 13.4459 11.8959 13.5838 11.6201C13.1833 12.5249 11.9397 14.7318 11.5789 15.3354C10.78 16.6661 11.6815 17.7729 12.263 18.1105C13.9369 19.0816 14.898 17.8435 14.898 17.8435C15.7808 16.5503 16.5179 15.4733 17.9755 13.1803C18.3264 12.5183 18.9664 11.0418 19.2246 10.3257C19.8613 8.55798 18.8075 7.5693 18.172 7.25592C16.7926 6.61702 15.4818 7.42805 15.154 8.15302Z" fill="url(#paint10_radial_215_115)"/>
<path d="M15.154 8.15302C14.9378 8.62971 13.4459 11.8959 13.5838 11.6201C13.1833 12.5249 11.9397 14.7318 11.5789 15.3354C10.78 16.6661 11.6815 17.7729 12.263 18.1105C13.9369 19.0816 14.898 17.8435 14.898 17.8435C15.7808 16.5503 16.5179 15.4733 17.9755 13.1803C18.3264 12.5183 18.9664 11.0418 19.2246 10.3257C19.8613 8.55798 18.8075 7.5693 18.172 7.25592C16.7926 6.61702 15.4818 7.42805 15.154 8.15302Z" fill="url(#paint11_linear_215_115)"/>
<path d="M15.154 8.15302C14.9378 8.62971 13.4459 11.8959 13.5838 11.6201C13.1833 12.5249 11.9397 14.7318 11.5789 15.3354C10.78 16.6661 11.6815 17.7729 12.263 18.1105C13.9369 19.0816 14.898 17.8435 14.898 17.8435C15.7808 16.5503 16.5179 15.4733 17.9755 13.1803C18.3264 12.5183 18.9664 11.0418 19.2246 10.3257C19.8613 8.55798 18.8075 7.5693 18.172 7.25592C16.7926 6.61702 15.4818 7.42805 15.154 8.15302Z" fill="url(#paint12_radial_215_115)"/>
<path d="M15.154 8.15302C14.9378 8.62971 13.4459 11.8959 13.5838 11.6201C13.1833 12.5249 11.9397 14.7318 11.5789 15.3354C10.78 16.6661 11.6815 17.7729 12.263 18.1105C13.9369 19.0816 14.898 17.8435 14.898 17.8435C15.7808 16.5503 16.5179 15.4733 17.9755 13.1803C18.3264 12.5183 18.9664 11.0418 19.2246 10.3257C19.8613 8.55798 18.8075 7.5693 18.172 7.25592C16.7926 6.61702 15.4818 7.42805 15.154 8.15302Z" fill="url(#paint13_radial_215_115)"/>
<path d="M15.154 8.15302C14.9378 8.62971 13.4459 11.8959 13.5838 11.6201C13.1833 12.5249 11.9397 14.7318 11.5789 15.3354C10.78 16.6661 11.6815 17.7729 12.263 18.1105C13.9369 19.0816 14.898 17.8435 14.898 17.8435C15.7808 16.5503 16.5179 15.4733 17.9755 13.1803C18.3264 12.5183 18.9664 11.0418 19.2246 10.3257C19.8613 8.55798 18.8075 7.5693 18.172 7.25592C16.7926 6.61702 15.4818 7.42805 15.154 8.15302Z" fill="url(#paint14_radial_215_115)"/>
<path d="M15.154 8.15302C14.9378 8.62971 13.4459 11.8959 13.5838 11.6201C13.1833 12.5249 11.9397 14.7318 11.5789 15.3354C10.78 16.6661 11.6815 17.7729 12.263 18.1105C13.9369 19.0816 14.898 17.8435 14.898 17.8435C15.7808 16.5503 16.5179 15.4733 17.9755 13.1803C18.3264 12.5183 18.9664 11.0418 19.2246 10.3257C19.8613 8.55798 18.8075 7.5693 18.172 7.25592C16.7926 6.61702 15.4818 7.42805 15.154 8.15302Z" fill="url(#paint15_linear_215_115)"/>
<path d="M20.9827 12.6286C19.4566 11.8694 18.3344 12.7235 17.9813 13.1892C16.8789 14.8521 15.5647 16.7423 14.9578 17.7486C13.3358 20.43 16.6549 21.593 16.6549 21.593C19.7071 18.1536 20.272 17.9803 20.4916 17.8115C20.6086 17.7221 21.317 16.5723 21.6558 16.0096C22.5661 14.1812 21.6558 12.963 20.9827 12.6286Z" fill="url(#paint16_radial_215_115)"/>
<path d="M20.9827 12.6286C19.4566 11.8694 18.3344 12.7235 17.9813 13.1892C16.8789 14.8521 15.5647 16.7423 14.9578 17.7486C13.3358 20.43 16.6549 21.593 16.6549 21.593C19.7071 18.1536 20.272 17.9803 20.4916 17.8115C20.6086 17.7221 21.317 16.5723 21.6558 16.0096C22.5661 14.1812 21.6558 12.963 20.9827 12.6286Z" fill="url(#paint17_linear_215_115)"/>
<path d="M20.9827 12.6286C19.4566 11.8694 18.3344 12.7235 17.9813 13.1892C16.8789 14.8521 15.5647 16.7423 14.9578 17.7486C13.3358 20.43 16.6549 21.593 16.6549 21.593C19.7071 18.1536 20.272 17.9803 20.4916 17.8115C20.6086 17.7221 21.317 16.5723 21.6558 16.0096C22.5661 14.1812 21.6558 12.963 20.9827 12.6286Z" fill="url(#paint18_radial_215_115)"/>
<path d="M20.9827 12.6286C19.4566 11.8694 18.3344 12.7235 17.9813 13.1892C16.8789 14.8521 15.5647 16.7423 14.9578 17.7486C13.3358 20.43 16.6549 21.593 16.6549 21.593C19.7071 18.1536 20.272 17.9803 20.4916 17.8115C20.6086 17.7221 21.317 16.5723 21.6558 16.0096C22.5661 14.1812 21.6558 12.963 20.9827 12.6286Z" fill="url(#paint19_radial_215_115)"/>
<path d="M20.9827 12.6286C19.4566 11.8694 18.3344 12.7235 17.9813 13.1892C16.8789 14.8521 15.5647 16.7423 14.9578 17.7486C13.3358 20.43 16.6549 21.593 16.6549 21.593C19.7071 18.1536 20.272 17.9803 20.4916 17.8115C20.6086 17.7221 21.317 16.5723 21.6558 16.0096C22.5661 14.1812 21.6558 12.963 20.9827 12.6286Z" fill="url(#paint20_radial_215_115)"/>
<path d="M20.9827 12.6286C19.4566 11.8694 18.3344 12.7235 17.9813 13.1892C16.8789 14.8521 15.5647 16.7423 14.9578 17.7486C13.3358 20.43 16.6549 21.593 16.6549 21.593C19.7071 18.1536 20.272 17.9803 20.4916 17.8115C20.6086 17.7221 21.317 16.5723 21.6558 16.0096C22.5661 14.1812 21.6558 12.963 20.9827 12.6286Z" fill="url(#paint21_radial_215_115)"/>
<path d="M22.7984 21.5979C24.6334 19.1008 21.9785 17.3806 20.4866 17.8131C19.7804 18.249 18.688 19.3425 18.2235 19.8357C15.264 22.7212 15.7573 23.6117 16.5848 24.5916C17.387 25.2559 18.4298 25.7888 19.9691 24.5916C20.5904 24.1083 22.1241 22.5149 22.7984 21.5979Z" fill="url(#paint22_radial_215_115)"/>
<path d="M22.7984 21.5979C24.6334 19.1008 21.9785 17.3806 20.4866 17.8131C19.7804 18.249 18.688 19.3425 18.2235 19.8357C15.264 22.7212 15.7573 23.6117 16.5848 24.5916C17.387 25.2559 18.4298 25.7888 19.9691 24.5916C20.5904 24.1083 22.1241 22.5149 22.7984 21.5979Z" fill="url(#paint23_radial_215_115)"/>
<path d="M22.7984 21.5979C24.6334 19.1008 21.9785 17.3806 20.4866 17.8131C19.7804 18.249 18.688 19.3425 18.2235 19.8357C15.264 22.7212 15.7573 23.6117 16.5848 24.5916C17.387 25.2559 18.4298 25.7888 19.9691 24.5916C20.5904 24.1083 22.1241 22.5149 22.7984 21.5979Z" fill="url(#paint24_radial_215_115)"/>
<path d="M22.7984 21.5979C24.6334 19.1008 21.9785 17.3806 20.4866 17.8131C19.7804 18.249 18.688 19.3425 18.2235 19.8357C15.264 22.7212 15.7573 23.6117 16.5848 24.5916C17.387 25.2559 18.4298 25.7888 19.9691 24.5916C20.5904 24.1083 22.1241 22.5149 22.7984 21.5979Z" fill="url(#paint25_radial_215_115)"/>
<path d="M22.7984 21.5979C24.6334 19.1008 21.9785 17.3806 20.4866 17.8131C19.7804 18.249 18.688 19.3425 18.2235 19.8357C15.264 22.7212 15.7573 23.6117 16.5848 24.5916C17.387 25.2559 18.4298 25.7888 19.9691 24.5916C20.5904 24.1083 22.1241 22.5149 22.7984 21.5979Z" fill="url(#paint26_linear_215_115)"/>
<path d="M10.6472 6.70528C9.30429 9.66583 7.65684 13.2984 6.42098 14.7417C6.17822 14.1811 6.2047 13.241 5.92884 10.9458C5.67946 8.87576 3.97132 8.67824 3.23753 8.825C1.61546 9.16376 1.12222 10.8068 1.17629 11.4126C1.26236 12.3781 1.26677 12.345 1.44332 14.681C1.70263 18.0962 0.384012 20.6749 0.262632 23.5991C0.262632 29.1097 5.09243 31.8176 8.47229 31.8176C11.1768 31.8176 13.8836 30.0873 14.8977 29.2222L19.9691 24.59C20.5904 24.1078 22.1241 22.5144 22.7984 21.5974C24.6334 19.1003 21.9785 17.38 20.4866 17.8126C20.6036 17.7221 21.312 16.5723 21.6508 16.0096C22.5611 14.1811 21.6508 12.964 20.9777 12.6286C19.4516 11.8694 18.3294 12.7235 17.9763 13.1891C18.112 12.9596 18.5357 12.0305 19.2188 10.3257C19.9018 8.62197 18.8017 7.56928 18.1661 7.2559C16.7868 6.617 15.4759 7.42803 15.1481 8.153C14.987 8.50721 14.1219 10.404 13.7446 11.2393C14.0293 10.5464 14.5435 9.16817 14.7255 8.53148C15.0875 7.03079 14.2168 6.00238 13.6651 5.73755C12.8971 5.3701 11.296 5.2741 10.6637 6.66886L10.6472 6.70528Z" fill="url(#paint27_radial_215_115)"/>
<path d="M10.6472 6.70528C9.30429 9.66583 7.65684 13.2984 6.42098 14.7417C6.17822 14.1811 6.2047 13.241 5.92884 10.9458C5.67946 8.87576 3.97132 8.67824 3.23753 8.825C1.61546 9.16376 1.12222 10.8068 1.17629 11.4126C1.26236 12.3781 1.26677 12.345 1.44332 14.681C1.70263 18.0962 0.384012 20.6749 0.262632 23.5991C0.262632 29.1097 5.09243 31.8176 8.47229 31.8176C11.1768 31.8176 13.8836 30.0873 14.8977 29.2222L19.9691 24.59C20.5904 24.1078 22.1241 22.5144 22.7984 21.5974C24.6334 19.1003 21.9785 17.38 20.4866 17.8126C20.6036 17.7221 21.312 16.5723 21.6508 16.0096C22.5611 14.1811 21.6508 12.964 20.9777 12.6286C19.4516 11.8694 18.3294 12.7235 17.9763 13.1891C18.112 12.9596 18.5357 12.0305 19.2188 10.3257C19.9018 8.62197 18.8017 7.56928 18.1661 7.2559C16.7868 6.617 15.4759 7.42803 15.1481 8.153C14.987 8.50721 14.1219 10.404 13.7446 11.2393C14.0293 10.5464 14.5435 9.16817 14.7255 8.53148C15.0875 7.03079 14.2168 6.00238 13.6651 5.73755C12.8971 5.3701 11.296 5.2741 10.6637 6.66886L10.6472 6.70528Z" fill="url(#paint28_radial_215_115)"/>
<path d="M10.6472 6.70528C9.30429 9.66583 7.65684 13.2984 6.42098 14.7417C6.17822 14.1811 6.2047 13.241 5.92884 10.9458C5.67946 8.87576 3.97132 8.67824 3.23753 8.825C1.61546 9.16376 1.12222 10.8068 1.17629 11.4126C1.26236 12.3781 1.26677 12.345 1.44332 14.681C1.70263 18.0962 0.384012 20.6749 0.262632 23.5991C0.262632 29.1097 5.09243 31.8176 8.47229 31.8176C11.1768 31.8176 13.8836 30.0873 14.8977 29.2222L19.9691 24.59C20.5904 24.1078 22.1241 22.5144 22.7984 21.5974C24.6334 19.1003 21.9785 17.38 20.4866 17.8126C20.6036 17.7221 21.312 16.5723 21.6508 16.0096C22.5611 14.1811 21.6508 12.964 20.9777 12.6286C19.4516 11.8694 18.3294 12.7235 17.9763 13.1891C18.112 12.9596 18.5357 12.0305 19.2188 10.3257C19.9018 8.62197 18.8017 7.56928 18.1661 7.2559C16.7868 6.617 15.4759 7.42803 15.1481 8.153C14.987 8.50721 14.1219 10.404 13.7446 11.2393C14.0293 10.5464 14.5435 9.16817 14.7255 8.53148C15.0875 7.03079 14.2168 6.00238 13.6651 5.73755C12.8971 5.3701 11.296 5.2741 10.6637 6.66886L10.6472 6.70528Z" fill="url(#paint29_radial_215_115)"/>
<path d="M8.77791 10.6678C7.94922 12.3605 7.12164 13.8778 6.42205 14.7087C6.35033 15.448 6.28632 15.8695 6.10977 16.5073C7.50563 15.1103 8.85736 12.0571 8.77791 10.6678Z" fill="url(#paint30_radial_215_115)"/>
<path fill-rule="evenodd" clip-rule="evenodd" d="M28.5537 17.545C28.3958 17.5453 28.2446 17.6082 28.1331 17.72C28.0215 17.8317 27.9589 17.9831 27.9589 18.1409C27.9589 19.134 27.5573 20.4637 26.6911 21.5373C25.8414 22.5933 24.5504 23.3922 22.7407 23.3922C22.583 23.3922 22.4317 23.4549 22.3202 23.5664C22.2086 23.678 22.146 23.8292 22.146 23.987C22.146 24.1447 22.2086 24.296 22.3202 24.4075C22.4317 24.5191 22.583 24.5817 22.7407 24.5817C24.9498 24.5817 26.5664 23.5886 27.618 22.2844C28.653 20.9999 29.1484 19.4055 29.1484 18.1398C29.1481 17.9822 29.0854 17.831 28.9739 17.7196C28.8624 17.6081 28.7113 17.5453 28.5537 17.545Z" fill="url(#paint31_radial_215_115)"/>
<path fill-rule="evenodd" clip-rule="evenodd" d="M28.5537 17.545C28.3958 17.5453 28.2446 17.6082 28.1331 17.72C28.0215 17.8317 27.9589 17.9831 27.9589 18.1409C27.9589 19.134 27.5573 20.4637 26.6911 21.5373C25.8414 22.5933 24.5504 23.3922 22.7407 23.3922C22.583 23.3922 22.4317 23.4549 22.3202 23.5664C22.2086 23.678 22.146 23.8292 22.146 23.987C22.146 24.1447 22.2086 24.296 22.3202 24.4075C22.4317 24.5191 22.583 24.5817 22.7407 24.5817C24.9498 24.5817 26.5664 23.5886 27.618 22.2844C28.653 20.9999 29.1484 19.4055 29.1484 18.1398C29.1481 17.9822 29.0854 17.831 28.9739 17.7196C28.8624 17.6081 28.7113 17.5453 28.5537 17.545Z" fill="url(#paint32_radial_215_115)"/>
<path fill-rule="evenodd" clip-rule="evenodd" d="M28.5537 17.545C28.3958 17.5453 28.2446 17.6082 28.1331 17.72C28.0215 17.8317 27.9589 17.9831 27.9589 18.1409C27.9589 19.134 27.5573 20.4637 26.6911 21.5373C25.8414 22.5933 24.5504 23.3922 22.7407 23.3922C22.583 23.3922 22.4317 23.4549 22.3202 23.5664C22.2086 23.678 22.146 23.8292 22.146 23.987C22.146 24.1447 22.2086 24.296 22.3202 24.4075C22.4317 24.5191 22.583 24.5817 22.7407 24.5817C24.9498 24.5817 26.5664 23.5886 27.618 22.2844C28.653 20.9999 29.1484 19.4055 29.1484 18.1398C29.1481 17.9822 29.0854 17.831 28.9739 17.7196C28.8624 17.6081 28.7113 17.5453 28.5537 17.545Z" fill="url(#paint33_radial_215_115)"/>
<path fill-rule="evenodd" clip-rule="evenodd" d="M30.4052 19.6667C30.2472 19.6667 30.0956 19.7295 29.9839 19.8413C29.8722 19.953 29.8094 20.1046 29.8094 20.2626C29.8094 22.3702 28.2314 25.1862 24.9145 25.1862C24.7567 25.1862 24.6055 25.2489 24.4939 25.3604C24.3824 25.4719 24.3197 25.6232 24.3197 25.781C24.3197 25.9387 24.3824 26.09 24.4939 26.2015C24.6055 26.3131 24.7567 26.3757 24.9145 26.3757C29.0855 26.3757 31 22.8116 31 20.2626C31 20.1046 30.9372 19.953 30.8255 19.8413C30.7137 19.7295 30.5633 19.6667 30.4052 19.6667Z" fill="url(#paint34_radial_215_115)"/>
<path fill-rule="evenodd" clip-rule="evenodd" d="M30.4052 19.6667C30.2472 19.6667 30.0956 19.7295 29.9839 19.8413C29.8722 19.953 29.8094 20.1046 29.8094 20.2626C29.8094 22.3702 28.2314 25.1862 24.9145 25.1862C24.7567 25.1862 24.6055 25.2489 24.4939 25.3604C24.3824 25.4719 24.3197 25.6232 24.3197 25.781C24.3197 25.9387 24.3824 26.09 24.4939 26.2015C24.6055 26.3131 24.7567 26.3757 24.9145 26.3757C29.0855 26.3757 31 22.8116 31 20.2626C31 20.1046 30.9372 19.953 30.8255 19.8413C30.7137 19.7295 30.5633 19.6667 30.4052 19.6667Z" fill="url(#paint35_radial_215_115)"/>
<path fill-rule="evenodd" clip-rule="evenodd" d="M8.13271 9.76739C8.21081 9.76783 8.28824 9.75288 8.36056 9.72339C8.43289 9.6939 8.4987 9.65046 8.55424 9.59554C8.60977 9.54062 8.65395 9.47529 8.68424 9.4033C8.71453 9.33131 8.73034 9.25405 8.73078 9.17595C8.7374 8.18284 9.14788 6.85539 10.0207 5.78726C10.8781 4.73677 12.1724 3.9467 13.9832 3.95774C14.1348 3.94954 14.2775 3.88381 14.3822 3.77395C14.487 3.6641 14.5459 3.51841 14.5469 3.36661C14.5478 3.21482 14.4909 3.06838 14.3875 2.95717C14.2842 2.84597 14.1424 2.77839 13.9909 2.76822C11.7818 2.75388 10.1586 3.73815 9.09933 5.0347C8.05547 6.3125 7.55009 7.90367 7.54126 9.16822C7.54068 9.24642 7.55552 9.32396 7.58494 9.39642C7.61437 9.46887 7.65779 9.53481 7.71272 9.59046C7.76766 9.64612 7.83303 9.69039 7.9051 9.72075C7.97716 9.75111 8.05451 9.76696 8.13271 9.76739Z" fill="url(#paint36_radial_215_115)"/>
<path fill-rule="evenodd" clip-rule="evenodd" d="M8.13271 9.76739C8.21081 9.76783 8.28824 9.75288 8.36056 9.72339C8.43289 9.6939 8.4987 9.65046 8.55424 9.59554C8.60977 9.54062 8.65395 9.47529 8.68424 9.4033C8.71453 9.33131 8.73034 9.25405 8.73078 9.17595C8.7374 8.18284 9.14788 6.85539 10.0207 5.78726C10.8781 4.73677 12.1724 3.9467 13.9832 3.95774C14.1348 3.94954 14.2775 3.88381 14.3822 3.77395C14.487 3.6641 14.5459 3.51841 14.5469 3.36661C14.5478 3.21482 14.4909 3.06838 14.3875 2.95717C14.2842 2.84597 14.1424 2.77839 13.9909 2.76822C11.7818 2.75388 10.1586 3.73815 9.09933 5.0347C8.05547 6.3125 7.55009 7.90367 7.54126 9.16822C7.54068 9.24642 7.55552 9.32396 7.58494 9.39642C7.61437 9.46887 7.65779 9.53481 7.71272 9.59046C7.76766 9.64612 7.83303 9.69039 7.9051 9.72075C7.97716 9.75111 8.05451 9.76696 8.13271 9.76739Z" fill="url(#paint37_radial_215_115)"/>
<path fill-rule="evenodd" clip-rule="evenodd" d="M6.28936 7.63475C6.36747 7.63519 6.44489 7.62024 6.51722 7.59075C6.58954 7.56126 6.65535 7.51782 6.71089 7.46289C6.76643 7.40797 6.8106 7.34265 6.84089 7.27066C6.87118 7.19866 6.887 7.12141 6.88743 7.0433C6.90177 4.93572 8.49846 2.12855 11.8154 2.15061C11.9732 2.15164 12.1249 2.08996 12.2371 1.97914C12.3494 1.86833 12.413 1.71746 12.414 1.55972C12.4151 1.40198 12.3534 1.25029 12.2426 1.13803C12.1318 1.02577 11.9809 0.962121 11.8232 0.961097C7.65212 0.933511 5.71557 4.48661 5.69902 7.03558C5.69843 7.11369 5.71324 7.19114 5.7426 7.26352C5.77195 7.3359 5.81527 7.4018 5.87009 7.45744C5.92491 7.51307 5.99015 7.55737 6.06209 7.58779C6.13403 7.61822 6.21126 7.63417 6.28936 7.63475Z" fill="url(#paint38_radial_215_115)"/>
<path fill-rule="evenodd" clip-rule="evenodd" d="M6.28936 7.63475C6.36747 7.63519 6.44489 7.62024 6.51722 7.59075C6.58954 7.56126 6.65535 7.51782 6.71089 7.46289C6.76643 7.40797 6.8106 7.34265 6.84089 7.27066C6.87118 7.19866 6.887 7.12141 6.88743 7.0433C6.90177 4.93572 8.49846 2.12855 11.8154 2.15061C11.9732 2.15164 12.1249 2.08996 12.2371 1.97914C12.3494 1.86833 12.413 1.71746 12.414 1.55972C12.4151 1.40198 12.3534 1.25029 12.2426 1.13803C12.1318 1.02577 11.9809 0.962121 11.8232 0.961097C7.65212 0.933511 5.71557 4.48661 5.69902 7.03558C5.69843 7.11369 5.71324 7.19114 5.7426 7.26352C5.77195 7.3359 5.81527 7.4018 5.87009 7.45744C5.92491 7.51307 5.99015 7.55737 6.06209 7.58779C6.13403 7.61822 6.21126 7.63417 6.28936 7.63475Z" fill="url(#paint39_radial_215_115)"/>
<path d="M8.24559 14.8187C10.383 15.6805 15.2194 18.512 16.6406 24.8204" stroke="#FFC339" stroke-width="2" stroke-linecap="round"/>
<defs>
<radialGradient id="paint0_radial_215_115" cx="0" cy="0" r="1" gradientUnits="userSpaceOnUse" gradientTransform="translate(11.8427 14.1624) rotate(119.899) scale(23.2298 15.1757)">
<stop offset="0.003" stop-color="#FFC133"/>
<stop offset="0.698" stop-color="#FFC53F"/>
<stop offset="0.797" stop-color="#FFAD3E"/>
<stop offset="0.945" stop-color="#EC7D58"/>
</radialGradient>
<radialGradient id="paint1_radial_215_115" cx="0" cy="0" r="1" gradientUnits="userSpaceOnUse" gradientTransform="translate(0.262633 19.2658) rotate(-86.988) scale(13.7822 5.2799)">
<stop offset="0.003" stop-color="#FFE849"/>
<stop offset="1" stop-color="#FFE647" stop-opacity="0"/>
</radialGradient>
<radialGradient id="paint2_radial_215_115" cx="0" cy="0" r="1" gradientUnits="userSpaceOnUse" gradientTransform="translate(1.91964 9.40357) rotate(80.318) scale(7.381 2.82764)">
<stop offset="0.003" stop-color="#FFE849"/>
<stop offset="1" stop-color="#FFE647" stop-opacity="0"/>
</radialGradient>
<radialGradient id="paint3_radial_215_115" cx="0" cy="0" r="1" gradientUnits="userSpaceOnUse" gradientTransform="translate(6.42298 13.8481) rotate(180) scale(2.98535 12.1067)">
<stop stop-color="#EE9F2C"/>
<stop offset="1" stop-color="#EE9F2C" stop-opacity="0"/>
</radialGradient>
<radialGradient id="paint4_radial_215_115" cx="0" cy="0" r="1" gradientUnits="userSpaceOnUse" gradientTransform="translate(5.11208 18.5422) rotate(-85.9144) scale(5.02479 3.49011)">
<stop stop-color="#FFC93D"/>
<stop offset="1" stop-color="#FFC33A" stop-opacity="0"/>
</radialGradient>
<radialGradient id="paint5_radial_215_115" cx="0" cy="0" r="1" gradientUnits="userSpaceOnUse" gradientTransform="translate(7.91877 10.9138) rotate(28.9759) scale(5.28185 10.6102)">
<stop offset="0.563" stop-color="#F09D2E" stop-opacity="0"/>
<stop offset="1" stop-color="#F09D2E"/>
</radialGradient>
<linearGradient id="paint6_linear_215_115" x1="10.6167" y1="16.3251" x2="10.6167" y2="13.4727" gradientUnits="userSpaceOnUse">
<stop stop-color="#FFC337"/>
<stop offset="1" stop-color="#FFC337" stop-opacity="0"/>
</linearGradient>
<radialGradient id="paint7_radial_215_115" cx="0" cy="0" r="1" gradientUnits="userSpaceOnUse" gradientTransform="translate(9.02222 6.7141) rotate(-166.504) scale(3.5462 7.84195)">
<stop stop-color="#FFEC4C"/>
<stop offset="1" stop-color="#FFEC4C" stop-opacity="0"/>
</radialGradient>
<radialGradient id="paint8_radial_215_115" cx="0" cy="0" r="1" gradientUnits="userSpaceOnUse" gradientTransform="translate(14.812 5.50252) rotate(146.694) scale(3.46201 2.68412)">
<stop stop-color="#D99F2B"/>
<stop offset="1" stop-color="#D99F2B" stop-opacity="0"/>
</radialGradient>
<linearGradient id="paint9_linear_215_115" x1="14.2636" y1="12.473" x2="12.54" y2="11.6454" gradientUnits="userSpaceOnUse">
<stop stop-color="#A85300"/>
<stop offset="0.825" stop-color="#A85300" stop-opacity="0"/>
</linearGradient>
<radialGradient id="paint10_radial_215_115" cx="0" cy="0" r="1" gradientUnits="userSpaceOnUse" gradientTransform="translate(12.9008 12.5458) rotate(30.852) scale(5.09147 10.6249)">
<stop offset="0.563" stop-color="#F09D2E" stop-opacity="0"/>
<stop offset="1" stop-color="#F09D2E"/>
</radialGradient>
<linearGradient id="paint11_linear_215_115" x1="15.4531" y1="18.0686" x2="15.4531" y2="15.1577" gradientUnits="userSpaceOnUse">
<stop stop-color="#FFC337"/>
<stop offset="1" stop-color="#FFC337" stop-opacity="0"/>
</linearGradient>
<radialGradient id="paint12_radial_215_115" cx="0" cy="0" r="1" gradientUnits="userSpaceOnUse" gradientTransform="translate(13.4878 9.30061) rotate(-146.107) scale(3.37892 10.2871)">
<stop stop-color="#FFEC4C"/>
<stop offset="1" stop-color="#FFEC4C" stop-opacity="0"/>
</radialGradient>
<radialGradient id="paint13_radial_215_115" cx="0" cy="0" r="1" gradientUnits="userSpaceOnUse" gradientTransform="translate(16.0611 13.4727) rotate(-155.095) scale(4.25803 19.4426)">
<stop offset="0.598" stop-color="#F09D2E" stop-opacity="0"/>
<stop offset="1" stop-color="#F09D2E"/>
</radialGradient>
<radialGradient id="paint14_radial_215_115" cx="0" cy="0" r="1" gradientUnits="userSpaceOnUse" gradientTransform="translate(19.9231 7.02419) rotate(147.399) scale(3.52013 2.80559)">
<stop stop-color="#D99F2B"/>
<stop offset="1" stop-color="#D99F2B" stop-opacity="0"/>
</radialGradient>
<linearGradient id="paint15_linear_215_115" x1="18.3717" y1="14.1624" x2="17.2241" y2="13.3602" gradientUnits="userSpaceOnUse">
<stop stop-color="#A85300"/>
<stop offset="0.825" stop-color="#A85300" stop-opacity="0"/>
</linearGradient>
<radialGradient id="paint16_radial_215_115" cx="0" cy="0" r="1" gradientUnits="userSpaceOnUse" gradientTransform="translate(15.8549 16.9597) rotate(42.649) scale(4.21801 8.25969)">
<stop offset="0.563" stop-color="#F09D2E" stop-opacity="0"/>
<stop offset="1" stop-color="#F09D2E"/>
</radialGradient>
<linearGradient id="paint17_linear_215_115" x1="18.2748" y1="21.593" x2="18.2748" y2="19.1511" gradientUnits="userSpaceOnUse">
<stop stop-color="#FFC337"/>
<stop offset="1" stop-color="#FFC337" stop-opacity="0"/>
</linearGradient>
<radialGradient id="paint18_radial_215_115" cx="0" cy="0" r="1" gradientUnits="userSpaceOnUse" gradientTransform="translate(16.8889 13.3403) rotate(-167.704) scale(3.21252 6.805)">
<stop stop-color="#FFEC4C"/>
<stop offset="1" stop-color="#FFEC4C" stop-opacity="0"/>
</radialGradient>
<radialGradient id="paint19_radial_215_115" cx="0" cy="0" r="1" gradientUnits="userSpaceOnUse" gradientTransform="translate(18.8508 17.7376) rotate(-139.783) scale(4.46852 22.8446)">
<stop offset="0.598" stop-color="#F09D2E" stop-opacity="0"/>
<stop offset="1" stop-color="#F09D2E"/>
</radialGradient>
<radialGradient id="paint20_radial_215_115" cx="0" cy="0" r="1" gradientUnits="userSpaceOnUse" gradientTransform="translate(22.5143 12.3263) rotate(150.497) scale(3.23161 2.4322)">
<stop stop-color="#D99F2B"/>
<stop offset="1" stop-color="#D99F2B" stop-opacity="0"/>
</radialGradient>
<radialGradient id="paint21_radial_215_115" cx="0" cy="0" r="1" gradientUnits="userSpaceOnUse" gradientTransform="translate(20.8194 18.6799) rotate(-134.236) scale(1.82889 8.25763)">
<stop stop-color="#A85300"/>
<stop offset="0.825" stop-color="#A85300" stop-opacity="0"/>
</radialGradient>
<radialGradient id="paint22_radial_215_115" cx="0" cy="0" r="1" gradientUnits="userSpaceOnUse" gradientTransform="translate(16.7879 21.7579) rotate(36.631) scale(4.14679 7.8024)">
<stop offset="0.563" stop-color="#F09D2E" stop-opacity="0"/>
<stop offset="1" stop-color="#F09D2E"/>
</radialGradient>
<radialGradient id="paint23_radial_215_115" cx="0" cy="0" r="1" gradientUnits="userSpaceOnUse" gradientTransform="translate(17.8979 18.623) rotate(-170.022) scale(3.41854 5.93885)">
<stop stop-color="#FFEC4C"/>
<stop offset="1" stop-color="#FFEC4C" stop-opacity="0"/>
</radialGradient>
<radialGradient id="paint24_radial_215_115" cx="0" cy="0" r="1" gradientUnits="userSpaceOnUse" gradientTransform="translate(20.0031 22.4309) rotate(-145.686) scale(4.43126 21.3938)">
<stop offset="0.598" stop-color="#F09D2E" stop-opacity="0"/>
<stop offset="1" stop-color="#F09D2E"/>
</radialGradient>
<radialGradient id="paint25_radial_215_115" cx="0" cy="0" r="1" gradientUnits="userSpaceOnUse" gradientTransform="translate(23.9327 17.7469) rotate(155.452) scale(3.31664 2.20085)">
<stop stop-color="#D99F2B"/>
<stop offset="1" stop-color="#D99F2B" stop-opacity="0"/>
</radialGradient>
<linearGradient id="paint26_linear_215_115" x1="16.6069" y1="29.3353" x2="19.3843" y2="23.6548" gradientUnits="userSpaceOnUse">
<stop stop-color="#FFC337"/>
<stop offset="1" stop-color="#FFC337" stop-opacity="0"/>
</linearGradient>
<radialGradient id="paint27_radial_215_115" cx="0" cy="0" r="1" gradientUnits="userSpaceOnUse" gradientTransform="translate(6.67587 12.7147) rotate(50.986) scale(19.1721 31.0054)">
<stop offset="0.872" stop-color="#F6814F" stop-opacity="0"/>
<stop offset="1" stop-color="#F7814F"/>
</radialGradient>
<radialGradient id="paint28_radial_215_115" cx="0" cy="0" r="1" gradientUnits="userSpaceOnUse" gradientTransform="translate(10.6759 12.921) rotate(103.707) scale(20.3733 22.354)">
<stop offset="0.853" stop-color="#F6814F" stop-opacity="0"/>
<stop offset="1" stop-color="#F7814F"/>
</radialGradient>
<radialGradient id="paint29_radial_215_115" cx="0" cy="0" r="1" gradientUnits="userSpaceOnUse" gradientTransform="translate(6.05574 7.74914) rotate(115.56) scale(3.51656 3.13497)">
<stop stop-color="#D99F2B"/>
<stop offset="1" stop-color="#D99F2B" stop-opacity="0"/>
</radialGradient>
<radialGradient id="paint30_radial_215_115" cx="0" cy="0" r="1" gradientUnits="userSpaceOnUse" gradientTransform="translate(6.10874 14.4721) rotate(30.746) scale(1.33915 4.14382)">
<stop offset="0.201" stop-color="#B4813D"/>
<stop offset="1" stop-color="#B4813D" stop-opacity="0"/>
</radialGradient>
<radialGradient id="paint31_radial_215_115" cx="0" cy="0" r="1" gradientUnits="userSpaceOnUse" gradientTransform="translate(27.7073 17.865) rotate(117.929) scale(5.8617 8.69317)">
<stop stop-color="#419FFD"/>
<stop offset="1" stop-color="#4B6DCB"/>
</radialGradient>
<radialGradient id="paint32_radial_215_115" cx="0" cy="0" r="1" gradientUnits="userSpaceOnUse" gradientTransform="translate(29.3658 18.3009) rotate(177.614) scale(0.828304 1.74317)">
<stop stop-color="#5486C7"/>
<stop offset="1" stop-color="#5486C7" stop-opacity="0"/>
</radialGradient>
<radialGradient id="paint33_radial_215_115" cx="0" cy="0" r="1" gradientUnits="userSpaceOnUse" gradientTransform="translate(23.1578 23.0248) rotate(68.1987) scale(0.835634 2.4579)">
<stop stop-color="#5486C7"/>
<stop offset="1" stop-color="#5486C7" stop-opacity="0"/>
</radialGradient>
<radialGradient id="paint34_radial_215_115" cx="0" cy="0" r="1" gradientUnits="userSpaceOnUse" gradientTransform="translate(27.2781 20.9208) rotate(85.288) scale(4.63636 7.79559)">
<stop stop-color="#419FFD"/>
<stop offset="1" stop-color="#4B6DCB"/>
</radialGradient>
<radialGradient id="paint35_radial_215_115" cx="0" cy="0" r="1" gradientUnits="userSpaceOnUse" gradientTransform="translate(31.2063 20.3873) rotate(177.615) scale(0.790114 1.662)">
<stop stop-color="#5486C7"/>
<stop offset="1" stop-color="#5486C7" stop-opacity="0"/>
</radialGradient>
<radialGradient id="paint36_radial_215_115" cx="0" cy="0" r="1" gradientUnits="userSpaceOnUse" gradientTransform="translate(12.6877 1.48491) rotate(119.804) scale(4.9249 7.30384)">
<stop stop-color="#419FFD"/>
<stop offset="1" stop-color="#4B6DCB"/>
</radialGradient>
<radialGradient id="paint37_radial_215_115" cx="0" cy="0" r="1" gradientUnits="userSpaceOnUse" gradientTransform="translate(14.717 3.26833) rotate(161.139) scale(0.708535 1.14042)">
<stop stop-color="#4D8AC1"/>
<stop offset="1" stop-color="#4D8AC1" stop-opacity="0"/>
</radialGradient>
<radialGradient id="paint38_radial_215_115" cx="0" cy="0" r="1" gradientUnits="userSpaceOnUse" gradientTransform="translate(10.6072 -0.262627) rotate(119.31) scale(6.1182 9.07592)">
<stop stop-color="#419FFD"/>
<stop offset="1" stop-color="#4B6DCB"/>
</radialGradient>
<radialGradient id="paint39_radial_215_115" cx="0" cy="0" r="1" gradientUnits="userSpaceOnUse" gradientTransform="translate(12.5415 1.43825) rotate(161.147) scale(0.675829 1.08737)">
<stop stop-color="#4D8AC1"/>
<stop offset="1" stop-color="#4D8AC1" stop-opacity="0"/>
</radialGradient>
</defs>
</svg>
