<svg width="70" height="71" viewBox="0 0 70 71" fill="none" xmlns="http://www.w3.org/2000/svg">
<path d="M36.4764 34.4679C36.4649 34.4559 36.4616 34.4399 36.4499 34.4281L24.7462 22.7243V15.3704C24.7462 14.8255 24.5299 14.3049 24.1455 13.9203L11.8408 1.47905C11.5539 1.19233 11.1884 0.997086 10.7906 0.917976C10.3928 0.838865 9.98048 0.879441 9.60571 1.03458C9.23088 1.18958 8.9105 1.45236 8.68516 1.78963C8.45983 2.1269 8.33969 2.52347 8.33997 2.92909V9.08143H2.05091C1.64531 9.0811 1.24875 9.2012 0.911497 9.42652C0.574244 9.65183 0.311485 9.97221 0.15653 10.347C0.000992117 10.7217 -0.0397851 11.1342 0.0393683 11.5321C0.118522 11.93 0.314041 12.2955 0.60114 12.5821L13.0425 25.0234C13.2329 25.2139 13.4589 25.365 13.7077 25.4681C13.9565 25.5712 14.2231 25.6243 14.4924 25.6243H21.8464L33.5501 37.3279C33.5618 37.3397 33.5778 37.343 33.5899 37.3545C34.3883 38.1165 35.6011 38.1266 36.4102 37.3545C37.2623 36.5413 37.2431 35.2711 36.4764 34.4679Z" fill="#323756"/>
<path d="M34.9997 0.878448C29.7523 0.878448 24.7909 2.21351 20.3232 4.29888L26.6142 10.5899C29.2545 9.71185 32.0686 9.21829 34.9999 9.21829C49.6997 9.21816 61.6597 21.1783 61.6597 35.8782C61.6597 50.578 49.6997 62.5382 34.9997 62.5382C20.2997 62.5382 8.33971 50.5782 8.33971 35.8782C8.33971 32.9469 8.8334 30.1328 9.71127 27.4925L3.42029 21.2016C1.3352 25.6694 0 30.6308 0 35.8782C0 55.1021 15.7758 70.878 34.9997 70.878C54.2236 70.878 69.9996 55.1021 69.9996 35.8782C69.9996 16.6543 54.2239 0.878448 34.9997 0.878448Z" fill="#323756"/>
<path d="M35.0038 17.4213C32.8361 17.4213 30.7853 17.8656 28.8514 18.5551V21.0261L33.5924 25.7671C34.0581 25.702 34.5205 25.6244 35.0038 25.6244C40.6575 25.6244 45.2577 30.2246 45.2577 35.8783C45.2577 41.532 40.6575 46.1322 35.0038 46.1322C29.35 46.1322 24.7499 41.532 24.7499 35.8783C24.7499 35.3949 24.8275 34.9325 24.8926 34.4669L20.1517 29.7258H17.6807C16.9912 31.6597 16.5469 33.7105 16.5469 35.8782C16.5469 46.0559 24.8262 54.3351 35.0038 54.3351C45.1814 54.3351 53.4608 46.0559 53.4608 35.8782C53.4608 25.7004 45.1815 17.4213 35.0038 17.4213Z" fill="#323756"/>
</svg>
