<svg width="24" height="25" viewBox="0 0 24 25" fill="none" xmlns="http://www.w3.org/2000/svg">
<g clip-path="url(#clip0_333_4370)">
<path d="M23.994 24.9392V24.9383H24V16.1363C24 11.8304 23.073 8.51331 18.039 8.51331C15.6189 8.51331 13.995 9.84141 13.332 11.1002H13.2621V8.91531H8.4891V24.9383H13.4592V17.0042C13.4592 14.9153 13.8552 12.8951 16.4421 12.8951C18.9912 12.8951 19.029 15.2792 19.029 17.138V24.9392H23.994ZM0.396 8.91621H5.3721V24.9392H0.396V8.91621ZM2.8821 0.939209C1.2909 0.939209 0 2.23011 0 3.82131C0 5.41251 1.2909 6.73041 2.8821 6.73041C4.4733 6.73041 5.7642 5.41251 5.7642 3.82131C5.763 2.23011 4.4721 0.939209 2.8821 0.939209Z" fill="#0073B1"/>
</g>
<defs>
<clipPath id="clip0_333_4370">
<rect width="24" height="24" fill="white" transform="translate(0 0.939209)"/>
</clipPath>
</defs>
</svg>
