<svg width="40" height="41" viewBox="0 0 40 41" fill="none" xmlns="http://www.w3.org/2000/svg">
<rect y="0.938965" width="40" height="40" rx="8" fill="white"/>
<g clip-path="url(#clip0_227_1345)">
<path d="M20 10.939C15.865 10.939 12.5 14.3273 12.5 18.4931C12.5 24.4123 19.295 30.524 19.5842 30.7806C19.6985 30.8829 19.8464 30.9396 19.9998 30.9397C20.1532 30.9399 20.3013 30.8836 20.4158 30.7815C20.705 30.524 27.5 24.4123 27.5 18.4931C27.5 14.3273 24.135 10.939 20 10.939ZM20 22.6056C17.7025 22.6056 15.8333 20.7365 15.8333 18.439C15.8333 16.1415 17.7025 14.2723 20 14.2723C22.2975 14.2723 24.1667 16.1415 24.1667 18.439C24.1667 20.7365 22.2975 22.6056 20 22.6056Z" fill="#18BC86"/>
</g>
<defs>
<clipPath id="clip0_227_1345">
<rect width="20" height="20" fill="white" transform="translate(10 10.939)"/>
</clipPath>
</defs>
</svg>
