<svg width="70" height="62" viewBox="0 0 70 62" fill="none" xmlns="http://www.w3.org/2000/svg">
<path d="M56.9425 32.3449L43.0491 30.3337L36.8352 17.7433C36.6661 17.3995 36.4041 17.11 36.0789 16.9075C35.7536 16.705 35.3781 16.5977 34.995 16.5977C34.6119 16.5977 34.2364 16.705 33.9111 16.9075C33.5859 17.11 33.3239 17.3995 33.1548 17.7433L26.9409 30.3337L13.0475 32.3449C12.6684 32.3995 12.3121 32.5592 12.019 32.8059C11.726 33.0527 11.5079 33.3765 11.3895 33.7409C11.2711 34.1052 11.2571 34.4954 11.3491 34.8673C11.4411 35.2391 11.6354 35.5778 11.91 35.8449L21.9643 45.6462L19.5909 59.4836C19.5268 59.8606 19.5694 60.248 19.7139 60.6021C19.8584 60.9562 20.099 61.2628 20.4086 61.4874C20.7182 61.7119 21.0844 61.8454 21.4658 61.8728C21.8473 61.9002 22.2288 61.8204 22.5673 61.6423L34.995 55.1127L47.4214 61.6423C47.7602 61.8211 48.1424 61.9014 48.5245 61.874C48.9066 61.8467 49.2735 61.7129 49.5835 61.4877C49.8934 61.2626 50.1341 60.9551 50.2783 60.6002C50.4225 60.2452 50.4643 59.857 50.3991 59.4795L48.0257 45.6462L58.08 35.8462C58.3546 35.5792 58.5489 35.2405 58.6409 34.8686C58.7329 34.4968 58.7189 34.1065 58.6005 33.7422C58.4821 33.3779 58.264 33.054 57.971 32.8073C57.6779 32.5606 57.3216 32.4008 56.9425 32.3462V32.3449Z" fill="#7544F1"/>
<path d="M69.8956 10.1878C69.7774 9.82386 69.5596 9.50023 69.267 9.25354C68.9744 9.00685 68.6187 8.84696 68.2399 8.79195L61.0786 7.75152L57.8766 1.26285C57.7076 0.91905 57.4455 0.629496 57.1203 0.427006C56.795 0.224515 56.4195 0.117187 56.0364 0.117188C55.6533 0.117187 55.2778 0.224515 54.9526 0.427006C54.6273 0.629496 54.3653 0.91905 54.1962 1.26285L50.9929 7.75152L43.8329 8.79195C43.4548 8.84732 43.0998 9.0072 42.8077 9.25357C42.5157 9.49994 42.2983 9.823 42.18 10.1863C42.0617 10.5496 42.0473 10.9388 42.1384 11.3099C42.2295 11.6809 42.4224 12.0192 42.6954 12.2865L47.877 17.3451L46.6534 24.4763C46.5883 24.8533 46.63 25.241 46.7737 25.5956C46.9174 25.9501 47.1574 26.2574 47.4666 26.4827C47.7758 26.708 48.1419 26.8423 48.5234 26.8704C48.905 26.8986 49.2868 26.8194 49.6257 26.642L56.0309 23.2746L62.4417 26.642C62.7805 26.8203 63.1625 26.9003 63.5444 26.8728C63.9263 26.8453 64.2929 26.7114 64.6026 26.4863C64.9124 26.2612 65.1529 25.9539 65.297 25.5991C65.4411 25.2444 65.4831 24.8564 65.4181 24.4791L64.1944 17.3451L69.3774 12.2865C69.6506 12.0196 69.8439 11.6818 69.9355 11.311C70.027 10.9402 70.0132 10.5512 69.8956 10.1878ZM20.3679 26.642C20.7067 26.8207 21.0889 26.901 21.471 26.8736C21.8531 26.8463 22.22 26.7125 22.5299 26.4874C22.8399 26.2622 23.0806 25.9547 23.2248 25.5998C23.3689 25.2448 23.4108 24.8566 23.3456 24.4791L22.1151 17.3478L27.2981 12.2865C27.5728 12.0194 27.7671 11.6807 27.8591 11.3089C27.9511 10.937 27.9371 10.5468 27.8187 10.1825C27.7003 9.81813 27.4822 9.49425 27.1891 9.24753C26.8961 9.0008 26.5398 8.84108 26.1606 8.78648L19.0007 7.75152L15.7973 1.26285C15.6283 0.91905 15.3662 0.629496 15.041 0.427006C14.7157 0.224515 14.3402 0.117188 13.9571 0.117188C13.574 0.117188 13.1985 0.224515 12.8733 0.427006C12.548 0.629496 12.286 0.91905 12.1169 1.26285L8.91493 7.75152L1.7536 8.79195C1.37555 8.84732 1.02048 9.0072 0.728433 9.25357C0.436387 9.49994 0.218975 9.823 0.10071 10.1863C-0.017554 10.5496 -0.0319671 10.9388 0.0590961 11.3099C0.150159 11.6809 0.343077 12.0192 0.616098 12.2865L5.79774 17.3451L4.57547 24.4763C4.50984 24.8539 4.5513 25.2423 4.69516 25.5974C4.83902 25.9526 5.07951 26.2604 5.38938 26.4858C5.69924 26.7113 6.06608 26.8454 6.44829 26.873C6.83051 26.9006 7.21281 26.8206 7.55184 26.642L13.9571 23.2746L20.3679 26.642Z" fill="#7544F1"/>
</svg>
