<svg width="70" height="60" viewBox="0 0 70 60" fill="none" xmlns="http://www.w3.org/2000/svg">
<path d="M64.1666 9.58314H49.5834V6.66639C49.5834 3.44926 46.9673 0.833008 43.75 0.833008H26.25C23.0329 0.833008 20.4166 3.44912 20.4166 6.66639V9.58301H5.83338C2.61611 9.58314 6.06391e-08 12.1993 6.06391e-08 15.4164V24.1664C6.06391e-08 27.3837 2.61611 29.9998 5.83338 29.9998H29.1668V28.5414C29.1666 28.3498 29.2043 28.1601 29.2775 27.9831C29.3508 27.8061 29.4582 27.6453 29.5936 27.5099C29.7291 27.3744 29.8899 27.267 30.0669 27.1938C30.2439 27.1205 30.4336 27.0829 30.6251 27.083H39.3751C39.5667 27.0829 39.7564 27.1205 39.9334 27.1938C40.1104 27.267 40.2712 27.3744 40.4066 27.5099C40.5421 27.6453 40.6495 27.8061 40.7228 27.9831C40.796 28.1601 40.8336 28.3498 40.8335 28.5414V29.9998H64.1669C67.3839 29.9998 70 27.3837 70 24.1664V15.4164C70 12.1993 67.3839 9.58314 64.1666 9.58314ZM43.75 9.58314H26.25V6.66639H43.75V9.58314ZM69.191 31.5734C68.9479 31.4529 68.676 31.4025 68.4058 31.4279C68.1356 31.4533 67.8778 31.5535 67.6614 31.7172C66.6247 32.502 65.4169 32.9164 64.1665 32.9164H40.8334V37.2914C40.8335 37.4829 40.7959 37.6726 40.7226 37.8496C40.6494 38.0266 40.542 38.1874 40.4065 38.3229C40.2711 38.4583 40.1102 38.5658 39.9332 38.639C39.7562 38.7123 39.5666 38.7499 39.375 38.7498H30.625C30.4334 38.7499 30.2437 38.7123 30.0668 38.639C29.8898 38.5658 29.7289 38.4583 29.5935 38.3229C29.458 38.1874 29.3506 38.0266 29.2774 37.8496C29.2041 37.6726 29.1665 37.4829 29.1666 37.2914V32.9164H5.83338C4.58295 32.9164 3.37531 32.502 2.33844 31.7172C2.12263 31.5522 1.86476 31.4512 1.59428 31.4258C1.3238 31.4003 1.05162 31.4515 0.808828 31.5734C0.565824 31.6943 0.361373 31.8806 0.21848 32.1113C0.0755864 32.342 -7.81944e-05 32.6081 6.06391e-08 32.8795L6.06391e-08 53.3331C6.06391e-08 56.5503 2.61611 59.1665 5.83338 59.1665H64.1668C67.3839 59.1665 70.0001 56.5504 70.0001 53.3331V32.8795C70.0002 32.608 69.9244 32.342 69.7815 32.1113C69.6386 31.8805 69.4341 31.6943 69.191 31.5734Z" fill="#18BC86"/>
</svg>
