<svg width="70" height="70" viewBox="0 0 70 70" fill="none" xmlns="http://www.w3.org/2000/svg">
<g clip-path="url(#clip0_34_3731)">
<path d="M47.4414 31.7162H67.9492C69.0813 31.7162 70 30.7975 70 29.6654V13.2592C70 12.1271 69.0813 11.2084 67.9492 11.2084H47.4414C46.3094 11.2084 45.3906 12.1271 45.3906 13.2592V19.4115H40.0019C39.7284 18.7496 39.327 18.1481 38.8206 17.6417C38.3142 17.1353 37.7127 16.7339 37.0508 16.4604V6.99883L38.4713 8.4207C38.8719 8.82129 39.3969 9.0209 39.9219 9.0209C40.4469 9.0209 40.9719 8.82129 41.3725 8.4207C42.1723 7.61953 42.1723 6.3207 41.3725 5.51953L36.4506 0.597656C36.0678 0.201172 35.5346 0.00292969 35 0.00292969C34.4668 0.00292969 33.9322 0.201172 33.5494 0.597656L28.6275 5.51953C27.8277 6.3207 27.8277 7.61953 28.6275 8.4207C29.4287 9.22051 30.7275 9.22051 31.5287 8.4207L32.9492 6.99883V16.4604C30.9822 17.2704 29.5928 19.2074 29.5928 21.4623C29.5928 23.7172 30.9822 25.6542 32.9492 26.4642V34.0404C32.9492 34.1044 32.953 34.1676 32.9588 34.2302C32.2947 34.503 31.6912 34.9045 31.1831 35.4116C30.675 35.9187 30.2722 36.5214 29.9981 37.185H24.6094V31.0326C24.6094 29.9006 23.6906 28.9818 22.5586 28.9818H2.05078C0.91875 28.9818 0 29.9006 0 31.0326V47.4389C0 48.5709 0.91875 49.4897 2.05078 49.4897H22.5586C23.6906 49.4897 24.6094 48.5709 24.6094 47.4389V41.2865H29.9981C30.2716 41.9485 30.673 42.5499 31.1794 43.0563C31.6858 43.5627 32.2873 43.9642 32.9492 44.2376V52.0075C30.9822 52.8174 29.5928 54.7544 29.5928 57.0093C29.5928 59.2642 30.9822 61.2013 32.9492 62.0112V67.9468C32.9492 69.0788 33.868 69.9976 35 69.9976C36.132 69.9976 37.0508 69.0788 37.0508 67.9468V62.0112C37.7127 61.7378 38.3142 61.3363 38.8206 60.8299C39.327 60.3235 39.7284 59.722 40.0019 59.0601H45.3906V65.2124C45.3906 66.3445 46.3094 67.2632 47.4414 67.2632H67.9492C69.0813 67.2632 70 66.3445 70 65.2124V48.8062C70 47.6742 69.0813 46.7554 67.9492 46.7554H47.4414C46.3094 46.7554 45.3906 47.6742 45.3906 48.8062V54.9585H40.0019C39.7284 54.2966 39.327 53.6952 38.8206 53.1887C38.3142 52.6823 37.7127 52.2809 37.0508 52.0075V44.2376C39.0178 43.4277 40.4072 41.4906 40.4072 39.2357C40.4072 36.9771 39.0132 35.0378 37.0412 34.2302C37.047 34.1676 37.0508 34.1045 37.0508 34.0404V26.4642C37.7127 26.1907 38.3142 25.7893 38.8206 25.2829C39.327 24.7765 39.7284 24.175 40.0019 23.5131H45.3906V29.6654C45.3906 30.7975 46.3094 31.7162 47.4414 31.7162ZM14.6289 41.2865H10.2539C9.12187 41.2865 8.20312 40.3678 8.20312 39.2357C8.20312 38.1037 9.12187 37.185 10.2539 37.185H14.6289C15.7609 37.185 16.6797 38.1037 16.6797 39.2357C16.6797 40.3678 15.7609 41.2865 14.6289 41.2865ZM55.6445 54.9584H60.0195C61.1516 54.9584 62.0703 55.8772 62.0703 57.0092C62.0703 58.1412 61.1516 59.06 60.0195 59.06H55.6445C54.5125 59.06 53.5938 58.1412 53.5938 57.0092C53.5938 55.8772 54.5125 54.9584 55.6445 54.9584ZM55.6445 19.4115H60.0195C61.1516 19.4115 62.0703 20.3303 62.0703 21.4623C62.0703 22.5943 61.1516 23.5131 60.0195 23.5131H55.6445C54.5125 23.5131 53.5938 22.5943 53.5938 21.4623C53.5938 20.3303 54.5125 19.4115 55.6445 19.4115Z" fill="#ED9144"/>
</g>
<defs>
<clipPath id="clip0_34_3731">
<rect width="70" height="70" fill="white"/>
</clipPath>
</defs>
</svg>
