<svg width="70" height="70" viewBox="0 0 70 70" fill="none" xmlns="http://www.w3.org/2000/svg">
<path d="M52.0364 45.8213C51.4952 42.1442 49.654 38.7828 46.8466 36.347C44.0393 33.9112 40.4519 32.5623 36.7352 32.5451H33.2713C29.5546 32.5623 25.9672 33.9112 23.1599 36.347C20.3526 38.7828 18.5113 42.1442 17.9701 45.8213L16.3098 57.4306C16.2568 57.8059 16.2918 58.1883 16.4122 58.5477C16.5325 58.9071 16.7349 59.2335 17.0032 59.5012C17.6544 60.1523 21.6489 63.4729 35.0065 63.4729C48.3641 63.4729 52.3489 60.1653 53.0098 59.5012C53.2781 59.2335 53.4805 58.9071 53.6008 58.5477C53.7212 58.1883 53.7563 57.8059 53.7032 57.4306L52.0364 45.8213ZM20.5453 34.3357C17.3989 37.2362 15.3517 41.1351 14.7504 45.372L13.5458 53.7063C3.87682 53.6411 0.946813 50.1251 0.458479 49.4089C0.269715 49.1487 0.13501 48.8533 0.0623186 48.5402C-0.0103724 48.2271 -0.0195746 47.9025 0.0352557 47.5858L0.75148 43.5489C1.12464 41.4391 2.00103 39.4504 3.30636 37.7515C4.61168 36.0525 6.30744 34.6933 8.24985 33.7892C10.1923 32.8851 12.324 32.4627 14.4644 32.5578C16.6048 32.653 18.6908 33.2628 20.5453 34.3357ZM69.9647 47.5858C70.0196 47.9025 70.0104 48.2271 69.9377 48.5402C69.865 48.8533 69.7303 49.1487 69.5415 49.4089C69.0532 50.1251 66.1232 53.6411 56.4542 53.7063L55.2496 45.372C54.6483 41.1351 52.6011 37.2362 49.4547 34.3357C51.3092 33.2628 53.3952 32.653 55.5356 32.5578C57.676 32.4627 59.8077 32.8851 61.7502 33.7892C63.6926 34.6933 65.3883 36.0525 66.6936 37.7515C67.999 39.4504 68.8754 41.4391 69.2485 43.5489L69.9647 47.5858ZM21.0987 27.1734C20.2793 28.3356 19.1913 29.2829 17.9274 29.9347C16.6635 30.5865 15.2609 30.9236 13.8388 30.9173C12.4203 30.9173 11.022 30.5802 9.75922 29.9338C8.49648 29.2874 7.40542 28.3501 6.57595 27.1993C5.74649 26.0485 5.20237 24.717 4.98844 23.3147C4.7745 21.9123 4.89688 20.4792 5.34547 19.1334C5.79407 17.7876 6.55605 16.5677 7.56861 15.5742C8.58118 14.5806 9.81535 13.8419 11.1694 13.419C12.5235 12.996 13.9587 12.9008 15.3567 13.1413C16.7548 13.3818 18.0756 13.9511 19.2105 14.8023C18.8841 16.0788 18.72 17.3914 18.7222 18.709C18.7247 21.6948 19.5467 24.6227 21.0987 27.1734ZM65.114 21.9645C65.1148 23.1405 64.8838 24.305 64.4342 25.3916C63.9846 26.4782 63.3252 27.4655 62.4936 28.297C61.6621 29.1285 60.6749 29.788 59.5883 30.2376C58.5017 30.6872 57.3371 30.9182 56.1612 30.9173C54.7391 30.9236 53.3365 30.5865 52.0726 29.9347C50.8087 29.2829 49.7207 28.3356 48.9013 27.1734C50.4533 24.6227 51.2753 21.6948 51.2778 18.709C51.28 17.3914 51.1159 16.0788 50.7895 14.8023C52.1196 13.8047 53.7012 13.1972 55.3571 13.0479C57.0131 12.8986 58.6779 13.2133 60.165 13.9569C61.6521 14.7005 62.9028 15.8434 63.7769 17.2578C64.651 18.6721 65.114 20.3019 65.114 21.9645Z" fill="#B275B2"/>
<path d="M34.9974 30.9167C41.7399 30.9167 47.2058 25.4508 47.2058 18.7084C47.2058 11.9659 41.7399 6.5 34.9974 6.5C28.2549 6.5 22.7891 11.9659 22.7891 18.7084C22.7891 25.4508 28.2549 30.9167 34.9974 30.9167Z" fill="#B275B2"/>
</svg>
