<svg width="24" height="24" viewBox="0 0 24 24" fill="none" xmlns="http://www.w3.org/2000/svg">
<path d="M23.1275 9.86801L20.9765 7.71401V5.99601C20.976 5.20254 20.6608 4.44166 20.1002 3.88022C19.5395 3.31878 18.779 3.00259 17.9855 3.00101H16.2695L14.1185 0.848006C12.9875 -0.282994 11.0175 -0.282994 9.88754 0.848006L7.73654 3.00101H6.02054C5.22699 3.00233 4.46638 3.31843 3.90563 3.87993C3.34488 4.44143 3.0298 5.20246 3.02954 5.99601V7.71401L0.87754 9.86801C0.317994 10.4307 0.00390625 11.192 0.00390625 11.9855C0.00390625 12.779 0.317994 13.5403 0.87754 14.103L3.02854 16.257V17.975C3.02907 18.7685 3.34423 19.5294 3.90492 20.0908C4.46562 20.6522 5.22607 20.9684 6.01954 20.97H7.73554L9.88654 23.123C10.4515 23.688 11.2035 24 12.0025 24C12.8015 24 13.5525 23.688 14.1175 23.123L16.2685 20.97H17.9845C18.7781 20.9687 19.5387 20.6526 20.0994 20.0911C20.6602 19.5296 20.9753 18.7686 20.9755 17.975V16.257L23.1275 14.103C23.6871 13.5403 24.0012 12.779 24.0012 11.9855C24.0012 11.192 23.6871 10.4307 23.1275 9.86801Z" fill="#EAE6F8"/>
<path d="M18.2061 10.2112L13.1521 15.2062C12.5381 15.8162 11.7291 16.1222 10.9211 16.1222C10.1131 16.1222 9.30809 15.8172 8.69209 15.2092L6.09309 12.7102C5.99978 12.6177 5.9256 12.5078 5.87478 12.3867C5.82396 12.2656 5.79749 12.1356 5.79689 12.0043C5.79628 11.8729 5.82156 11.7427 5.87126 11.6212C5.92097 11.4996 5.99414 11.389 6.08659 11.2957C6.17904 11.2024 6.28896 11.1282 6.41008 11.0774C6.5312 11.0265 6.66114 11.0001 6.79249 10.9995C6.92384 10.9989 7.05402 11.0241 7.1756 11.0739C7.29718 11.1236 7.40778 11.1967 7.50109 11.2892L10.0991 13.7872C10.3181 14.0034 10.6134 14.1246 10.9211 14.1246C11.2288 14.1246 11.5241 14.0034 11.7431 13.7872L16.7981 8.79118C16.9865 8.60447 17.2414 8.50026 17.5067 8.50148C17.772 8.50269 18.0259 8.60924 18.2126 8.79768C18.3993 8.98611 18.5035 9.241 18.5023 9.50627C18.5011 9.77154 18.3945 10.0245 18.2061 10.2112Z" fill="white"/>
</svg>
