<svg width="48" height="48" viewBox="0 0 48 48" fill="none" xmlns="http://www.w3.org/2000/svg">
<rect width="48" height="48" rx="24" fill="#7544F1"/>
<path d="M20.2897 28.6767V32.5417C20.2903 32.6731 20.3323 32.8009 20.4096 32.9071C20.4869 33.0133 20.5957 33.0924 20.7205 33.1334C20.8453 33.1743 20.9798 33.1749 21.105 33.1351C21.2302 33.0954 21.3397 33.0172 21.418 32.9117L23.6788 29.8351L20.2897 28.6767ZM32.7355 14.1159C32.6416 14.049 32.531 14.0094 32.416 14.0015C32.301 13.9935 32.1861 14.0176 32.0838 14.0709L13.3338 23.8626C13.226 23.9196 13.1371 24.0069 13.0781 24.1137C13.0191 24.2205 12.9926 24.3422 13.0018 24.4639C13.011 24.5855 13.0555 24.7019 13.1299 24.7986C13.2043 24.8953 13.3053 24.9683 13.4205 25.0084L18.633 26.7901L29.7338 17.2984L21.1438 27.6476L29.8797 30.6334C29.9664 30.6625 30.0584 30.6723 30.1492 30.6622C30.2401 30.652 30.3277 30.6221 30.4058 30.5746C30.4839 30.527 30.5507 30.463 30.6014 30.3869C30.6522 30.3108 30.6857 30.2246 30.6997 30.1342L32.9913 14.7176C33.0083 14.6034 32.9934 14.4868 32.9482 14.3807C32.9031 14.2745 32.8295 14.1829 32.7355 14.1159Z" fill="white"/>
</svg>
