<svg width="50" height="51" viewBox="0 0 50 51" fill="none" xmlns="http://www.w3.org/2000/svg">
<g clip-path="url(#clip0_215_207)">
<path d="M41.1267 29.4579L44.4976 20.4182C45.3557 18.4211 47.0907 18.7923 47.0907 18.7923C48.4336 19.038 49.1563 20.1385 49.0031 21.3711L45.9109 33.8015C45.1123 36.995 42.8859 40.1092 40.2939 42.1218L34.9513 45.9443V48.1984C34.9513 48.7378 34.5141 49.175 33.9747 49.175H25.0149V43.5087C25.0149 43.5087 24.4311 37.0556 30.5626 33.3289L37.8926 28.624C38.2532 28.3916 38.6731 28.268 39.1022 28.2682C39.6815 28.2682 40.2555 28.4929 40.6885 28.9258C41.5466 29.785 41.5643 31.173 40.7271 32.0532L35.7908 35.9463" stroke="#B275B2" stroke-width="3" stroke-miterlimit="10" stroke-linecap="round" stroke-linejoin="round"/>
<path d="M14.2093 35.9463L9.27309 32.0532C8.43588 31.173 8.45346 29.7851 9.31166 28.9258C9.51984 28.7172 9.76712 28.5518 10.0393 28.439C10.3115 28.3261 10.6033 28.2681 10.898 28.2682C11.3155 28.2682 11.7363 28.385 12.1076 28.624L19.4375 33.3289C25.569 37.0556 24.9852 43.5087 24.9852 43.5087V49.175H16.0254C15.4861 49.175 15.0489 48.7378 15.0489 48.1984V45.9443L9.70619 42.1218C7.1141 40.1092 4.88783 36.995 4.0892 33.8015L0.996816 21.3711C0.843691 20.1384 1.56635 19.0379 2.90922 18.7923C2.90922 18.7923 4.64418 18.4211 5.50238 20.4183L8.87328 29.4579M20.5588 27.858H19.3226C18.7832 27.858 18.346 27.4208 18.346 26.8814V21.6455C18.346 19.5267 20.0637 17.8091 22.1825 17.8091H27.8176C29.9365 17.8091 31.654 19.5268 31.654 21.6455V26.8814C31.654 27.4208 31.2168 27.858 30.6775 27.858H29.4572" stroke="#B275B2" stroke-width="3" stroke-miterlimit="10" stroke-linecap="round" stroke-linejoin="round"/>
<path d="M24.997 17.809C27.4978 17.809 29.5252 15.7817 29.5252 13.2808C29.5252 10.7799 27.4978 8.75256 24.997 8.75256C22.4961 8.75256 20.4688 10.7799 20.4688 13.2808C20.4688 15.7817 22.4961 17.809 24.997 17.809Z" stroke="#B275B2" stroke-width="3" stroke-miterlimit="10" stroke-linecap="round" stroke-linejoin="round"/>
<path d="M29.6641 11.6381H35.52C37.6389 11.6381 39.3564 13.3557 39.3564 15.4745V20.6459C39.3564 21.2207 38.8904 21.6866 38.3157 21.6866H31.6507" stroke="#B275B2" stroke-width="3" stroke-miterlimit="10" stroke-linecap="round" stroke-linejoin="round"/>
<path d="M32.7001 11.6379C35.201 11.6379 37.2283 9.61051 37.2283 7.10964C37.2283 4.60878 35.201 2.58142 32.7001 2.58142C30.1992 2.58142 28.1719 4.60878 28.1719 7.10964C28.1719 9.61051 30.1992 11.6379 32.7001 11.6379Z" stroke="#B275B2" stroke-width="3" stroke-miterlimit="10" stroke-linecap="round" stroke-linejoin="round"/>
<path d="M18.3542 21.6866H11.6892C11.1144 21.6866 10.6484 21.2207 10.6484 20.6459V15.4745C10.6484 13.3556 12.3661 11.6381 14.4849 11.6381H20.4744" stroke="#B275B2" stroke-width="3" stroke-miterlimit="10" stroke-linecap="round" stroke-linejoin="round"/>
<path d="M17.3017 11.6379C19.8025 11.6379 21.8299 9.61051 21.8299 7.10964C21.8299 4.60878 19.8025 2.58142 17.3017 2.58142C14.8008 2.58142 12.7734 4.60878 12.7734 7.10964C12.7734 9.61051 14.8008 11.6379 17.3017 11.6379Z" stroke="#B275B2" stroke-width="3" stroke-miterlimit="10" stroke-linecap="round" stroke-linejoin="round"/>
</g>
<defs>
<clipPath id="clip0_215_207">
<rect width="50" height="50" fill="white" transform="translate(0 0.878174)"/>
</clipPath>
</defs>
</svg>
