<svg width="70" height="71" viewBox="0 0 70 71" fill="none" xmlns="http://www.w3.org/2000/svg">
<g clip-path="url(#clip0_215_254)">
<path d="M14.9968 30.4035L8.2816 48.3153V48.3167C9.92486 54.8815 13.5368 60.6849 18.6497 65.0624L27.0752 61.903C18.126 53.8875 13.7089 42.0976 14.9968 30.4035ZM6.00811 54.3785L0.860959 68.1028C0.245762 69.742 1.84938 71.3634 3.50084 70.7427L14.3598 66.6715C10.7686 63.1846 7.92671 59.0016 6.00811 54.3785Z" fill="#18BC86"/>
<path d="M29.3932 28.7329L21.7387 21.0785C15.5326 35.0779 19.7754 51.0792 31.4848 60.2502L39.6547 57.1865C32.4795 49.7768 28.5987 39.4342 29.3932 28.7329ZM33.3974 32.7372C33.7119 41.4388 37.5015 49.6619 43.9132 55.5883H43.9146L49.9025 53.3436C51.301 52.8186 51.6838 51.0236 50.6325 49.9723L33.3974 32.7372ZM48.3751 39.1797C49.176 39.9805 50.4743 39.9805 51.2752 39.1797C58.99 31.4648 66.5021 33.85 66.5772 33.8749C67.6516 34.2329 68.813 33.6523 69.1711 32.5779C69.5294 31.5038 68.9486 30.3422 67.8742 29.984C67.4698 29.8493 57.8626 26.7922 48.3753 36.2796C47.5743 37.0803 47.5742 38.379 48.3751 39.1797ZM35.325 23.229C44.8127 13.7426 41.7545 4.13462 41.6206 3.72996C41.2624 2.65542 40.1003 2.07576 39.0258 2.43395C37.9526 2.79213 37.3716 3.9528 37.7298 5.02734C37.7544 5.10253 40.14 12.6148 32.424 20.3293C31.6282 21.1251 31.6202 22.4227 32.424 23.229C33.2291 24.0339 34.5264 24.0276 35.325 23.229ZM39.6749 27.5795C38.874 28.3804 38.874 29.6787 39.6749 30.4796C40.4684 31.2732 41.7577 31.2835 42.5628 30.4917C43.6221 29.9639 46.9103 31.9437 48.7377 30.117C50.5454 28.3091 48.6248 25.0878 49.1045 23.9589C50.235 23.4779 53.455 25.3995 55.2628 23.5919C57.0709 21.7841 55.1501 18.5628 55.6298 17.4337C56.7619 16.9526 59.9802 18.8745 61.7879 17.0667C63.5961 15.2589 61.6753 12.0376 62.155 10.9085C63.2804 10.4299 66.5068 12.3474 68.3134 10.5414C70.14 8.71456 68.1638 5.42052 68.6879 4.36662C69.4767 3.56495 69.4724 2.27564 68.6757 1.47875C67.875 0.6779 66.5765 0.6779 65.7757 1.47875C64.1593 3.09508 64.4755 5.37691 64.78 7.00828C63.1486 6.70382 60.8669 6.38761 59.2506 8.0038C57.6343 9.62013 57.9505 11.902 58.2549 13.5333C56.6236 13.229 54.3416 12.9125 52.7254 14.529C51.1091 16.1453 51.4254 18.4272 51.7299 20.0585C50.0982 19.7541 47.8165 19.4377 46.2004 21.054C44.584 22.6704 44.9002 24.9522 45.2047 26.5836C43.5732 26.2794 41.2911 25.9632 39.6749 27.5795ZM51.2752 10.179C52.076 9.37815 52.076 8.07981 51.2752 7.27896C50.4743 6.47812 49.176 6.47812 48.3751 7.27896C47.5743 8.07981 47.5743 9.37815 48.3751 10.179C49.176 10.9799 50.4743 10.9799 51.2752 10.179Z" fill="#18BC86"/>
<path d="M64.3241 25.2801C65.4566 25.2801 66.3748 24.3619 66.3748 23.2294C66.3748 22.0969 65.4566 21.1787 64.3241 21.1787C63.1915 21.1787 62.2734 22.0969 62.2734 23.2294C62.2734 24.3619 63.1915 25.2801 64.3241 25.2801Z" fill="#18BC86"/>
<path d="M59.9779 42.0798C59.1771 42.8807 59.1771 44.179 59.9779 44.9799C60.7788 45.7807 62.0771 45.7807 62.8779 44.9799C63.6788 44.179 63.6788 42.8807 62.8779 42.0798C62.0772 41.279 60.7788 41.279 59.9779 42.0798ZM30.9772 13.079C31.7781 12.2782 31.7781 10.9799 30.9772 10.179C30.1764 9.37816 28.878 9.37816 28.0772 10.179C27.2764 10.9797 27.2764 12.2782 28.0772 13.079C28.878 13.8799 30.1765 13.8799 30.9772 13.079Z" fill="#18BC86"/>
</g>
<defs>
<clipPath id="clip0_215_254">
<rect width="70" height="70" fill="white" transform="translate(0 0.878174)"/>
</clipPath>
</defs>
</svg>
