<svg width="22" height="23" viewBox="0 0 22 23" fill="none" xmlns="http://www.w3.org/2000/svg">
<path d="M11.0384 20.1255C10.8367 20.1255 10.6485 20.027 10.5332 19.8612L8.7308 17.2734L2.80559 17.2614C1.81031 17.2589 1 16.4478 1 15.4526V4.80078C0.9992 3.80791 1.80711 3 2.79998 3H19.2625C20.2201 3 21 3.77909 21 4.73753V15.4542C21 16.4494 20.1905 17.2589 19.1952 17.2589H13.2444L11.5549 19.846C11.4428 20.0182 11.253 20.1223 11.048 20.1255C11.0448 20.1255 11.0416 20.1255 11.0392 20.1255H11.0384ZM2.79998 3.88078C2.29234 3.88078 1.87998 4.29394 1.87998 4.80078V15.4518C1.87998 15.9626 2.29554 16.379 2.80639 16.3798L9.19041 16.3926L11.0312 19.0349L12.7672 16.3766H19.1952C19.7053 16.3766 20.1192 15.9618 20.1192 15.4526V4.73753C20.1192 4.26511 19.7349 3.88078 19.2625 3.88078H2.79998Z" fill="#7544F1" stroke="#7544F1" stroke-width="0.4"/>
<path d="M16.4207 7.32304H13.8857C13.6423 7.32304 13.4453 7.12606 13.4453 6.88265C13.4453 6.63923 13.6423 6.44226 13.8857 6.44226H16.4207C16.6641 6.44226 16.8611 6.63923 16.8611 6.88265C16.8611 7.12606 16.6641 7.32304 16.4207 7.32304Z" fill="#7544F1" stroke="#7544F1" stroke-width="0.4"/>
<path d="M18.1991 9.48978H13.8857C13.6423 9.48978 13.4453 9.29281 13.4453 9.0494C13.4453 8.80598 13.6423 8.60901 13.8857 8.60901H18.1991C18.4425 8.60901 18.6395 8.80598 18.6395 9.0494C18.6395 9.29281 18.4425 9.48978 18.1991 9.48978Z" fill="#7544F1" stroke="#7544F1" stroke-width="0.4"/>
<path d="M18.1991 11.6573H13.8857C13.6423 11.6573 13.4453 11.4603 13.4453 11.2169C13.4453 10.9735 13.6423 10.7765 13.8857 10.7765H18.1991C18.4425 10.7765 18.6395 10.9735 18.6395 11.2169C18.6395 11.4603 18.4425 11.6573 18.1991 11.6573Z" fill="#7544F1" stroke="#7544F1" stroke-width="0.4"/>
<path d="M18.1991 13.8239H13.8857C13.6423 13.8239 13.4453 13.6269 13.4453 13.3835C13.4453 13.1401 13.6423 12.9431 13.8857 12.9431H18.1991C18.4425 12.9431 18.6395 13.1401 18.6395 13.3835C18.6395 13.6269 18.4425 13.8239 18.1991 13.8239Z" fill="#7544F1" stroke="#7544F1" stroke-width="0.4"/>
<path d="M9.99398 14.3541C9.86106 14.3541 9.72735 14.322 9.60404 14.2572L7.80245 13.3059L5.99766 14.2508C5.71421 14.3989 5.37792 14.3741 5.12009 14.1859C4.86146 13.9978 4.73495 13.6855 4.7902 13.37L5.13771 11.3626L3.68123 9.93819C3.45302 9.71479 3.37215 9.3873 3.47144 9.08303C3.57073 8.77957 3.82855 8.56258 4.14563 8.51694L6.16181 8.22708L7.0666 6.40147C7.20833 6.11562 7.49418 5.93787 7.81366 5.93787H7.81526C8.13474 5.93787 8.4206 6.11722 8.56232 6.40388L9.46071 8.23188L11.4761 8.52815C11.7924 8.57459 12.0502 8.79238 12.1479 9.09665C12.2456 9.40091 12.1647 9.7284 11.9357 9.951L10.4744 11.3706L10.8155 13.3788C10.8692 13.6943 10.7418 14.0058 10.4824 14.1931C10.3367 14.2988 10.1661 14.3525 9.99398 14.3525V14.3541ZM7.80245 12.4188C7.93617 12.4188 8.06989 12.4508 8.19159 12.5157L9.93073 13.4333L9.60164 11.4948C9.556 11.2241 9.64567 10.9487 9.84265 10.7573L11.2527 9.3873L9.30698 9.10145C9.03554 9.06141 8.80093 8.89086 8.68002 8.64425L7.81286 6.87949L6.94009 8.64104C6.81839 8.88686 6.58298 9.05661 6.31154 9.09584L4.36503 9.37529L5.77106 10.7501C5.96724 10.9423 6.05611 11.2177 6.00967 11.4884L5.67418 13.4261L7.41571 12.5141C7.53662 12.4508 7.66954 12.4188 7.80245 12.4188Z" fill="#7544F1" stroke="#7544F1" stroke-width="0.4"/>
</svg>
