<svg width="28" height="28" viewBox="0 0 28 28" fill="none" xmlns="http://www.w3.org/2000/svg">
<path d="M27.0114 13.7664L26.9748 8.63209L26.9382 2.18119L23.094 6.00119C20.7518 2.95759 17.0741 0.992676 12.9453 0.992676V7.72166C15.1806 7.72166 17.1361 8.93674 18.19 10.7405L15.3436 13.4428L19.0107 13.5627C19.0136 13.6394 19.0166 13.7156 19.0166 13.7929H25.7456C25.7456 13.7746 25.745 13.7569 25.745 13.7386L27.0102 13.7664H27.0114Z" fill="#1636AF"/>
<path d="M8.45229 1.07405L2.00257 1.2069L5.34906 4.47545C2.19445 6.80937 0.144531 10.5556 0.144531 14.7717H6.87352C6.87352 12.4024 8.23856 10.3466 10.223 9.34698L13.4354 12.6303L13.5476 6.31047L13.5842 0.960693L8.45111 1.07405H8.45229Z" fill="#2A84FA"/>
<path d="M18.1239 17.947C17.008 19.7602 15.0726 20.843 12.9477 20.843C10.9497 20.843 9.17432 19.8724 8.06728 18.3786L11.7444 14.7706L5.42457 14.6678L0.0742188 14.6389L0.195257 19.772L0.337543 26.2211L3.30144 23.1775C5.65012 25.8693 9.10348 27.5726 12.9477 27.5726C17.4272 27.5726 21.5046 25.293 23.8551 21.4748L18.1245 17.9476L18.1239 17.947Z" fill="#AAAAAA"/>
</svg>
