<svg width="14" height="15" viewBox="0 0 14 15" fill="none" xmlns="http://www.w3.org/2000/svg">
<path d="M13.9635 6.04685C13.9187 5.90208 13.8341 5.77427 13.7202 5.67933C13.6063 5.5844 13.4681 5.52654 13.3229 5.51299L9.28214 5.13009L7.68432 1.22753C7.56647 0.94154 7.29817 0.75647 7.00006 0.75647C6.70195 0.75647 6.43362 0.941568 6.31582 1.22825L4.71797 5.13012L0.676549 5.51299C0.531519 5.52685 0.393577 5.58482 0.279825 5.67972C0.166074 5.77462 0.0815157 5.90228 0.0366352 6.04685C-0.0555428 6.34269 0.0295803 6.66715 0.254215 6.87168L3.30859 9.66684L2.40792 13.8068C2.34202 14.1112 2.45522 14.4259 2.69727 14.6084C2.82735 14.7065 2.97958 14.7565 3.13306 14.7565C3.26541 14.7565 3.39666 14.7192 3.51452 14.6457L7.00006 12.4718L10.4843 14.6457C10.7393 14.8057 11.0607 14.7911 11.3022 14.6084C11.4204 14.5191 11.5109 14.3955 11.5624 14.253C11.6138 14.1105 11.624 13.9553 11.5916 13.8068L10.6909 9.66684L13.7453 6.87225C13.8551 6.77211 13.9344 6.6405 13.9732 6.49375C14.012 6.34701 14.0086 6.19161 13.9635 6.04685Z" fill="#969696"/>
</svg>
