<svg width="50" height="50" viewBox="0 0 50 50" fill="none" xmlns="http://www.w3.org/2000/svg">
<g clip-path="url(#clip0_436_6851)">
<path d="M41.4062 0H8.59375C3.84375 0 0 3.85938 0 8.59375V41.4062C0 46.1406 3.84375 50 8.59375 50H41.4062C46.1406 50 50 46.1406 50 41.4062V8.59375C50 3.85938 46.1406 0 41.4062 0ZM18.75 4.6875H21.0938C22.375 4.6875 23.4375 5.73438 23.4375 7.03125C23.4375 8.32812 22.375 9.375 21.0938 9.375H18.75C17.4531 9.375 16.4062 8.32812 16.4062 7.03125C16.4062 5.73438 17.4531 4.6875 18.75 4.6875ZM32.1562 23.7344C32.5625 24.0312 32.8125 24.5 32.8125 25C32.8125 25.5156 32.5625 25.9844 32.1562 26.2812L21.2188 34.0938C20.9375 34.2812 20.625 34.375 20.3125 34.375C20.062 34.3813 19.8143 34.3221 19.5938 34.2031C19.3386 34.0716 19.1249 33.8721 18.976 33.6267C18.8271 33.3813 18.7489 33.0995 18.75 32.8125V17.1875C18.75 16.6094 19.0781 16.0781 19.5938 15.8125C20.1094 15.5469 20.7344 15.5781 21.2188 15.9219L32.1562 23.7344ZM10.9375 45.3125H8.59375C7.29688 45.3125 6.25 44.2656 6.25 42.9688C6.25 41.6719 7.29688 40.625 8.59375 40.625H10.9375C12.2188 40.625 13.2812 41.6719 13.2812 42.9688C13.2812 44.2656 12.2188 45.3125 10.9375 45.3125ZM10.9375 9.375H8.59375C7.29688 9.375 6.25 8.32812 6.25 7.03125C6.25 5.73438 7.29688 4.6875 8.59375 4.6875H10.9375C12.2188 4.6875 13.2812 5.73438 13.2812 7.03125C13.2812 8.32812 12.2188 9.375 10.9375 9.375ZM21.0938 45.3125H18.75C17.4531 45.3125 16.4062 44.2656 16.4062 42.9688C16.4062 41.6719 17.4531 40.625 18.75 40.625H21.0938C22.375 40.625 23.4375 41.6719 23.4375 42.9688C23.4375 44.2656 22.375 45.3125 21.0938 45.3125ZM31.25 45.3125H28.9062C27.6094 45.3125 26.5625 44.2656 26.5625 42.9688C26.5625 41.6719 27.6094 40.625 28.9062 40.625H31.25C32.5312 40.625 33.5938 41.6719 33.5938 42.9688C33.5938 44.2656 32.5312 45.3125 31.25 45.3125ZM31.25 9.375H28.9062C27.6094 9.375 26.5625 8.32812 26.5625 7.03125C26.5625 5.73438 27.6094 4.6875 28.9062 4.6875H31.25C32.5312 4.6875 33.5938 5.73438 33.5938 7.03125C33.5938 8.32812 32.5312 9.375 31.25 9.375ZM41.4062 45.3125H39.0625C37.7656 45.3125 36.7188 44.2656 36.7188 42.9688C36.7188 41.6719 37.7656 40.625 39.0625 40.625H41.4062C42.6875 40.625 43.75 41.6719 43.75 42.9688C43.75 44.2656 42.6875 45.3125 41.4062 45.3125ZM41.4062 9.375H39.0625C37.7656 9.375 36.7188 8.32812 36.7188 7.03125C36.7188 5.73438 37.7656 4.6875 39.0625 4.6875H41.4062C42.6875 4.6875 43.75 5.73438 43.75 7.03125C43.75 8.32812 42.6875 9.375 41.4062 9.375Z" fill="#708090"/>
</g>
<defs>
<clipPath id="clip0_436_6851">
<rect width="50" height="50" fill="white"/>
</clipPath>
</defs>
</svg>
