<svg width="22" height="23" viewBox="0 0 22 23" fill="none" xmlns="http://www.w3.org/2000/svg">
<path d="M14.1169 9.55658L9.90935 5.34908C9.7376 5.17835 9.50527 5.08252 9.2631 5.08252C9.02093 5.08252 8.7886 5.17835 8.61685 5.34908C8.53093 5.4343 8.46274 5.53568 8.4162 5.64738C8.36966 5.75909 8.3457 5.8789 8.3457 5.99991C8.3457 6.12092 8.36966 6.24074 8.4162 6.35244C8.46274 6.46415 8.53093 6.56553 8.61685 6.65075L12.8335 10.8491C12.9194 10.9343 12.9876 11.0357 13.0342 11.1474C13.0807 11.2591 13.1047 11.3789 13.1047 11.4999C13.1047 11.6209 13.0807 11.7407 13.0342 11.8524C12.9876 11.9641 12.9194 12.0655 12.8335 12.1507L8.61685 16.3491C8.44424 16.5205 8.34678 16.7534 8.34593 16.9967C8.34507 17.2399 8.44087 17.4736 8.61227 17.6462C8.78367 17.8188 9.01661 17.9162 9.25986 17.9171C9.50311 17.918 9.73674 17.8221 9.90935 17.6507L14.1169 13.4432C14.6318 12.9276 14.9211 12.2287 14.9211 11.4999C14.9211 10.7712 14.6318 10.0722 14.1169 9.55658Z" fill="#7544F1"/>
</svg>
