<svg width="54" height="54" viewBox="0 0 54 54" fill="none" xmlns="http://www.w3.org/2000/svg">
<circle cx="27.0449" cy="27.0342" r="26.8076" fill="#D5D5D5"/>
<g opacity="0.5" clip-path="url(#clip0_243_8648)">
<path d="M29.9379 30.9668H24.1513C23.7151 30.9668 23.3604 31.3216 23.3604 31.7577V33.5325C23.3604 33.9687 23.7151 34.3235 24.1513 34.3235H29.938C30.3741 34.3235 30.7289 33.9687 30.7289 33.5325V31.7577C30.7288 31.3216 30.374 30.9668 29.9379 30.9668ZM29.7119 33.3066H24.3772V31.9837H29.7119V33.3066Z" fill="black"/>
<path d="M39.9056 26.5714L39.9137 26.5673L36.1009 19.029C35.7926 18.4197 35.1772 18.0412 34.4945 18.0412H33.7699V17.3405C33.7699 17.0597 33.5423 16.832 33.2614 16.832H20.8274C20.5466 16.832 20.319 17.0597 20.319 17.3405V18.0412H19.5943C18.9117 18.0412 18.2962 18.4197 17.988 19.029L14.1751 26.5673L14.1832 26.5714C14.0199 26.8404 13.9258 27.1558 13.9258 27.4928V35.4567C13.9258 36.4386 14.7247 37.2375 15.7066 37.2375H38.3822C39.3642 37.2375 40.163 36.4386 40.163 35.4567V27.4928C40.163 27.1558 40.0689 26.8404 39.9056 26.5714ZM33.7698 19.1711H34.4945C34.7486 19.1711 34.9777 19.3121 35.0926 19.539L38.2149 25.7121H36.0918V23.8126C36.0918 23.5318 35.8642 23.3042 35.5833 23.3042H34.9543V20.5766C34.9543 20.2958 34.7267 20.0681 34.4459 20.0681H33.7698V19.1711ZM35.0749 24.321V25.712H32.3918C31.9314 25.712 31.5117 25.9832 31.3226 26.4029L30.59 28.0278C30.583 28.0432 30.5677 28.0531 30.5509 28.0531H23.538C23.5211 28.0531 23.5058 28.0432 23.4988 28.0278L22.7663 26.4029C22.5771 25.9832 22.1574 25.712 21.697 25.712H19.0139V24.321H35.0749ZM21.3359 17.8489H32.7529V20.0681H21.3359V17.8489ZM33.9374 21.085V23.3041H20.1514V21.085H33.9374ZM18.9962 19.539C19.111 19.3121 19.3402 19.1711 19.5943 19.1711H20.319V20.0681H19.6429C19.3621 20.0681 19.1345 20.2957 19.1345 20.5765V23.3041H18.5055C18.2246 23.3041 17.997 23.5317 17.997 23.8126V25.712H15.8739L18.9962 19.539ZM38.3822 36.1075H15.7066C15.3477 36.1075 15.0557 35.8155 15.0557 35.4567V27.4928C15.0557 27.1339 15.3477 26.8419 15.7066 26.8419H21.697C21.7138 26.8419 21.7293 26.8519 21.7362 26.8673L22.4688 28.4922C22.658 28.9119 23.0776 29.183 23.538 29.183H30.5508C31.0112 29.183 31.4309 28.9118 31.62 28.4922L32.3526 26.8673V26.8673C32.3596 26.8519 32.3749 26.8419 32.3918 26.8419H38.3822C38.7411 26.8419 39.033 27.134 39.033 27.4928V35.4567H39.0331C39.0331 35.8156 38.7411 36.1075 38.3822 36.1075Z" fill="black"/>
</g>
<defs>
<clipPath id="clip0_243_8648">
<rect width="26.2372" height="26.2372" fill="white" transform="translate(13.9258 13.916)"/>
</clipPath>
</defs>
</svg>
