<svg width="132" height="21" viewBox="0 0 132 21" fill="none" xmlns="http://www.w3.org/2000/svg">
<path fill-rule="evenodd" clip-rule="evenodd" d="M4.38436 6.42969C4.01723 6.42969 3.71973 6.72719 3.71973 7.09432V14.7154C3.71973 15.0825 4.01723 15.38 4.38436 15.38C4.75148 15.38 5.04898 15.0825 5.04898 14.7154V7.09432C5.04898 6.73352 4.75148 6.42969 4.38436 6.42969Z" fill="#4A8C67"/>
<path fill-rule="evenodd" clip-rule="evenodd" d="M1.16268 7.95508C0.795547 7.95508 0.498047 8.25258 0.498047 8.61971V13.1898C0.498047 13.5569 0.795547 13.8544 1.16268 13.8544C1.54246 13.8544 1.8273 13.3797 1.8273 13.0379V8.61971C1.83363 8.25891 1.5298 7.95508 1.16268 7.95508Z" fill="#4A8C67"/>
<path fill-rule="evenodd" clip-rule="evenodd" d="M26.9058 7.95508C26.5387 7.95508 26.2412 8.25258 26.2412 8.61971V13.1898C26.2412 13.5569 26.5387 13.8544 26.9058 13.8544C27.273 13.8544 27.5705 13.5569 27.5705 13.1898V8.61971C27.5705 8.25891 27.273 7.95508 26.9058 7.95508Z" fill="#4A8C67"/>
<path fill-rule="evenodd" clip-rule="evenodd" d="M23.6842 6.42969C23.317 6.42969 23.0195 6.72719 23.0195 7.09432V14.7154C23.0195 15.0825 23.317 15.38 23.6842 15.38C24.0513 15.38 24.3488 15.0825 24.3488 14.7154V7.09432C24.3551 6.73352 24.0513 6.42969 23.6842 6.42969Z" fill="#4A8C67"/>
<path fill-rule="evenodd" clip-rule="evenodd" d="M20.4683 2.31543C20.1012 2.31543 19.8037 2.61293 19.8037 2.98006V18.8362C19.8037 19.2033 20.1012 19.5008 20.4683 19.5008C20.8355 19.5008 21.133 19.2033 21.133 18.8362V2.98006C21.133 2.61293 20.8355 2.31543 20.4683 2.31543Z" fill="#4A8C67"/>
<path fill-rule="evenodd" clip-rule="evenodd" d="M17.2535 4.59961C16.8864 4.59961 16.5889 4.89711 16.5889 5.26424V16.5439C16.5889 16.9111 16.8864 17.2086 17.2535 17.2086C17.6206 17.2086 17.9181 16.9111 17.9181 16.5439V5.26424C17.9181 4.90344 17.6206 4.59961 17.2535 4.59961Z" fill="#4A8C67"/>
<path fill-rule="evenodd" clip-rule="evenodd" d="M14.0377 0.941406C13.6705 0.941406 13.373 1.23891 13.373 1.60603V20.203C13.373 20.5701 13.6705 20.8676 14.0377 20.8676C14.4048 20.8676 14.7023 20.5701 14.7023 20.203V1.60603C14.7023 1.23891 14.4048 0.941406 14.0377 0.941406Z" fill="#4A8C67"/>
<path fill-rule="evenodd" clip-rule="evenodd" d="M10.816 4.59961C10.4489 4.59961 10.1514 4.89711 10.1514 5.26424V16.5439C10.1514 16.9111 10.4489 17.2086 10.816 17.2086C11.1831 17.2086 11.4806 16.9111 11.4806 16.5439V5.27057C11.4806 4.90344 11.1831 4.59961 10.816 4.59961Z" fill="#4A8C67"/>
<path fill-rule="evenodd" clip-rule="evenodd" d="M7.60018 2.31543C7.23305 2.31543 6.93555 2.61293 6.93555 2.98006V18.8362C6.93555 19.2033 7.23305 19.5008 7.60018 19.5008C7.9673 19.5008 8.2648 19.2033 8.2648 18.8362V2.98006C8.2648 2.61293 7.9673 2.31543 7.60018 2.31543Z" fill="#4A8C67"/>
<path fill-rule="evenodd" clip-rule="evenodd" d="M56.1929 6.42969C55.8258 6.42969 55.5283 6.72719 55.5283 7.09432V14.7154C55.5283 15.0825 55.8258 15.38 56.1929 15.38C56.5601 15.38 56.8576 15.0825 56.8576 14.7154V7.09432C56.8576 6.73352 56.5601 6.42969 56.1929 6.42969Z" fill="#4A8C67"/>
<path fill-rule="evenodd" clip-rule="evenodd" d="M52.9713 7.95508C52.6041 7.95508 52.3066 8.25258 52.3066 8.61971V13.1898C52.3066 13.5569 52.6041 13.8544 52.9713 13.8544C53.3511 13.8544 53.6359 13.3797 53.6359 13.0379V8.61971C53.6422 8.25891 53.3384 7.95508 52.9713 7.95508Z" fill="#4A8C67"/>
<path fill-rule="evenodd" clip-rule="evenodd" d="M78.7144 7.95508C78.3473 7.95508 78.0498 8.25258 78.0498 8.61971V13.1898C78.0498 13.5569 78.3473 13.8544 78.7144 13.8544C79.0816 13.8544 79.3791 13.5569 79.3791 13.1898V8.61971C79.3791 8.25891 79.0816 7.95508 78.7144 7.95508Z" fill="#4A8C67"/>
<path fill-rule="evenodd" clip-rule="evenodd" d="M75.4928 6.42969C75.1256 6.42969 74.8281 6.72719 74.8281 7.09432V14.7154C74.8281 15.0825 75.1256 15.38 75.4928 15.38C75.8599 15.38 76.1574 15.0825 76.1574 14.7154V7.09432C76.1637 6.73352 75.8599 6.42969 75.4928 6.42969Z" fill="#4A8C67"/>
<path fill-rule="evenodd" clip-rule="evenodd" d="M72.2769 2.31543C71.9098 2.31543 71.6123 2.61293 71.6123 2.98006V18.8362C71.6123 19.2033 71.9098 19.5008 72.2769 19.5008C72.6441 19.5008 72.9416 19.2033 72.9416 18.8362V2.98006C72.9416 2.61293 72.6441 2.31543 72.2769 2.31543Z" fill="#4A8C67"/>
<path fill-rule="evenodd" clip-rule="evenodd" d="M69.0621 4.59961C68.695 4.59961 68.3975 4.89711 68.3975 5.26424V16.5439C68.3975 16.9111 68.695 17.2086 69.0621 17.2086C69.4292 17.2086 69.7267 16.9111 69.7267 16.5439V5.26424C69.7267 4.90344 69.4292 4.59961 69.0621 4.59961Z" fill="#4A8C67"/>
<path fill-rule="evenodd" clip-rule="evenodd" d="M65.8463 0.941406C65.4791 0.941406 65.1816 1.23891 65.1816 1.60603V20.203C65.1816 20.5701 65.4791 20.8676 65.8463 20.8676C66.2134 20.8676 66.5109 20.5701 66.5109 20.203V1.60603C66.5109 1.23891 66.2134 0.941406 65.8463 0.941406Z" fill="#4A8C67"/>
<path fill-rule="evenodd" clip-rule="evenodd" d="M62.6246 4.59961C62.2575 4.59961 61.96 4.89711 61.96 5.26424V16.5439C61.96 16.9111 62.2575 17.2086 62.6246 17.2086C62.9917 17.2086 63.2892 16.9111 63.2892 16.5439V5.27057C63.2892 4.90344 62.9917 4.59961 62.6246 4.59961Z" fill="#4A8C67"/>
<path fill-rule="evenodd" clip-rule="evenodd" d="M59.4088 2.31543C59.0416 2.31543 58.7441 2.61293 58.7441 2.98006V18.8362C58.7441 19.2033 59.0416 19.5008 59.4088 19.5008C59.7759 19.5008 60.0734 19.2033 60.0734 18.8362V2.98006C60.0734 2.61293 59.7759 2.31543 59.4088 2.31543Z" fill="#4A8C67"/>
<path fill-rule="evenodd" clip-rule="evenodd" d="M108.001 6.42969C107.633 6.42969 107.336 6.72719 107.336 7.09432V14.7154C107.336 15.0825 107.633 15.38 108.001 15.38C108.368 15.38 108.665 15.0825 108.665 14.7154V7.09432C108.665 6.73352 108.368 6.42969 108.001 6.42969Z" fill="#4A8C67"/>
<path fill-rule="evenodd" clip-rule="evenodd" d="M104.779 7.95508C104.412 7.95508 104.114 8.25258 104.114 8.61971V13.1898C104.114 13.5569 104.412 13.8544 104.779 13.8544C105.159 13.8544 105.444 13.3797 105.444 13.0379V8.61971C105.45 8.25891 105.146 7.95508 104.779 7.95508Z" fill="#CFCFCF"/>
<path fill-rule="evenodd" clip-rule="evenodd" d="M130.522 7.95508C130.155 7.95508 129.857 8.25258 129.857 8.61971V13.1898C129.857 13.5569 130.155 13.8544 130.522 13.8544C130.889 13.8544 131.187 13.5569 131.187 13.1898V8.61971C131.187 8.25891 130.889 7.95508 130.522 7.95508Z" fill="#CFCFCF"/>
<path fill-rule="evenodd" clip-rule="evenodd" d="M127.3 6.42969C126.933 6.42969 126.636 6.72719 126.636 7.09432V14.7154C126.636 15.0825 126.933 15.38 127.3 15.38C127.667 15.38 127.965 15.0825 127.965 14.7154V7.09432C127.971 6.73352 127.667 6.42969 127.3 6.42969Z" fill="#CFCFCF"/>
<path fill-rule="evenodd" clip-rule="evenodd" d="M124.085 2.31543C123.717 2.31543 123.42 2.61293 123.42 2.98006V18.8362C123.42 19.2033 123.717 19.5008 124.085 19.5008C124.452 19.5008 124.749 19.2033 124.749 18.8362V2.98006C124.749 2.61293 124.452 2.31543 124.085 2.31543Z" fill="#CFCFCF"/>
<path fill-rule="evenodd" clip-rule="evenodd" d="M120.87 4.59961C120.503 4.59961 120.205 4.89711 120.205 5.26424V16.5439C120.205 16.9111 120.503 17.2086 120.87 17.2086C121.237 17.2086 121.534 16.9111 121.534 16.5439V5.26424C121.534 4.90344 121.237 4.59961 120.87 4.59961Z" fill="#CFCFCF"/>
<path fill-rule="evenodd" clip-rule="evenodd" d="M117.654 0.941406C117.287 0.941406 116.989 1.23891 116.989 1.60603V20.203C116.989 20.5701 117.287 20.8676 117.654 20.8676C118.021 20.8676 118.319 20.5701 118.319 20.203V1.60603C118.319 1.23891 118.021 0.941406 117.654 0.941406Z" fill="#4A8C67"/>
<path fill-rule="evenodd" clip-rule="evenodd" d="M114.432 4.59961C114.065 4.59961 113.768 4.89711 113.768 5.26424V16.5439C113.768 16.9111 114.065 17.2086 114.432 17.2086C114.799 17.2086 115.097 16.9111 115.097 16.5439V5.27057C115.097 4.90344 114.799 4.59961 114.432 4.59961Z" fill="#4A8C67"/>
<path fill-rule="evenodd" clip-rule="evenodd" d="M111.216 2.31543C110.849 2.31543 110.552 2.61293 110.552 2.98006V18.8362C110.552 19.2033 110.849 19.5008 111.216 19.5008C111.584 19.5008 111.881 19.2033 111.881 18.8362V2.98006C111.881 2.61293 111.584 2.31543 111.216 2.31543Z" fill="#4A8C67"/>
<path fill-rule="evenodd" clip-rule="evenodd" d="M30.2887 6.42969C29.9215 6.42969 29.624 6.72719 29.624 7.09432V14.7154C29.624 15.0825 29.9215 15.38 30.2887 15.38C30.6558 15.38 30.9533 15.0825 30.9533 14.7154V7.09432C30.9533 6.73352 30.6558 6.42969 30.2887 6.42969Z" fill="#4A8C67"/>
<path fill-rule="evenodd" clip-rule="evenodd" d="M27.067 7.95508C26.6998 7.95508 26.4023 8.25258 26.4023 8.61971V13.1898C26.4023 13.5569 26.6998 13.8544 27.067 13.8544C27.4468 13.8544 27.7316 13.3797 27.7316 13.0379V8.61971C27.7379 8.25891 27.4341 7.95508 27.067 7.95508Z" fill="#4A8C67"/>
<path fill-rule="evenodd" clip-rule="evenodd" d="M52.8101 7.95508C52.443 7.95508 52.1455 8.25258 52.1455 8.61971V13.1898C52.1455 13.5569 52.443 13.8544 52.8101 13.8544C53.1773 13.8544 53.4748 13.5569 53.4748 13.1898V8.61971C53.4748 8.25891 53.1773 7.95508 52.8101 7.95508Z" fill="#4A8C67"/>
<path fill-rule="evenodd" clip-rule="evenodd" d="M49.5885 6.42969C49.2213 6.42969 48.9238 6.72719 48.9238 7.09432V14.7154C48.9238 15.0825 49.2213 15.38 49.5885 15.38C49.9556 15.38 50.2531 15.0825 50.2531 14.7154V7.09432C50.2594 6.73352 49.9556 6.42969 49.5885 6.42969Z" fill="#4A8C67"/>
<path fill-rule="evenodd" clip-rule="evenodd" d="M46.3726 2.31543C46.0055 2.31543 45.708 2.61293 45.708 2.98006V18.8362C45.708 19.2033 46.0055 19.5008 46.3726 19.5008C46.7398 19.5008 47.0373 19.2033 47.0373 18.8362V2.98006C47.0373 2.61293 46.7398 2.31543 46.3726 2.31543Z" fill="#4A8C67"/>
<path fill-rule="evenodd" clip-rule="evenodd" d="M43.1568 4.59961C42.7897 4.59961 42.4922 4.89711 42.4922 5.26424V16.5439C42.4922 16.9111 42.7897 17.2086 43.1568 17.2086C43.5239 17.2086 43.8214 16.9111 43.8214 16.5439V5.26424C43.8214 4.90344 43.5239 4.59961 43.1568 4.59961Z" fill="#4A8C67"/>
<path fill-rule="evenodd" clip-rule="evenodd" d="M39.942 0.941406C39.5748 0.941406 39.2773 1.23891 39.2773 1.60603V20.203C39.2773 20.5701 39.5748 20.8676 39.942 20.8676C40.3091 20.8676 40.6066 20.5701 40.6066 20.203V1.60603C40.6066 1.23891 40.3091 0.941406 39.942 0.941406Z" fill="#4A8C67"/>
<path fill-rule="evenodd" clip-rule="evenodd" d="M36.7193 4.59961C36.3522 4.59961 36.0547 4.89711 36.0547 5.26424V16.5439C36.0547 16.9111 36.3522 17.2086 36.7193 17.2086C37.0864 17.2086 37.3839 16.9111 37.3839 16.5439V5.27057C37.3839 4.90344 37.0864 4.59961 36.7193 4.59961Z" fill="#4A8C67"/>
<path fill-rule="evenodd" clip-rule="evenodd" d="M33.5045 2.31543C33.1373 2.31543 32.8398 2.61293 32.8398 2.98006V18.8362C32.8398 19.2033 33.1373 19.5008 33.5045 19.5008C33.8716 19.5008 34.1691 19.2033 34.1691 18.8362V2.98006C34.1691 2.61293 33.8716 2.31543 33.5045 2.31543Z" fill="#4A8C67"/>
<path fill-rule="evenodd" clip-rule="evenodd" d="M82.0972 6.42969C81.7301 6.42969 81.4326 6.72719 81.4326 7.09432V14.7154C81.4326 15.0825 81.7301 15.38 82.0972 15.38C82.4644 15.38 82.7619 15.0825 82.7619 14.7154V7.09432C82.7619 6.73352 82.4644 6.42969 82.0972 6.42969Z" fill="#4A8C67"/>
<path fill-rule="evenodd" clip-rule="evenodd" d="M78.8756 7.95508C78.5084 7.95508 78.2109 8.25258 78.2109 8.61971V13.1898C78.2109 13.5569 78.5084 13.8544 78.8756 13.8544C79.2554 13.8544 79.5402 13.3797 79.5402 13.0379V8.61971C79.5465 8.25891 79.2427 7.95508 78.8756 7.95508Z" fill="#4A8C67"/>
<path fill-rule="evenodd" clip-rule="evenodd" d="M104.619 7.95508C104.252 7.95508 103.954 8.25258 103.954 8.61971V13.1898C103.954 13.5569 104.252 13.8544 104.619 13.8544C104.986 13.8544 105.283 13.5569 105.283 13.1898V8.61971C105.283 8.25891 104.986 7.95508 104.619 7.95508Z" fill="#4A8C67"/>
<path fill-rule="evenodd" clip-rule="evenodd" d="M101.397 6.42969C101.03 6.42969 100.732 6.72719 100.732 7.09432V14.7154C100.732 15.0825 101.03 15.38 101.397 15.38C101.764 15.38 102.062 15.0825 102.062 14.7154V7.09432C102.068 6.73352 101.764 6.42969 101.397 6.42969Z" fill="#4A8C67"/>
<path fill-rule="evenodd" clip-rule="evenodd" d="M98.1812 2.31543C97.8141 2.31543 97.5166 2.61293 97.5166 2.98006V18.8362C97.5166 19.2033 97.8141 19.5008 98.1812 19.5008C98.5484 19.5008 98.8459 19.2033 98.8459 18.8362V2.98006C98.8459 2.61293 98.5484 2.31543 98.1812 2.31543Z" fill="#4A8C67"/>
<path fill-rule="evenodd" clip-rule="evenodd" d="M94.9654 4.59961C94.5983 4.59961 94.3008 4.89711 94.3008 5.26424V16.5439C94.3008 16.9111 94.5983 17.2086 94.9654 17.2086C95.3325 17.2086 95.63 16.9111 95.63 16.5439V5.26424C95.63 4.90344 95.3325 4.59961 94.9654 4.59961Z" fill="#4A8C67"/>
<path fill-rule="evenodd" clip-rule="evenodd" d="M91.7506 0.941406C91.3834 0.941406 91.0859 1.23891 91.0859 1.60603V20.203C91.0859 20.5701 91.3834 20.8676 91.7506 20.8676C92.1177 20.8676 92.4152 20.5701 92.4152 20.203V1.60603C92.4152 1.23891 92.1177 0.941406 91.7506 0.941406Z" fill="#4A8C67"/>
<path fill-rule="evenodd" clip-rule="evenodd" d="M88.5279 4.59961C88.1608 4.59961 87.8633 4.89711 87.8633 5.26424V16.5439C87.8633 16.9111 88.1608 17.2086 88.5279 17.2086C88.895 17.2086 89.1925 16.9111 89.1925 16.5439V5.27057C89.1925 4.90344 88.895 4.59961 88.5279 4.59961Z" fill="#4A8C67"/>
<path fill-rule="evenodd" clip-rule="evenodd" d="M85.3131 2.31543C84.9459 2.31543 84.6484 2.61293 84.6484 2.98006V18.8362C84.6484 19.2033 84.9459 19.5008 85.3131 19.5008C85.6802 19.5008 85.9777 19.2033 85.9777 18.8362V2.98006C85.9777 2.61293 85.6802 2.31543 85.3131 2.31543Z" fill="#4A8C67"/>
</svg>
