<svg width="12" height="12" viewBox="0 0 12 12" fill="none" xmlns="http://www.w3.org/2000/svg">
<g clip-path="url(#clip0_8_10427)">
<path d="M7.76738 4.71078C7.62671 4.71078 7.5127 4.82479 7.5127 4.96546V9.77904C7.5127 9.91961 7.62671 10.0337 7.76738 10.0337C7.90806 10.0337 8.02207 9.91961 8.02207 9.77904V4.96546C8.02207 4.82479 7.90806 4.71078 7.76738 4.71078Z" fill="#4A8C67"/>
<path d="M4.76177 4.71078C4.62109 4.71078 4.50708 4.82479 4.50708 4.96546V9.77904C4.50708 9.91961 4.62109 10.0337 4.76177 10.0337C4.90244 10.0337 5.01645 9.91961 5.01645 9.77904V4.96546C5.01645 4.82479 4.90244 4.71078 4.76177 4.71078Z" fill="#4A8C67"/>
<path d="M2.57174 4.00829V10.2832C2.57174 10.6541 2.70774 11.0024 2.94531 11.2523C3.18179 11.5029 3.5109 11.6452 3.85532 11.6458H8.67406C9.01859 11.6452 9.34769 11.5029 9.58407 11.2523C9.82165 11.0024 9.95764 10.6541 9.95764 10.2832V4.00829C10.4299 3.88294 10.7359 3.42669 10.6728 2.94209C10.6095 2.45759 10.1967 2.09516 9.70803 2.09506H8.40406V1.7767C8.40555 1.50899 8.2997 1.25191 8.11017 1.06279C7.92065 0.873762 7.66318 0.768505 7.39546 0.770694H5.13392C4.8662 0.768505 4.60873 0.873762 4.41921 1.06279C4.22969 1.25191 4.12383 1.50899 4.12533 1.7767V2.09506H2.82135C2.33267 2.09516 1.9199 2.45759 1.85663 2.94209C1.79345 3.42669 2.09948 3.88294 2.57174 4.00829ZM8.67406 11.1364H3.85532C3.41986 11.1364 3.08111 10.7624 3.08111 10.2832V4.03068H9.44827V10.2832C9.44827 10.7624 9.10952 11.1364 8.67406 11.1364ZM4.6347 1.7767C4.63301 1.64409 4.68514 1.51645 4.77925 1.42283C4.87327 1.32921 5.00121 1.27778 5.13392 1.28007H7.39546C7.52817 1.27778 7.65611 1.32921 7.75013 1.42283C7.84424 1.51635 7.89638 1.64409 7.89468 1.7767V2.09506H4.6347V1.7767ZM2.82135 2.60444H9.70803C9.96123 2.60444 10.1665 2.80968 10.1665 3.06287C10.1665 3.31607 9.96123 3.52131 9.70803 3.52131H2.82135C2.56816 3.52131 2.36292 3.31607 2.36292 3.06287C2.36292 2.80968 2.56816 2.60444 2.82135 2.60444Z" fill="#4A8C67"/>
<path d="M6.26518 4.71078C6.12451 4.71078 6.0105 4.82479 6.0105 4.96546V9.77904C6.0105 9.91961 6.12451 10.0337 6.26518 10.0337C6.40586 10.0337 6.51987 9.91961 6.51987 9.77904V4.96546C6.51987 4.82479 6.40586 4.71078 6.26518 4.71078Z" fill="#4A8C67"/>
</g>
<defs>
<clipPath id="clip0_8_10427">
<rect width="10.8751" height="10.8751" fill="white" transform="translate(0.830322 0.770699)"/>
</clipPath>
</defs>
</svg>
