<svg width="22" height="23" viewBox="0 0 22 23" fill="none" xmlns="http://www.w3.org/2000/svg">
<g clip-path="url(#clip0_675_6884)">
<path d="M17.4167 2.33333H16.5V1.41667C16.5 1.17355 16.4034 0.940394 16.2315 0.768485C16.0596 0.596577 15.8264 0.5 15.5833 0.5C15.3402 0.5 15.1071 0.596577 14.9352 0.768485C14.7632 0.940394 14.6667 1.17355 14.6667 1.41667V2.33333H7.33333V1.41667C7.33333 1.17355 7.23676 0.940394 7.06485 0.768485C6.89294 0.596577 6.65978 0.5 6.41667 0.5C6.17355 0.5 5.94039 0.596577 5.76849 0.768485C5.59658 0.940394 5.5 1.17355 5.5 1.41667V2.33333H4.58333C3.3682 2.33479 2.20326 2.81814 1.34403 3.67737C0.484808 4.53659 0.00145554 5.70154 0 6.91667L0 17.9167C0.00145554 19.1318 0.484808 20.2967 1.34403 21.156C2.20326 22.0152 3.3682 22.4985 4.58333 22.5H17.4167C18.6318 22.4985 19.7967 22.0152 20.656 21.156C21.5152 20.2967 21.9985 19.1318 22 17.9167V6.91667C21.9985 5.70154 21.5152 4.53659 20.656 3.67737C19.7967 2.81814 18.6318 2.33479 17.4167 2.33333ZM1.83333 6.91667C1.83333 6.18732 2.12306 5.48785 2.63879 4.97212C3.15451 4.4564 3.85399 4.16667 4.58333 4.16667H17.4167C18.146 4.16667 18.8455 4.4564 19.3612 4.97212C19.8769 5.48785 20.1667 6.18732 20.1667 6.91667V7.83333H1.83333V6.91667ZM17.4167 20.6667H4.58333C3.85399 20.6667 3.15451 20.3769 2.63879 19.8612C2.12306 19.3455 1.83333 18.646 1.83333 17.9167V9.66667H20.1667V17.9167C20.1667 18.646 19.8769 19.3455 19.3612 19.8612C18.8455 20.3769 18.146 20.6667 17.4167 20.6667Z" fill="#708090"/>
<path d="M11 15.625C11.7594 15.625 12.375 15.0094 12.375 14.25C12.375 13.4906 11.7594 12.875 11 12.875C10.2406 12.875 9.625 13.4906 9.625 14.25C9.625 15.0094 10.2406 15.625 11 15.625Z" fill="#708090"/>
<path d="M6.41602 15.625C7.17541 15.625 7.79102 15.0094 7.79102 14.25C7.79102 13.4906 7.17541 12.875 6.41602 12.875C5.65662 12.875 5.04102 13.4906 5.04102 14.25C5.04102 15.0094 5.65662 15.625 6.41602 15.625Z" fill="#708090"/>
<path d="M15.584 15.625C16.3434 15.625 16.959 15.0094 16.959 14.25C16.959 13.4906 16.3434 12.875 15.584 12.875C14.8246 12.875 14.209 13.4906 14.209 14.25C14.209 15.0094 14.8246 15.625 15.584 15.625Z" fill="#708090"/>
</g>
<defs>
<clipPath id="clip0_675_6884">
<rect width="22" height="22" fill="white" transform="translate(0 0.5)"/>
</clipPath>
</defs>
</svg>
