<svg width="14" height="14" viewBox="0 0 14 14" fill="none" xmlns="http://www.w3.org/2000/svg">
<path d="M7.03149 12.5936C4.57413 12.5936 3.37159 12.5936 2.53504 11.757C1.69849 10.9205 1.69849 9.66563 1.69849 7.26055C1.69849 4.80319 1.69849 3.60065 2.53504 2.7641C3.37159 1.87527 4.57413 1.87527 7.03149 1.87527C9.48885 1.87527 10.6914 1.87527 11.5279 2.71182C12.3645 3.54837 12.3645 4.80319 12.3645 7.20827C12.3645 9.66563 12.3645 10.8682 11.5279 11.7047C10.6914 12.5936 9.48885 12.5936 7.03149 12.5936ZM7.03149 2.65953C4.78326 2.65953 3.68529 2.65953 3.05788 3.28694C2.48275 3.86207 2.48275 4.96004 2.48275 7.20827C2.48275 9.4565 2.48275 10.5545 3.11016 11.1819C3.73758 11.8093 4.83555 11.8093 7.08377 11.8093C9.332 11.8093 10.43 11.8093 11.0574 11.1819C11.6848 10.5545 11.6848 9.4565 11.6848 7.20827C11.6848 4.96004 11.6848 3.86207 11.0574 3.23466C10.3777 2.65953 9.27972 2.65953 7.03149 2.65953Z" fill="#4A8C67"/>
<path d="M6.24647 9.19507C6.1419 9.19507 6.03734 9.14279 5.98505 9.0905L4.67794 7.73111C4.52109 7.57426 4.52109 7.31283 4.67794 7.15598C4.8348 6.99913 5.09622 6.99913 5.25307 7.15598L6.24647 8.14938L8.86069 5.32603C9.01754 5.16918 9.27896 5.16918 9.43582 5.32603C9.59267 5.48288 9.59267 5.7443 9.43582 5.90116L6.56018 9.03822C6.45561 9.14279 6.35104 9.14279 6.24647 9.19507Z" fill="#4A8C67"/>
</svg>
