<svg width="50" height="51" viewBox="0 0 50 51" fill="none" xmlns="http://www.w3.org/2000/svg">
<g clip-path="url(#clip0_184_63)">
<path d="M24.9114 7.17078C25.4546 7.17078 25.8949 6.73044 25.8949 6.18728V1.80076C25.8949 1.25759 25.4546 0.817261 24.9114 0.817261C24.3683 0.817261 23.9279 1.25759 23.9279 1.80076V6.18728C23.928 6.73044 24.3684 7.17078 24.9114 7.17078ZM48.9518 34.6049L47.2144 32.8723C46.5963 32.2551 45.7726 31.915 44.8948 31.915C44.3336 31.915 43.7948 32.0547 43.3174 32.3163L40.0434 29.0462L40.2028 28.8869C41.5311 27.556 41.5306 25.3934 40.2027 24.0671C39.7353 23.5971 39.1399 23.2751 38.4907 23.1413C38.5808 22.8303 38.6265 22.5082 38.6264 22.1844C38.6264 21.2709 38.2715 20.4142 37.6291 19.7745C37.1617 19.3045 36.5663 18.9826 35.9171 18.8487C36.0072 18.5377 36.0528 18.2156 36.0527 17.8919C36.0527 16.9782 35.6978 16.1217 35.0544 15.4809C34.5865 15.0129 33.9919 14.6919 33.3438 14.5576C33.6794 13.4007 33.3927 12.099 32.4825 11.1873C31.7249 10.4329 30.6969 10.1087 29.7062 10.2137L23.2184 8.98572C22.2289 8.79802 20.9933 8.6739 20.2133 9.38533C20.1641 9.43025 20.1139 9.48191 20.0645 9.53943C18.8551 9.09861 17.4445 9.36111 16.4761 10.3285C15.8336 10.9702 15.4797 11.8264 15.4797 12.7395C15.4797 13.0684 15.5263 13.3896 15.615 13.6965C14.9671 13.83 14.3727 14.1513 13.9061 14.6202C13.2623 15.2613 12.9073 16.1166 12.9066 17.0286C12.9062 17.3533 12.9519 17.6763 13.0424 17.9882C12.3939 18.1215 11.7989 18.4424 11.3313 18.911C10.6875 19.5541 10.333 20.4108 10.333 21.3234C10.333 22.0224 10.5417 22.6884 10.9284 23.2509C10.4349 23.4182 9.98658 23.6972 9.61836 24.066C8.28926 25.3934 8.28877 27.5561 9.61924 28.8889L9.77812 29.0471L6.50371 32.3156C5.28682 31.7427 3.7875 31.9573 2.7833 32.9602L1.04482 34.6938C0.426465 35.3114 0.0860352 36.1352 0.0859375 37.0135C0.0859375 37.8918 0.426465 38.7157 1.04482 39.3334L3.21445 41.5004C3.59873 41.8843 4.22148 41.8839 4.60527 41.4996C4.98916 41.1153 4.98877 40.4926 4.60449 40.1088L2.43486 37.9418C2.18857 37.6958 2.05293 37.3661 2.05293 37.0135C2.05293 36.6611 2.18857 36.3315 2.43428 36.0861L4.17285 34.3524C4.60723 33.9185 5.27207 33.8539 5.77695 34.1557C5.87746 34.3072 6.01817 34.4277 6.1833 34.5037L16.1533 44.4591C16.2016 44.5651 16.2684 44.6618 16.3506 44.7444C16.4309 44.8246 16.5246 44.8901 16.6274 44.9382C16.8394 45.1774 16.9559 45.4862 16.9548 45.8058C16.9548 46.1584 16.8191 46.488 16.5729 46.734L14.836 48.4687C14.3229 48.9797 13.4881 48.9796 12.9765 48.4703L10.8068 46.3005C10.4228 45.9164 9.8001 45.9164 9.41602 46.3005C9.03193 46.6845 9.03193 47.3072 9.41602 47.6913L11.5872 49.8627C12.2263 50.4991 13.0655 50.8172 13.9052 50.8172C14.745 50.8172 15.5853 50.4986 16.2251 49.8616L17.963 48.1258C18.5813 47.5081 18.9219 46.6843 18.9219 45.8058C18.9219 45.179 18.7476 44.5803 18.4234 44.0641L22.1086 40.3835L22.1204 40.3715C22.5424 39.9352 23.7175 40.0169 24.8539 40.0958C25.6613 40.1519 26.5615 40.2143 27.441 40.113L31.4766 44.1437C31.2151 44.6204 31.0756 45.1585 31.0756 45.7188C31.0756 46.5963 31.4161 47.4196 32.0345 48.0373L33.7725 49.7731C34.3904 50.3904 35.2142 50.7304 36.0919 50.7304C36.9695 50.7304 37.7933 50.3905 38.4113 49.7731L48.9524 39.2448C49.5708 38.6272 49.9113 37.8034 49.9113 36.9251C49.9112 36.0468 49.5707 35.223 48.9518 34.6049ZM22.8521 10.9183L27.1185 11.7259L24.5648 14.2785C24.1698 14.0886 23.6284 13.7345 23.0345 13.1664C22.2215 12.3886 21.6399 11.4907 21.587 10.9306L21.5869 10.9298L21.5868 10.9295C21.5836 10.8973 21.5821 10.8649 21.5825 10.8326C21.7111 10.8013 22.0527 10.7667 22.8521 10.9183ZM17.866 11.7202C18.3643 11.2224 19.1383 11.165 19.7013 11.5463C20.0203 12.884 21.1614 14.0964 21.6748 14.5876C22.0553 14.9516 23.2761 16.0431 24.5083 16.3431C24.6768 16.585 24.7667 16.8728 24.7657 17.1676C24.7657 17.5548 24.6168 17.9168 24.3454 18.1879C24.0748 18.459 23.7122 18.6082 23.3243 18.6082C22.9363 18.6082 22.5737 18.459 22.3019 18.1866L22.3018 18.1865L22.3013 18.186L17.8659 13.7587C17.5955 13.4886 17.4466 13.1266 17.4466 12.7395C17.4467 12.3523 17.5956 11.9903 17.866 11.7202ZM15.2961 16.0119C15.5667 15.7409 15.9289 15.5916 16.3162 15.5916C16.704 15.5916 17.0674 15.7412 17.3397 16.0133L20.9112 19.5776C21.4736 20.1409 21.4736 21.0575 20.9132 21.6188C20.6411 21.8898 20.2772 22.039 19.8887 22.039C19.5001 22.039 19.1362 21.8898 18.8653 21.62L18.8652 21.6199L16.1558 18.911C16.1516 18.9068 16.147 18.9029 16.1427 18.8986L15.295 18.0513C15.023 17.7797 14.8733 17.417 14.8736 17.0301C14.874 16.6444 15.0232 16.2836 15.2961 16.0119ZM12.7213 20.3027C12.9921 20.0323 13.3551 19.8834 13.7436 19.8834C14.1288 19.8834 14.4887 20.0302 14.7583 20.2959L17.4761 23.0124C17.7471 23.2823 17.8964 23.6439 17.8964 24.0306C17.8964 24.4173 17.7471 24.7789 17.475 25.0499C17.2043 25.3202 16.8417 25.4691 16.4539 25.4691C16.0655 25.4691 15.7018 25.3198 15.4307 25.0499L14.4454 24.0658L14.4447 24.0651L12.7214 22.3438C12.4497 22.0724 12.3001 21.7099 12.3001 21.3232C12.3001 20.9366 12.4497 20.574 12.7213 20.3027ZM11.0084 25.4576C11.2804 25.1859 11.6438 25.0363 12.0318 25.0363C12.4197 25.0363 12.7831 25.1858 13.055 25.4573L14.0416 26.4427C14.3127 26.7127 14.4619 27.0743 14.4619 27.461C14.4619 27.8477 14.3126 28.2093 14.0396 28.4813C13.7689 28.7523 13.4063 28.9016 13.0185 28.9016C12.6305 28.9016 12.2679 28.7524 11.9953 28.4794L11.8718 28.3563C11.8701 28.3547 11.8688 28.3529 11.8673 28.3513L11.8616 28.3463L11.0094 27.4973C10.447 26.9338 10.4465 26.0188 11.0084 25.4576ZM31.0508 36.6351C30.6669 36.2508 30.0441 36.2505 29.66 36.6343L28.785 37.5082C27.9535 38.3396 26.447 38.2349 24.99 38.1339C23.4079 38.0239 21.7719 37.9104 20.7132 38.9973L17.0906 42.6155L8.03174 33.5699L11.2376 30.3698C11.7675 30.6946 12.3789 30.8687 13.0187 30.8687C13.9326 30.8687 14.7896 30.5144 15.4298 29.8731C16.0742 29.2313 16.4292 28.3748 16.4292 27.4611C16.4292 27.4526 16.4286 27.4442 16.4286 27.4357C16.4371 27.4358 16.4456 27.4363 16.4541 27.4363C17.3668 27.4363 18.2231 27.0831 18.8642 26.4428C19.5086 25.8011 19.8636 24.9444 19.8636 24.0308C19.8636 24.0223 19.863 24.0139 19.863 24.0054C19.8716 24.0054 19.8802 24.006 19.8889 24.006C20.8013 24.006 21.6581 23.6532 22.3034 23.0105C22.9733 22.3395 23.3047 21.4561 23.2983 20.5746C23.3071 20.5747 23.3159 20.5752 23.3247 20.5752C24.2387 20.5751 25.0956 20.2209 25.7367 19.5786C26.3792 18.9369 26.7331 18.0806 26.7331 17.1676C26.7331 16.529 26.5595 15.9185 26.2357 15.3897L29.0456 12.581C29.2474 12.3799 29.5043 12.243 29.7838 12.1877C29.8131 12.1845 29.842 12.1799 29.8706 12.1742C30.3048 12.1143 30.7607 12.2483 31.0928 12.579C31.6552 13.1424 31.6552 14.059 31.0948 14.6203L30.2391 15.4725C30.2362 15.4754 30.2332 15.4779 30.2304 15.4807L29.2447 16.4647C28.8604 16.8485 28.86 17.4713 29.2438 17.8555C29.6278 18.2399 30.2505 18.2402 30.6347 17.8564L31.4938 16.9984L31.4944 16.9978L31.6243 16.8684C32.1883 16.3096 33.102 16.3108 33.6653 16.8734C33.9364 17.1433 34.0857 17.505 34.0857 17.8917C34.0857 18.2783 33.9364 18.6399 33.6632 18.912L32.8025 19.7744L32.8022 19.7748L31.8167 20.7563C31.4318 21.1396 31.4306 21.7624 31.8139 22.1471C32.1972 22.532 32.8198 22.5332 33.2047 22.15L34.1947 21.1639C34.4653 20.8928 34.8279 20.7436 35.2158 20.7436C35.6038 20.7436 35.9665 20.8928 36.2391 21.1659C36.5102 21.4359 36.6594 21.7975 36.6594 22.1843C36.6594 22.5709 36.5102 22.9325 36.2375 23.204L34.5217 24.9205C34.1377 25.3047 34.1378 25.9273 34.5219 26.3113C34.6131 26.4027 34.7215 26.4752 34.8408 26.5246C34.9601 26.574 35.088 26.5994 35.2172 26.5992C35.4689 26.5992 35.7207 26.5031 35.9127 26.311L36.7536 25.4698C36.7584 25.4652 36.7636 25.4612 36.7684 25.4564C37.039 25.1853 37.4016 25.0361 37.7895 25.0361C38.1774 25.0361 38.54 25.1853 38.8116 25.4574C39.3734 26.0186 39.3729 26.9337 38.8116 27.496L37.9566 28.35L37.9557 28.3509L37.9548 28.3518L36.5978 29.7072C36.2135 30.0911 36.2131 30.7138 36.5969 31.0981C36.6881 31.1897 36.7966 31.2623 36.916 31.3118C37.0354 31.3614 37.1635 31.3868 37.2928 31.3866C37.5442 31.3866 37.7958 31.2907 37.9878 31.099L38.6516 30.436L41.8329 33.6136L32.7748 42.6607L29.5293 39.4191C29.7626 39.2695 29.9792 39.0952 30.1753 38.8993L31.0498 38.0259C31.4343 37.6422 31.4347 37.0194 31.0508 36.6351ZM47.5623 37.8531L37.0212 48.3814C36.7746 48.6277 36.4445 48.7634 36.0918 48.7634C35.7391 48.7634 35.409 48.6277 35.1623 48.3813L33.4243 46.6455C33.178 46.3996 33.0424 46.0705 33.0424 45.7188C33.0424 45.3673 33.178 45.0382 33.4243 44.7922L43.9654 34.2638C44.2121 34.0175 44.5421 33.8818 44.8949 33.8818C45.2477 33.8818 45.5777 34.0175 45.825 34.2644L47.5624 35.9969C47.8087 36.2429 47.9443 36.5724 47.9443 36.925C47.9442 37.2776 47.8086 37.6072 47.5623 37.8531ZM11.852 6.34167C11.9432 6.43292 12.0515 6.50526 12.1707 6.55457C12.2899 6.60387 12.4177 6.62916 12.5467 6.62898C12.7986 6.62898 13.0507 6.53269 13.2428 6.34021C13.6265 5.95574 13.6259 5.33308 13.2414 4.94939L9.65762 1.37273C9.27324 0.989038 8.65049 0.989526 8.2668 1.3741C7.88311 1.75857 7.88369 2.38123 8.26816 2.76492L11.852 6.34167ZM37.2762 6.62898C37.5276 6.62898 37.7792 6.53308 37.9712 6.34138L41.5522 2.76462C41.9365 2.38083 41.9369 1.75808 41.553 1.3738C41.1692 0.989526 40.5466 0.989136 40.1622 1.37302L36.5812 4.94978C36.1969 5.33357 36.1965 5.95632 36.5804 6.3406C36.6716 6.43217 36.7801 6.50478 36.8995 6.55428C37.0189 6.60377 37.1469 6.62916 37.2762 6.62898Z" fill="#B275B2"/>
<path d="M6.1337 43.1223C5.75294 43.5096 5.75821 44.1324 6.14562 44.5131L6.14845 44.5159C6.33157 44.6965 6.57854 44.7976 6.83575 44.7973C7.09034 44.7973 7.34493 44.6988 7.5378 44.5026C7.91857 44.1153 7.91183 43.4912 7.52452 43.1104C7.13732 42.7296 6.51466 42.735 6.1337 43.1223ZM33.4567 35.2183C33.6063 35.2183 33.758 35.1842 33.9005 35.1124C34.3855 34.8678 34.5803 34.2764 34.3358 33.7914C34.0911 33.3065 33.4996 33.1116 33.0148 33.3562L33.0093 33.3589C32.5243 33.6036 32.3322 34.1936 32.5768 34.6786C32.7494 35.0211 33.0967 35.2183 33.4567 35.2183Z" fill="#B275B2"/>
</g>
<defs>
<clipPath id="clip0_184_63">
<rect width="50" height="50" fill="white" transform="translate(0 0.817261)"/>
</clipPath>
</defs>
</svg>
