<svg width="12" height="13" viewBox="0 0 12 13" fill="none" xmlns="http://www.w3.org/2000/svg">
<g clip-path="url(#clip0_8_10462)">
<path d="M10.6415 5.15046H10.3534V3.76001C10.3534 3.75128 10.352 3.74261 10.3508 3.73375C10.3504 3.6786 10.3328 3.62432 10.295 3.58142L7.98135 0.938599C7.98067 0.937855 7.97995 0.937636 7.97949 0.936958C7.96572 0.921484 7.94963 0.908681 7.93263 0.89765C7.92757 0.894214 7.92252 0.891391 7.91722 0.88848C7.90251 0.880491 7.88689 0.873772 7.8708 0.868936C7.86644 0.867797 7.86255 0.866003 7.85819 0.864821C7.84068 0.860706 7.82254 0.858124 7.8042 0.858124H2.11806C1.8584 0.858124 1.64748 1.0693 1.64748 1.32872V5.15033H1.3594C0.987943 5.15033 0.686768 5.4514 0.686768 5.8229V9.32053C0.686768 9.69185 0.987943 9.99322 1.3594 9.99322H1.64748V12.3875C1.64748 12.647 1.8584 12.8581 2.11806 12.8581H9.88278C10.1422 12.8581 10.3534 12.647 10.3534 12.3875V9.99324H10.6415C11.0128 9.99324 11.314 9.692 11.314 9.32066V5.82303C11.314 5.45142 11.0128 5.15046 10.6415 5.15046ZM2.11806 1.32872H7.56888V3.73633C7.56888 3.86634 7.67433 3.97163 7.80418 3.97163H9.88278V5.15044H2.11806V1.32872ZM5.66058 7.71244C5.07666 7.5091 4.69621 7.18601 4.69621 6.67527C4.69621 6.07551 5.19655 5.61668 6.02542 5.61668C6.42171 5.61668 6.71368 5.70009 6.92206 5.79412L6.745 6.43538C6.60427 6.36738 6.35406 6.26835 6.00984 6.26835C5.66585 6.26835 5.49904 6.42481 5.49904 6.60725C5.49904 6.83152 5.69704 6.93049 6.15081 7.10258C6.77108 7.33193 7.06305 7.65497 7.06305 8.15036C7.06305 8.7393 6.60954 9.23999 5.645 9.23999C5.24365 9.23999 4.84727 9.13546 4.64924 9.02616L4.81076 8.36922C5.02463 8.47896 5.35299 8.58822 5.69199 8.58822C6.05685 8.58822 6.24982 8.43703 6.24982 8.20748C6.24971 7.9884 6.08279 7.86341 5.66058 7.71244ZM1.52094 7.4829C1.52094 6.28395 2.37612 5.61668 3.43935 5.61668C3.85129 5.61668 4.16407 5.70009 4.30493 5.77315L4.14314 6.40382C3.98162 6.33632 3.75725 6.27384 3.47581 6.27384C2.84501 6.27384 2.35511 6.65411 2.35511 7.43597C2.35511 8.13979 2.77206 8.58281 3.48128 8.58281C3.72087 8.58281 3.98679 8.53076 4.14314 8.46817L4.26315 9.08856C4.11712 9.16166 3.78878 9.23999 3.36126 9.23999C2.14658 9.24001 1.52094 8.4838 1.52094 7.4829ZM9.88278 12.26H2.11806V9.99324H9.88278V12.26ZM9.35716 9.18763H8.4292L7.30316 5.67411H8.17395L8.60129 7.16005C8.72121 7.5769 8.83064 7.97829 8.91425 8.41626H8.92976C9.01836 7.9939 9.12772 7.57688 9.24768 7.17546L9.69606 5.67411H10.5408L9.35716 9.18763Z" fill="#4A8C67"/>
</g>
<defs>
<clipPath id="clip0_8_10462">
<rect width="12" height="12" fill="white" transform="translate(0 0.858124)"/>
</clipPath>
</defs>
</svg>
