<svg width="23" height="23" viewBox="0 0 23 23" fill="none" xmlns="http://www.w3.org/2000/svg">
<g clip-path="url(#clip0_8_228)">
<mask id="mask0_8_228" style="mask-type:luminance" maskUnits="userSpaceOnUse" x="0" y="0" width="23" height="23">
<path d="M0 1.90735e-06H23V23H0V1.90735e-06Z" fill="white"/>
</mask>
<g mask="url(#mask0_8_228)">
<path d="M9.88281 9.88281C9.88281 10.8752 9.07831 11.6797 8.08594 11.6797H2.69531C1.70294 11.6797 0.898438 10.8752 0.898438 9.88281V2.69531C0.898438 1.70294 1.70294 0.898438 2.69531 0.898438H8.08594C9.07831 0.898438 9.88281 1.70294 9.88281 2.69531V9.88281Z" stroke="white" stroke-opacity="0.5" stroke-miterlimit="10"/>
<path d="M22.1016 20.3047C22.1016 21.2971 21.2971 22.1016 20.3047 22.1016H14.9141C13.9217 22.1016 13.1172 21.2971 13.1172 20.3047V13.1172C13.1172 12.1248 13.9217 11.3203 14.9141 11.3203H20.3047C21.2971 11.3203 22.1016 12.1248 22.1016 13.1172V20.3047Z" stroke="white" stroke-opacity="0.5" stroke-miterlimit="10"/>
<path d="M9.88281 20.3047C9.88281 21.2971 9.07831 22.1016 8.08594 22.1016H2.69531C1.70294 22.1016 0.898438 21.2971 0.898438 20.3047V16.7109C0.898438 15.7186 1.70294 14.9141 2.69531 14.9141H8.08594C9.07831 14.9141 9.88281 15.7186 9.88281 16.7109V20.3047Z" stroke="white" stroke-opacity="0.5" stroke-miterlimit="10"/>
<path d="M22.1016 6.28906C22.1016 7.28143 21.2971 8.08594 20.3047 8.08594H14.9141C13.9217 8.08594 13.1172 7.28143 13.1172 6.28906V2.69531C13.1172 1.70294 13.9217 0.898439 14.9141 0.898439H20.3047C21.2971 0.898439 22.1016 1.70294 22.1016 2.69531V6.28906Z" stroke="white" stroke-opacity="0.5" stroke-miterlimit="10"/>
</g>
</g>
<defs>
<clipPath id="clip0_8_228">
<rect width="23" height="23" fill="white"/>
</clipPath>
</defs>
</svg>
