<svg width="22" height="23" viewBox="0 0 22 23" fill="none" xmlns="http://www.w3.org/2000/svg">
<g clip-path="url(#clip0_574_3634)">
<path d="M20.0601 22.5H13.7256C13.2113 22.4994 12.7183 22.2948 12.3546 21.9311C11.9909 21.5674 11.7863 21.0744 11.7857 20.5601V12.6542C11.7863 12.1399 11.9909 11.6468 12.3546 11.2832C12.7183 10.9195 13.2113 10.7149 13.7256 10.7143H20.0601C20.5744 10.7149 21.0674 10.9195 21.4311 11.2832C21.7948 11.6468 21.9994 12.1399 22 12.6542V20.5601C21.9994 21.0744 21.7948 21.5674 21.4311 21.9311C21.0674 22.2948 20.5744 22.4994 20.0601 22.5ZM13.7256 12.2857C13.6772 12.2857 13.6293 12.2952 13.5846 12.3138C13.5399 12.3323 13.4993 12.3594 13.4651 12.3936C13.4309 12.4279 13.4037 12.4685 13.3852 12.5132C13.3667 12.5579 13.3571 12.6058 13.3571 12.6542V20.5601C13.3571 20.7636 13.5221 20.9286 13.7256 20.9286H20.0601C20.2636 20.9286 20.4286 20.7636 20.4286 20.5601V12.6542C20.4286 12.5565 20.3897 12.4628 20.3206 12.3936C20.2515 12.3245 20.1578 12.2857 20.0601 12.2857H13.7256ZM20.0601 9.14286H13.7256C13.2113 9.14223 12.7183 8.93765 12.3546 8.57398C11.9909 8.2103 11.7863 7.71724 11.7857 7.20293V2.43993C11.7863 1.92562 11.9909 1.43255 12.3546 1.06888C12.7183 0.705209 13.2113 0.500624 13.7256 0.5H20.0601C20.5744 0.500624 21.0674 0.705209 21.4311 1.06888C21.7948 1.43255 21.9994 1.92562 22 2.43993V7.20293C21.9994 7.71724 21.7948 8.2103 21.4311 8.57398C21.0674 8.93765 20.5744 9.14223 20.0601 9.14286ZM13.7256 2.07143C13.6772 2.07143 13.6293 2.08096 13.5846 2.09948C13.5399 2.118 13.4993 2.14514 13.4651 2.17936C13.4309 2.21358 13.4037 2.2542 13.3852 2.29891C13.3667 2.34362 13.3571 2.39154 13.3571 2.43993V7.20293C13.3571 7.40643 13.5221 7.57143 13.7256 7.57143H20.0601C20.2636 7.57143 20.4286 7.40643 20.4286 7.20293V2.43993C20.4286 2.3422 20.3897 2.24847 20.3206 2.17936C20.2515 2.11025 20.1578 2.07143 20.0601 2.07143H13.7256ZM8.27436 12.2857H1.93993C1.42562 12.2851 0.932553 12.0805 0.568881 11.7168C0.205209 11.3532 0.000623784 10.8601 0 10.3458V2.43993C0.000623784 1.92562 0.205209 1.43255 0.568881 1.06888C0.932553 0.705209 1.42562 0.500624 1.93993 0.5H8.27436C8.78867 0.500624 9.28173 0.705209 9.6454 1.06888C10.0091 1.43255 10.2137 1.92562 10.2143 2.43993V10.3458C10.2137 10.8601 10.0091 11.3532 9.6454 11.7168C9.28173 12.0805 8.78867 12.2851 8.27436 12.2857ZM1.93993 2.07143C1.8422 2.07143 1.74847 2.11025 1.67936 2.17936C1.61025 2.24847 1.57143 2.3422 1.57143 2.43993V10.3458C1.57143 10.5493 1.73643 10.7143 1.93993 10.7143H8.27436C8.47786 10.7143 8.64286 10.5493 8.64286 10.3458V2.43993C8.64286 2.3422 8.60403 2.24847 8.53493 2.17936C8.46582 2.11025 8.37209 2.07143 8.27436 2.07143H1.93993ZM8.27436 22.5H1.93993C1.42562 22.4994 0.932553 22.2948 0.568881 21.9311C0.205209 21.5674 0.000623784 21.0744 0 20.5601V15.7971C0.000623784 15.2828 0.205209 14.7897 0.568881 14.426C0.932553 14.0624 1.42562 13.8578 1.93993 13.8571H8.27436C8.78867 13.8578 9.28173 14.0624 9.6454 14.426C10.0091 14.7897 10.2137 15.2828 10.2143 15.7971V20.5601C10.2137 21.0744 10.0091 21.5674 9.6454 21.9311C9.28173 22.2948 8.78867 22.4994 8.27436 22.5ZM1.93993 15.4286C1.8422 15.4286 1.74847 15.4674 1.67936 15.5365C1.61025 15.6056 1.57143 15.6993 1.57143 15.7971V20.5601C1.57143 20.7636 1.73643 20.9286 1.93993 20.9286H8.27436C8.47786 20.9286 8.64286 20.7636 8.64286 20.5601V15.7971C8.64286 15.6993 8.60403 15.6056 8.53493 15.5365C8.46582 15.4674 8.37209 15.4286 8.27436 15.4286H1.93993Z" fill="#708090"/>
</g>
<defs>
<clipPath id="clip0_574_3634">
<rect width="22" height="22" fill="white" transform="translate(0 0.5)"/>
</clipPath>
</defs>
</svg>
