<svg width="55" height="54" viewBox="0 0 55 54" fill="none" xmlns="http://www.w3.org/2000/svg">
<circle cx="27.4101" cy="27.1855" r="25.8076" stroke="url(#paint0_angular_243_8635)" stroke-width="2"/>
<g clip-path="url(#clip0_243_8635)">
<path d="M23.4658 21.0493V20.7533C23.4658 20.1905 23.0097 19.7344 22.4469 19.7344H21.8548C21.2921 19.7344 20.8359 20.1905 20.8359 20.7533C20.8359 21.1918 21.1166 21.5812 21.5326 21.7199L22.7692 22.1321C23.1852 22.2708 23.4659 22.6601 23.4659 23.0987C23.4659 23.6614 23.0097 24.1176 22.447 24.1176H21.8549C21.2922 24.1176 20.836 23.6614 20.836 23.0987V22.8026" stroke="#4A8C67" stroke-width="0.565415" stroke-miterlimit="10" stroke-linecap="round" stroke-linejoin="round"/>
<path d="M22.1514 19.2959V24.5557" stroke="#4A8C67" stroke-width="0.565415" stroke-miterlimit="10" stroke-linecap="round" stroke-linejoin="round"/>
<path d="M28.1969 31.1304H25.3104C25.0181 31.1304 24.7812 30.8935 24.7812 30.6013V27.7147C24.7812 27.4224 25.0181 27.1855 25.3104 27.1855H28.1969C28.4892 27.1855 28.7261 27.4224 28.7261 27.7147V30.6013C28.7261 30.8935 28.4892 31.1304 28.1969 31.1304Z" stroke="#4A8C67" stroke-width="0.565415" stroke-miterlimit="10" stroke-linecap="round" stroke-linejoin="round"/>
<path d="M33.4567 36.3902H30.5702C30.2779 36.3902 30.041 36.1533 30.041 35.8611V27.7147C30.041 27.4224 30.2779 27.1855 30.5702 27.1855H33.4567C33.749 27.1855 33.9859 27.4224 33.9859 27.7147V35.8611C33.9859 36.1533 33.749 36.3902 33.4567 36.3902Z" stroke="#4A8C67" stroke-width="0.565415" stroke-miterlimit="10" stroke-linecap="round" stroke-linejoin="round"/>
<path d="M28.1969 36.3902H25.3104C25.0181 36.3902 24.7812 36.1533 24.7812 35.861V32.9745C24.7812 32.6822 25.0181 32.4453 25.3104 32.4453H28.1969C28.4892 32.4453 28.7261 32.6822 28.7261 32.9745V35.861C28.7261 36.1533 28.4892 36.3902 28.1969 36.3902Z" stroke="#4A8C67" stroke-width="0.565415" stroke-miterlimit="10" stroke-linecap="round" stroke-linejoin="round"/>
<path d="M23.4663 30.4139V30.6013C23.4663 30.8935 23.2294 31.1304 22.9372 31.1304H20.0506C19.7584 31.1304 19.5215 30.8935 19.5215 30.6013V27.7147C19.5215 27.4224 19.7584 27.1855 20.0506 27.1855H22.9372C23.2294 27.1855 23.4663 27.4224 23.4663 27.7147V28.9322" stroke="#4A8C67" stroke-width="0.565415" stroke-miterlimit="10" stroke-linecap="round" stroke-linejoin="round"/>
<path d="M22.9372 36.3902H20.0506C19.7584 36.3902 19.5215 36.1533 19.5215 35.861V32.9745C19.5215 32.6822 19.7584 32.4453 20.0506 32.4453H22.9372C23.2294 32.4453 23.4663 32.6822 23.4663 32.9745V35.861C23.4663 36.1533 23.2294 36.3902 22.9372 36.3902Z" stroke="#4A8C67" stroke-width="0.565415" stroke-miterlimit="10" stroke-linecap="round" stroke-linejoin="round"/>
<path d="M24.123 24.5557H25.438" stroke="#4A8C67" stroke-width="0.565415" stroke-miterlimit="10" stroke-linecap="round" stroke-linejoin="round"/>
<path d="M20.8359 29.1582H22.1509" stroke="#4A8C67" stroke-width="0.565415" stroke-miterlimit="10" stroke-linecap="round" stroke-linejoin="round"/>
<path d="M26.0957 29.1582H27.4107" stroke="#4A8C67" stroke-width="0.565415" stroke-miterlimit="10" stroke-linecap="round" stroke-linejoin="round"/>
<path d="M21.4941 28.501V29.816" stroke="#4A8C67" stroke-width="0.565415" stroke-miterlimit="10" stroke-linecap="round" stroke-linejoin="round"/>
<path d="M20.8369 33.7607L22.1518 35.0757" stroke="#4A8C67" stroke-width="0.565415" stroke-miterlimit="10" stroke-linecap="round" stroke-linejoin="round"/>
<path d="M22.1518 33.7607L20.8369 35.0757" stroke="#4A8C67" stroke-width="0.565415" stroke-miterlimit="10" stroke-linecap="round" stroke-linejoin="round"/>
<path d="M27.4116 33.7607L26.0967 35.0757" stroke="#4A8C67" stroke-width="0.565415" stroke-miterlimit="10" stroke-linecap="round" stroke-linejoin="round"/>
<path d="M31.3564 31.1309H32.6714" stroke="#4A8C67" stroke-width="0.565415" stroke-miterlimit="10" stroke-linecap="round" stroke-linejoin="round"/>
<path d="M31.3564 32.4453H32.6714" stroke="#4A8C67" stroke-width="0.565415" stroke-miterlimit="10" stroke-linecap="round" stroke-linejoin="round"/>
<path d="M36.6153 23.0066V23.4974C36.6153 24.0819 36.1415 24.5557 35.557 24.5557H29.7839C29.1994 24.5557 28.7256 24.0819 28.7256 23.4974V17.7243C28.7256 17.1398 29.1994 16.666 29.7839 16.666H35.557C36.1415 16.666 36.6153 17.1398 36.6153 17.7243V21.525" stroke="#4A8C67" stroke-width="0.565415" stroke-miterlimit="10" stroke-linecap="round" stroke-linejoin="round"/>
<path d="M33.3281 18.6895C34.0834 18.8777 34.6431 19.5607 34.6431 20.3743V21.2679" stroke="#4A8C67" stroke-width="0.565415" stroke-miterlimit="10" stroke-linecap="round" stroke-linejoin="round"/>
<path d="M30.6982 21.2679V20.3743C30.6982 19.5607 31.2579 18.8777 32.0132 18.6895" stroke="#4A8C67" stroke-width="0.565415" stroke-miterlimit="10" stroke-linecap="round" stroke-linejoin="round"/>
<path d="M32.0137 21.2683V18.6384C32.0137 18.5215 32.1085 18.4268 32.2253 18.4268H33.1169C33.2338 18.4268 33.3286 18.5215 33.3286 18.6384V21.2683" stroke="#4A8C67" stroke-width="0.565415" stroke-miterlimit="10" stroke-linecap="round" stroke-linejoin="round"/>
<path d="M34.7866 21.2686H30.5542C30.3182 21.2686 30.1647 21.5169 30.2703 21.728L30.3432 21.8739C30.5606 22.3088 31.0052 22.5835 31.4914 22.5835H33.8494C34.3357 22.5835 34.7802 22.3088 34.9977 21.8739L35.0706 21.728C35.1761 21.5169 35.0226 21.2686 34.7866 21.2686Z" stroke="#4A8C67" stroke-width="0.565415" stroke-miterlimit="10" stroke-linecap="round" stroke-linejoin="round"/>
<path d="M22.3475 17.9805H19.5215V25.8702H33.9859V24.5553" stroke="#4A8C67" stroke-width="0.565415" stroke-miterlimit="10" stroke-linecap="round" stroke-linejoin="round"/>
<path d="M28.7261 17.9805H23.8291" stroke="#4A8C67" stroke-width="0.565415" stroke-miterlimit="10" stroke-linecap="round" stroke-linejoin="round"/>
<path d="M29.784 16.666H19.6877C18.8694 16.666 18.2061 17.3294 18.2061 18.1477V36.2236C18.2061 37.0419 18.8694 37.7053 19.6877 37.7053H33.8188C34.6371 37.7053 35.3004 37.0419 35.3004 36.2236V24.5557" stroke="#4A8C67" stroke-width="0.565415" stroke-miterlimit="10" stroke-linecap="round" stroke-linejoin="round"/>
</g>
<defs>
<radialGradient id="paint0_angular_243_8635" cx="0" cy="0" r="1" gradientUnits="userSpaceOnUse" gradientTransform="translate(27.4101 27.1855) rotate(90) scale(26.8076)">
<stop stop-color="#4A8C67"/>
<stop offset="1" stop-color="white"/>
</radialGradient>
<clipPath id="clip0_243_8635">
<rect width="21.6742" height="21.6742" fill="white" transform="translate(16.5732 16.3486)"/>
</clipPath>
</defs>
</svg>
