<svg width="20" height="20" viewBox="0 0 20 20" fill="none" xmlns="http://www.w3.org/2000/svg">
<path d="M10.0319 14.0359C9.89981 14.0367 9.76883 14.0114 9.64651 13.9614C9.52419 13.9114 9.41293 13.8378 9.31912 13.7448L3.29526 7.72091C3.10621 7.53186 3 7.27545 3 7.00808C3 6.74072 3.10621 6.48431 3.29526 6.29526C3.48431 6.10621 3.74072 6 4.00808 6C4.27545 6 4.53186 6.10621 4.72091 6.29526L10.0319 11.6163L15.343 6.3053C15.535 6.14082 15.7821 6.05488 16.0348 6.06464C16.2874 6.0744 16.5271 6.17914 16.7059 6.35795C16.8847 6.53675 16.9895 6.77644 16.9993 7.02911C17.009 7.28179 16.9231 7.52885 16.7586 7.72091L10.7347 13.7448C10.5477 13.9302 10.2953 14.0348 10.0319 14.0359Z" fill="#323756"/>
</svg>
