<svg width="22" height="23" viewBox="0 0 22 23" fill="none" xmlns="http://www.w3.org/2000/svg">
<g clip-path="url(#clip0_675_6901)">
<path d="M13.4267 5.53525C14.2269 4.89267 15.051 4.02917 15.469 2.97867C15.5762 2.70698 15.6151 2.41315 15.5824 2.12293C15.5496 1.8327 15.4462 1.55495 15.2811 1.314C15.1118 1.06345 14.8836 0.85824 14.6165 0.71633C14.3495 0.574421 14.0518 0.500143 13.7493 0.5L8.24935 0.5C7.6361 0.5 7.06318 0.804333 6.7176 1.314C6.55275 1.55504 6.44943 1.83279 6.41667 2.12297C6.38392 2.41315 6.42272 2.70694 6.52968 2.97867C6.94768 4.02825 7.77177 4.89267 8.57202 5.53525C4.30402 7.11925 0.916016 12.5624 0.916016 17C0.916016 20.0333 3.38277 22.5 6.41602 22.5H15.5827C18.6159 22.5 21.0827 20.0333 21.0827 17C21.0827 12.5624 17.6947 7.11925 13.4267 5.53525ZM13.7649 2.30125C13.2919 3.49017 11.8454 4.49483 10.9975 4.96875C10.1514 4.4985 8.71043 3.50208 8.24843 2.33333L13.7649 2.30125ZM15.5818 20.6667H6.41602C4.39385 20.6667 2.74935 19.0222 2.74935 17C2.74935 12.1939 7.06685 6.91667 10.9993 6.91667C14.9318 6.91667 19.2493 12.1939 19.2493 17C19.2493 19.0222 17.6039 20.6667 15.5818 20.6667ZM10.9984 20.6667C10.7553 20.6667 10.5222 20.5701 10.3503 20.3982C10.1783 20.2263 10.0818 19.9931 10.0818 19.75V18.8333H9.8361C9.35366 18.8325 8.87987 18.7052 8.462 18.4641C8.04413 18.223 7.69678 17.8765 7.4546 17.4592C7.33873 17.2492 7.30983 17.0021 7.3741 16.7709C7.43837 16.5398 7.5907 16.3431 7.79837 16.223C8.00605 16.1029 8.25254 16.069 8.48492 16.1286C8.71731 16.1882 8.91708 16.3365 9.04135 16.5417C9.20452 16.824 9.50977 17 9.8361 17H11.9151C12.4202 17 12.8318 16.5884 12.8318 16.0833C12.8322 15.916 12.7731 15.754 12.6649 15.6263C12.5567 15.4986 12.4066 15.4137 12.2414 15.3867L9.45293 14.9219C8.85924 14.8246 8.31962 14.519 7.93076 14.0599C7.54191 13.6008 7.32924 13.0183 7.33085 12.4167C7.33085 10.9005 8.56468 9.66667 10.0808 9.66667V8.75C10.0808 8.50688 10.1774 8.27373 10.3493 8.10182C10.5212 7.92991 10.7544 7.83333 10.9975 7.83333C11.2406 7.83333 11.4738 7.92991 11.6457 8.10182C11.8176 8.27373 11.9142 8.50688 11.9142 8.75V9.66667H12.1598C13.1379 9.66667 14.0509 10.1938 14.5413 11.0417C14.6572 11.2517 14.6861 11.4989 14.6218 11.73C14.5576 11.9611 14.4053 12.1578 14.1976 12.2779C13.9899 12.398 13.7434 12.4319 13.511 12.3723C13.2786 12.3128 13.0789 12.1645 12.9546 11.9593C12.8738 11.82 12.7579 11.7044 12.6184 11.624C12.4789 11.5436 12.3208 11.5011 12.1598 11.5009H10.0808C9.57577 11.5009 9.16418 11.9125 9.16418 12.4176C9.16418 12.7641 9.4126 13.0574 9.75452 13.1143L12.543 13.579C13.1367 13.6764 13.6763 13.982 14.0652 14.441C14.454 14.9001 14.6667 15.4826 14.6651 16.0842C14.6651 17.6004 13.4313 18.8342 11.9151 18.8342V19.7509C11.9151 19.994 11.8185 20.2272 11.6466 20.3991C11.4747 20.571 11.2415 20.6667 10.9984 20.6667Z" fill="#708090"/>
</g>
<defs>
<clipPath id="clip0_675_6901">
<rect width="22" height="22" fill="white" transform="translate(0 0.5)"/>
</clipPath>
</defs>
</svg>
