<svg width="12" height="12" viewBox="0 0 12 12" fill="none" xmlns="http://www.w3.org/2000/svg">
<g clip-path="url(#clip0_8_10432)">
<path fill-rule="evenodd" clip-rule="evenodd" d="M10.2765 3.68388C9.31315 4.64723 7.05203 6.9079 6.50057 7.45755C6.38139 7.57627 6.23956 7.67007 6.08731 7.73124C5.64505 7.91476 4.56615 8.33798 4.24896 8.35928C4.06 8.37197 3.87467 8.30219 3.74055 8.16806C3.60642 8.03393 3.53664 7.8486 3.54932 7.65965C3.57062 7.34245 3.99385 6.26446 4.17419 5.82401C4.23718 5.66768 4.33097 5.52585 4.45015 5.40713L8.22473 1.6321C8.40734 1.44949 8.65566 1.34663 8.91394 1.34663C9.17223 1.34663 9.42054 1.44949 9.60315 1.6321L10.2765 2.30545C10.4591 2.48806 10.562 2.73638 10.562 2.99466C10.562 3.25295 10.4591 3.50126 10.2765 3.68388ZM4.23038 7.67823C4.54032 7.63926 5.44613 7.26134 5.82676 7.1032C5.82812 7.10275 5.82948 7.1023 5.83038 7.10184C5.90153 7.0733 5.96587 7.0307 6.01979 6.97678L6.02025 6.97633C6.57261 6.42668 8.83283 4.16646 9.79573 3.2031C9.85102 3.14782 9.88228 3.07306 9.88228 2.99466C9.88228 2.91627 9.85102 2.84151 9.79573 2.78622L9.12238 2.11287C9.0671 2.05759 8.99233 2.02632 8.91394 2.02632C8.83555 2.02632 8.76078 2.05759 8.7055 2.11287L4.93047 5.8879C4.87609 5.94183 4.8335 6.00662 4.80495 6.07777L4.80404 6.07958C4.64771 6.46111 4.26935 7.36783 4.23038 7.67823Z" fill="#4A8C67"/>
<path fill-rule="evenodd" clip-rule="evenodd" d="M9.37889 4.10076C9.51121 4.23353 9.51121 4.44876 9.37889 4.58153C9.24612 4.7143 9.03089 4.7143 8.89812 4.58153L7.32711 3.01053C7.19435 2.87776 7.19435 2.66252 7.32711 2.52975C7.45988 2.39744 7.67512 2.39744 7.80789 2.52975L9.37889 4.10076Z" fill="#4A8C67"/>
<path fill-rule="evenodd" clip-rule="evenodd" d="M6.605 6.87438C6.73777 7.00669 6.73777 7.22238 6.605 7.3547C6.47269 7.48746 6.257 7.48746 6.12468 7.3547L4.55368 5.78369C4.42091 5.65138 4.42091 5.43569 4.55368 5.30337C4.68599 5.1706 4.90168 5.1706 5.034 5.30337L6.605 6.87438Z" fill="#4A8C67"/>
<path fill-rule="evenodd" clip-rule="evenodd" d="M4.11381 2.24338C4.30141 2.24338 4.45366 2.39563 4.45366 2.58323C4.45366 2.77082 4.30141 2.92307 4.11381 2.92307H2.52785C1.96461 2.92307 1.50831 3.37938 1.50831 3.94262V9.38019C1.50831 9.65071 1.6157 9.9099 1.80692 10.1011C1.99814 10.2923 2.25734 10.3997 2.52785 10.3997H8.41856C8.68908 10.3997 8.94827 10.2923 9.13949 10.1011C9.33071 9.9099 9.4381 9.65071 9.4381 9.38019V7.79423C9.4381 7.60663 9.59035 7.45438 9.77795 7.45438C9.96555 7.45438 10.1178 7.60663 10.1178 7.79423V9.38019C10.1178 9.83105 9.93881 10.2629 9.62026 10.5819C9.30126 10.9004 8.86942 11.0794 8.41856 11.0794H2.52785C2.07699 11.0794 1.64516 10.9004 1.32615 10.5819C1.0076 10.2629 0.828613 9.83105 0.828613 9.38019V3.94262C0.828613 3.00418 1.58942 2.24338 2.52785 2.24338H4.11381Z" fill="#4A8C67"/>
</g>
<defs>
<clipPath id="clip0_8_10432">
<rect width="10.8751" height="10.8751" fill="white" transform="translate(0.262207 0.770699)"/>
</clipPath>
</defs>
</svg>
