<svg width="157" height="157" viewBox="0 0 157 157" fill="none" xmlns="http://www.w3.org/2000/svg">
<path d="M149.493 104.65L127.415 43.3222C127.072 42.3409 126.14 41.7031 125.109 41.7031H101.903C102.639 39.3727 103.031 36.895 103.031 34.3438C103.031 20.827 92.0167 9.8125 78.5 9.8125C64.9833 9.8125 53.9688 20.827 53.9688 34.3438C53.9688 36.895 54.3612 39.3727 55.0972 41.7031H31.8906C30.8603 41.7031 29.9281 42.3409 29.5847 43.3222L7.50656 104.65C7.40844 104.92 7.35938 105.19 7.35938 105.484V144.734C7.35938 146.084 8.46328 147.188 9.8125 147.188H147.188C148.537 147.188 149.641 146.084 149.641 144.734V105.484C149.641 105.19 149.592 104.92 149.493 104.65ZM29.4375 82.9892L22.2253 103.031H13.3205L29.462 58.2127V82.9892H29.4375ZM33.6078 85.8594H123.368L129.55 103.031H97.5608C95.3039 103.031 93.3414 104.552 92.8017 106.76L91.7469 111.004C91.477 112.108 90.4958 112.868 89.3673 112.868H67.5836C66.4552 112.868 65.4739 112.108 65.2041 111.004L64.1492 106.76C63.6095 104.577 61.647 103.031 59.3902 103.031H27.4014L33.5833 85.8594H33.6078ZM134.775 103.031L127.562 82.9892V58.2127L143.704 103.031H134.799H134.775ZM78.5 14.7188C89.3183 14.7188 98.125 23.5255 98.125 34.3438C98.125 43.4203 91.9677 51.2703 83.1364 53.4291C82.425 53.6008 81.8363 54.0669 81.5173 54.7047L78.4755 60.7639L75.4336 54.7047C75.1147 54.0669 74.5259 53.6008 73.8145 53.4291C64.9833 51.2703 58.8259 43.4448 58.8259 34.3438C58.8259 23.5255 67.6327 14.7188 78.4509 14.7188H78.5ZM71.5822 57.8937L76.3167 67.3383C76.7337 68.1723 77.5678 68.6875 78.5 68.6875C79.4322 68.6875 80.2663 68.1723 80.6833 67.3383L85.4178 57.8937C91.6242 56.0784 96.6531 51.9572 99.7441 46.6094H122.656V80.9531H34.3438V46.6094H57.2559C60.3223 51.9572 65.3758 56.0784 71.5822 57.8937ZM12.2656 142.281V107.938H59.4147L60.4695 112.181C61.2791 115.469 64.2228 117.75 67.6081 117.75H89.3919C92.7772 117.75 95.7209 115.469 96.5305 112.181L97.5853 107.938H144.734V142.281H12.2656ZM68.0988 41.2861L75.0411 34.3438L68.0988 27.4014C67.142 26.4447 67.142 24.8992 68.0988 23.9425C69.0555 22.9858 70.6009 22.9858 71.5577 23.9425L78.5 30.8848L85.4423 23.9425C86.3991 22.9858 87.9445 22.9858 88.9013 23.9425C89.858 24.8992 89.858 26.4447 88.9013 27.4014L81.9589 34.3438L88.9013 41.2861C89.858 42.2428 89.858 43.7883 88.9013 44.745C88.4106 45.2356 87.7973 45.4564 87.1595 45.4564C86.5217 45.4564 85.9084 45.2111 85.4178 44.745L78.4755 37.8027L71.5331 44.745C71.0425 45.2356 70.4292 45.4564 69.7914 45.4564C69.1536 45.4564 68.5403 45.2111 68.0497 44.745C67.093 43.7883 67.093 42.2428 68.0497 41.2861H68.0988Z" fill="#4A8C67" fill-opacity="0.5"/>
</svg>
