<svg width="22" height="23" viewBox="0 0 22 23" fill="none" xmlns="http://www.w3.org/2000/svg">
<g clip-path="url(#clip0_8_10254)">
<path d="M7.10012 5.04915V4.75308C7.10012 4.19035 6.64395 3.73418 6.08122 3.73418H5.48912C4.92639 3.73418 4.47021 4.19035 4.47021 4.75308C4.47021 5.19164 4.75084 5.58102 5.16692 5.7197L6.40345 6.13189C6.8195 6.27057 7.10016 6.65994 7.10016 7.09851C7.10016 7.66124 6.64399 8.11741 6.08126 8.11741H5.48916C4.92643 8.11741 4.47026 7.66124 4.47026 7.09851V6.80244" stroke="#4A8C67" stroke-width="0.565415" stroke-miterlimit="10" stroke-linecap="round" stroke-linejoin="round"/>
<path d="M5.78516 3.29585V8.55566" stroke="#4A8C67" stroke-width="0.565415" stroke-miterlimit="10" stroke-linecap="round" stroke-linejoin="round"/>
<path d="M11.8312 15.1305H8.94468C8.65242 15.1305 8.41553 14.8936 8.41553 14.6013V11.7147C8.41553 11.4225 8.65242 11.1856 8.94468 11.1856H11.8312C12.1235 11.1856 12.3604 11.4225 12.3604 11.7147V14.6013C12.3604 14.8935 12.1235 15.1305 11.8312 15.1305Z" stroke="#4A8C67" stroke-width="0.565415" stroke-miterlimit="10" stroke-linecap="round" stroke-linejoin="round"/>
<path d="M17.091 20.3903H14.2044C13.9122 20.3903 13.6753 20.1534 13.6753 19.8611V11.7147C13.6753 11.4225 13.9122 11.1856 14.2044 11.1856H17.091C17.3833 11.1856 17.6202 11.4225 17.6202 11.7147V19.8611C17.6202 20.1533 17.3833 20.3903 17.091 20.3903Z" stroke="#4A8C67" stroke-width="0.565415" stroke-miterlimit="10" stroke-linecap="round" stroke-linejoin="round"/>
<path d="M11.8312 20.3903H8.94468C8.65242 20.3903 8.41553 20.1534 8.41553 19.8611V16.9745C8.41553 16.6823 8.65242 16.4454 8.94468 16.4454H11.8312C12.1235 16.4454 12.3604 16.6823 12.3604 16.9745V19.8611C12.3604 20.1533 12.1235 20.3903 11.8312 20.3903Z" stroke="#4A8C67" stroke-width="0.565415" stroke-miterlimit="10" stroke-linecap="round" stroke-linejoin="round"/>
<path d="M7.1006 14.4139V14.6013C7.1006 14.8936 6.86371 15.1305 6.57144 15.1305H3.68492C3.39265 15.1305 3.15576 14.8936 3.15576 14.6013V11.7147C3.15576 11.4225 3.39265 11.1856 3.68492 11.1856H6.57144C6.86371 11.1856 7.1006 11.4225 7.1006 11.7147V12.9323" stroke="#4A8C67" stroke-width="0.565415" stroke-miterlimit="10" stroke-linecap="round" stroke-linejoin="round"/>
<path d="M6.57144 20.3903H3.68492C3.39265 20.3903 3.15576 20.1534 3.15576 19.8611V16.9745C3.15576 16.6823 3.39265 16.4454 3.68492 16.4454H6.57144C6.86371 16.4454 7.1006 16.6823 7.1006 16.9745V19.8611C7.1006 20.1533 6.86371 20.3903 6.57144 20.3903Z" stroke="#4A8C67" stroke-width="0.565415" stroke-miterlimit="10" stroke-linecap="round" stroke-linejoin="round"/>
<path d="M7.75757 8.55566H9.0725" stroke="#4A8C67" stroke-width="0.565415" stroke-miterlimit="10" stroke-linecap="round" stroke-linejoin="round"/>
<path d="M4.47021 13.158H5.78519" stroke="#4A8C67" stroke-width="0.565415" stroke-miterlimit="10" stroke-linecap="round" stroke-linejoin="round"/>
<path d="M9.72998 13.158H11.045" stroke="#4A8C67" stroke-width="0.565415" stroke-miterlimit="10" stroke-linecap="round" stroke-linejoin="round"/>
<path d="M5.12793 12.5005V13.8155" stroke="#4A8C67" stroke-width="0.565415" stroke-miterlimit="10" stroke-linecap="round" stroke-linejoin="round"/>
<path d="M4.4707 17.7603L5.78563 19.0753" stroke="#4A8C67" stroke-width="0.565415" stroke-miterlimit="10" stroke-linecap="round" stroke-linejoin="round"/>
<path d="M5.78563 17.7603L4.4707 19.0753" stroke="#4A8C67" stroke-width="0.565415" stroke-miterlimit="10" stroke-linecap="round" stroke-linejoin="round"/>
<path d="M11.0454 17.7603L9.73047 19.0753" stroke="#4A8C67" stroke-width="0.565415" stroke-miterlimit="10" stroke-linecap="round" stroke-linejoin="round"/>
<path d="M14.9902 15.1304H16.3052" stroke="#4A8C67" stroke-width="0.565415" stroke-miterlimit="10" stroke-linecap="round" stroke-linejoin="round"/>
<path d="M14.9902 16.4454H16.3052" stroke="#4A8C67" stroke-width="0.565415" stroke-miterlimit="10" stroke-linecap="round" stroke-linejoin="round"/>
<path d="M20.2499 7.00656V7.49736C20.2499 8.08184 19.776 8.55567 19.1916 8.55567H13.4184C12.8339 8.55567 12.3601 8.08184 12.3601 7.49736V1.72427C12.3601 1.13978 12.8339 0.665955 13.4184 0.665955H19.1915C19.776 0.665955 20.2498 1.13978 20.2498 1.72427V5.52492" stroke="#4A8C67" stroke-width="0.565415" stroke-miterlimit="10" stroke-linecap="round" stroke-linejoin="round"/>
<path d="M16.9622 2.68985C17.7175 2.87814 18.2771 3.56105 18.2771 4.37468V5.26828" stroke="#4A8C67" stroke-width="0.565415" stroke-miterlimit="10" stroke-linecap="round" stroke-linejoin="round"/>
<path d="M14.3325 5.26828V4.37468C14.3325 3.56105 14.8922 2.87814 15.6475 2.68985" stroke="#4A8C67" stroke-width="0.565415" stroke-miterlimit="10" stroke-linecap="round" stroke-linejoin="round"/>
<path d="M15.6477 5.26828V2.63837C15.6477 2.52149 15.7425 2.42671 15.8594 2.42671H16.751C16.8679 2.42671 16.9626 2.52149 16.9626 2.63837V5.26828" stroke="#4A8C67" stroke-width="0.565415" stroke-miterlimit="10" stroke-linecap="round" stroke-linejoin="round"/>
<path d="M18.4212 5.26828H14.1888C13.9528 5.26828 13.7992 5.51664 13.9048 5.72776L13.9777 5.87359C14.1951 6.30852 14.6397 6.58325 15.126 6.58325H17.484C17.9702 6.58325 18.4148 6.30852 18.6322 5.87359L18.7051 5.72776C18.8107 5.51664 18.6572 5.26828 18.4212 5.26828Z" stroke="#4A8C67" stroke-width="0.565415" stroke-miterlimit="10" stroke-linecap="round" stroke-linejoin="round"/>
<path d="M5.98175 1.98087H3.15576V9.87063H17.6202V8.55565" stroke="#4A8C67" stroke-width="0.565415" stroke-miterlimit="10" stroke-linecap="round" stroke-linejoin="round"/>
<path d="M12.3599 1.98087H7.46289" stroke="#4A8C67" stroke-width="0.565415" stroke-miterlimit="10" stroke-linecap="round" stroke-linejoin="round"/>
<path d="M13.4185 0.665955H3.32221C2.50393 0.665955 1.84058 1.3293 1.84058 2.14759V20.2236C1.84058 21.0418 2.50393 21.7052 3.32221 21.7052H17.4533C18.2716 21.7052 18.9349 21.0418 18.9349 20.2236V8.55567" stroke="#4A8C67" stroke-width="0.565415" stroke-miterlimit="10" stroke-linecap="round" stroke-linejoin="round"/>
</g>
<defs>
<clipPath id="clip0_8_10254">
<rect width="21.6742" height="21.6742" fill="white" transform="translate(0.207764 0.348465)"/>
</clipPath>
</defs>
</svg>
