<svg width="23" height="23" viewBox="0 0 23 23" fill="none" xmlns="http://www.w3.org/2000/svg">
<path d="M7.31372 4.98818V4.674C7.31372 4.07685 6.82964 3.59277 6.2325 3.59277H5.60417C5.00703 3.59277 4.52295 4.07685 4.52295 4.674C4.52295 5.13939 4.82074 5.55258 5.26227 5.69974L6.57444 6.13715C7.01593 6.28431 7.31377 6.6975 7.31377 7.1629C7.31377 7.76004 6.82969 8.24412 6.23254 8.24412H5.60422C5.00707 8.24412 4.52299 7.76004 4.52299 7.1629V6.84871" stroke="white" stroke-opacity="0.5" stroke-width="0.6" stroke-miterlimit="10" stroke-linecap="round" stroke-linejoin="round"/>
<path d="M5.91846 3.12769V8.70923" stroke="white" stroke-opacity="0.5" stroke-width="0.6" stroke-miterlimit="10" stroke-linecap="round" stroke-linejoin="round"/>
<path d="M12.3338 15.6862H9.27075C8.96061 15.6862 8.70923 15.4348 8.70923 15.1247V12.0615C8.70923 11.7514 8.96061 11.5 9.27075 11.5H12.3338C12.644 11.5 12.8954 11.7514 12.8954 12.0615V15.1247C12.8954 15.4348 12.644 15.6862 12.3338 15.6862Z" stroke="white" stroke-opacity="0.5" stroke-width="0.6" stroke-miterlimit="10" stroke-linecap="round" stroke-linejoin="round"/>
<path d="M17.9152 21.2677H14.8521C14.5419 21.2677 14.2905 21.0163 14.2905 20.7062V12.0615C14.2905 11.7514 14.5419 11.5 14.8521 11.5H17.9152C18.2253 11.5 18.4767 11.7514 18.4767 12.0615V20.7062C18.4767 21.0163 18.2253 21.2677 17.9152 21.2677Z" stroke="white" stroke-opacity="0.5" stroke-width="0.6" stroke-miterlimit="10" stroke-linecap="round" stroke-linejoin="round"/>
<path d="M12.3338 21.2677H9.27075C8.96061 21.2677 8.70923 21.0163 8.70923 20.7062V17.6431C8.70923 17.3329 8.96061 17.0815 9.27075 17.0815H12.3338C12.644 17.0815 12.8954 17.3329 12.8954 17.6431V20.7062C12.8954 21.0163 12.644 21.2677 12.3338 21.2677Z" stroke="white" stroke-opacity="0.5" stroke-width="0.6" stroke-miterlimit="10" stroke-linecap="round" stroke-linejoin="round"/>
<path d="M7.31382 14.9258V15.1247C7.31382 15.4348 7.06244 15.6862 6.7523 15.6862H3.68921C3.37907 15.6862 3.12769 15.4348 3.12769 15.1247V12.0615C3.12769 11.7514 3.37907 11.5 3.68921 11.5H6.7523C7.06244 11.5 7.31382 11.7514 7.31382 12.0615V13.3535" stroke="white" stroke-opacity="0.5" stroke-width="0.6" stroke-miterlimit="10" stroke-linecap="round" stroke-linejoin="round"/>
<path d="M6.7523 21.2677H3.68921C3.37907 21.2677 3.12769 21.0163 3.12769 20.7062V17.6431C3.12769 17.3329 3.37907 17.0815 3.68921 17.0815H6.7523C7.06244 17.0815 7.31382 17.3329 7.31382 17.6431V20.7062C7.31382 21.0163 7.06244 21.2677 6.7523 21.2677Z" stroke="white" stroke-opacity="0.5" stroke-width="0.6" stroke-miterlimit="10" stroke-linecap="round" stroke-linejoin="round"/>
<path d="M8.01147 8.70923H9.40684" stroke="white" stroke-opacity="0.5" stroke-width="0.6" stroke-miterlimit="10" stroke-linecap="round" stroke-linejoin="round"/>
<path d="M4.52295 13.593H5.91836" stroke="white" stroke-opacity="0.5" stroke-width="0.6" stroke-miterlimit="10" stroke-linecap="round" stroke-linejoin="round"/>
<path d="M10.1045 13.593H11.4999" stroke="white" stroke-opacity="0.5" stroke-width="0.6" stroke-miterlimit="10" stroke-linecap="round" stroke-linejoin="round"/>
<path d="M5.2207 12.8953V14.2907" stroke="white" stroke-opacity="0.5" stroke-width="0.6" stroke-miterlimit="10" stroke-linecap="round" stroke-linejoin="round"/>
<path d="M4.52295 18.4768L5.91831 19.8722" stroke="white" stroke-opacity="0.5" stroke-width="0.6" stroke-miterlimit="10" stroke-linecap="round" stroke-linejoin="round"/>
<path d="M5.91831 18.4768L4.52295 19.8722" stroke="white" stroke-opacity="0.5" stroke-width="0.6" stroke-miterlimit="10" stroke-linecap="round" stroke-linejoin="round"/>
<path d="M11.4999 18.4768L10.1045 19.8722" stroke="white" stroke-opacity="0.5" stroke-width="0.6" stroke-miterlimit="10" stroke-linecap="round" stroke-linejoin="round"/>
<path d="M15.686 15.6863H17.0814" stroke="white" stroke-opacity="0.5" stroke-width="0.6" stroke-miterlimit="10" stroke-linecap="round" stroke-linejoin="round"/>
<path d="M15.686 17.0815H17.0814" stroke="white" stroke-opacity="0.5" stroke-width="0.6" stroke-miterlimit="10" stroke-linecap="round" stroke-linejoin="round"/>
<path d="M21.2676 7.06536V7.58618C21.2676 8.20642 20.7648 8.70923 20.1446 8.70923H14.0183C13.3981 8.70923 12.8953 8.20642 12.8953 7.58618V1.45996C12.8953 0.839725 13.3981 0.336914 14.0183 0.336914H20.1445C20.7648 0.336914 21.2676 0.839725 21.2676 1.45996V5.49309" stroke="white" stroke-opacity="0.5" stroke-width="0.6" stroke-miterlimit="10" stroke-linecap="round" stroke-linejoin="round"/>
<path d="M17.7791 2.48462C18.5805 2.68443 19.1744 3.40911 19.1744 4.27251V5.22077" stroke="white" stroke-opacity="0.5" stroke-width="0.6" stroke-miterlimit="10" stroke-linecap="round" stroke-linejoin="round"/>
<path d="M14.9883 5.22077V4.27251C14.9883 3.40911 15.5821 2.68443 16.3836 2.48462" stroke="white" stroke-opacity="0.5" stroke-width="0.6" stroke-miterlimit="10" stroke-linecap="round" stroke-linejoin="round"/>
<path d="M16.3838 5.2207V2.42993C16.3838 2.3059 16.4844 2.20532 16.6084 2.20532H17.5545C17.6786 2.20532 17.7792 2.3059 17.7792 2.42993V5.2207" stroke="white" stroke-opacity="0.5" stroke-width="0.6" stroke-miterlimit="10" stroke-linecap="round" stroke-linejoin="round"/>
<path d="M19.3272 5.2207H14.8359C14.5854 5.2207 14.4225 5.48426 14.5345 5.70828L14.6119 5.86304C14.8427 6.32457 15.3144 6.61611 15.8304 6.61611H18.3326C18.8487 6.61611 19.3204 6.32457 19.5512 5.86304L19.6285 5.70828C19.7405 5.48426 19.5776 5.2207 19.3272 5.2207Z" stroke="white" stroke-opacity="0.5" stroke-width="0.6" stroke-miterlimit="10" stroke-linecap="round" stroke-linejoin="round"/>
<path d="M6.12654 1.73218H3.12769V10.1045H18.4769V8.70913" stroke="white" stroke-opacity="0.5" stroke-width="0.6" stroke-miterlimit="10" stroke-linecap="round" stroke-linejoin="round"/>
<path d="M12.8953 1.73218H7.69873" stroke="white" stroke-opacity="0.5" stroke-width="0.6" stroke-miterlimit="10" stroke-linecap="round" stroke-linejoin="round"/>
<path d="M14.0183 0.336914H3.30444C2.4361 0.336914 1.73218 1.04084 1.73218 1.90918V21.0908C1.73218 21.9592 2.4361 22.6631 3.30444 22.6631H18.2999C19.1682 22.6631 19.8722 21.9592 19.8722 21.0908V8.70923" stroke="white" stroke-opacity="0.5" stroke-width="0.6" stroke-miterlimit="10" stroke-linecap="round" stroke-linejoin="round"/>
</svg>
