<svg width="23" height="23" viewBox="0 0 23 23" fill="none" xmlns="http://www.w3.org/2000/svg">
<g opacity="0.5" clip-path="url(#clip0_8_315)">
<path d="M17.497 1.61645C17.3519 1.47218 17.1343 1.42924 16.9453 1.5078C16.7563 1.58637 16.633 1.771 16.633 1.97563V4.67887C13.8967 4.78771 12.5265 5.92204 12.3171 6.11063C10.9366 7.24358 9.99402 8.82238 9.65166 10.5749C9.48048 11.4217 9.44981 12.2909 9.56122 13.1476L9.56162 13.1505C9.56261 13.1581 9.5638 13.1658 9.56498 13.1733L9.67264 13.7921C9.70885 14.0005 9.87093 14.1646 10.0789 14.2033C10.2871 14.2421 10.4973 14.1473 10.6061 13.9659L10.9287 13.4282C11.9197 11.7803 13.1548 10.6879 14.6 10.1815C15.2519 9.95098 15.9425 9.84985 16.633 9.8835V12.6833C16.633 12.8883 16.7567 13.0734 16.9463 13.1515C17.136 13.2299 17.3541 13.186 17.4988 13.0405L22.8524 7.65975C23.0497 7.46146 23.0489 7.14068 22.8506 6.94338L17.497 1.61645ZM17.6464 11.4556V9.42774C17.6464 9.17919 17.4659 8.96724 17.2203 8.92766C16.787 8.85781 15.631 8.74679 14.265 9.2255C12.8077 9.73606 11.5469 10.7408 10.5085 12.2171C10.5056 11.732 10.5515 11.2478 10.6457 10.7718C10.9536 9.21501 11.7357 7.90732 12.97 6.88559C12.9808 6.87669 12.9911 6.86738 13.0012 6.85749C13.0366 6.82464 14.3234 5.663 17.1356 5.68397H17.1394C17.4192 5.68397 17.6462 5.45699 17.6464 5.17717V3.19446L21.7771 7.30434L17.6464 11.4556Z" fill="white"/>
<path d="M21.1435 16.3864C20.8638 16.3864 20.6368 16.6132 20.6368 16.893V19.034C20.6361 19.8731 19.9561 20.5529 19.117 20.5539H2.53305C1.69398 20.5529 1.01421 19.8731 1.01322 19.034V6.96445C1.01421 6.12537 1.69398 5.44561 2.53305 5.44462H6.03678C6.3166 5.44462 6.54339 5.21783 6.54339 4.93801C6.54339 4.65818 6.3166 4.4314 6.03678 4.4314H2.53305C1.13473 4.43298 0.00158316 5.56612 0 6.96445V19.034C0.00158316 20.4324 1.13473 21.5655 2.53305 21.5671H19.117C20.5153 21.5655 21.6485 20.4324 21.6501 19.034V16.893C21.6501 16.6132 21.4233 16.3864 21.1435 16.3864Z" fill="white"/>
</g>
<defs>
<clipPath id="clip0_8_315">
<rect width="23" height="23" fill="white"/>
</clipPath>
</defs>
</svg>
