<svg width="25" height="23" viewBox="0 0 25 23" fill="none" xmlns="http://www.w3.org/2000/svg">
<path d="M22.4967 7.19474L22.8687 6.82266L22.8799 6.83383C22.9443 6.89837 23.0209 6.94958 23.1052 6.98451C23.1894 7.01945 23.2798 7.03743 23.371 7.03743C23.4622 7.03743 23.5525 7.01945 23.6368 6.98451C23.7211 6.94958 23.7976 6.89837 23.8621 6.83383L24.4371 6.25882C24.5016 6.19434 24.5528 6.11776 24.5878 6.03348C24.6227 5.94919 24.6407 5.85885 24.6407 5.76761C24.6407 5.67637 24.6227 5.58603 24.5878 5.50174C24.5528 5.41745 24.5016 5.34088 24.4371 5.2764L22.9295 3.76857C22.7972 3.64231 22.6213 3.57187 22.4384 3.57187C22.2555 3.57187 22.0796 3.64231 21.9473 3.76857L21.3723 4.34358C21.3077 4.40806 21.2565 4.48464 21.2216 4.56892C21.1866 4.65321 21.1687 4.74355 21.1687 4.83479C21.1687 4.92603 21.1866 5.01638 21.2216 5.10066C21.2565 5.18495 21.3077 5.26152 21.3723 5.326L21.3832 5.3369L20.9902 5.72984C19.6472 4.67522 18.0474 3.99742 16.3555 3.76616V2.62289H17.0996C17.3217 2.62266 17.5347 2.53433 17.6917 2.37728C17.8488 2.22023 17.9371 2.00728 17.9373 1.78518V0.837702C17.9371 0.615599 17.8488 0.402657 17.6917 0.245606C17.5347 0.0885557 17.3217 0.000225684 17.0996 0H12.9883C12.7662 0.000229188 12.5533 0.0885597 12.3962 0.245608C12.2392 0.402657 12.1509 0.615594 12.1506 0.837693V1.78517C12.1509 2.00727 12.2392 2.22022 12.3962 2.37727C12.5533 2.53432 12.7662 2.62265 12.9883 2.62288H13.7329V3.76678C13.2216 3.83489 12.7168 3.94405 12.2231 4.0932C12.111 4.12741 12.0171 4.20473 11.9621 4.30816C11.907 4.41158 11.8953 4.53264 11.9295 4.6447C11.9637 4.75676 12.0411 4.85064 12.1445 4.90569C12.2479 4.96074 12.369 4.97245 12.481 4.93824C13.9672 4.4845 15.5471 4.43333 17.0594 4.78996C18.5718 5.14659 19.9624 5.89823 21.0892 6.96813C22.2161 8.03802 23.0387 9.38783 23.4732 10.8797C23.9077 12.3715 23.9385 13.952 23.5623 15.4596C23.1862 16.9673 22.4166 18.348 21.3322 19.4609C20.2479 20.5738 18.8875 21.379 17.3902 21.7942C15.8928 22.2093 14.3121 22.2196 12.8095 21.824C11.3068 21.4284 9.93613 20.6411 8.83734 19.5424C8.7964 19.5011 8.7477 19.4682 8.69402 19.4457C8.64035 19.4233 8.58276 19.4116 8.52458 19.4115C8.46639 19.4113 8.40875 19.4227 8.35496 19.4449C8.30117 19.4671 8.2523 19.4997 8.21115 19.5408C8.17001 19.582 8.1374 19.6308 8.1152 19.6846C8.093 19.7384 8.08164 19.7961 8.08179 19.8542C8.08193 19.9124 8.09358 19.97 8.11605 20.0237C8.13852 20.0774 8.17137 20.1261 8.21272 20.167C9.96688 21.9232 12.3299 22.9367 14.8113 22.9971C17.2928 23.0576 19.7023 22.1603 21.5399 20.4915C23.3774 18.8227 24.5019 16.5105 24.6801 14.0347C24.8583 11.5588 24.0764 9.10945 22.4967 7.19474ZM22.4382 4.5267L23.6792 5.76751L23.3712 6.07572L22.1302 4.83491L22.4382 4.5267ZM22.0077 5.96162L22.244 6.19801L21.9026 6.53954C21.8241 6.46036 21.7432 6.38371 21.662 6.30725L22.0077 5.96162ZM13.0341 1.73946V0.883415H17.0539V1.73946H13.0341ZM14.6163 3.69045V2.62289H15.4721V3.68562C15.3301 3.6794 15.1877 3.67476 15.0442 3.67476C14.901 3.67476 14.7588 3.68422 14.6163 3.69045Z" fill="#F2BE22"/>
<path d="M20.7821 19.0392C22.2918 17.5248 23.1395 15.4737 23.1394 13.3353C23.1393 11.197 22.2914 9.14596 20.7816 7.6317C20.7761 7.62547 20.7741 7.61742 20.7682 7.61143C20.7622 7.60545 20.7541 7.60353 20.7478 7.59795C19.2342 6.08718 17.1826 5.23916 15.044 5.24024C14.558 5.24015 14.0729 5.28353 13.5946 5.36986C13.5375 5.38017 13.4831 5.40162 13.4343 5.43299C13.3855 5.46435 13.3434 5.50502 13.3103 5.55267C13.2772 5.60031 13.2539 5.654 13.2416 5.71068C13.2292 5.76735 13.2282 5.8259 13.2385 5.88297C13.2488 5.94004 13.2703 5.99452 13.3017 6.0433C13.333 6.09209 13.3737 6.13421 13.4213 6.16728C13.469 6.20034 13.5227 6.2237 13.5793 6.23602C13.636 6.24833 13.6946 6.24936 13.7516 6.23905C14.0331 6.19043 14.3171 6.15847 14.6023 6.14335V6.83433C14.6023 6.95148 14.6488 7.06384 14.7317 7.14667C14.8145 7.22951 14.9268 7.27605 15.044 7.27605C15.1611 7.27605 15.2735 7.22951 15.3563 7.14667C15.4392 7.06384 15.4857 6.95148 15.4857 6.83433V6.14604C17.0887 6.24287 18.6129 6.87493 19.814 7.94099L19.3287 8.42627C19.2874 8.46721 19.2545 8.51591 19.2321 8.56958C19.2096 8.62326 19.1979 8.68084 19.1978 8.73903C19.1976 8.79722 19.209 8.85486 19.2312 8.90865C19.2534 8.96244 19.286 9.01131 19.3271 9.05245C19.3683 9.0936 19.4172 9.12621 19.4709 9.14841C19.5247 9.17061 19.5824 9.18197 19.6406 9.18182C19.6987 9.18168 19.7563 9.17003 19.81 9.14757C19.8637 9.1251 19.9124 9.09224 19.9533 9.05089L20.4386 8.56561C21.5047 9.76678 22.1367 11.291 22.2336 12.8941H21.5455C21.4283 12.8941 21.316 12.9406 21.2331 13.0235C21.1503 13.1063 21.1038 13.2187 21.1038 13.3358C21.1038 13.453 21.1503 13.5653 21.2331 13.6482C21.316 13.731 21.4283 13.7775 21.5455 13.7775H22.2336C22.1368 15.3806 21.5047 16.9048 20.4386 18.1059L19.9533 17.6205C19.8703 17.5385 19.7582 17.4926 19.6415 17.493C19.5248 17.4933 19.413 17.5398 19.3305 17.6223C19.248 17.7048 19.2015 17.8167 19.2011 17.9334C19.2008 18.0501 19.2467 18.1622 19.3287 18.2451L19.814 18.7305C18.6129 19.7965 17.0887 20.4286 15.4857 20.5254V19.8371C15.4857 19.7199 15.4392 19.6076 15.3564 19.5247C15.2735 19.4419 15.1612 19.3954 15.044 19.3954C14.9269 19.3954 14.8145 19.4419 14.7317 19.5247C14.6488 19.6076 14.6023 19.7199 14.6023 19.8371V20.5296C13.1323 20.4465 11.724 19.9101 10.5712 18.9942C10.5257 18.9582 10.4736 18.9316 10.4178 18.9157C10.362 18.8999 10.3037 18.8952 10.2461 18.902C10.1885 18.9087 10.1328 18.9267 10.0821 18.955C10.0315 18.9832 9.9869 19.0212 9.95093 19.0667C9.91496 19.1122 9.8883 19.1643 9.87247 19.2201C9.85665 19.2759 9.85197 19.3342 9.8587 19.3918C9.86543 19.4494 9.88343 19.5051 9.91169 19.5558C9.93995 19.6064 9.97791 19.651 10.0234 19.687C11.5761 20.915 13.5253 21.5309 15.5017 21.418C17.4781 21.3051 19.3444 20.4711 20.7471 19.0742C20.7536 19.0684 20.762 19.0664 20.7682 19.0602C20.7744 19.054 20.7764 19.0457 20.7821 19.0392Z" fill="#F2BE22"/>
<path d="M18.8139 9.56618C18.7729 9.52515 18.7242 9.49261 18.6706 9.4704C18.617 9.4482 18.5596 9.43677 18.5016 9.43677C18.4436 9.43677 18.3861 9.4482 18.3325 9.4704C18.279 9.49261 18.2303 9.52515 18.1893 9.56618L15.7133 12.0421C15.5073 11.9323 15.2777 11.8741 15.0442 11.8725C14.7548 11.8724 14.4719 11.9582 14.2312 12.119C13.9906 12.2798 13.803 12.5083 13.6922 12.7757C13.5815 13.043 13.5525 13.3373 13.6089 13.6211C13.6653 13.905 13.8047 14.1657 14.0093 14.3704C14.2139 14.575 14.4747 14.7144 14.7585 14.7709C15.0424 14.8274 15.3366 14.7984 15.604 14.6877C15.8714 14.577 16.0999 14.3894 16.2607 14.1488C16.4215 13.9082 16.5074 13.6253 16.5074 13.3359C16.5058 13.1024 16.4476 12.8729 16.3379 12.6668L18.8139 10.1908C18.8549 10.1498 18.8874 10.1011 18.9097 10.0475C18.9319 9.99393 18.9433 9.93649 18.9433 9.87849C18.9433 9.82048 18.9319 9.76304 18.9097 9.70946C18.8874 9.65587 18.8549 9.60718 18.8139 9.56618ZM15.0442 13.9156C14.9488 13.9157 14.8549 13.8922 14.7707 13.8473C14.6866 13.8024 14.6148 13.7374 14.5618 13.6582C14.5087 13.5789 14.4761 13.4877 14.4667 13.3928C14.4573 13.2979 14.4715 13.2021 14.5079 13.114C14.5444 13.0258 14.6021 12.9481 14.6758 12.8875C14.7496 12.827 14.8371 12.7856 14.9306 12.767C15.0242 12.7484 15.1209 12.7532 15.2122 12.7809C15.3034 12.8086 15.3865 12.8584 15.4539 12.9259C15.535 13.0069 15.5904 13.1104 15.6128 13.2229C15.6352 13.3353 15.6237 13.4519 15.5799 13.5578C15.536 13.6638 15.4617 13.7543 15.3663 13.818C15.271 13.8817 15.1589 13.9156 15.0442 13.9156Z" fill="#F2BE22"/>
<path d="M9.97777 6.12366H7.18903C7.07188 6.12366 6.95953 6.07712 6.87669 5.99429C6.79385 5.91145 6.74731 5.7991 6.74731 5.68195C6.74731 5.5648 6.79385 5.45245 6.87669 5.36961C6.95953 5.28677 7.07188 5.24023 7.18903 5.24023H9.97777C10.0949 5.24023 10.2073 5.28677 10.2901 5.36961C10.3729 5.45245 10.4195 5.5648 10.4195 5.68195C10.4195 5.7991 10.3729 5.91145 10.2901 5.99429C10.2073 6.07712 10.0949 6.12366 9.97777 6.12366Z" fill="#F2BE22"/>
<path d="M5.76297 6.12366H4.8692C4.75205 6.12366 4.6397 6.07712 4.55687 5.99429C4.47403 5.91145 4.42749 5.7991 4.42749 5.68195C4.42749 5.5648 4.47403 5.45245 4.55687 5.36961C4.6397 5.28677 4.75205 5.24023 4.8692 5.24023H5.76297C5.88012 5.24023 5.99247 5.28677 6.07531 5.36961C6.15815 5.45245 6.20469 5.5648 6.20469 5.68195C6.20469 5.7991 6.15815 5.91145 6.07531 5.99429C5.99247 6.07712 5.88012 6.12366 5.76297 6.12366Z" fill="#F2BE22"/>
<path d="M11.3401 9.03187H3.95392C3.83677 9.03187 3.72442 8.98533 3.64158 8.90249C3.55874 8.81965 3.51221 8.7073 3.51221 8.59015C3.51221 8.473 3.55874 8.36065 3.64158 8.27781C3.72442 8.19497 3.83677 8.14844 3.95392 8.14844H11.3401C11.4573 8.14844 11.5696 8.19497 11.6525 8.27781C11.7353 8.36065 11.7818 8.473 11.7818 8.59015C11.7818 8.7073 11.7353 8.81965 11.6525 8.90249C11.5696 8.98533 11.4573 9.03187 11.3401 9.03187Z" fill="#F2BE22"/>
<path d="M8.15963 11.9401H0.441714C0.324564 11.9401 0.212212 11.8935 0.129375 11.8107C0.0465375 11.7279 0 11.6155 0 11.4984C0 11.3812 0.0465375 11.2689 0.129375 11.186C0.212212 11.1032 0.324564 11.0566 0.441714 11.0566H8.15963C8.27678 11.0566 8.38913 11.1032 8.47197 11.186C8.55481 11.2689 8.60135 11.3812 8.60135 11.4984C8.60135 11.6155 8.55481 11.7279 8.47197 11.8107C8.38913 11.8935 8.27678 11.9401 8.15963 11.9401Z" fill="#F2BE22"/>
<path d="M10.446 11.9401H9.61603C9.49888 11.9401 9.38653 11.8935 9.30369 11.8107C9.22085 11.7279 9.17432 11.6155 9.17432 11.4984C9.17432 11.3812 9.22085 11.2689 9.30369 11.186C9.38653 11.1032 9.49888 11.0566 9.61603 11.0566H10.446C10.5631 11.0566 10.6755 11.1032 10.7583 11.186C10.8411 11.2689 10.8877 11.3812 10.8877 11.4984C10.8877 11.6155 10.8411 11.7279 10.7583 11.8107C10.6755 11.8935 10.5631 11.9401 10.446 11.9401Z" fill="#F2BE22"/>
<path d="M12.1488 14.8483H5.60333C5.48618 14.8483 5.37383 14.8017 5.291 14.7189C5.20816 14.6361 5.16162 14.5237 5.16162 14.4066C5.16162 14.2894 5.20816 14.1771 5.291 14.0942C5.37383 14.0114 5.48618 13.9648 5.60333 13.9648H12.1488C12.266 13.9648 12.3783 14.0114 12.4612 14.0942C12.544 14.1771 12.5905 14.2894 12.5905 14.4066C12.5905 14.5237 12.544 14.6361 12.4612 14.7189C12.3783 14.8017 12.266 14.8483 12.1488 14.8483Z" fill="#F2BE22"/>
<path d="M3.74061 17.7565H2.95294C2.83579 17.7565 2.72344 17.7099 2.64061 17.6271C2.55777 17.5443 2.51123 17.4319 2.51123 17.3148C2.51123 17.1976 2.55777 17.0853 2.64061 17.0024C2.72344 16.9196 2.83579 16.873 2.95294 16.873H3.74061C3.85776 16.873 3.97012 16.9196 4.05295 17.0024C4.13579 17.0853 4.18233 17.1976 4.18233 17.3148C4.18233 17.4319 4.13579 17.5443 4.05295 17.6271C3.97012 17.7099 3.85776 17.7565 3.74061 17.7565Z" fill="#F2BE22"/>
<path d="M10.446 17.7565H5.1463C5.02915 17.7565 4.9168 17.7099 4.83397 17.6271C4.75113 17.5443 4.70459 17.4319 4.70459 17.3148C4.70459 17.1976 4.75113 17.0853 4.83397 17.0024C4.9168 16.9196 5.02915 16.873 5.1463 16.873H10.446C10.5631 16.873 10.6755 16.9196 10.7583 17.0024C10.8412 17.0853 10.8877 17.1976 10.8877 17.3148C10.8877 17.4319 10.8412 17.5443 10.7583 17.6271C10.6755 17.7099 10.5631 17.7565 10.446 17.7565Z" fill="#F2BE22"/>
</svg>
