<svg width="12" height="10" viewBox="0 0 12 10" fill="none" xmlns="http://www.w3.org/2000/svg">
<path d="M11.5863 4.57718L11.5899 4.5754L9.93211 1.29788C9.79809 1.03297 9.53051 0.868429 9.23371 0.868429H8.91864V0.563747C8.91864 0.441651 8.81968 0.342682 8.69758 0.342682H3.29148C3.16938 0.342682 3.07041 0.441651 3.07041 0.563747V0.868429H2.75535C2.45855 0.868429 2.19097 1.03297 2.05695 1.29788L0.399165 4.5754L0.402708 4.57718C0.3317 4.69413 0.290771 4.83128 0.290771 4.9778V8.44035C0.290771 8.86729 0.638121 9.21461 1.06505 9.21461H10.924C11.3509 9.21461 11.6983 8.86726 11.6983 8.44035V4.9778C11.6983 4.83128 11.6573 4.69413 11.5863 4.57718ZM8.91862 1.35969H9.23369C9.34418 1.35969 9.44379 1.42098 9.49372 1.51964L10.8513 4.20356H9.92816V3.37772C9.92816 3.25563 9.8292 3.15666 9.7071 3.15666H9.43361V1.97074C9.43361 1.84865 9.33464 1.74968 9.21254 1.74968H8.91862V1.35969ZM9.48606 3.59876V4.20354H8.31948C8.11932 4.20354 7.93684 4.32147 7.85461 4.50392L7.53609 5.21043C7.53306 5.21709 7.5264 5.22141 7.51907 5.22141H4.46999C4.46266 5.22141 4.456 5.21709 4.45297 5.21041L4.13447 4.50394C4.05221 4.32147 3.86974 4.20354 3.66957 4.20354H2.503V3.59876H9.48606ZM3.51254 0.784811H8.47649V1.74966H3.51254V0.784811ZM8.99148 2.19179V3.15663H2.99756V2.19179H8.99148ZM2.49531 1.51964C2.54522 1.42096 2.64486 1.35969 2.75535 1.35969H3.07041V1.74966H2.77649C2.65439 1.74966 2.55543 1.84863 2.55543 1.97072V3.15663H2.28194C2.15984 3.15663 2.06087 3.2556 2.06087 3.3777V4.20354H1.13778L2.49531 1.51964ZM10.924 8.72333H1.06505C0.909004 8.72333 0.782029 8.59636 0.782029 8.44035V4.9778C0.782029 4.82177 0.908982 4.69482 1.06505 4.69482H3.66957C3.67688 4.69482 3.68359 4.69914 3.68662 4.70585L4.00511 5.41231C4.08737 5.59479 4.26982 5.71267 4.46999 5.71267H7.51904C7.71921 5.71267 7.90169 5.59476 7.98392 5.41233L8.30244 4.70585V4.70582C8.30547 4.69914 8.31213 4.69482 8.31946 4.69482H10.924C11.08 4.69482 11.207 4.82179 11.207 4.9778V8.44035H11.207C11.207 8.5964 11.0801 8.72333 10.924 8.72333Z" fill="#4A8C67"/>
</svg>
