<svg width="331" height="66" viewBox="0 0 331 66" fill="none" xmlns="http://www.w3.org/2000/svg">
<g filter="url(#filter0_d_243_2395)">
<g clip-path="url(#clip0_243_2395)">
<path d="M13.0851 18.1707C8.06947 18.1707 4 14.1028 4 9.08508C4 4.06739 8.06947 0 13.0851 0C18.1022 0 22.1702 4.06791 22.1702 9.08508C22.1702 14.1022 26.2386 18.1707 31.2558 18.1707C36.2729 18.1707 40.3408 14.1028 40.3408 9.0856C40.3408 4.06843 44.4093 0 49.4264 0C54.4436 0 58.5115 4.06791 58.5115 9.08508C58.5115 14.1022 54.4436 18.1702 49.4264 18.1702C34.3718 18.1702 22.1707 30.3765 22.1707 45.4254C22.1707 50.4399 18.1028 54.5105 13.0856 54.5105C8.06843 54.5105 4 50.4436 4 45.4264C4 40.4092 8.06791 36.3408 13.0851 36.3408C18.1022 36.3408 22.1691 32.2729 22.1691 27.2557C22.1691 22.2386 18.1028 18.1707 13.0851 18.1707Z" fill="#F2BE22"/>
<path d="M28.9844 39.7479C28.9844 31.5897 35.5928 24.9844 43.7484 24.9844C51.904 24.9849 58.5114 31.5897 58.5114 39.7479C58.5114 47.9024 51.904 54.5119 43.7474 54.5119C35.5918 54.5119 28.9844 47.9024 28.9844 39.7479Z" fill="#F2BE22"/>
</g>
<path d="M319.175 19.0786H326.043V45.026C326.043 49.2415 324.644 52.4577 321.846 54.6745C319.084 56.8913 315.741 57.9997 311.816 57.9997C308.872 57.9997 306.274 57.4364 304.021 56.3098C301.804 55.1832 300.096 53.5297 298.897 51.3493L304.893 47.9151C306.274 50.4589 308.654 51.7309 312.034 51.7309C314.251 51.7309 315.995 51.1494 317.267 49.9865C318.539 48.8236 319.175 47.1701 319.175 45.026V42.0824C317.104 44.8443 314.196 46.2252 310.453 46.2252C306.601 46.2252 303.367 44.8806 300.75 42.1914C298.17 39.4658 296.88 36.1588 296.88 32.2703C296.88 28.4182 298.188 25.1293 300.805 22.4038C303.421 19.6782 306.637 18.3154 310.453 18.3154C314.196 18.3154 317.104 19.6964 319.175 22.4583V19.0786ZM306.038 37.6669C307.491 39.0479 309.327 39.7384 311.543 39.7384C313.76 39.7384 315.577 39.0479 316.995 37.6669C318.448 36.2496 319.175 34.4508 319.175 32.2703C319.175 30.1262 318.448 28.3637 316.995 26.9827C315.577 25.5654 313.76 24.8568 311.543 24.8568C309.327 24.8568 307.491 25.5654 306.038 26.9827C304.62 28.3637 303.912 30.1262 303.912 32.2703C303.912 34.4508 304.62 36.2496 306.038 37.6669Z" fill="#2C3D33"/>
<path d="M281.99 18.3154C284.97 18.3154 287.423 19.3148 289.349 21.3136C291.312 23.3123 292.293 26.0742 292.293 29.5993V46.3342H285.261V30.4714C285.261 28.6544 284.77 27.2735 283.789 26.3286C282.808 25.3474 281.499 24.8568 279.864 24.8568C278.047 24.8568 276.593 25.4201 275.503 26.5466C274.413 27.6732 273.868 29.3631 273.868 31.6162V46.3342H266.836V19.0786H273.868V22.1312C275.576 19.5874 278.283 18.3154 281.99 18.3154Z" fill="#2C3D33"/>
<path d="M260.423 19.0785V46.3342H253.391V25.8379H245.378V46.3342H238.346V25.8379H234.421V19.0785H238.346V18.8059C238.346 11.2107 242.616 7.41309 251.156 7.41309C253.082 7.41309 255.208 7.66747 257.534 8.17624V14.6086C255.099 14.3179 252.973 14.1725 251.156 14.1725C249.193 14.1725 247.74 14.5177 246.795 15.2082C245.85 15.8623 245.378 17.0616 245.378 18.8059V19.0785H260.423Z" fill="#2C3D33"/>
<path d="M228.2 42.9545C225.401 45.7164 221.985 47.0974 217.952 47.0974C213.918 47.0974 210.502 45.7164 207.703 42.9545C204.941 40.1563 203.561 36.7402 203.561 32.7064C203.561 28.6726 204.941 25.2747 207.703 22.5128C210.502 19.7146 213.918 18.3154 217.952 18.3154C221.985 18.3154 225.401 19.7146 228.2 22.5128C230.998 25.2747 232.397 28.6726 232.397 32.7064C232.397 36.7402 230.998 40.1563 228.2 42.9545ZM212.664 38.103C214.081 39.5203 215.844 40.229 217.952 40.229C220.059 40.229 221.822 39.5203 223.239 38.103C224.656 36.6857 225.365 34.8869 225.365 32.7064C225.365 30.526 224.656 28.7271 223.239 27.3098C221.822 25.8925 220.059 25.1839 217.952 25.1839C215.844 25.1839 214.081 25.8925 212.664 27.3098C211.283 28.7271 210.593 30.526 210.593 32.7064C210.593 34.8869 211.283 36.6857 212.664 38.103Z" fill="#2C3D33"/>
<path d="M195.833 42.9545C193.035 45.7164 189.619 47.0974 185.585 47.0974C181.551 47.0974 178.135 45.7164 175.337 42.9545C172.575 40.1563 171.194 36.7402 171.194 32.7064C171.194 28.6726 172.575 25.2747 175.337 22.5128C178.135 19.7146 181.551 18.3154 185.585 18.3154C189.619 18.3154 193.035 19.7146 195.833 22.5128C198.632 25.2747 200.031 28.6726 200.031 32.7064C200.031 36.7402 198.632 40.1563 195.833 42.9545ZM180.298 38.103C181.715 39.5203 183.478 40.229 185.585 40.229C187.693 40.229 189.456 39.5203 190.873 38.103C192.29 36.6857 192.999 34.8869 192.999 32.7064C192.999 30.526 192.29 28.7271 190.873 27.3098C189.456 25.8925 187.693 25.1839 185.585 25.1839C183.478 25.1839 181.715 25.8925 180.298 27.3098C178.917 28.7271 178.226 30.526 178.226 32.7064C178.226 34.8869 178.917 36.6857 180.298 38.103Z" fill="#2C3D33"/>
<path d="M161.225 23.7663C161.879 22.0219 162.952 20.7137 164.441 19.8415C165.968 18.9693 167.658 18.5332 169.511 18.5332V26.3828C167.367 26.1284 165.441 26.5645 163.733 27.6911C162.061 28.8177 161.225 30.6892 161.225 33.3058V46.334H154.193V19.0783H161.225V23.7663Z" fill="#2C3D33"/>
<path d="M137.887 18.3154C140.867 18.3154 143.32 19.3148 145.246 21.3136C147.208 23.3123 148.189 26.0742 148.189 29.5993V46.3342H141.157V30.4714C141.157 28.6544 140.667 27.2735 139.685 26.3286C138.704 25.3474 137.396 24.8568 135.761 24.8568C133.944 24.8568 132.49 25.4201 131.4 26.5466C130.309 27.6732 129.764 29.3631 129.764 31.6162V46.3342H122.732V19.0786H129.764V22.1312C131.472 19.5874 134.18 18.3154 137.887 18.3154Z" fill="#2C3D33"/>
<path d="M96.9997 35.5955C97.9445 39.0115 100.507 40.7196 104.686 40.7196C107.375 40.7196 109.41 39.811 110.791 37.994L116.46 41.2647C113.771 45.1532 109.81 47.0974 104.577 47.0974C100.07 47.0974 96.4545 45.7346 93.729 43.009C91.0034 40.2835 89.6406 36.8493 89.6406 32.7064C89.6406 28.5999 90.9852 25.1839 93.6745 22.4583C96.3637 19.6964 99.8161 18.3154 104.032 18.3154C108.029 18.3154 111.318 19.6964 113.898 22.4583C116.515 25.2202 117.823 28.6362 117.823 32.7064C117.823 33.6149 117.732 34.578 117.55 35.5955H96.9997ZM96.8906 30.1444H110.791C110.391 28.291 109.555 26.91 108.283 26.0015C107.048 25.093 105.631 24.6387 104.032 24.6387C102.142 24.6387 100.579 25.1293 99.3436 26.1105C98.108 27.0554 97.2904 28.4 96.8906 30.1444Z" fill="#2C3D33"/>
<path d="M77.5898 46.3343V6.54102H84.6218V46.3343H77.5898Z" fill="#2C3D33"/>
</g>
<defs>
<filter id="filter0_d_243_2395" x="0" y="0" width="330.043" height="66" filterUnits="userSpaceOnUse" color-interpolation-filters="sRGB">
<feFlood flood-opacity="0" result="BackgroundImageFix"/>
<feColorMatrix in="SourceAlpha" type="matrix" values="0 0 0 0 0 0 0 0 0 0 0 0 0 0 0 0 0 0 127 0" result="hardAlpha"/>
<feOffset dy="4"/>
<feGaussianBlur stdDeviation="2"/>
<feComposite in2="hardAlpha" operator="out"/>
<feColorMatrix type="matrix" values="0 0 0 0 0 0 0 0 0 0 0 0 0 0 0 0 0 0 0.25 0"/>
<feBlend mode="normal" in2="BackgroundImageFix" result="effect1_dropShadow_243_2395"/>
<feBlend mode="normal" in="SourceGraphic" in2="effect1_dropShadow_243_2395" result="shape"/>
</filter>
<clipPath id="clip0_243_2395">
<rect width="54.5113" height="54.5113" fill="white" transform="translate(4)"/>
</clipPath>
</defs>
</svg>
