<svg width="275" height="30" viewBox="0 0 275 30" fill="none" xmlns="http://www.w3.org/2000/svg">
<path fill-rule="evenodd" clip-rule="evenodd" d="M5.8522 8.2627C5.29947 8.2627 4.85156 8.7106 4.85156 9.26333V20.7373C4.85156 21.29 5.29947 21.7379 5.8522 21.7379C6.40493 21.7379 6.85283 21.29 6.85283 20.7373V9.26333C6.85283 8.72013 6.40493 8.2627 5.8522 8.2627Z" fill="#4A8C67"/>
<path fill-rule="evenodd" clip-rule="evenodd" d="M1.00064 10.5596C0.447904 10.5596 0 11.0075 0 11.5602V18.4408C0 18.9935 0.447904 19.4414 1.00064 19.4414C1.57243 19.4414 2.00127 18.7267 2.00127 18.212V11.5602C2.0108 11.017 1.55337 10.5596 1.00064 10.5596Z" fill="#4A8C67"/>
<path fill-rule="evenodd" clip-rule="evenodd" d="M39.7584 10.5596C39.2057 10.5596 38.7578 11.0075 38.7578 11.5602V18.4408C38.7578 18.9935 39.2057 19.4414 39.7584 19.4414C40.3112 19.4414 40.7591 18.9935 40.7591 18.4408V11.5602C40.7591 11.017 40.3112 10.5596 39.7584 10.5596Z" fill="#4A8C67"/>
<path fill-rule="evenodd" clip-rule="evenodd" d="M34.9088 8.2627C34.3561 8.2627 33.9082 8.7106 33.9082 9.26333V20.7373C33.9082 21.29 34.3561 21.7379 34.9088 21.7379C35.4616 21.7379 35.9095 21.29 35.9095 20.7373V9.26333C35.919 8.72013 35.4616 8.2627 34.9088 8.2627Z" fill="#4A8C67"/>
<path fill-rule="evenodd" clip-rule="evenodd" d="M30.067 2.06836C29.5143 2.06836 29.0664 2.51626 29.0664 3.06899V26.9413C29.0664 27.494 29.5143 27.9419 30.067 27.9419C30.6198 27.9419 31.0677 27.494 31.0677 26.9413V3.06899C31.0677 2.51626 30.6198 2.06836 30.067 2.06836Z" fill="#4A8C67"/>
<path fill-rule="evenodd" clip-rule="evenodd" d="M25.2252 5.50781C24.6725 5.50781 24.2246 5.95572 24.2246 6.50845V23.4907C24.2246 24.0434 24.6725 24.4913 25.2252 24.4913C25.778 24.4913 26.2259 24.0434 26.2259 23.4907V6.50845C26.2259 5.96525 25.778 5.50781 25.2252 5.50781Z" fill="#4A8C67"/>
<path fill-rule="evenodd" clip-rule="evenodd" d="M20.3834 0C19.8307 0 19.3828 0.447903 19.3828 1.00064V28.9994C19.3828 29.5521 19.8307 30 20.3834 30C20.9362 30 21.3841 29.5521 21.3841 28.9994V1.00064C21.3841 0.447903 20.9362 0 20.3834 0Z" fill="#4A8C67"/>
<path fill-rule="evenodd" clip-rule="evenodd" d="M15.5338 5.50781C14.9811 5.50781 14.5332 5.95572 14.5332 6.50845V23.4907C14.5332 24.0434 14.9811 24.4913 15.5338 24.4913C16.0866 24.4913 16.5345 24.0434 16.5345 23.4907V6.51798C16.5345 5.96524 16.0866 5.50781 15.5338 5.50781Z" fill="#4A8C67"/>
<path fill-rule="evenodd" clip-rule="evenodd" d="M10.692 2.06836C10.1393 2.06836 9.69141 2.51626 9.69141 3.06899V26.9413C9.69141 27.494 10.1393 27.9419 10.692 27.9419C11.2448 27.9419 11.6927 27.494 11.6927 26.9413V3.06899C11.6927 2.51626 11.2448 2.06836 10.692 2.06836Z" fill="#4A8C67"/>
<path fill-rule="evenodd" clip-rule="evenodd" d="M83.8522 8.2627C83.2995 8.2627 82.8516 8.7106 82.8516 9.26333V20.7373C82.8516 21.29 83.2995 21.7379 83.8522 21.7379C84.4049 21.7379 84.8528 21.29 84.8528 20.7373V9.26333C84.8528 8.72013 84.4049 8.2627 83.8522 8.2627Z" fill="#4A8C67"/>
<path fill-rule="evenodd" clip-rule="evenodd" d="M79.0006 10.5596C78.4479 10.5596 78 11.0075 78 11.5602V18.4408C78 18.9935 78.4479 19.4414 79.0006 19.4414C79.5724 19.4414 80.0013 18.7267 80.0013 18.212V11.5602C80.0108 11.017 79.5534 10.5596 79.0006 10.5596Z" fill="#4A8C67"/>
<path fill-rule="evenodd" clip-rule="evenodd" d="M117.758 10.5596C117.206 10.5596 116.758 11.0075 116.758 11.5602V18.4408C116.758 18.9935 117.206 19.4414 117.758 19.4414C118.311 19.4414 118.759 18.9935 118.759 18.4408V11.5602C118.759 11.017 118.311 10.5596 117.758 10.5596Z" fill="#4A8C67"/>
<path fill-rule="evenodd" clip-rule="evenodd" d="M112.909 8.2627C112.356 8.2627 111.908 8.7106 111.908 9.26333V20.7373C111.908 21.29 112.356 21.7379 112.909 21.7379C113.462 21.7379 113.909 21.29 113.909 20.7373V9.26333C113.919 8.72013 113.462 8.2627 112.909 8.2627Z" fill="#4A8C67"/>
<path fill-rule="evenodd" clip-rule="evenodd" d="M108.067 2.06836C107.514 2.06836 107.066 2.51626 107.066 3.06899V26.9413C107.066 27.494 107.514 27.9419 108.067 27.9419C108.62 27.9419 109.068 27.494 109.068 26.9413V3.06899C109.068 2.51626 108.62 2.06836 108.067 2.06836Z" fill="#4A8C67"/>
<path fill-rule="evenodd" clip-rule="evenodd" d="M103.225 5.50781C102.673 5.50781 102.225 5.95572 102.225 6.50845V23.4907C102.225 24.0434 102.673 24.4913 103.225 24.4913C103.778 24.4913 104.226 24.0434 104.226 23.4907V6.50845C104.226 5.96525 103.778 5.50781 103.225 5.50781Z" fill="#4A8C67"/>
<path fill-rule="evenodd" clip-rule="evenodd" d="M98.3834 0C97.8307 0 97.3828 0.447903 97.3828 1.00064V28.9994C97.3828 29.5521 97.8307 30 98.3834 30C98.9362 30 99.3841 29.5521 99.3841 28.9994V1.00064C99.3841 0.447903 98.9362 0 98.3834 0Z" fill="#4A8C67"/>
<path fill-rule="evenodd" clip-rule="evenodd" d="M93.5338 5.50781C92.9811 5.50781 92.5332 5.95572 92.5332 6.50845V23.4907C92.5332 24.0434 92.9811 24.4913 93.5338 24.4913C94.0866 24.4913 94.5345 24.0434 94.5345 23.4907V6.51798C94.5345 5.96524 94.0866 5.50781 93.5338 5.50781Z" fill="#4A8C67"/>
<path fill-rule="evenodd" clip-rule="evenodd" d="M88.692 2.06836C88.1393 2.06836 87.6914 2.51626 87.6914 3.06899V26.9413C87.6914 27.494 88.1393 27.9419 88.692 27.9419C89.2448 27.9419 89.6927 27.494 89.6927 26.9413V3.06899C89.6927 2.51626 89.2448 2.06836 88.692 2.06836Z" fill="#4A8C67"/>
<path fill-rule="evenodd" clip-rule="evenodd" d="M161.852 8.2627C161.299 8.2627 160.852 8.7106 160.852 9.26333V20.7373C160.852 21.29 161.299 21.7379 161.852 21.7379C162.405 21.7379 162.853 21.29 162.853 20.7373V9.26333C162.853 8.72013 162.405 8.2627 161.852 8.2627Z" fill="#4A8C67"/>
<path fill-rule="evenodd" clip-rule="evenodd" d="M157.001 10.5596C156.448 10.5596 156 11.0075 156 11.5602V18.4408C156 18.9935 156.448 19.4414 157.001 19.4414C157.572 19.4414 158.001 18.7267 158.001 18.212V11.5602C158.011 11.017 157.553 10.5596 157.001 10.5596Z" fill="#CFCFCF"/>
<path fill-rule="evenodd" clip-rule="evenodd" d="M195.758 10.5596C195.206 10.5596 194.758 11.0075 194.758 11.5602V18.4408C194.758 18.9935 195.206 19.4414 195.758 19.4414C196.311 19.4414 196.759 18.9935 196.759 18.4408V11.5602C196.759 11.017 196.311 10.5596 195.758 10.5596Z" fill="#CFCFCF"/>
<path fill-rule="evenodd" clip-rule="evenodd" d="M190.909 8.2627C190.356 8.2627 189.908 8.7106 189.908 9.26333V20.7373C189.908 21.29 190.356 21.7379 190.909 21.7379C191.462 21.7379 191.909 21.29 191.909 20.7373V9.26333C191.919 8.72013 191.462 8.2627 190.909 8.2627Z" fill="#CFCFCF"/>
<path fill-rule="evenodd" clip-rule="evenodd" d="M186.067 2.06836C185.514 2.06836 185.066 2.51626 185.066 3.06899V26.9413C185.066 27.494 185.514 27.9419 186.067 27.9419C186.62 27.9419 187.068 27.494 187.068 26.9413V3.06899C187.068 2.51626 186.62 2.06836 186.067 2.06836Z" fill="#CFCFCF"/>
<path fill-rule="evenodd" clip-rule="evenodd" d="M181.225 5.50781C180.673 5.50781 180.225 5.95572 180.225 6.50845V23.4907C180.225 24.0434 180.673 24.4913 181.225 24.4913C181.778 24.4913 182.226 24.0434 182.226 23.4907V6.50845C182.226 5.96525 181.778 5.50781 181.225 5.50781Z" fill="#CFCFCF"/>
<path fill-rule="evenodd" clip-rule="evenodd" d="M176.383 0C175.831 0 175.383 0.447903 175.383 1.00064V28.9994C175.383 29.5521 175.831 30 176.383 30C176.936 30 177.384 29.5521 177.384 28.9994V1.00064C177.384 0.447903 176.936 0 176.383 0Z" fill="#4A8C67"/>
<path fill-rule="evenodd" clip-rule="evenodd" d="M171.534 5.50781C170.981 5.50781 170.533 5.95572 170.533 6.50845V23.4907C170.533 24.0434 170.981 24.4913 171.534 24.4913C172.087 24.4913 172.534 24.0434 172.534 23.4907V6.51798C172.534 5.96524 172.087 5.50781 171.534 5.50781Z" fill="#4A8C67"/>
<path fill-rule="evenodd" clip-rule="evenodd" d="M166.692 2.06836C166.139 2.06836 165.691 2.51626 165.691 3.06899V26.9413C165.691 27.494 166.139 27.9419 166.692 27.9419C167.245 27.9419 167.693 27.494 167.693 26.9413V3.06899C167.693 2.51626 167.245 2.06836 166.692 2.06836Z" fill="#4A8C67"/>
<path fill-rule="evenodd" clip-rule="evenodd" d="M44.8522 8.2627C44.2995 8.2627 43.8516 8.7106 43.8516 9.26333V20.7373C43.8516 21.29 44.2995 21.7379 44.8522 21.7379C45.4049 21.7379 45.8528 21.29 45.8528 20.7373V9.26333C45.8528 8.72013 45.4049 8.2627 44.8522 8.2627Z" fill="#4A8C67"/>
<path fill-rule="evenodd" clip-rule="evenodd" d="M40.0006 10.5596C39.4479 10.5596 39 11.0075 39 11.5602V18.4408C39 18.9935 39.4479 19.4414 40.0006 19.4414C40.5724 19.4414 41.0013 18.7267 41.0013 18.212V11.5602C41.0108 11.017 40.5534 10.5596 40.0006 10.5596Z" fill="#4A8C67"/>
<path fill-rule="evenodd" clip-rule="evenodd" d="M78.7584 10.5596C78.2057 10.5596 77.7578 11.0075 77.7578 11.5602V18.4408C77.7578 18.9935 78.2057 19.4414 78.7584 19.4414C79.3112 19.4414 79.7591 18.9935 79.7591 18.4408V11.5602C79.7591 11.017 79.3112 10.5596 78.7584 10.5596Z" fill="#4A8C67"/>
<path fill-rule="evenodd" clip-rule="evenodd" d="M73.9088 8.2627C73.3561 8.2627 72.9082 8.7106 72.9082 9.26333V20.7373C72.9082 21.29 73.3561 21.7379 73.9088 21.7379C74.4616 21.7379 74.9095 21.29 74.9095 20.7373V9.26333C74.919 8.72013 74.4616 8.2627 73.9088 8.2627Z" fill="#4A8C67"/>
<path fill-rule="evenodd" clip-rule="evenodd" d="M69.067 2.06836C68.5143 2.06836 68.0664 2.51626 68.0664 3.06899V26.9413C68.0664 27.494 68.5143 27.9419 69.067 27.9419C69.6198 27.9419 70.0677 27.494 70.0677 26.9413V3.06899C70.0677 2.51626 69.6198 2.06836 69.067 2.06836Z" fill="#4A8C67"/>
<path fill-rule="evenodd" clip-rule="evenodd" d="M64.2252 5.50781C63.6725 5.50781 63.2246 5.95572 63.2246 6.50845V23.4907C63.2246 24.0434 63.6725 24.4913 64.2252 24.4913C64.778 24.4913 65.2259 24.0434 65.2259 23.4907V6.50845C65.2259 5.96525 64.778 5.50781 64.2252 5.50781Z" fill="#4A8C67"/>
<path fill-rule="evenodd" clip-rule="evenodd" d="M59.3834 0C58.8307 0 58.3828 0.447903 58.3828 1.00064V28.9994C58.3828 29.5521 58.8307 30 59.3834 30C59.9362 30 60.3841 29.5521 60.3841 28.9994V1.00064C60.3841 0.447903 59.9362 0 59.3834 0Z" fill="#4A8C67"/>
<path fill-rule="evenodd" clip-rule="evenodd" d="M54.5338 5.50781C53.9811 5.50781 53.5332 5.95572 53.5332 6.50845V23.4907C53.5332 24.0434 53.9811 24.4913 54.5338 24.4913C55.0866 24.4913 55.5345 24.0434 55.5345 23.4907V6.51798C55.5345 5.96524 55.0866 5.50781 54.5338 5.50781Z" fill="#4A8C67"/>
<path fill-rule="evenodd" clip-rule="evenodd" d="M49.692 2.06836C49.1393 2.06836 48.6914 2.51626 48.6914 3.06899V26.9413C48.6914 27.494 49.1393 27.9419 49.692 27.9419C50.2448 27.9419 50.6927 27.494 50.6927 26.9413V3.06899C50.6927 2.51626 50.2448 2.06836 49.692 2.06836Z" fill="#4A8C67"/>
<path fill-rule="evenodd" clip-rule="evenodd" d="M122.852 8.2627C122.299 8.2627 121.852 8.7106 121.852 9.26333V20.7373C121.852 21.29 122.299 21.7379 122.852 21.7379C123.405 21.7379 123.853 21.29 123.853 20.7373V9.26333C123.853 8.72013 123.405 8.2627 122.852 8.2627Z" fill="#4A8C67"/>
<path fill-rule="evenodd" clip-rule="evenodd" d="M118.001 10.5596C117.448 10.5596 117 11.0075 117 11.5602V18.4408C117 18.9935 117.448 19.4414 118.001 19.4414C118.572 19.4414 119.001 18.7267 119.001 18.212V11.5602C119.011 11.017 118.553 10.5596 118.001 10.5596Z" fill="#4A8C67"/>
<path fill-rule="evenodd" clip-rule="evenodd" d="M156.758 10.5596C156.206 10.5596 155.758 11.0075 155.758 11.5602V18.4408C155.758 18.9935 156.206 19.4414 156.758 19.4414C157.311 19.4414 157.759 18.9935 157.759 18.4408V11.5602C157.759 11.017 157.311 10.5596 156.758 10.5596Z" fill="#4A8C67"/>
<path fill-rule="evenodd" clip-rule="evenodd" d="M151.909 8.2627C151.356 8.2627 150.908 8.7106 150.908 9.26333V20.7373C150.908 21.29 151.356 21.7379 151.909 21.7379C152.462 21.7379 152.909 21.29 152.909 20.7373V9.26333C152.919 8.72013 152.462 8.2627 151.909 8.2627Z" fill="#4A8C67"/>
<path fill-rule="evenodd" clip-rule="evenodd" d="M147.067 2.06836C146.514 2.06836 146.066 2.51626 146.066 3.06899V26.9413C146.066 27.494 146.514 27.9419 147.067 27.9419C147.62 27.9419 148.068 27.494 148.068 26.9413V3.06899C148.068 2.51626 147.62 2.06836 147.067 2.06836Z" fill="#4A8C67"/>
<path fill-rule="evenodd" clip-rule="evenodd" d="M142.225 5.50781C141.673 5.50781 141.225 5.95572 141.225 6.50845V23.4907C141.225 24.0434 141.673 24.4913 142.225 24.4913C142.778 24.4913 143.226 24.0434 143.226 23.4907V6.50845C143.226 5.96525 142.778 5.50781 142.225 5.50781Z" fill="#4A8C67"/>
<path fill-rule="evenodd" clip-rule="evenodd" d="M137.383 0C136.831 0 136.383 0.447903 136.383 1.00064V28.9994C136.383 29.5521 136.831 30 137.383 30C137.936 30 138.384 29.5521 138.384 28.9994V1.00064C138.384 0.447903 137.936 0 137.383 0Z" fill="#4A8C67"/>
<path fill-rule="evenodd" clip-rule="evenodd" d="M132.534 5.50781C131.981 5.50781 131.533 5.95572 131.533 6.50845V23.4907C131.533 24.0434 131.981 24.4913 132.534 24.4913C133.087 24.4913 133.534 24.0434 133.534 23.4907V6.51798C133.534 5.96524 133.087 5.50781 132.534 5.50781Z" fill="#4A8C67"/>
<path fill-rule="evenodd" clip-rule="evenodd" d="M127.692 2.06836C127.139 2.06836 126.691 2.51626 126.691 3.06899V26.9413C126.691 27.494 127.139 27.9419 127.692 27.9419C128.245 27.9419 128.693 27.494 128.693 26.9413V3.06899C128.693 2.51626 128.245 2.06836 127.692 2.06836Z" fill="#4A8C67"/>
<path fill-rule="evenodd" clip-rule="evenodd" d="M200.852 8.2627C200.299 8.2627 199.852 8.7106 199.852 9.26333V20.7373C199.852 21.29 200.299 21.7379 200.852 21.7379C201.405 21.7379 201.853 21.29 201.853 20.7373V9.26333C201.853 8.72013 201.405 8.2627 200.852 8.2627Z" fill="#CFCFCF"/>
<path fill-rule="evenodd" clip-rule="evenodd" d="M196.001 10.5596C195.448 10.5596 195 11.0075 195 11.5602V18.4408C195 18.9935 195.448 19.4414 196.001 19.4414C196.572 19.4414 197.001 18.7267 197.001 18.212V11.5602C197.011 11.017 196.553 10.5596 196.001 10.5596Z" fill="#CFCFCF"/>
<path fill-rule="evenodd" clip-rule="evenodd" d="M234.758 10.5596C234.206 10.5596 233.758 11.0075 233.758 11.5602V18.4408C233.758 18.9935 234.206 19.4414 234.758 19.4414C235.311 19.4414 235.759 18.9935 235.759 18.4408V11.5602C235.759 11.017 235.311 10.5596 234.758 10.5596Z" fill="#CFCFCF"/>
<path fill-rule="evenodd" clip-rule="evenodd" d="M229.909 8.2627C229.356 8.2627 228.908 8.7106 228.908 9.26333V20.7373C228.908 21.29 229.356 21.7379 229.909 21.7379C230.462 21.7379 230.909 21.29 230.909 20.7373V9.26333C230.919 8.72013 230.462 8.2627 229.909 8.2627Z" fill="#CFCFCF"/>
<path fill-rule="evenodd" clip-rule="evenodd" d="M225.067 2.06836C224.514 2.06836 224.066 2.51626 224.066 3.06899V26.9413C224.066 27.494 224.514 27.9419 225.067 27.9419C225.62 27.9419 226.068 27.494 226.068 26.9413V3.06899C226.068 2.51626 225.62 2.06836 225.067 2.06836Z" fill="#CFCFCF"/>
<path fill-rule="evenodd" clip-rule="evenodd" d="M220.225 5.50781C219.673 5.50781 219.225 5.95572 219.225 6.50845V23.4907C219.225 24.0434 219.673 24.4913 220.225 24.4913C220.778 24.4913 221.226 24.0434 221.226 23.4907V6.50845C221.226 5.96525 220.778 5.50781 220.225 5.50781Z" fill="#CFCFCF"/>
<path fill-rule="evenodd" clip-rule="evenodd" d="M215.383 0C214.831 0 214.383 0.447903 214.383 1.00064V28.9994C214.383 29.5521 214.831 30 215.383 30C215.936 30 216.384 29.5521 216.384 28.9994V1.00064C216.384 0.447903 215.936 0 215.383 0Z" fill="#CFCFCF"/>
<path fill-rule="evenodd" clip-rule="evenodd" d="M210.534 5.50781C209.981 5.50781 209.533 5.95572 209.533 6.50845V23.4907C209.533 24.0434 209.981 24.4913 210.534 24.4913C211.087 24.4913 211.534 24.0434 211.534 23.4907V6.51798C211.534 5.96524 211.087 5.50781 210.534 5.50781Z" fill="#CFCFCF"/>
<path fill-rule="evenodd" clip-rule="evenodd" d="M205.692 2.06836C205.139 2.06836 204.691 2.51626 204.691 3.06899V26.9413C204.691 27.494 205.139 27.9419 205.692 27.9419C206.245 27.9419 206.693 27.494 206.693 26.9413V3.06899C206.693 2.51626 206.245 2.06836 205.692 2.06836Z" fill="#CFCFCF"/>
<path fill-rule="evenodd" clip-rule="evenodd" d="M239.852 8.2627C239.299 8.2627 238.852 8.7106 238.852 9.26333V20.7373C238.852 21.29 239.299 21.7379 239.852 21.7379C240.405 21.7379 240.853 21.29 240.853 20.7373V9.26333C240.853 8.72013 240.405 8.2627 239.852 8.2627Z" fill="#CFCFCF"/>
<path fill-rule="evenodd" clip-rule="evenodd" d="M235.001 10.5596C234.448 10.5596 234 11.0075 234 11.5602V18.4408C234 18.9935 234.448 19.4414 235.001 19.4414C235.572 19.4414 236.001 18.7267 236.001 18.212V11.5602C236.011 11.017 235.553 10.5596 235.001 10.5596Z" fill="#CFCFCF"/>
<path fill-rule="evenodd" clip-rule="evenodd" d="M273.758 10.5596C273.206 10.5596 272.758 11.0075 272.758 11.5602V18.4408C272.758 18.9935 273.206 19.4414 273.758 19.4414C274.311 19.4414 274.759 18.9935 274.759 18.4408V11.5602C274.759 11.017 274.311 10.5596 273.758 10.5596Z" fill="#CFCFCF"/>
<path fill-rule="evenodd" clip-rule="evenodd" d="M268.909 8.2627C268.356 8.2627 267.908 8.7106 267.908 9.26333V20.7373C267.908 21.29 268.356 21.7379 268.909 21.7379C269.462 21.7379 269.909 21.29 269.909 20.7373V9.26333C269.919 8.72013 269.462 8.2627 268.909 8.2627Z" fill="#CFCFCF"/>
<path fill-rule="evenodd" clip-rule="evenodd" d="M264.067 2.06836C263.514 2.06836 263.066 2.51626 263.066 3.06899V26.9413C263.066 27.494 263.514 27.9419 264.067 27.9419C264.62 27.9419 265.068 27.494 265.068 26.9413V3.06899C265.068 2.51626 264.62 2.06836 264.067 2.06836Z" fill="#CFCFCF"/>
<path fill-rule="evenodd" clip-rule="evenodd" d="M259.225 5.50781C258.673 5.50781 258.225 5.95572 258.225 6.50845V23.4907C258.225 24.0434 258.673 24.4913 259.225 24.4913C259.778 24.4913 260.226 24.0434 260.226 23.4907V6.50845C260.226 5.96525 259.778 5.50781 259.225 5.50781Z" fill="#CFCFCF"/>
<path fill-rule="evenodd" clip-rule="evenodd" d="M254.383 0C253.831 0 253.383 0.447903 253.383 1.00064V28.9994C253.383 29.5521 253.831 30 254.383 30C254.936 30 255.384 29.5521 255.384 28.9994V1.00064C255.384 0.447903 254.936 0 254.383 0Z" fill="#CFCFCF"/>
<path fill-rule="evenodd" clip-rule="evenodd" d="M249.534 5.50781C248.981 5.50781 248.533 5.95572 248.533 6.50845V23.4907C248.533 24.0434 248.981 24.4913 249.534 24.4913C250.087 24.4913 250.534 24.0434 250.534 23.4907V6.51798C250.534 5.96524 250.087 5.50781 249.534 5.50781Z" fill="#CFCFCF"/>
<path fill-rule="evenodd" clip-rule="evenodd" d="M244.692 2.06836C244.139 2.06836 243.691 2.51626 243.691 3.06899V26.9413C243.691 27.494 244.139 27.9419 244.692 27.9419C245.245 27.9419 245.693 27.494 245.693 26.9413V3.06899C245.693 2.51626 245.245 2.06836 244.692 2.06836Z" fill="#CFCFCF"/>
</svg>
