<svg width="23" height="23" viewBox="0 0 23 23" fill="none" xmlns="http://www.w3.org/2000/svg">
<g clip-path="url(#clip0_243_6367)">
<path d="M11.5 0C5.14396 0 0 5.14337 0 11.5C0 17.856 5.14337 23 11.5 23C17.856 23 23 17.8566 23 11.5C23 5.14396 17.8566 0 11.5 0ZM11.5 21.3953C6.0437 21.3953 1.60465 16.9563 1.60465 11.5C1.60465 6.04365 6.0437 1.60465 11.5 1.60465C16.9563 1.60465 21.3953 6.04365 21.3953 11.5C21.3953 16.9563 16.9563 21.3953 11.5 21.3953Z" fill="#F2BE22"/>
<path d="M11.1592 14.5508C10.5235 14.5508 10.0088 15.0806 10.0088 15.7163C10.0088 16.337 10.5083 16.882 11.1592 16.882C11.8102 16.882 12.3248 16.337 12.3248 15.7163C12.3248 15.0806 11.795 14.5508 11.1592 14.5508Z" fill="#F2BE22"/>
<path d="M11.3561 5.72656C9.31253 5.72656 8.37402 6.93761 8.37402 7.75501C8.37402 8.34537 8.87355 8.61787 9.28225 8.61787C10.0997 8.61787 9.76669 7.45224 11.3107 7.45224C12.0675 7.45224 12.6731 7.78529 12.6731 8.48162C12.6731 9.29902 11.8254 9.76827 11.3258 10.1921C10.8868 10.5705 10.3116 11.1912 10.3116 12.493C10.3116 13.2801 10.5236 13.5072 11.1442 13.5072C11.8859 13.5072 12.0373 13.1742 12.0373 12.8865C12.0373 12.0994 12.0524 11.6453 12.885 10.9944C13.2937 10.6765 14.5803 9.64712 14.5803 8.22422C14.5803 6.80132 13.2937 5.72656 11.3561 5.72656Z" fill="#F2BE22"/>
</g>
<defs>
<clipPath id="clip0_243_6367">
<rect width="23" height="23" fill="white"/>
</clipPath>
</defs>
</svg>
