<svg width="23" height="23" viewBox="0 0 23 23" fill="none" xmlns="http://www.w3.org/2000/svg">
<g opacity="0.5" clip-path="url(#clip0_8_335)">
<path d="M11.5 0C5.14396 0 0 5.14337 0 11.5C0 17.856 5.14337 23 11.5 23C17.856 23 23 17.8566 23 11.5C23 5.14396 17.8566 0 11.5 0ZM11.5 21.3953C6.0437 21.3953 1.60465 16.9563 1.60465 11.5C1.60465 6.04365 6.0437 1.60465 11.5 1.60465C16.9563 1.60465 21.3953 6.04365 21.3953 11.5C21.3953 16.9563 16.9563 21.3953 11.5 21.3953Z" fill="white"/>
<path d="M11.1597 14.5513C10.5239 14.5513 10.0093 15.0811 10.0093 15.7168C10.0093 16.3375 10.5088 16.8824 11.1597 16.8824C11.8106 16.8824 12.3253 16.3375 12.3253 15.7168C12.3253 15.0811 11.7955 14.5513 11.1597 14.5513Z" fill="white"/>
<path d="M11.3564 5.72607C9.31277 5.72607 8.37427 6.93712 8.37427 7.75452C8.37427 8.34488 8.8738 8.61738 9.2825 8.61738C10.0999 8.61738 9.76694 7.45175 11.3109 7.45175C12.0678 7.45175 12.6733 7.7848 12.6733 8.48113C12.6733 9.29853 11.8256 9.76779 11.3261 10.1916C10.8871 10.57 10.3119 11.1907 10.3119 12.4925C10.3119 13.2796 10.5238 13.5067 11.1444 13.5067C11.8861 13.5067 12.0375 13.1737 12.0375 12.886C12.0375 12.0989 12.0526 11.6448 12.8852 10.9939C13.2939 10.676 14.5806 9.64663 14.5806 8.22373C14.5806 6.80083 13.2939 5.72607 11.3564 5.72607Z" fill="white"/>
</g>
<defs>
<clipPath id="clip0_8_335">
<rect width="23" height="23" fill="white"/>
</clipPath>
</defs>
</svg>
