<svg width="23" height="23" viewBox="0 0 23 23" fill="none" xmlns="http://www.w3.org/2000/svg">
<g opacity="0.5">
<path d="M14.0365 14.9473H8.96383C8.5815 14.9473 8.27051 15.2583 8.27051 15.6406V17.1964C8.27051 17.5787 8.5815 17.8898 8.96383 17.8898H14.0365C14.4189 17.8898 14.7299 17.5788 14.7299 17.1964V15.6406C14.7298 15.2583 14.4188 14.9473 14.0365 14.9473ZM13.8384 16.9984H9.16189V15.8387H13.8384V16.9984Z" fill="white"/>
<path d="M22.7743 11.0933L22.7815 11.0897L19.439 4.48155C19.1688 3.94743 18.6293 3.61569 18.0309 3.61569H17.3957V3.00138C17.3957 2.75521 17.1961 2.55566 16.95 2.55566H6.05008C5.80391 2.55566 5.60436 2.75521 5.60436 3.00138V3.61569H4.96912C4.37072 3.61569 3.83121 3.94743 3.561 4.48155L0.218545 11.0897L0.225688 11.0933C0.0825215 11.3291 0 11.6057 0 11.9011V18.8823C0 19.7431 0.700332 20.4434 1.56112 20.4434H21.4389C22.2997 20.4434 23 19.7431 23 18.8823V11.9011C23 11.6057 22.9175 11.3291 22.7743 11.0933ZM17.3956 4.60617H18.0309C18.2536 4.60617 18.4545 4.72975 18.5552 4.92866L21.2922 10.34H19.4311V8.67497C19.4311 8.4288 19.2316 8.22925 18.9854 8.22925H18.434V5.8382C18.434 5.59202 18.2344 5.39248 17.9882 5.39248H17.3956V4.60617ZM18.5397 9.12064V10.34H16.1876C15.7841 10.34 15.4162 10.5778 15.2503 10.9456L14.6081 12.3701C14.602 12.3835 14.5886 12.3923 14.5738 12.3923H8.42622C8.41144 12.3923 8.39801 12.3835 8.3919 12.3701L7.74974 10.9457C7.58389 10.5778 7.21598 10.34 6.8124 10.34H4.46034V9.12064H18.5397ZM6.49579 3.44709H16.5042V5.39244H6.49579V3.44709ZM17.5425 6.28387V8.22921H5.45747V6.28387H17.5425ZM4.44484 4.92866C4.54546 4.7297 4.74636 4.60617 4.96912 4.60617H5.60436V5.39244H5.01175C4.76558 5.39244 4.56604 5.59198 4.56604 5.83815V8.22921H4.01462C3.76845 8.22921 3.56891 8.42875 3.56891 8.67492V10.34H1.70775L4.44484 4.92866ZM21.4389 19.4529H1.56112C1.24649 19.4529 0.990482 19.1969 0.990482 18.8823V11.9011C0.990482 11.5865 1.24645 11.3305 1.56112 11.3305H6.8124C6.82714 11.3305 6.84066 11.3392 6.84677 11.3528L7.48893 12.7771C7.65478 13.1451 8.02264 13.3827 8.42622 13.3827H14.5738C14.9774 13.3827 15.3453 13.145 15.5111 12.7772L16.1533 11.3528V11.3527C16.1594 11.3392 16.1728 11.3305 16.1876 11.3305H21.4389C21.7535 11.3305 22.0094 11.5865 22.0094 11.9011V18.8823H22.0095C22.0095 19.197 21.7536 19.4529 21.4389 19.4529Z" fill="white"/>
</g>
</svg>
