<svg width="27" height="28" viewBox="0 0 27 28" fill="none" xmlns="http://www.w3.org/2000/svg">
<g opacity="0.5" clip-path="url(#clip0_3_1757)">
<path d="M16.3036 17.9668H10.517C10.0808 17.9668 9.72607 18.3216 9.72607 18.7577V20.5325C9.72607 20.9687 10.0808 21.3235 10.517 21.3235H16.3037C16.7398 21.3235 17.0946 20.9687 17.0946 20.5325V18.7577C17.0945 18.3216 16.7398 17.9668 16.3036 17.9668ZM16.0776 20.3066H10.7429V18.9837H16.0776V20.3066Z" fill="black"/>
<path d="M26.2713 13.5713L26.2794 13.5672L22.4666 6.02887C22.1583 5.41957 21.5429 5.04113 20.8603 5.04113H20.1356V4.34036C20.1356 4.05954 19.908 3.83191 19.6272 3.83191H7.19312C6.9123 3.83191 6.68468 4.05954 6.68468 4.34036V5.04113H5.96003C5.2774 5.04113 4.66195 5.41957 4.35371 6.02887L0.540809 13.5672L0.548957 13.5713C0.38564 13.8402 0.291504 14.1557 0.291504 14.4927V22.4566C0.291504 23.4385 1.09041 24.2374 2.07236 24.2374H24.7479C25.7299 24.2374 26.5287 23.4384 26.5287 22.4566V14.4927C26.5287 14.1557 26.4346 13.8402 26.2713 13.5713ZM20.1356 6.17102H20.8602C21.1143 6.17102 21.3434 6.31199 21.4583 6.5389L24.5806 12.7119H22.4575V10.8125C22.4575 10.5317 22.2299 10.3041 21.9491 10.3041H21.32V7.57645C21.32 7.29563 21.0924 7.06801 20.8116 7.06801H20.1356V6.17102ZM21.4407 11.3209V12.7119H18.7575C18.2972 12.7119 17.8775 12.9831 17.6883 13.4028L16.9557 15.0277C16.9488 15.043 16.9334 15.053 16.9166 15.053H9.90371C9.88685 15.053 9.87153 15.043 9.86456 15.0277L9.13202 13.4028C8.94282 12.9831 8.52313 12.7119 8.06275 12.7119H5.37963V11.3209H21.4407ZM7.70157 4.84881H19.1187V7.06795H7.70157V4.84881ZM20.3031 8.08485V10.304H6.51711V8.08485H20.3031ZM5.36195 6.5389C5.47674 6.31194 5.7059 6.17102 5.96003 6.17102H6.68468V7.06795H6.00866C5.72784 7.06795 5.50021 7.29558 5.50021 7.5764V10.304H4.87118C4.59036 10.304 4.36273 10.5316 4.36273 10.8124V12.7119H2.23962L5.36195 6.5389ZM24.7479 23.1074H2.07236C1.71344 23.1074 1.4214 22.8154 1.4214 22.4566V14.4927C1.4214 14.1338 1.71339 13.8418 2.07236 13.8418H8.06275C8.07955 13.8418 8.09498 13.8518 8.10195 13.8672L8.83449 15.4921C9.02368 15.9117 9.44333 16.1829 9.90371 16.1829H16.9165C17.3769 16.1829 17.7966 15.9117 17.9857 15.4921L18.7183 13.8672V13.8671C18.7253 13.8518 18.7406 13.8418 18.7575 13.8418H24.7479C25.1068 13.8418 25.3987 14.1339 25.3987 14.4927V22.4566H25.3988C25.3988 22.8155 25.1068 23.1074 24.7479 23.1074Z" fill="black"/>
</g>
<defs>
<clipPath id="clip0_3_1757">
<rect width="26.2372" height="26.2372" fill="white" transform="translate(0.291504 0.915985)"/>
</clipPath>
</defs>
</svg>
