<svg width="22" height="23" viewBox="0 0 22 23" fill="none" xmlns="http://www.w3.org/2000/svg">
<g clip-path="url(#clip0_675_6876)">
<path d="M12.3761 11.5002C12.376 11.6808 12.3404 11.8597 12.2712 12.0266C12.202 12.1934 12.1006 12.345 11.9729 12.4727C11.8451 12.6004 11.6935 12.7016 11.5266 12.7707C11.3596 12.8398 11.1808 12.8753 11.0002 12.8752C10.8195 12.8752 10.6407 12.8395 10.4738 12.7703C10.307 12.7012 10.1554 12.5998 10.0277 12.472C9.76983 12.214 9.62503 11.8641 9.62515 11.4993C9.62527 11.1345 9.7703 10.7847 10.0283 10.5268C10.2864 10.269 10.6363 10.1242 11.0011 10.1243C11.3659 10.1244 11.7157 10.2695 11.9735 10.5275C12.2314 10.7855 12.3762 11.1354 12.3761 11.5002ZM15.5844 10.1252C15.4038 10.1253 15.2249 10.1609 15.0581 10.2301C14.8912 10.2993 14.7396 10.4006 14.6119 10.5284C14.4843 10.6562 14.383 10.8078 14.3139 10.9747C14.2449 11.1416 14.2093 11.3205 14.2094 11.5011C14.2095 11.6818 14.2451 11.8606 14.3143 12.0275C14.3835 12.1943 14.4848 12.3459 14.6126 12.4736C14.7404 12.6013 14.892 12.7025 15.0589 12.7716C15.2258 12.8407 15.4047 12.8762 15.5853 12.8761C15.9501 12.876 16.2999 12.731 16.5578 12.4729C16.8156 12.2149 16.9604 11.865 16.9603 11.5002C16.9602 11.1354 16.8152 10.7856 16.5571 10.5278C16.2991 10.2699 15.9492 10.1251 15.5844 10.1252ZM6.41773 10.1252C6.23711 10.1253 6.05826 10.1609 5.8914 10.2301C5.72455 10.2993 5.57295 10.4006 5.44527 10.5284C5.31759 10.6562 5.21633 10.8078 5.14726 10.9747C5.07819 11.1416 5.04267 11.3205 5.04274 11.5011C5.0428 11.6818 5.07843 11.8606 5.14761 12.0275C5.21679 12.1943 5.31816 12.3459 5.44592 12.4736C5.57369 12.6013 5.72535 12.7025 5.89225 12.7716C6.05915 12.8407 6.23802 12.8762 6.41865 12.8761C6.78345 12.876 7.13325 12.731 7.39111 12.4729C7.64898 12.2149 7.79377 11.865 7.79365 11.5002C7.79353 11.1354 7.6485 10.7856 7.39046 10.5278C7.13243 10.2699 6.78253 10.1251 6.41773 10.1252ZM22.0011 11.8119V17.9169C22.0011 20.4441 19.945 22.5002 17.4177 22.5002H11.9938C5.57624 22.5002 0.431902 18.1076 0.0285685 12.2831C-0.192348 9.09672 0.969985 5.97822 3.21765 3.7278C5.46532 1.47738 8.58382 0.311385 11.7674 0.526801C17.5057 0.916385 22.0011 5.8728 22.0011 11.8119ZM20.1677 11.8119C20.1677 6.83347 16.4241 2.68005 11.6437 2.35555C10.3337 2.26449 9.01952 2.45549 7.78971 2.91566C6.5599 3.37583 5.44312 4.09446 4.51473 5.02305C3.58754 5.95298 2.87056 7.07094 2.41214 8.30151C1.95372 9.53208 1.76453 10.8467 1.85732 12.1566C2.19924 17.0882 6.46265 20.6678 11.9947 20.6678H17.4186C18.9348 20.6678 20.1686 19.434 20.1686 17.9178V11.8128L20.1677 11.8119Z" fill="#708090"/>
</g>
<defs>
<clipPath id="clip0_675_6876">
<rect width="22" height="22" fill="white" transform="translate(0 0.5)"/>
</clipPath>
</defs>
</svg>
