<svg width="55" height="54" viewBox="0 0 55 54" fill="none" xmlns="http://www.w3.org/2000/svg">
<circle cx="27.4101" cy="27.1865" r="26.8076" fill="#4A8C67" fill-opacity="0.2"/>
<g clip-path="url(#clip0_243_8622)">
<path d="M23.4658 21.0503V20.7543C23.4658 20.1915 23.0097 19.7354 22.4469 19.7354H21.8548C21.2921 19.7354 20.8359 20.1915 20.8359 20.7543C20.8359 21.1928 21.1166 21.5822 21.5326 21.7209L22.7692 22.1331C23.1852 22.2717 23.4659 22.6611 23.4659 23.0997C23.4659 23.6624 23.0097 24.1186 22.447 24.1186H21.8549C21.2922 24.1186 20.836 23.6624 20.836 23.0997V22.8036" stroke="#4A8C67" stroke-width="0.565415" stroke-miterlimit="10" stroke-linecap="round" stroke-linejoin="round"/>
<path d="M22.1514 19.2969V24.5567" stroke="#4A8C67" stroke-width="0.565415" stroke-miterlimit="10" stroke-linecap="round" stroke-linejoin="round"/>
<path d="M28.1969 31.1314H25.3104C25.0181 31.1314 24.7812 30.8945 24.7812 30.6022V27.7157C24.7812 27.4234 25.0181 27.1865 25.3104 27.1865H28.1969C28.4892 27.1865 28.7261 27.4234 28.7261 27.7157V30.6022C28.7261 30.8945 28.4892 31.1314 28.1969 31.1314Z" stroke="#4A8C67" stroke-width="0.565415" stroke-miterlimit="10" stroke-linecap="round" stroke-linejoin="round"/>
<path d="M33.4567 36.3912H30.5702C30.2779 36.3912 30.041 36.1543 30.041 35.8621V27.7157C30.041 27.4234 30.2779 27.1865 30.5702 27.1865H33.4567C33.749 27.1865 33.9859 27.4234 33.9859 27.7157V35.8621C33.9859 36.1543 33.749 36.3912 33.4567 36.3912Z" stroke="#4A8C67" stroke-width="0.565415" stroke-miterlimit="10" stroke-linecap="round" stroke-linejoin="round"/>
<path d="M28.1969 36.3912H25.3104C25.0181 36.3912 24.7812 36.1543 24.7812 35.862V32.9754C24.7812 32.6832 25.0181 32.4463 25.3104 32.4463H28.1969C28.4892 32.4463 28.7261 32.6832 28.7261 32.9754V35.862C28.7261 36.1542 28.4892 36.3912 28.1969 36.3912Z" stroke="#4A8C67" stroke-width="0.565415" stroke-miterlimit="10" stroke-linecap="round" stroke-linejoin="round"/>
<path d="M23.4663 30.4148V30.6022C23.4663 30.8945 23.2294 31.1314 22.9372 31.1314H20.0506C19.7584 31.1314 19.5215 30.8945 19.5215 30.6022V27.7157C19.5215 27.4234 19.7584 27.1865 20.0506 27.1865H22.9372C23.2294 27.1865 23.4663 27.4234 23.4663 27.7157V28.9332" stroke="#4A8C67" stroke-width="0.565415" stroke-miterlimit="10" stroke-linecap="round" stroke-linejoin="round"/>
<path d="M22.9372 36.3912H20.0506C19.7584 36.3912 19.5215 36.1543 19.5215 35.862V32.9754C19.5215 32.6832 19.7584 32.4463 20.0506 32.4463H22.9372C23.2294 32.4463 23.4663 32.6832 23.4663 32.9754V35.862C23.4663 36.1542 23.2294 36.3912 22.9372 36.3912Z" stroke="#4A8C67" stroke-width="0.565415" stroke-miterlimit="10" stroke-linecap="round" stroke-linejoin="round"/>
<path d="M24.123 24.5566H25.438" stroke="#4A8C67" stroke-width="0.565415" stroke-miterlimit="10" stroke-linecap="round" stroke-linejoin="round"/>
<path d="M20.8359 29.1592H22.1509" stroke="#4A8C67" stroke-width="0.565415" stroke-miterlimit="10" stroke-linecap="round" stroke-linejoin="round"/>
<path d="M26.0957 29.1592H27.4107" stroke="#4A8C67" stroke-width="0.565415" stroke-miterlimit="10" stroke-linecap="round" stroke-linejoin="round"/>
<path d="M21.4941 28.502V29.8169" stroke="#4A8C67" stroke-width="0.565415" stroke-miterlimit="10" stroke-linecap="round" stroke-linejoin="round"/>
<path d="M20.8369 33.7617L22.1518 35.0767" stroke="#4A8C67" stroke-width="0.565415" stroke-miterlimit="10" stroke-linecap="round" stroke-linejoin="round"/>
<path d="M22.1518 33.7617L20.8369 35.0767" stroke="#4A8C67" stroke-width="0.565415" stroke-miterlimit="10" stroke-linecap="round" stroke-linejoin="round"/>
<path d="M27.4116 33.7617L26.0967 35.0767" stroke="#4A8C67" stroke-width="0.565415" stroke-miterlimit="10" stroke-linecap="round" stroke-linejoin="round"/>
<path d="M31.3564 31.1318H32.6714" stroke="#4A8C67" stroke-width="0.565415" stroke-miterlimit="10" stroke-linecap="round" stroke-linejoin="round"/>
<path d="M31.3564 32.4463H32.6714" stroke="#4A8C67" stroke-width="0.565415" stroke-miterlimit="10" stroke-linecap="round" stroke-linejoin="round"/>
<path d="M36.6153 23.0076V23.4984C36.6153 24.0829 36.1415 24.5567 35.557 24.5567H29.7839C29.1994 24.5567 28.7256 24.0829 28.7256 23.4984V17.7253C28.7256 17.1408 29.1994 16.667 29.7839 16.667H35.557C36.1415 16.667 36.6153 17.1408 36.6153 17.7253V21.526" stroke="#4A8C67" stroke-width="0.565415" stroke-miterlimit="10" stroke-linecap="round" stroke-linejoin="round"/>
<path d="M33.3281 18.6904C34.0834 18.8787 34.6431 19.5616 34.6431 20.3753V21.2689" stroke="#4A8C67" stroke-width="0.565415" stroke-miterlimit="10" stroke-linecap="round" stroke-linejoin="round"/>
<path d="M30.6982 21.2689V20.3753C30.6982 19.5616 31.2579 18.8787 32.0132 18.6904" stroke="#4A8C67" stroke-width="0.565415" stroke-miterlimit="10" stroke-linecap="round" stroke-linejoin="round"/>
<path d="M32.0137 21.2693V18.6394C32.0137 18.5225 32.1085 18.4277 32.2253 18.4277H33.1169C33.2338 18.4277 33.3286 18.5225 33.3286 18.6394V21.2693" stroke="#4A8C67" stroke-width="0.565415" stroke-miterlimit="10" stroke-linecap="round" stroke-linejoin="round"/>
<path d="M34.7866 21.2695H30.5542C30.3182 21.2695 30.1647 21.5179 30.2703 21.729L30.3432 21.8748C30.5606 22.3098 31.0052 22.5845 31.4914 22.5845H33.8494C34.3357 22.5845 34.7802 22.3098 34.9977 21.8748L35.0706 21.729C35.1761 21.5179 35.0226 21.2695 34.7866 21.2695Z" stroke="#4A8C67" stroke-width="0.565415" stroke-miterlimit="10" stroke-linecap="round" stroke-linejoin="round"/>
<path d="M22.3475 17.9814H19.5215V25.8712H33.9859V24.5562" stroke="#4A8C67" stroke-width="0.565415" stroke-miterlimit="10" stroke-linecap="round" stroke-linejoin="round"/>
<path d="M28.7261 17.9814H23.8291" stroke="#4A8C67" stroke-width="0.565415" stroke-miterlimit="10" stroke-linecap="round" stroke-linejoin="round"/>
<path d="M29.784 16.667H19.6877C18.8694 16.667 18.2061 17.3303 18.2061 18.1486V36.2246C18.2061 37.0429 18.8694 37.7062 19.6877 37.7062H33.8188C34.6371 37.7062 35.3004 37.0429 35.3004 36.2246V24.5567" stroke="#4A8C67" stroke-width="0.565415" stroke-miterlimit="10" stroke-linecap="round" stroke-linejoin="round"/>
</g>
<defs>
<clipPath id="clip0_243_8622">
<rect width="21.6742" height="21.6742" fill="white" transform="translate(16.5732 16.3496)"/>
</clipPath>
</defs>
</svg>
