<svg width="23" height="26" viewBox="0 0 23 26" fill="none" xmlns="http://www.w3.org/2000/svg">
<path d="M11.2136 0C8.86286 0 6.60836 0.933845 4.9461 2.5961C3.28385 4.25835 2.35 6.51285 2.35 8.86364V15.7773L0.388186 18.7318C0.153041 19.0944 0.0196644 19.5135 0.00201261 19.9452C-0.0156392 20.377 0.0830832 20.8056 0.287849 21.1861C0.492615 21.5667 0.795896 21.8852 1.16596 22.1083C1.53602 22.3315 1.95925 22.451 2.39137 22.4545H7.66819C7.66819 23.3949 8.04172 24.2967 8.70662 24.9616C9.37153 25.6265 10.2733 26 11.2136 26C12.154 26 13.0558 25.6265 13.7207 24.9616C14.3856 24.2967 14.7591 23.3949 14.7591 22.4545H20.0359C20.4708 22.4531 20.8972 22.3341 21.27 22.11C21.6427 21.8859 21.9479 21.5652 22.1533 21.1819C22.3586 20.7985 22.4564 20.3667 22.4363 19.9322C22.4162 19.4978 22.2789 19.0769 22.0391 18.7141L20.0773 15.7773V8.86364C20.0773 6.51285 19.1434 4.25835 17.4812 2.5961C15.8189 0.933845 13.5644 0 11.2136 0ZM11.2136 24.8182C10.5868 24.8182 9.98557 24.5692 9.5423 24.1259C9.09903 23.6826 8.85 23.0814 8.85 22.4545H13.5773C13.5773 23.0814 13.3283 23.6826 12.885 24.1259C12.4417 24.5692 11.8405 24.8182 11.2136 24.8182ZM21.0523 19.37C21.1893 19.5699 21.2615 19.8072 21.2591 20.0495C21.2591 20.374 21.1302 20.6851 20.9008 20.9145C20.6714 21.1439 20.3603 21.2727 20.0359 21.2727H2.39137C2.06696 21.2727 1.75584 21.1439 1.52645 20.9145C1.29706 20.6851 1.16819 20.374 1.16819 20.0495C1.16581 19.8072 1.23801 19.5699 1.375 19.37L3.43137 16.2795C3.49599 16.1834 3.53092 16.0704 3.53182 15.9545V8.86364C3.53182 6.82629 4.34115 4.87239 5.78177 3.43177C7.22239 1.99115 9.1763 1.18182 11.2136 1.18182C13.251 1.18182 15.2049 1.99115 16.6455 3.43177C18.0861 4.87239 18.8955 6.82629 18.8955 8.86364V15.9545C18.8964 16.0704 18.9313 16.1834 18.9959 16.2795L21.0523 19.37Z" fill="#4A8C67"/>
</svg>
