<svg width="644" height="161" viewBox="0 0 644 161" fill="none" xmlns="http://www.w3.org/2000/svg">
<path d="M54.7 49.5C58.2 43 61.7 36.5 65.1 30C56.5 26 47.3 22.7 37.8 22.4C29.5 22.1 20.8 24.2 14.2 29.4C4.60001 37 -0.299997 53 4.3 64.6C6.1 69.3 9.90001 73 14.2 75.6C18.5 78.2 23.4 79.7 28.3 80.8C31.8 81.6 35.4 82.3 38.5 84.2C41.6 86.1 44 89.5 43.5 93.1C43.1 95.9 41 98.3 38.4 99.5C35.8 100.7 32.9 100.8 30 100.5C22.6 99.7 15.6 96 10.1 91C6.70001 97.4 3.4 103.7 0 110.1C8 116.6 18.2 120.5 28.5 121.1C38.8 121.6 49.3 118.8 58 113.2C62.1 110.5 65.1 106.9 66.7 102.2C68.5 96.9 69.5 91.3 69 85.7C68.5 80.1 66.4 74.6 62.7 70.4C56.7 63.8 47.5 61.4 38.9 58.8C36.3 58 33.6 57.2 31.6 55.4C29.6 53.6 28.4 50.6 29.5 48.1C30.3 46.4 32 45.2 33.7 44.5C40.7 41.3 49.8 43.5 54.7 49.5Z" fill="#6B84FE"/>
<path d="M99.0996 0C99.0996 21 98.9996 41.9 98.9996 62.9C104.4 55.8 113.6 51.4 122.5 52.4C131.4 53.4 139.6 59.8 142.1 68.5C143.2 72.4 143.2 76.5 143.2 80.5C143.1 93 143.1 105.5 143 118C135.7 118 128.4 118 121 118C121 107.2 121 96.5 121 85.7C121 82.7 121 79.5 119.7 76.7C118.3 73.8 115.5 71.6 112.3 71C109.1 70.4 105.7 71.4 103.3 73.6C99.0996 77.5 98.7996 83.9 98.8996 89.6C98.9996 99.1 98.9996 108.5 99.0996 118C91.7996 118 84.3996 118 77.0996 118C77.0996 89.5 77.0996 61 77.0996 32.6C77.0996 31.6 77.0996 30.5 77.3996 29.5C77.7996 28.1 78.6996 26.9 79.5996 25.7C85.4996 16.8 92.5996 8.5 99.0996 0Z" fill="#0F172A"/>
<path d="M200 60.9999C194.1 54.3999 184.5 51.7999 175.8 53.3999C165.7 55.2999 155.5 62.2999 151.6 72.0999C147.6 82.1999 147.8 93.9999 153.1 103.6C159.1 114.7 172 122 184.6 120.6C190.6 119.9 196.6 117.2 200.1 112.3C200.1 114.5 200.1 116.8 200.1 119C207.8 119 215.4 119 223.1 119C223.1 97.6999 223.1 76.3999 223.1 54.9999C215.5 54.9999 207.8 54.9999 200.2 54.9999C200.1 56.9999 200.1 58.9999 200 60.9999Z" fill="#0F172A"/>
<path d="M187.6 101.9C195.884 101.9 202.6 95.1842 202.6 86.8999C202.6 78.6156 195.884 71.8999 187.6 71.8999C179.315 71.8999 172.6 78.6156 172.6 86.8999C172.6 95.1842 179.315 101.9 187.6 101.9Z" fill="white"/>
<path d="M278.6 74.5002V53.5002C278.6 53.5002 259.6 52.5002 253.6 65.5002V54.6002H231.1V118H253.4C253.4 108.4 253.4 98.9002 253.4 89.3002C253.4 85.2002 253.6 82.5002 256.2 79.2002C259.2 75.4002 263.8 73.6002 268.5 73.3002C271.9 73.2002 275.3 73.7002 278.6 74.5002Z" fill="#0F172A"/>
<path d="M309.1 62.0002C309.1 61.7002 309.9 60.9002 310.1 60.7002C318.4 50.7002 334.2 51.3002 345.2 56.4002C361.6 64.1002 364.9 89.5002 356.7 104.3C352.6 111.7 345.8 118.2 337.4 120.2C327.5 122.6 317.4 118.2 309.2 112.9V132.9L287.2 160.9V54.9002H309.2C309.1 55.0002 309.1 62.0002 309.1 62.0002Z" fill="#0F172A"/>
<path d="M321.6 101.5C329.884 101.5 336.6 94.7843 336.6 86.5C336.6 78.2157 329.884 71.5 321.6 71.5C313.315 71.5 306.6 78.2157 306.6 86.5C306.6 94.7843 313.315 101.5 321.6 101.5Z" fill="white"/>
<path d="M343.8 42.5002C350.7 49.4002 357.5 56.2002 364.4 63.1002C365.1 63.8002 365.9 64.6002 366.9 65.0002C367.7 65.3002 368.5 65.3002 369.3 65.3002C373.9 65.2002 378.5 65.2002 383.2 65.1002C386.9 65.1002 390.7 65.0003 394.4 65.9003C404 68.2003 411.4 77.4002 411.7 87.3002C411.9 97.2002 404.9 106.7 395.5 109.5C390.3 111 384.7 110.6 379.3 110.5C375.9 110.4 372.5 110.5 369.1 110.5C368.4 110.5 367.6 110.5 366.9 110.8C366 111.1 365.2 111.9 364.5 112.6C357.6 119.3 350.8 126.1 343.9 132.8C359.1 132.8 374.3 132.8 389.5 132.9C392.8 132.9 396.1 132.9 399.4 132.2C402.8 131.4 406 129.9 409 128.2C415.6 124.5 421.7 119.7 426 113.5C430.9 106.6 433.4 98.2002 433.6 89.7002C433.9 80.0002 431.7 69.4002 426 61.5002C420.9 54.4002 413.3 49.1002 405.2 46.0002C401.8 44.7002 398.3 43.7002 394.7 43.2002C391.1 42.7002 387.4 42.7002 383.8 42.7002C370.4 42.4002 357.1 42.4002 343.8 42.5002Z" fill="#6B84FE"/>
<path d="M505.1 92.1003H462C462 100.4 466.4 104.9 474.8 104.9C479.2 104.9 482.3 103.4 484.6 99.6003H504.3C502.7 106.3 498.7 111.3 493.4 114.6C488.1 117.9 481.6 119.4 475 119.4C455.9 119.4 441.6 108.6 441.6 88.7004C441.6 69.5004 454.8 57.9004 473.5 57.9004C493.5 57.9004 505.1 70.3004 505.1 89.9004V92.1003ZM486.1 80.3004C485.1 74.8004 480 71.2004 474.5 71.2004C468.5 71.2004 463.6 74.3004 462.4 80.3004H486.1Z" fill="#0F172A"/>
<path d="M552.599 74.6003C549.499 72.9003 545.099 71.8003 541.599 71.8003C539.199 71.8003 535.199 72.8003 535.199 75.7003C535.199 79.6003 541.599 80.2003 544.399 80.8003C553.999 82.7003 561.199 87.2003 561.199 97.9003C561.199 113.1 547.399 119.4 533.999 119.4C525.799 119.4 517.699 117 510.699 112.8L518.099 98.5003C522.299 101.4 529.199 104.3 534.299 104.3C536.899 104.3 540.699 103.1 540.699 99.9003C540.699 95.4003 534.299 95.2003 527.899 93.5003C521.499 91.8003 515.099 88.7003 515.099 78.3003C515.099 64.1003 527.899 57.8003 540.499 57.8003C546.999 57.8003 553.499 58.8003 559.499 61.5003L552.599 74.6003Z" fill="#0F172A"/>
<path d="M592.6 80.6002L613.8 59.8002H641.8L612.9 86.4002L643.6 117.4H614.9L592.6 94.0002V117.5H572.1V24.2002H592.6V80.6002Z" fill="#0F172A"/>
</svg>
