<svg width="22" height="23" viewBox="0 0 22 23" fill="none" xmlns="http://www.w3.org/2000/svg">
<g clip-path="url(#clip0_675_6943)">
<path d="M15.6124 21.4688C15.6124 21.7423 15.5038 22.0046 15.3104 22.198C15.117 22.3913 14.8547 22.5 14.5812 22.5H4.85937C3.94801 22.499 3.07426 22.1365 2.42983 21.4921C1.78539 20.8476 1.4229 19.9739 1.42188 19.0625V3.9375C1.4229 3.02613 1.78539 2.15239 2.42983 1.50795C3.07426 0.863516 3.94801 0.501024 4.85937 0.5L14.5812 0.5C14.8547 0.5 15.117 0.608649 15.3104 0.802046C15.5038 0.995443 15.6124 1.25775 15.6124 1.53125C15.6124 1.80475 15.5038 2.06706 15.3104 2.26045C15.117 2.45385 14.8547 2.5625 14.5812 2.5625H4.85937C4.49482 2.5629 4.14532 2.70789 3.88754 2.96567C3.62977 3.22344 3.48477 3.57295 3.48437 3.9375V19.0625C3.48476 19.4271 3.62975 19.7766 3.88753 20.0343C4.14531 20.2921 4.49482 20.4371 4.85937 20.4375H14.5812C14.8547 20.4375 15.117 20.5462 15.3104 20.7395C15.5038 20.9329 15.6124 21.1952 15.6124 21.4688ZM20.2768 10.7708L15.3762 5.87015C15.2808 5.77263 15.1671 5.69501 15.0415 5.64176C14.9159 5.58852 14.781 5.56071 14.6446 5.55996C14.5082 5.5592 14.373 5.58551 14.2469 5.63736C14.1207 5.68921 14.0061 5.76558 13.9097 5.86203C13.8132 5.95848 13.7369 6.07311 13.685 6.19927C13.6332 6.32543 13.6069 6.46063 13.6077 6.59702C13.6085 6.73342 13.6363 6.8683 13.6895 6.99387C13.7428 7.11944 13.8204 7.23319 13.918 7.32855L17.058 10.4688H8.93964C8.66614 10.4688 8.40384 10.5774 8.21044 10.7708C8.01704 10.9642 7.90839 11.2265 7.90839 11.5C7.90839 11.7735 8.01704 12.0358 8.21044 12.2292C8.40384 12.4226 8.66614 12.5312 8.93964 12.5312H17.0579L13.9178 15.6714C13.8216 15.7671 13.7452 15.8808 13.6931 16.006C13.6409 16.1312 13.6139 16.2655 13.6138 16.4012C13.6136 16.5368 13.6402 16.6712 13.692 16.7966C13.7438 16.922 13.8199 17.0359 13.9158 17.1318C14.0117 17.2277 14.1256 17.3038 14.251 17.3556C14.3764 17.4074 14.5107 17.434 14.6464 17.4338C14.7821 17.4337 14.9164 17.4067 15.0416 17.3545C15.1668 17.3024 15.2805 17.226 15.3762 17.1298L20.2768 12.2292C20.4702 12.0358 20.5789 11.7735 20.5789 11.5C20.5789 11.2265 20.4702 10.9642 20.2768 10.7708Z" fill="#7544F1"/>
</g>
<defs>
<clipPath id="clip0_675_6943">
<rect width="22" height="22" fill="white" transform="translate(0 0.5)"/>
</clipPath>
</defs>
</svg>
