<svg width="29" height="29" viewBox="0 0 29 29" fill="none" xmlns="http://www.w3.org/2000/svg">
<g clip-path="url(#clip0_8_51)">
<path d="M4.76761 9.5355C2.13555 9.5355 0 7.40077 0 4.76761C0 2.13446 2.13555 0 4.76761 0C7.40049 0 9.53523 2.13473 9.53523 4.76761C9.53523 7.40049 11.6702 9.5355 14.3031 9.5355C16.936 9.5355 19.0707 7.40077 19.0707 4.76789C19.0707 2.135 21.2057 0 23.8386 0C26.4715 0 28.6062 2.13473 28.6062 4.76761C28.6062 7.40049 26.4715 9.53522 23.8386 9.53522C15.9383 9.53522 9.5355 15.9408 9.5355 23.8381C9.5355 26.4696 7.40077 28.6057 4.76789 28.6057C2.135 28.6057 0 26.4715 0 23.8386C0 21.2057 2.13473 19.0707 4.76761 19.0707C7.40049 19.0707 9.53468 16.936 9.53468 14.3031C9.53468 11.6702 7.40077 9.5355 4.76761 9.5355Z" fill="#F2BE22"/>
<path d="M13.1111 20.8584C13.1111 16.5772 16.579 13.1109 20.8589 13.1109C25.1387 13.1112 28.6061 16.5772 28.6061 20.8584C28.6061 25.1377 25.1387 28.6062 20.8583 28.6062C16.5785 28.6062 13.1111 25.1377 13.1111 20.8584Z" fill="#F2BE22"/>
</g>
<defs>
<clipPath id="clip0_8_51">
<rect width="28.6061" height="28.6061" fill="white"/>
</clipPath>
</defs>
</svg>
