<svg width="591" height="107" viewBox="0 0 591 107" fill="none" xmlns="http://www.w3.org/2000/svg">
<g clip-path="url(#clip0_243_2360)">
<path d="M16.6664 33.3338C7.46536 33.3338 0 25.8713 0 16.6664C0 7.46155 7.46536 0 16.6664 0C25.8703 0 33.3328 7.4625 33.3328 16.6664C33.3328 25.8703 40.7963 33.3338 50.0002 33.3338C59.2041 33.3338 66.6666 25.8713 66.6666 16.6674C66.6666 7.46345 74.1301 0 83.334 0C92.5379 0 100 7.4625 100 16.6664C100 25.8703 92.5379 33.3328 83.334 33.3328C55.7165 33.3328 33.3338 55.7251 33.3338 83.3321C33.3338 92.5312 25.8713 99.9985 16.6674 99.9985C7.46346 99.9985 0 92.5379 0 83.334C0 74.1301 7.4625 66.6666 16.6664 66.6666C25.8703 66.6666 33.3309 59.2041 33.3309 50.0002C33.3309 40.7963 25.8713 33.3338 16.6664 33.3338Z" fill="#F2BE22"/>
<path d="M45.8335 72.9164C45.8335 57.9504 57.9566 45.833 72.9178 45.833C87.8791 45.834 100 57.9504 100 72.9164C100 87.8757 87.8791 100.001 72.9159 100.001C57.9547 100.001 45.8335 87.8757 45.8335 72.9164Z" fill="#F2BE22"/>
</g>
<path d="M578.183 34.9996H590.783V82.5996C590.783 90.3329 588.216 96.2329 583.083 100.3C578.016 104.366 571.883 106.4 564.683 106.4C559.283 106.4 554.516 105.366 550.383 103.3C546.316 101.233 543.183 98.1996 540.983 94.1996L551.983 87.8996C554.516 92.5663 558.883 94.8996 565.083 94.8996C569.149 94.8996 572.349 93.8329 574.683 91.6996C577.016 89.5663 578.183 86.5329 578.183 82.5996V77.1996C574.383 82.2663 569.049 84.7996 562.183 84.7996C555.116 84.7996 549.183 82.3329 544.383 77.3996C539.649 72.3996 537.283 66.3329 537.283 59.1996C537.283 52.1329 539.683 46.0996 544.483 41.0996C549.283 36.0996 555.183 33.5996 562.183 33.5996C569.049 33.5996 574.383 36.1329 578.183 41.1996V34.9996ZM554.083 69.0996C556.749 71.6329 560.116 72.8996 564.183 72.8996C568.249 72.8996 571.583 71.6329 574.183 69.0996C576.849 66.4996 578.183 63.1996 578.183 59.1996C578.183 55.2663 576.849 52.0329 574.183 49.4996C571.583 46.8996 568.249 45.5996 564.183 45.5996C560.116 45.5996 556.749 46.8996 554.083 49.4996C551.483 52.0329 550.183 55.2663 550.183 59.1996C550.183 63.1996 551.483 66.4996 554.083 69.0996Z" fill="white"/>
<path d="M509.968 33.5996C515.435 33.5996 519.935 35.4329 523.468 39.0996C527.068 42.7663 528.868 47.8329 528.868 54.2996V84.9996H515.968V55.8996C515.968 52.5663 515.068 50.0329 513.268 48.2996C511.468 46.4996 509.068 45.5996 506.068 45.5996C502.735 45.5996 500.068 46.6329 498.068 48.6996C496.068 50.7663 495.068 53.8663 495.068 57.9996V84.9996H482.168V34.9996H495.068V40.5996C498.201 35.9329 503.168 33.5996 509.968 33.5996Z" fill="white"/>
<path d="M470.404 34.9996V84.9996H457.504V47.3996H442.804V84.9996H429.904V47.3996H422.704V34.9996H429.904V34.4996C429.904 20.5663 437.737 13.5996 453.404 13.5996C456.937 13.5996 460.837 14.0663 465.104 14.9996V26.7996C460.637 26.2663 456.737 25.9996 453.404 25.9996C449.804 25.9996 447.137 26.6329 445.404 27.8996C443.671 29.0996 442.804 31.2996 442.804 34.4996V34.9996H470.404Z" fill="white"/>
<path d="M411.291 78.7996C406.158 83.8663 399.891 86.3996 392.491 86.3996C385.091 86.3996 378.825 83.8663 373.691 78.7996C368.625 73.6663 366.091 67.3996 366.091 59.9996C366.091 52.5996 368.625 46.3663 373.691 41.2996C378.825 36.1663 385.091 33.5996 392.491 33.5996C399.891 33.5996 406.158 36.1663 411.291 41.2996C416.425 46.3663 418.991 52.5996 418.991 59.9996C418.991 67.3996 416.425 73.6663 411.291 78.7996ZM382.791 69.8996C385.391 72.4996 388.625 73.7996 392.491 73.7996C396.358 73.7996 399.591 72.4996 402.191 69.8996C404.791 67.2996 406.091 63.9996 406.091 59.9996C406.091 55.9996 404.791 52.6996 402.191 50.0996C399.591 47.4996 396.358 46.1996 392.491 46.1996C388.625 46.1996 385.391 47.4996 382.791 50.0996C380.258 52.6996 378.991 55.9996 378.991 59.9996C378.991 63.9996 380.258 67.2996 382.791 69.8996Z" fill="white"/>
<path d="M351.916 78.7996C346.783 83.8663 340.516 86.3996 333.116 86.3996C325.716 86.3996 319.45 83.8663 314.316 78.7996C309.25 73.6663 306.716 67.3996 306.716 59.9996C306.716 52.5996 309.25 46.3663 314.316 41.2996C319.45 36.1663 325.716 33.5996 333.116 33.5996C340.516 33.5996 346.783 36.1663 351.916 41.2996C357.05 46.3663 359.616 52.5996 359.616 59.9996C359.616 67.3996 357.05 73.6663 351.916 78.7996ZM323.416 69.8996C326.016 72.4996 329.25 73.7996 333.116 73.7996C336.983 73.7996 340.216 72.4996 342.816 69.8996C345.416 67.2996 346.716 63.9996 346.716 59.9996C346.716 55.9996 345.416 52.6996 342.816 50.0996C340.216 47.4996 336.983 46.1996 333.116 46.1996C329.25 46.1996 326.016 47.4996 323.416 50.0996C320.883 52.6996 319.616 55.9996 319.616 59.9996C319.616 63.9996 320.883 67.2996 323.416 69.8996Z" fill="white"/>
<path d="M288.427 43.6C289.627 40.4 291.594 38 294.327 36.4C297.127 34.8 300.227 34 303.627 34V48.4C299.694 47.9333 296.161 48.7333 293.027 50.8C289.961 52.8667 288.427 56.3 288.427 61.1V85H275.527V35H288.427V43.6Z" fill="white"/>
<path d="M245.613 33.5996C251.079 33.5996 255.579 35.4329 259.112 39.0996C262.712 42.7663 264.513 47.8329 264.513 54.2996V84.9996H251.613V55.8996C251.613 52.5663 250.712 50.0329 248.912 48.2996C247.112 46.4996 244.713 45.5996 241.713 45.5996C238.379 45.5996 235.713 46.6329 233.713 48.6996C231.713 50.7663 230.713 53.8663 230.713 57.9996V84.9996H217.812V34.9996H230.713V40.5996C233.846 35.9329 238.813 33.5996 245.613 33.5996Z" fill="white"/>
<path d="M170.607 65.2996C172.34 71.5663 177.04 74.6996 184.707 74.6996C189.64 74.6996 193.374 73.0329 195.907 69.6996L206.307 75.6996C201.374 82.8329 194.107 86.3996 184.507 86.3996C176.24 86.3996 169.607 83.8996 164.607 78.8996C159.607 73.8996 157.107 67.5996 157.107 59.9996C157.107 52.4663 159.574 46.1996 164.507 41.1996C169.44 36.1329 175.774 33.5996 183.507 33.5996C190.84 33.5996 196.874 36.1329 201.607 41.1996C206.407 46.2663 208.807 52.5329 208.807 59.9996C208.807 61.6663 208.64 63.4329 208.307 65.2996H170.607ZM170.407 55.2996H195.907C195.174 51.8996 193.64 49.3663 191.307 47.6996C189.04 46.0329 186.44 45.1996 183.507 45.1996C180.04 45.1996 177.174 46.0996 174.907 47.8996C172.64 49.6329 171.14 52.0996 170.407 55.2996Z" fill="white"/>
<path d="M135 85V12H147.9V85H135Z" fill="white"/>
<defs>
<clipPath id="clip0_243_2360">
<rect width="100" height="100" fill="white"/>
</clipPath>
</defs>
</svg>
