<svg width="80" height="81" viewBox="0 0 80 81" fill="none" xmlns="http://www.w3.org/2000/svg">
<rect width="80" height="80" transform="translate(0 0.939087)" fill="#B275B2"/>
<g clip-path="url(#clip0_81_1834)">
<path d="M43.3713 60.9386C43.1796 60.9386 42.9957 60.8624 42.8602 60.7268C42.7246 60.5913 42.6484 60.4074 42.6484 60.2157V54.4326C42.6484 54.2409 42.7246 54.057 42.8602 53.9214C42.9957 53.7859 43.1796 53.7097 43.3713 53.7097C43.563 53.7097 43.7469 53.7859 43.8825 53.9214C44.018 54.057 44.0942 54.2409 44.0942 54.4326V60.2157C44.0942 60.4074 44.018 60.5913 43.8825 60.7268C43.7469 60.8624 43.563 60.9386 43.3713 60.9386Z" fill="white"/>
<path d="M56.8174 38.3394C56.2065 38.477 55.6619 38.8211 55.2752 39.3137C54.8886 39.8062 54.6837 40.417 54.695 41.043V47.9268H51.4372C51.0584 47.9317 50.6921 48.0622 50.3954 48.2976C50.0987 48.5331 49.8885 48.8603 49.7977 49.228C49.6715 49.6856 49.3986 50.0891 49.021 50.3767C48.6433 50.6643 48.1818 50.82 47.7071 50.82C47.2324 50.82 46.7709 50.6643 46.3932 50.3767C46.0156 50.0891 45.7427 49.6856 45.6165 49.228C45.5257 48.8603 45.3155 48.5331 45.0188 48.2976C44.7221 48.0622 44.3557 47.9317 43.977 47.9268H42.165C41.3981 47.9268 40.6626 48.2314 40.1203 48.7737C39.5781 49.316 39.2734 50.0514 39.2734 50.8183V59.252C39.2734 59.6993 39.4511 60.1284 39.7675 60.4447C40.0838 60.761 40.5128 60.9387 40.9602 60.9387H54.454C54.9014 60.9387 55.3304 60.761 55.6467 60.4447C55.963 60.1284 56.1407 59.6993 56.1407 59.252V54.7942L58.9359 52.6978C59.2651 52.4511 59.5323 52.1312 59.7163 51.7633C59.9003 51.3954 59.9961 50.9897 59.9961 50.5783V40.9389C59.9957 40.5461 59.9082 40.1582 59.7397 39.8033C59.5713 39.4485 59.3262 39.1354 59.0221 38.8867C58.718 38.638 58.3625 38.4599 57.9812 38.3653C57.6 38.2707 57.2025 38.2618 56.8174 38.3394Z" fill="white"/>
<path d="M47.714 46.9629C50.7748 46.9629 53.2561 44.4816 53.2561 41.4208C53.2561 38.36 50.7748 35.8787 47.714 35.8787C44.6532 35.8787 42.1719 38.36 42.1719 41.4208C42.1719 44.4816 44.6532 46.9629 47.714 46.9629Z" fill="white"/>
<path d="M40.4817 20.9391H22.1687C21.5937 20.9399 21.0426 21.1686 20.636 21.5751C20.2295 21.9817 20.0008 22.5328 20 23.1077V35.6377C20.0008 36.2127 20.2295 36.7638 20.636 37.1704C21.0426 37.5769 21.5937 37.8056 22.1687 37.8064H29.838C30.0071 37.8063 30.1709 37.8657 30.3006 37.9741L34.1001 41.1403C34.3464 41.3458 34.6461 41.4767 34.9641 41.5179C35.2821 41.559 35.6053 41.5087 35.8957 41.3727C36.1861 41.2368 36.4318 41.0208 36.6039 40.7502C36.776 40.4797 36.8673 40.1656 36.8673 39.8449V38.5293C36.8676 38.3376 36.9438 38.1539 37.0793 38.0184C37.2148 37.8829 37.3986 37.8067 37.5902 37.8064H40.4817C41.0567 37.8056 41.6078 37.5769 42.0144 37.1704C42.4209 36.7638 42.6496 36.2127 42.6504 35.6377V23.1077C42.6496 22.5328 42.4209 21.9817 42.0144 21.5751C41.6078 21.1686 41.0567 20.9399 40.4817 20.9391ZM37.1083 32.0233H25.5421C25.3504 32.0233 25.1665 31.9472 25.031 31.8116C24.8954 31.676 24.8192 31.4922 24.8192 31.3004C24.8192 31.1087 24.8954 30.9248 25.031 30.7893C25.1665 30.6537 25.3504 30.5776 25.5421 30.5776H37.1083C37.3 30.5776 37.4839 30.6537 37.6194 30.7893C37.755 30.9248 37.8312 31.1087 37.8312 31.3004C37.8312 31.4922 37.755 31.676 37.6194 31.8116C37.4839 31.9472 37.3 32.0233 37.1083 32.0233ZM37.1083 27.2041H29.3975C29.2058 27.2041 29.0219 27.1279 28.8863 26.9924C28.7508 26.8568 28.6746 26.6729 28.6746 26.4812C28.6746 26.2895 28.7508 26.1056 28.8863 25.97C29.0219 25.8345 29.2058 25.7583 29.3975 25.7583H37.1083C37.3 25.7583 37.4839 25.8345 37.6194 25.97C37.755 26.1056 37.8312 26.2895 37.8312 26.4812C37.8312 26.6729 37.755 26.8568 37.6194 26.9924C37.4839 27.1279 37.3 27.2041 37.1083 27.2041ZM59.2767 60.9387H36.1444C35.9527 60.9387 35.7688 60.8626 35.6333 60.727C35.4977 60.5914 35.4215 60.4075 35.4215 60.2158C35.4215 60.0241 35.4977 59.8402 35.6333 59.7047C35.7688 59.5691 35.9527 59.4929 36.1444 59.4929H59.2767C59.4685 59.4929 59.6523 59.5691 59.7879 59.7047C59.9235 59.8402 59.9996 60.0241 59.9996 60.2158C59.9996 60.4075 59.9235 60.5914 59.7879 60.727C59.6523 60.8626 59.4685 60.9387 59.2767 60.9387Z" fill="white"/>
</g>
<defs>
<clipPath id="clip0_81_1834">
<rect width="40" height="40" fill="white" transform="translate(20 20.9391)"/>
</clipPath>
</defs>
</svg>
