<svg width="80" height="81" viewBox="0 0 80 81" fill="none" xmlns="http://www.w3.org/2000/svg">
<rect width="80" height="80" transform="translate(0 0.939087)" fill="#7544F1"/>
<g clip-path="url(#clip0_81_1816)">
<path d="M34.8614 32.327C31.9711 28.1396 32.8597 20.9391 39.7827 20.9391C46.7058 20.9391 47.5944 28.1396 44.7041 32.327C43.3774 34.2491 41.5767 35.191 39.7827 35.189C37.9888 35.191 36.188 34.2491 34.8614 32.327ZM55.4074 43.8429C55.2081 41.2503 54.628 40.2758 53.0003 39.3215C51.7526 38.5899 49.5712 38.0122 47.5797 37.5027L43.3313 36.4578C43.0478 36.6107 42.755 36.7459 42.4547 36.8624L44.4499 51.203C44.4878 51.4782 44.4193 51.7575 44.2584 51.9839L40.6678 57.0136C40.4634 57.2997 40.1338 57.4692 39.7825 57.4692C39.4313 57.4692 39.1017 57.2997 38.8982 57.0136L35.3076 51.9839C35.1459 51.7578 35.0772 51.4783 35.1157 51.203L37.1116 36.8628C36.811 36.7462 36.5179 36.6109 36.234 36.4578L31.9857 37.5027C29.9942 38.0121 27.8128 38.5899 26.565 39.3215C24.9373 40.2758 24.3573 41.2502 24.1579 43.8429C23.9056 48.4236 23.9893 52.6812 24.174 57.0569C24.2657 59.2274 26.0511 60.9391 28.2236 60.9391H28.7474V48.4451C28.7474 47.8448 29.234 47.3582 29.8344 47.3582C30.4348 47.3582 30.9214 47.8448 30.9214 48.4451V60.9391H48.6442V48.4451C48.6442 47.8448 49.1308 47.3582 49.7311 47.3582C50.3315 47.3582 50.8181 47.8448 50.8181 48.4451V60.9391H51.342C53.5144 60.9391 55.2999 59.2275 55.3915 57.0569C55.5762 52.6812 55.6599 48.4236 55.4076 43.8429H55.4074ZM39.2397 37.343L37.3289 51.0735L39.7826 54.5119L42.2377 51.0735L40.3258 37.343C39.9642 37.3694 39.6012 37.3695 39.2397 37.343Z" fill="white"/>
</g>
<defs>
<clipPath id="clip0_81_1816">
<rect width="40" height="40" fill="white" transform="translate(20 20.9391)"/>
</clipPath>
</defs>
</svg>
