<svg width="36" height="36" viewBox="0 0 36 36" fill="none" xmlns="http://www.w3.org/2000/svg">
<g clip-path="url(#clip0_675_6831)">
<path d="M19.501 18.0001C19.5009 18.1972 19.462 18.3923 19.3866 18.5743C19.3111 18.7563 19.2005 18.9217 19.0611 19.061C18.9218 19.2003 18.7563 19.3107 18.5742 19.3861C18.3922 19.4614 18.197 19.5002 18 19.5001C17.8029 19.5 17.6078 19.4612 17.4258 19.3857C17.2438 19.3102 17.0784 19.1996 16.9391 19.0603C16.6578 18.7788 16.4999 18.3971 16.5 17.9991C16.5001 17.6011 16.6583 17.2195 16.9398 16.9382C17.2213 16.6569 17.603 16.499 18.001 16.4991C18.3989 16.4992 18.7806 16.6575 19.0619 16.9389C19.3432 17.2204 19.5011 17.6021 19.501 18.0001ZM23.001 16.5001C22.8039 16.5002 22.6088 16.539 22.4268 16.6145C22.2448 16.69 22.0794 16.8006 21.9401 16.9399C21.8008 17.0793 21.6904 17.2448 21.615 17.4269C21.5397 17.6089 21.5009 17.8041 21.501 18.0011C21.5011 18.1982 21.5399 18.3933 21.6154 18.5753C21.6909 18.7573 21.8014 18.9227 21.9408 19.062C22.0802 19.2013 22.2457 19.3117 22.4277 19.3871C22.6098 19.4624 22.8049 19.5012 23.002 19.5011C23.3999 19.501 23.7815 19.3428 24.0629 19.0613C24.3442 18.7798 24.5021 18.3981 24.502 18.0001C24.5019 17.6021 24.3436 17.2205 24.0621 16.9392C23.7807 16.6579 23.3989 16.5 23.001 16.5001ZM13.001 16.5001C12.8039 16.5002 12.6088 16.539 12.4268 16.6145C12.2448 16.69 12.0794 16.8006 11.9401 16.9399C11.8008 17.0793 11.6904 17.2448 11.615 17.4269C11.5397 17.6089 11.5009 17.8041 11.501 18.0011C11.5011 18.1982 11.5399 18.3933 11.6154 18.5753C11.6909 18.7573 11.8014 18.9227 11.9408 19.062C12.0802 19.2013 12.2457 19.3117 12.4277 19.3871C12.6098 19.4624 12.8049 19.5012 13.002 19.5011C13.3999 19.501 13.7816 19.3428 14.0629 19.0613C14.3442 18.7798 14.5021 18.3981 14.502 18.0001C14.5019 17.6021 14.3436 17.2205 14.0621 16.9392C13.7807 16.6579 13.3989 16.5 13.001 16.5001ZM30.001 18.3401V25.0001C30.001 27.7571 27.758 30.0001 25.001 30.0001H19.084C12.083 30.0001 6.47099 25.2081 6.03099 18.8541C5.78999 15.3781 7.05799 11.9761 9.50999 9.52111C11.962 7.0661 15.364 5.7941 18.837 6.0291C25.097 6.4541 30.001 11.8611 30.001 18.3401ZM28.001 18.3401C28.001 12.9091 23.917 8.3781 18.702 8.0241C17.273 7.92476 15.8393 8.13313 14.4977 8.63513C13.1561 9.13713 11.9378 9.9211 10.925 10.9341C9.91351 11.9486 9.13134 13.1682 8.63125 14.5106C8.13115 15.853 7.92476 17.2871 8.02599 18.7161C8.39899 24.0961 13.05 28.0011 19.085 28.0011H25.002C26.656 28.0011 28.002 26.6551 28.002 25.0011V18.3411L28.001 18.3401Z" fill="#708090"/>
</g>
<circle cx="23.5" cy="8.5" r="4.5" fill="#FF0000"/>
<defs>
<clipPath id="clip0_675_6831">
<rect width="24" height="24" fill="white" transform="translate(6 6)"/>
</clipPath>
</defs>
</svg>
