<svg width="236" height="30" viewBox="0 0 236 30" fill="none" xmlns="http://www.w3.org/2000/svg">
<path fill-rule="evenodd" clip-rule="evenodd" d="M5.85122 8.2627C5.29849 8.2627 4.85059 8.7106 4.85059 9.26333V20.7373C4.85059 21.29 5.29849 21.7379 5.85122 21.7379C6.40395 21.7379 6.85186 21.29 6.85186 20.7373V9.26333C6.85186 8.72013 6.40395 8.2627 5.85122 8.2627Z" fill="#4A8C67"/>
<path fill-rule="evenodd" clip-rule="evenodd" d="M1.00064 10.5596C0.447904 10.5596 0 11.0075 0 11.5602V18.4408C0 18.9935 0.447904 19.4414 1.00064 19.4414C1.57243 19.4414 2.00127 18.7267 2.00127 18.212V11.5602C2.0108 11.017 1.55337 10.5596 1.00064 10.5596Z" fill="#4A8C67"/>
<path fill-rule="evenodd" clip-rule="evenodd" d="M39.7584 10.5596C39.2057 10.5596 38.7578 11.0075 38.7578 11.5602V18.4408C38.7578 18.9935 39.2057 19.4414 39.7584 19.4414C40.3112 19.4414 40.7591 18.9935 40.7591 18.4408V11.5602C40.7591 11.017 40.3112 10.5596 39.7584 10.5596Z" fill="#4A8C67"/>
<path fill-rule="evenodd" clip-rule="evenodd" d="M34.9079 8.2627C34.3551 8.2627 33.9072 8.7106 33.9072 9.26333V20.7373C33.9072 21.29 34.3551 21.7379 34.9079 21.7379C35.4606 21.7379 35.9085 21.29 35.9085 20.7373V9.26333C35.918 8.72013 35.4606 8.2627 34.9079 8.2627Z" fill="#4A8C67"/>
<path fill-rule="evenodd" clip-rule="evenodd" d="M30.067 2.06836C29.5143 2.06836 29.0664 2.51626 29.0664 3.06899V26.9413C29.0664 27.494 29.5143 27.9419 30.067 27.9419C30.6198 27.9419 31.0677 27.494 31.0677 26.9413V3.06899C31.0677 2.51626 30.6198 2.06836 30.067 2.06836Z" fill="#4A8C67"/>
<path fill-rule="evenodd" clip-rule="evenodd" d="M25.2252 5.50781C24.6725 5.50781 24.2246 5.95572 24.2246 6.50845V23.4907C24.2246 24.0434 24.6725 24.4913 25.2252 24.4913C25.778 24.4913 26.2259 24.0434 26.2259 23.4907V6.50845C26.2259 5.96525 25.778 5.50781 25.2252 5.50781Z" fill="#4A8C67"/>
<path fill-rule="evenodd" clip-rule="evenodd" d="M20.3844 0C19.8317 0 19.3838 0.447903 19.3838 1.00064V28.9994C19.3838 29.5521 19.8317 30 20.3844 30C20.9372 30 21.3851 29.5521 21.3851 28.9994V1.00064C21.3851 0.447903 20.9372 0 20.3844 0Z" fill="#4A8C67"/>
<path fill-rule="evenodd" clip-rule="evenodd" d="M15.5338 5.50781C14.9811 5.50781 14.5332 5.95572 14.5332 6.50845V23.4907C14.5332 24.0434 14.9811 24.4913 15.5338 24.4913C16.0866 24.4913 16.5345 24.0434 16.5345 23.4907V6.51798C16.5345 5.96524 16.0866 5.50781 15.5338 5.50781Z" fill="#4A8C67"/>
<path fill-rule="evenodd" clip-rule="evenodd" d="M10.692 2.06836C10.1393 2.06836 9.69141 2.51626 9.69141 3.06899V26.9413C9.69141 27.494 10.1393 27.9419 10.692 27.9419C11.2448 27.9419 11.6927 27.494 11.6927 26.9413V3.06899C11.6927 2.51626 11.2448 2.06836 10.692 2.06836Z" fill="#4A8C67"/>
<path fill-rule="evenodd" clip-rule="evenodd" d="M83.8512 8.2627C83.2985 8.2627 82.8506 8.7106 82.8506 9.26333V20.7373C82.8506 21.29 83.2985 21.7379 83.8512 21.7379C84.404 21.7379 84.8519 21.29 84.8519 20.7373V9.26333C84.8519 8.72013 84.404 8.2627 83.8512 8.2627Z" fill="#4A8C67"/>
<path fill-rule="evenodd" clip-rule="evenodd" d="M79.0006 10.5596C78.4479 10.5596 78 11.0075 78 11.5602V18.4408C78 18.9935 78.4479 19.4414 79.0006 19.4414C79.5724 19.4414 80.0013 18.7267 80.0013 18.212V11.5602C80.0108 11.017 79.5534 10.5596 79.0006 10.5596Z" fill="#4A8C67"/>
<path fill-rule="evenodd" clip-rule="evenodd" d="M117.758 10.5596C117.206 10.5596 116.758 11.0075 116.758 11.5602V18.4408C116.758 18.9935 117.206 19.4414 117.758 19.4414C118.311 19.4414 118.759 18.9935 118.759 18.4408V11.5602C118.759 11.017 118.311 10.5596 117.758 10.5596Z" fill="#4A8C67"/>
<path fill-rule="evenodd" clip-rule="evenodd" d="M112.908 8.2627C112.355 8.2627 111.907 8.7106 111.907 9.26333V20.7373C111.907 21.29 112.355 21.7379 112.908 21.7379C113.461 21.7379 113.908 21.29 113.908 20.7373V9.26333C113.918 8.72013 113.461 8.2627 112.908 8.2627Z" fill="#4A8C67"/>
<path fill-rule="evenodd" clip-rule="evenodd" d="M108.067 2.06836C107.514 2.06836 107.066 2.51626 107.066 3.06899V26.9413C107.066 27.494 107.514 27.9419 108.067 27.9419C108.62 27.9419 109.068 27.494 109.068 26.9413V3.06899C109.068 2.51626 108.62 2.06836 108.067 2.06836Z" fill="#4A8C67"/>
<path fill-rule="evenodd" clip-rule="evenodd" d="M103.225 5.50781C102.673 5.50781 102.225 5.95572 102.225 6.50845V23.4907C102.225 24.0434 102.673 24.4913 103.225 24.4913C103.778 24.4913 104.226 24.0434 104.226 23.4907V6.50845C104.226 5.96525 103.778 5.50781 103.225 5.50781Z" fill="#4A8C67"/>
<path fill-rule="evenodd" clip-rule="evenodd" d="M98.3844 0C97.8317 0 97.3838 0.447903 97.3838 1.00064V28.9994C97.3838 29.5521 97.8317 30 98.3844 30C98.9372 30 99.3851 29.5521 99.3851 28.9994V1.00064C99.3851 0.447903 98.9372 0 98.3844 0Z" fill="#4A8C67"/>
<path fill-rule="evenodd" clip-rule="evenodd" d="M93.5338 5.50781C92.9811 5.50781 92.5332 5.95572 92.5332 6.50845V23.4907C92.5332 24.0434 92.9811 24.4913 93.5338 24.4913C94.0866 24.4913 94.5345 24.0434 94.5345 23.4907V6.51798C94.5345 5.96524 94.0866 5.50781 93.5338 5.50781Z" fill="#4A8C67"/>
<path fill-rule="evenodd" clip-rule="evenodd" d="M88.692 2.06836C88.1393 2.06836 87.6914 2.51626 87.6914 3.06899V26.9413C87.6914 27.494 88.1393 27.9419 88.692 27.9419C89.2448 27.9419 89.6927 27.494 89.6927 26.9413V3.06899C89.6927 2.51626 89.2448 2.06836 88.692 2.06836Z" fill="#4A8C67"/>
<path fill-rule="evenodd" clip-rule="evenodd" d="M161.851 8.2627C161.298 8.2627 160.851 8.7106 160.851 9.26333V20.7373C160.851 21.29 161.298 21.7379 161.851 21.7379C162.404 21.7379 162.852 21.29 162.852 20.7373V9.26333C162.852 8.72013 162.404 8.2627 161.851 8.2627Z" fill="#4A8C67"/>
<path fill-rule="evenodd" clip-rule="evenodd" d="M157.001 10.5596C156.448 10.5596 156 11.0075 156 11.5602V18.4408C156 18.9935 156.448 19.4414 157.001 19.4414C157.572 19.4414 158.001 18.7267 158.001 18.212V11.5602C158.011 11.017 157.553 10.5596 157.001 10.5596Z" fill="#CFCFCF"/>
<path fill-rule="evenodd" clip-rule="evenodd" d="M195.758 10.5596C195.206 10.5596 194.758 11.0075 194.758 11.5602V18.4408C194.758 18.9935 195.206 19.4414 195.758 19.4414C196.311 19.4414 196.759 18.9935 196.759 18.4408V11.5602C196.759 11.017 196.311 10.5596 195.758 10.5596Z" fill="#CFCFCF"/>
<path fill-rule="evenodd" clip-rule="evenodd" d="M190.908 8.2627C190.355 8.2627 189.907 8.7106 189.907 9.26333V20.7373C189.907 21.29 190.355 21.7379 190.908 21.7379C191.461 21.7379 191.908 21.29 191.908 20.7373V9.26333C191.918 8.72013 191.461 8.2627 190.908 8.2627Z" fill="#CFCFCF"/>
<path fill-rule="evenodd" clip-rule="evenodd" d="M186.067 2.06836C185.514 2.06836 185.066 2.51626 185.066 3.06899V26.9413C185.066 27.494 185.514 27.9419 186.067 27.9419C186.62 27.9419 187.068 27.494 187.068 26.9413V3.06899C187.068 2.51626 186.62 2.06836 186.067 2.06836Z" fill="#CFCFCF"/>
<path fill-rule="evenodd" clip-rule="evenodd" d="M181.225 5.50781C180.673 5.50781 180.225 5.95572 180.225 6.50845V23.4907C180.225 24.0434 180.673 24.4913 181.225 24.4913C181.778 24.4913 182.226 24.0434 182.226 23.4907V6.50845C182.226 5.96525 181.778 5.50781 181.225 5.50781Z" fill="#CFCFCF"/>
<path fill-rule="evenodd" clip-rule="evenodd" d="M176.384 0C175.832 0 175.384 0.447903 175.384 1.00064V28.9994C175.384 29.5521 175.832 30 176.384 30C176.937 30 177.385 29.5521 177.385 28.9994V1.00064C177.385 0.447903 176.937 0 176.384 0Z" fill="#4A8C67"/>
<path fill-rule="evenodd" clip-rule="evenodd" d="M171.534 5.50781C170.981 5.50781 170.533 5.95572 170.533 6.50845V23.4907C170.533 24.0434 170.981 24.4913 171.534 24.4913C172.087 24.4913 172.534 24.0434 172.534 23.4907V6.51798C172.534 5.96524 172.087 5.50781 171.534 5.50781Z" fill="#4A8C67"/>
<path fill-rule="evenodd" clip-rule="evenodd" d="M166.692 2.06836C166.139 2.06836 165.691 2.51626 165.691 3.06899V26.9413C165.691 27.494 166.139 27.9419 166.692 27.9419C167.245 27.9419 167.693 27.494 167.693 26.9413V3.06899C167.693 2.51626 167.245 2.06836 166.692 2.06836Z" fill="#4A8C67"/>
<path fill-rule="evenodd" clip-rule="evenodd" d="M44.8512 8.2627C44.2985 8.2627 43.8506 8.7106 43.8506 9.26333V20.7373C43.8506 21.29 44.2985 21.7379 44.8512 21.7379C45.404 21.7379 45.8519 21.29 45.8519 20.7373V9.26333C45.8519 8.72013 45.404 8.2627 44.8512 8.2627Z" fill="#4A8C67"/>
<path fill-rule="evenodd" clip-rule="evenodd" d="M40.0006 10.5596C39.4479 10.5596 39 11.0075 39 11.5602V18.4408C39 18.9935 39.4479 19.4414 40.0006 19.4414C40.5724 19.4414 41.0013 18.7267 41.0013 18.212V11.5602C41.0108 11.017 40.5534 10.5596 40.0006 10.5596Z" fill="#4A8C67"/>
<path fill-rule="evenodd" clip-rule="evenodd" d="M78.7584 10.5596C78.2057 10.5596 77.7578 11.0075 77.7578 11.5602V18.4408C77.7578 18.9935 78.2057 19.4414 78.7584 19.4414C79.3112 19.4414 79.7591 18.9935 79.7591 18.4408V11.5602C79.7591 11.017 79.3112 10.5596 78.7584 10.5596Z" fill="#4A8C67"/>
<path fill-rule="evenodd" clip-rule="evenodd" d="M73.9079 8.2627C73.3551 8.2627 72.9072 8.7106 72.9072 9.26333V20.7373C72.9072 21.29 73.3551 21.7379 73.9079 21.7379C74.4606 21.7379 74.9085 21.29 74.9085 20.7373V9.26333C74.918 8.72013 74.4606 8.2627 73.9079 8.2627Z" fill="#4A8C67"/>
<path fill-rule="evenodd" clip-rule="evenodd" d="M69.067 2.06836C68.5143 2.06836 68.0664 2.51626 68.0664 3.06899V26.9413C68.0664 27.494 68.5143 27.9419 69.067 27.9419C69.6198 27.9419 70.0677 27.494 70.0677 26.9413V3.06899C70.0677 2.51626 69.6198 2.06836 69.067 2.06836Z" fill="#4A8C67"/>
<path fill-rule="evenodd" clip-rule="evenodd" d="M64.2252 5.50781C63.6725 5.50781 63.2246 5.95572 63.2246 6.50845V23.4907C63.2246 24.0434 63.6725 24.4913 64.2252 24.4913C64.778 24.4913 65.2259 24.0434 65.2259 23.4907V6.50845C65.2259 5.96525 64.778 5.50781 64.2252 5.50781Z" fill="#4A8C67"/>
<path fill-rule="evenodd" clip-rule="evenodd" d="M59.3844 0C58.8317 0 58.3838 0.447903 58.3838 1.00064V28.9994C58.3838 29.5521 58.8317 30 59.3844 30C59.9372 30 60.3851 29.5521 60.3851 28.9994V1.00064C60.3851 0.447903 59.9372 0 59.3844 0Z" fill="#4A8C67"/>
<path fill-rule="evenodd" clip-rule="evenodd" d="M54.5338 5.50781C53.9811 5.50781 53.5332 5.95572 53.5332 6.50845V23.4907C53.5332 24.0434 53.9811 24.4913 54.5338 24.4913C55.0866 24.4913 55.5345 24.0434 55.5345 23.4907V6.51798C55.5345 5.96524 55.0866 5.50781 54.5338 5.50781Z" fill="#4A8C67"/>
<path fill-rule="evenodd" clip-rule="evenodd" d="M49.692 2.06836C49.1393 2.06836 48.6914 2.51626 48.6914 3.06899V26.9413C48.6914 27.494 49.1393 27.9419 49.692 27.9419C50.2448 27.9419 50.6927 27.494 50.6927 26.9413V3.06899C50.6927 2.51626 50.2448 2.06836 49.692 2.06836Z" fill="#4A8C67"/>
<path fill-rule="evenodd" clip-rule="evenodd" d="M122.851 8.2627C122.298 8.2627 121.851 8.7106 121.851 9.26333V20.7373C121.851 21.29 122.298 21.7379 122.851 21.7379C123.404 21.7379 123.852 21.29 123.852 20.7373V9.26333C123.852 8.72013 123.404 8.2627 122.851 8.2627Z" fill="#4A8C67"/>
<path fill-rule="evenodd" clip-rule="evenodd" d="M118.001 10.5596C117.448 10.5596 117 11.0075 117 11.5602V18.4408C117 18.9935 117.448 19.4414 118.001 19.4414C118.572 19.4414 119.001 18.7267 119.001 18.212V11.5602C119.011 11.017 118.553 10.5596 118.001 10.5596Z" fill="#4A8C67"/>
<path fill-rule="evenodd" clip-rule="evenodd" d="M156.758 10.5596C156.206 10.5596 155.758 11.0075 155.758 11.5602V18.4408C155.758 18.9935 156.206 19.4414 156.758 19.4414C157.311 19.4414 157.759 18.9935 157.759 18.4408V11.5602C157.759 11.017 157.311 10.5596 156.758 10.5596Z" fill="#4A8C67"/>
<path fill-rule="evenodd" clip-rule="evenodd" d="M151.908 8.2627C151.355 8.2627 150.907 8.7106 150.907 9.26333V20.7373C150.907 21.29 151.355 21.7379 151.908 21.7379C152.461 21.7379 152.908 21.29 152.908 20.7373V9.26333C152.918 8.72013 152.461 8.2627 151.908 8.2627Z" fill="#4A8C67"/>
<path fill-rule="evenodd" clip-rule="evenodd" d="M147.067 2.06836C146.514 2.06836 146.066 2.51626 146.066 3.06899V26.9413C146.066 27.494 146.514 27.9419 147.067 27.9419C147.62 27.9419 148.068 27.494 148.068 26.9413V3.06899C148.068 2.51626 147.62 2.06836 147.067 2.06836Z" fill="#4A8C67"/>
<path fill-rule="evenodd" clip-rule="evenodd" d="M142.225 5.50781C141.673 5.50781 141.225 5.95572 141.225 6.50845V23.4907C141.225 24.0434 141.673 24.4913 142.225 24.4913C142.778 24.4913 143.226 24.0434 143.226 23.4907V6.50845C143.226 5.96525 142.778 5.50781 142.225 5.50781Z" fill="#4A8C67"/>
<path fill-rule="evenodd" clip-rule="evenodd" d="M137.384 0C136.832 0 136.384 0.447903 136.384 1.00064V28.9994C136.384 29.5521 136.832 30 137.384 30C137.937 30 138.385 29.5521 138.385 28.9994V1.00064C138.385 0.447903 137.937 0 137.384 0Z" fill="#4A8C67"/>
<path fill-rule="evenodd" clip-rule="evenodd" d="M132.534 5.50781C131.981 5.50781 131.533 5.95572 131.533 6.50845V23.4907C131.533 24.0434 131.981 24.4913 132.534 24.4913C133.087 24.4913 133.534 24.0434 133.534 23.4907V6.51798C133.534 5.96524 133.087 5.50781 132.534 5.50781Z" fill="#4A8C67"/>
<path fill-rule="evenodd" clip-rule="evenodd" d="M127.692 2.06836C127.139 2.06836 126.691 2.51626 126.691 3.06899V26.9413C126.691 27.494 127.139 27.9419 127.692 27.9419C128.245 27.9419 128.693 27.494 128.693 26.9413V3.06899C128.693 2.51626 128.245 2.06836 127.692 2.06836Z" fill="#4A8C67"/>
<path fill-rule="evenodd" clip-rule="evenodd" d="M200.851 8.2627C200.298 8.2627 199.851 8.7106 199.851 9.26333V20.7373C199.851 21.29 200.298 21.7379 200.851 21.7379C201.404 21.7379 201.852 21.29 201.852 20.7373V9.26333C201.852 8.72013 201.404 8.2627 200.851 8.2627Z" fill="#CFCFCF"/>
<path fill-rule="evenodd" clip-rule="evenodd" d="M196.001 10.5596C195.448 10.5596 195 11.0075 195 11.5602V18.4408C195 18.9935 195.448 19.4414 196.001 19.4414C196.572 19.4414 197.001 18.7267 197.001 18.212V11.5602C197.011 11.017 196.553 10.5596 196.001 10.5596Z" fill="#CFCFCF"/>
<path fill-rule="evenodd" clip-rule="evenodd" d="M234.758 10.5596C234.206 10.5596 233.758 11.0075 233.758 11.5602V18.4408C233.758 18.9935 234.206 19.4414 234.758 19.4414C235.311 19.4414 235.759 18.9935 235.759 18.4408V11.5602C235.759 11.017 235.311 10.5596 234.758 10.5596Z" fill="#CFCFCF"/>
<path fill-rule="evenodd" clip-rule="evenodd" d="M229.908 8.2627C229.355 8.2627 228.907 8.7106 228.907 9.26333V20.7373C228.907 21.29 229.355 21.7379 229.908 21.7379C230.461 21.7379 230.908 21.29 230.908 20.7373V9.26333C230.918 8.72013 230.461 8.2627 229.908 8.2627Z" fill="#CFCFCF"/>
<path fill-rule="evenodd" clip-rule="evenodd" d="M225.067 2.06836C224.514 2.06836 224.066 2.51626 224.066 3.06899V26.9413C224.066 27.494 224.514 27.9419 225.067 27.9419C225.62 27.9419 226.068 27.494 226.068 26.9413V3.06899C226.068 2.51626 225.62 2.06836 225.067 2.06836Z" fill="#CFCFCF"/>
<path fill-rule="evenodd" clip-rule="evenodd" d="M220.225 5.50781C219.673 5.50781 219.225 5.95572 219.225 6.50845V23.4907C219.225 24.0434 219.673 24.4913 220.225 24.4913C220.778 24.4913 221.226 24.0434 221.226 23.4907V6.50845C221.226 5.96525 220.778 5.50781 220.225 5.50781Z" fill="#CFCFCF"/>
<path fill-rule="evenodd" clip-rule="evenodd" d="M215.384 0C214.832 0 214.384 0.447903 214.384 1.00064V28.9994C214.384 29.5521 214.832 30 215.384 30C215.937 30 216.385 29.5521 216.385 28.9994V1.00064C216.385 0.447903 215.937 0 215.384 0Z" fill="#CFCFCF"/>
<path fill-rule="evenodd" clip-rule="evenodd" d="M210.534 5.50781C209.981 5.50781 209.533 5.95572 209.533 6.50845V23.4907C209.533 24.0434 209.981 24.4913 210.534 24.4913C211.087 24.4913 211.534 24.0434 211.534 23.4907V6.51798C211.534 5.96524 211.087 5.50781 210.534 5.50781Z" fill="#CFCFCF"/>
<path fill-rule="evenodd" clip-rule="evenodd" d="M205.692 2.06836C205.139 2.06836 204.691 2.51626 204.691 3.06899V26.9413C204.691 27.494 205.139 27.9419 205.692 27.9419C206.245 27.9419 206.693 27.494 206.693 26.9413V3.06899C206.693 2.51626 206.245 2.06836 205.692 2.06836Z" fill="#CFCFCF"/>
</svg>
