<svg width="36" height="36" viewBox="0 0 36 36" fill="none" xmlns="http://www.w3.org/2000/svg">
<g clip-path="url(#clip0_675_6827)">
<path d="M28.5535 19.6622L26.6535 12.8262C26.0966 10.8235 24.8863 9.06447 23.2149 7.82865C21.5435 6.59283 19.5069 5.95117 17.429 6.00565C15.351 6.06013 13.3509 6.80763 11.7466 8.12933C10.1422 9.45103 9.02572 11.2711 8.57452 13.3002L7.10352 19.9152C6.94103 20.6461 6.94479 21.4042 7.11451 22.1335C7.28423 22.8628 7.61558 23.5446 8.0841 24.1287C8.55262 24.7128 9.14634 25.1842 9.82143 25.5081C10.4965 25.832 11.2357 26.0002 11.9845 26.0002H13.0985C13.328 27.1305 13.9412 28.1467 14.8343 28.8766C15.7273 29.6065 16.8452 30.0052 17.9985 30.0052C19.1519 30.0052 20.2698 29.6065 21.1628 28.8766C22.0558 28.1467 22.669 27.1305 22.8985 26.0002H23.7365C24.5073 26.0002 25.2677 25.8221 25.9583 25.4796C26.6488 25.1372 27.2509 24.6397 27.7173 24.026C28.1838 23.4124 28.5021 22.6992 28.6473 21.9422C28.7925 21.1852 28.7608 20.4049 28.5545 19.6622H28.5535ZM17.9985 28.0002C17.3803 27.9976 16.7779 27.8041 16.2738 27.4461C15.7697 27.0881 15.3886 26.5831 15.1825 26.0002H20.8145C20.6084 26.5831 20.2273 27.0881 19.7232 27.4461C19.2191 27.8041 18.6168 27.9976 17.9985 28.0002ZM26.1245 22.8152C25.8459 23.1848 25.4848 23.4844 25.0701 23.6901C24.6554 23.8958 24.1984 24.002 23.7355 24.0002H11.9845C11.5353 24.0001 11.0918 23.8991 10.6869 23.7048C10.2819 23.5104 9.92572 23.2275 9.64468 22.8771C9.36363 22.5266 9.16488 22.1176 9.06308 21.68C8.96128 21.2425 8.95904 20.7877 9.05652 20.3492L10.5265 13.7332C10.8809 12.1394 11.7578 10.7098 13.018 9.67163C14.2781 8.63347 15.8491 8.04635 17.4813 8.00359C19.1134 7.96083 20.713 8.4649 22.0258 9.43565C23.3386 10.4064 24.2892 11.7881 24.7265 13.3612L26.6265 20.1972C26.7521 20.6426 26.7721 21.1111 26.6849 21.5655C26.5978 22.02 26.4059 22.4478 26.1245 22.8152Z" fill="#708090"/>
</g>
<circle cx="23.5" cy="8.5" r="4.5" fill="#FF0000"/>
<defs>
<clipPath id="clip0_675_6827">
<rect width="24" height="24" fill="white" transform="translate(6 6)"/>
</clipPath>
</defs>
</svg>
