<svg width="22" height="23" viewBox="0 0 22 23" fill="none" xmlns="http://www.w3.org/2000/svg">
<g clip-path="url(#clip0_675_6928)">
<path d="M21.0833 10.5833H11.9167V1.41667C11.9167 1.17355 11.8201 0.940394 11.6482 0.768485C11.4763 0.596577 11.2431 0.5 11 0.5V0.5C10.7569 0.5 10.5237 0.596577 10.3518 0.768485C10.1799 0.940394 10.0833 1.17355 10.0833 1.41667V10.5833H0.916667C0.673552 10.5833 0.440394 10.6799 0.268485 10.8518C0.0965771 11.0237 0 11.2569 0 11.5H0C0 11.7431 0.0965771 11.9763 0.268485 12.1482C0.440394 12.3201 0.673552 12.4167 0.916667 12.4167H10.0833V21.5833C10.0833 21.8264 10.1799 22.0596 10.3518 22.2315C10.5237 22.4034 10.7569 22.5 11 22.5C11.2431 22.5 11.4763 22.4034 11.6482 22.2315C11.8201 22.0596 11.9167 21.8264 11.9167 21.5833V12.4167H21.0833C21.3264 12.4167 21.5596 12.3201 21.7315 12.1482C21.9034 11.9763 22 11.7431 22 11.5C22 11.2569 21.9034 11.0237 21.7315 10.8518C21.5596 10.6799 21.3264 10.5833 21.0833 10.5833Z" fill="white"/>
</g>
<defs>
<clipPath id="clip0_675_6928">
<rect width="22" height="22" fill="white" transform="translate(0 0.5)"/>
</clipPath>
</defs>
</svg>
