<svg width="23" height="23" viewBox="0 0 23 23" fill="none" xmlns="http://www.w3.org/2000/svg">
<g opacity="0.5">
<path d="M11.3362 11.0792C12.8582 11.0792 14.1761 10.5333 15.2531 9.45621C16.3298 8.37932 16.8759 7.06167 16.8759 5.53942C16.8759 4.01769 16.33 2.69987 15.2529 1.62262C14.1759 0.545905 12.8581 0 11.3362 0C9.8139 0 8.49626 0.545905 7.41936 1.6228C6.34247 2.69969 5.79639 4.01752 5.79639 5.53942C5.79639 7.06167 6.34247 8.37949 7.41936 9.45639C8.49661 10.5331 9.81443 11.0792 11.3362 11.0792ZM8.37255 2.57581C9.19886 1.74949 10.1682 1.34783 11.3362 1.34783C12.5039 1.34783 13.4735 1.74949 14.2999 2.57581C15.1263 3.4023 15.5281 4.3718 15.5281 5.53942C15.5281 6.70738 15.1263 7.67671 14.2999 8.5032C13.4735 9.32969 12.5039 9.73136 11.3362 9.73136C10.1685 9.73136 9.19921 9.32952 8.37255 8.5032C7.54606 7.67689 7.14422 6.70738 7.14422 5.53942C7.14422 4.3718 7.54606 3.4023 8.37255 2.57581Z" fill="white"/>
<path d="M21.0292 17.6858C20.9981 17.2377 20.9353 16.7488 20.8428 16.2325C20.7495 15.7124 20.6293 15.2207 20.4854 14.7713C20.3366 14.3069 20.1346 13.8482 19.8846 13.4086C19.6254 12.9524 19.3208 12.5551 18.9789 12.2282C18.6215 11.8862 18.1839 11.6112 17.6778 11.4106C17.1735 11.2111 16.6146 11.11 16.0167 11.11C15.7819 11.11 15.5549 11.2064 15.1164 11.4919C14.8465 11.6679 14.5308 11.8714 14.1784 12.0966C13.8772 12.2885 13.469 12.4684 12.9649 12.6312C12.473 12.7904 11.9736 12.8711 11.4805 12.8711C10.9878 12.8711 10.4884 12.7904 9.99615 12.6312C9.49254 12.4686 9.08421 12.2887 8.78344 12.0967C8.43442 11.8737 8.11856 11.6702 7.84465 11.4917C7.40648 11.2062 7.17942 11.1099 6.94463 11.1099C6.34661 11.1099 5.7879 11.2111 5.28375 11.4108C4.77803 11.611 4.34022 11.886 3.98243 12.2283C3.6406 12.5554 3.33597 12.9525 3.07697 13.4086C2.82727 13.8482 2.62512 14.3067 2.47632 14.7715C2.3326 15.2209 2.2124 15.7124 2.11905 16.2325C2.0264 16.7481 1.96375 17.2371 1.93269 17.6863C1.90216 18.1256 1.88672 18.5827 1.88672 19.0445C1.88672 20.2451 2.26838 21.2171 3.02099 21.9339C3.76431 22.6413 4.74768 22.9999 5.94389 22.9999H17.0185C18.2144 22.9999 19.1978 22.6413 19.9412 21.9339C20.694 21.2176 21.0757 20.2453 21.0757 19.0443C21.0755 18.5809 21.0599 18.1238 21.0292 17.6858ZM19.0119 20.9574C18.5208 21.4249 17.8687 21.6521 17.0183 21.6521H5.94389C5.09336 21.6521 4.44129 21.4249 3.95031 20.9576C3.46863 20.499 3.23455 19.8731 3.23455 19.0445C3.23455 18.6136 3.24876 18.188 3.27719 17.7795C3.30491 17.3787 3.36159 16.9385 3.44565 16.4706C3.52865 16.0086 3.63428 15.575 3.75992 15.1825C3.88047 14.8061 4.04489 14.4334 4.2488 14.0744C4.4434 13.7322 4.66731 13.4386 4.91438 13.2021C5.14548 12.9808 5.43677 12.7997 5.78 12.6639C6.09743 12.5382 6.45418 12.4694 6.84145 12.4591C6.88865 12.4842 6.97271 12.5321 7.10888 12.6209C7.38595 12.8014 7.70532 13.0075 8.05838 13.2329C8.45636 13.4867 8.9691 13.7159 9.58168 13.9136C10.208 14.1161 10.8467 14.2189 11.4807 14.2189C12.1147 14.2189 12.7536 14.1161 13.3795 13.9138C13.9926 13.7157 14.5052 13.4867 14.9037 13.2326C15.265 13.0017 15.5754 12.8016 15.8525 12.6209C15.9887 12.5323 16.0727 12.4842 16.1199 12.4591C16.5074 12.4694 16.8641 12.5382 17.1817 12.6639C17.5248 12.7997 17.8161 12.981 18.0472 13.2021C18.2942 13.4384 18.5181 13.732 18.7127 14.0745C18.9168 14.4334 19.0814 14.8063 19.2018 15.1823C19.3276 15.5754 19.4334 16.0088 19.5162 16.4705C19.6001 16.9392 19.657 17.3796 19.6847 17.7797V17.78C19.7133 18.187 19.7277 18.6123 19.7279 19.0445C19.7277 19.8733 19.4936 20.499 19.0119 20.9574Z" fill="white"/>
</g>
</svg>
