<svg width="81" height="81" viewBox="0 0 81 81" fill="none" xmlns="http://www.w3.org/2000/svg">
<rect width="80" height="80" transform="translate(0.5 0.939087)" fill="#18BC86"/>
<g clip-path="url(#clip0_81_1854)">
<path d="M43.8713 60.9386C43.6796 60.9386 43.4957 60.8624 43.3602 60.7268C43.2246 60.5913 43.1484 60.4074 43.1484 60.2157V54.4326C43.1484 54.2409 43.2246 54.057 43.3602 53.9214C43.4957 53.7859 43.6796 53.7097 43.8713 53.7097C44.063 53.7097 44.2469 53.7859 44.3825 53.9214C44.518 54.057 44.5942 54.2409 44.5942 54.4326V60.2157C44.5942 60.4074 44.518 60.5913 44.3825 60.7268C44.2469 60.8624 44.063 60.9386 43.8713 60.9386Z" fill="white"/>
<path d="M57.3174 38.3394C56.7065 38.477 56.1619 38.8211 55.7752 39.3137C55.3886 39.8062 55.1837 40.417 55.195 41.043V47.9268H51.9372C51.5584 47.9317 51.1921 48.0622 50.8954 48.2976C50.5987 48.5331 50.3885 48.8603 50.2977 49.228C50.1715 49.6856 49.8986 50.0891 49.521 50.3767C49.1433 50.6643 48.6818 50.82 48.2071 50.82C47.7324 50.82 47.2709 50.6643 46.8932 50.3767C46.5156 50.0891 46.2427 49.6856 46.1165 49.228C46.0257 48.8603 45.8155 48.5331 45.5188 48.2976C45.2221 48.0622 44.8557 47.9317 44.477 47.9268H42.665C41.8981 47.9268 41.1626 48.2314 40.6203 48.7737C40.0781 49.316 39.7734 50.0514 39.7734 50.8183V59.252C39.7734 59.6993 39.9511 60.1284 40.2675 60.4447C40.5838 60.761 41.0128 60.9387 41.4602 60.9387H54.954C55.4014 60.9387 55.8304 60.761 56.1467 60.4447C56.463 60.1284 56.6407 59.6993 56.6407 59.252V54.7942L59.4359 52.6978C59.7651 52.4511 60.0323 52.1312 60.2163 51.7633C60.4003 51.3954 60.4961 50.9897 60.4961 50.5783V40.9389C60.4957 40.5461 60.4082 40.1582 60.2397 39.8033C60.0713 39.4485 59.8262 39.1354 59.5221 38.8867C59.218 38.638 58.8625 38.4599 58.4812 38.3653C58.1 38.2707 57.7025 38.2618 57.3174 38.3394Z" fill="white"/>
<path d="M48.214 46.9629C51.2748 46.9629 53.7561 44.4816 53.7561 41.4208C53.7561 38.36 51.2748 35.8787 48.214 35.8787C45.1532 35.8787 42.6719 38.36 42.6719 41.4208C42.6719 44.4816 45.1532 46.9629 48.214 46.9629Z" fill="white"/>
<path d="M40.9817 20.9391H22.6687C22.0937 20.9399 21.5426 21.1686 21.136 21.5751C20.7295 21.9817 20.5008 22.5328 20.5 23.1077V35.6377C20.5008 36.2127 20.7295 36.7638 21.136 37.1704C21.5426 37.5769 22.0937 37.8056 22.6687 37.8064H30.338C30.5071 37.8063 30.6709 37.8657 30.8006 37.9741L34.6001 41.1403C34.8464 41.3458 35.1461 41.4767 35.4641 41.5179C35.7821 41.559 36.1053 41.5087 36.3957 41.3727C36.6861 41.2368 36.9318 41.0208 37.1039 40.7502C37.276 40.4797 37.3673 40.1656 37.3673 39.8449V38.5293C37.3676 38.3376 37.4438 38.1539 37.5793 38.0184C37.7148 37.8829 37.8986 37.8067 38.0902 37.8064H40.9817C41.5567 37.8056 42.1078 37.5769 42.5144 37.1704C42.9209 36.7638 43.1496 36.2127 43.1504 35.6377V23.1077C43.1496 22.5328 42.9209 21.9817 42.5144 21.5751C42.1078 21.1686 41.5567 20.9399 40.9817 20.9391ZM37.6083 32.0233H26.0421C25.8504 32.0233 25.6665 31.9472 25.531 31.8116C25.3954 31.676 25.3192 31.4922 25.3192 31.3004C25.3192 31.1087 25.3954 30.9248 25.531 30.7893C25.6665 30.6537 25.8504 30.5776 26.0421 30.5776H37.6083C37.8 30.5776 37.9839 30.6537 38.1194 30.7893C38.255 30.9248 38.3312 31.1087 38.3312 31.3004C38.3312 31.4922 38.255 31.676 38.1194 31.8116C37.9839 31.9472 37.8 32.0233 37.6083 32.0233ZM37.6083 27.2041H29.8975C29.7058 27.2041 29.5219 27.1279 29.3863 26.9924C29.2508 26.8568 29.1746 26.6729 29.1746 26.4812C29.1746 26.2895 29.2508 26.1056 29.3863 25.97C29.5219 25.8345 29.7058 25.7583 29.8975 25.7583H37.6083C37.8 25.7583 37.9839 25.8345 38.1194 25.97C38.255 26.1056 38.3312 26.2895 38.3312 26.4812C38.3312 26.6729 38.255 26.8568 38.1194 26.9924C37.9839 27.1279 37.8 27.2041 37.6083 27.2041ZM59.7767 60.9387H36.6444C36.4527 60.9387 36.2688 60.8626 36.1333 60.727C35.9977 60.5914 35.9215 60.4075 35.9215 60.2158C35.9215 60.0241 35.9977 59.8402 36.1333 59.7047C36.2688 59.5691 36.4527 59.4929 36.6444 59.4929H59.7767C59.9685 59.4929 60.1523 59.5691 60.2879 59.7047C60.4235 59.8402 60.4996 60.0241 60.4996 60.2158C60.4996 60.4075 60.4235 60.5914 60.2879 60.727C60.1523 60.8626 59.9685 60.9387 59.7767 60.9387Z" fill="white"/>
</g>
<defs>
<clipPath id="clip0_81_1854">
<rect width="40" height="40" fill="white" transform="translate(20.5 20.9391)"/>
</clipPath>
</defs>
</svg>
