<svg width="50" height="51" viewBox="0 0 50 51" fill="none" xmlns="http://www.w3.org/2000/svg">
<g clip-path="url(#clip0_185_105)">
<path d="M13.2812 22.3008V17.0283C13.2812 15.4101 14.5928 14.0986 16.2109 14.0986C17.8291 14.0986 19.1406 15.4101 19.1406 17.0283" stroke="#7544F1" stroke-width="2" stroke-miterlimit="10" stroke-linecap="round" stroke-linejoin="round"/>
<path d="M19.1406 24.5654V17.0283C19.1406 15.4102 20.4521 14.0986 22.0703 14.0986C23.6885 14.0986 25 15.4102 25 17.0283V18.4932" stroke="#7544F1" stroke-width="2" stroke-miterlimit="10" stroke-linecap="round" stroke-linejoin="round"/>
<path d="M30.8594 24.3525C30.8594 25.9707 29.5478 27.2822 27.9297 27.2822C26.3115 27.2822 25 25.9707 25 24.3525V18.4932C25 16.875 26.3115 15.5635 27.9297 15.5635C29.5478 15.5635 30.8594 16.875 30.8594 18.4932V19.958" stroke="#7544F1" stroke-width="2" stroke-miterlimit="10" stroke-linecap="round" stroke-linejoin="round"/>
<path d="M36.7187 25.8173C36.7187 27.4355 35.4072 28.747 33.7891 28.747C32.1709 28.747 30.8594 27.4355 30.8594 25.8173V19.958C30.8594 18.3398 32.1709 17.0283 33.7891 17.0283C35.4072 17.0283 36.7187 18.3398 36.7187 19.958V25.8173Z" stroke="#7544F1" stroke-width="2" stroke-miterlimit="10" stroke-linecap="round" stroke-linejoin="round"/>
<path d="M25 1.79399V5.3096" stroke="#7544F1" stroke-width="2" stroke-miterlimit="10" stroke-linecap="round" stroke-linejoin="round"/>
<path d="M14.7422 5.12699L16.207 7.66507" stroke="#7544F1" stroke-width="2" stroke-miterlimit="10" stroke-linecap="round" stroke-linejoin="round"/>
<path d="M5.77344 12.6338L8.31152 14.0986" stroke="#7544F1" stroke-width="2" stroke-miterlimit="10" stroke-linecap="round" stroke-linejoin="round"/>
<path d="M35.2539 5.12699L33.7891 7.66507" stroke="#7544F1" stroke-width="2" stroke-miterlimit="10" stroke-linecap="round" stroke-linejoin="round"/>
<path d="M21.1953 30.8007C23.632 33.2378 25.001 36.5429 25.001 39.9892" stroke="#7544F1" stroke-width="2" stroke-miterlimit="10" stroke-linecap="round" stroke-linejoin="round"/>
<path d="M44.2256 12.6338L41.6875 14.0986" stroke="#7544F1" stroke-width="2" stroke-miterlimit="10" stroke-linecap="round" stroke-linejoin="round"/>
<path d="M36.7148 25.8173C36.7148 32.6816 33.7851 36.5312 33.7851 43.3954V49.8407H29.3906" stroke="#7544F1" stroke-width="2" stroke-miterlimit="10" stroke-linecap="round" stroke-linejoin="round"/>
<path d="M20.6015 49.8407H16.207V40.4452L10.292 34.8446C8.46093 33.1103 7.94433 30.3993 9.00976 28.1132L10.9394 23.9755C11.3896 23.0127 12.2939 22.4091 13.2773 22.3007C13.792 22.2441 14.3291 22.3232 14.833 22.5586L25.454 27.5107C24.0859 30.4443 20.5996 31.7128 17.667 30.3456L15.0117 29.1074" stroke="#7544F1" stroke-width="2" stroke-miterlimit="10" stroke-linecap="round" stroke-linejoin="round"/>
<path d="M25.9766 49.8407C25.9766 50.3801 25.5393 50.8173 25 50.8173C24.4607 50.8173 24.0234 50.3801 24.0234 49.8407C24.0234 49.3013 24.4607 48.8641 25 48.8641C25.5393 48.8641 25.9766 49.3013 25.9766 49.8407Z" fill="#7544F1"/>
</g>
<defs>
<clipPath id="clip0_185_105">
<rect width="50" height="50" fill="white" transform="translate(0 0.817261)"/>
</clipPath>
</defs>
</svg>
