<svg width="50" height="51" viewBox="0 0 50 51" fill="none" xmlns="http://www.w3.org/2000/svg">
<path d="M14.0198 21.7119C14.0198 21.9392 14.1101 22.1572 14.2709 22.318C14.4316 22.4787 14.6496 22.569 14.877 22.569H19.8929C20.1202 22.569 20.3382 22.4787 20.499 22.318C20.6597 22.1572 20.75 21.9392 20.75 21.7119V17.4759C21.8713 17.2737 22.8859 16.684 23.6165 15.8098C24.3472 14.9356 24.7475 13.8325 24.7475 12.6931C24.7475 11.5538 24.3472 10.4507 23.6165 9.57645C22.8859 8.70224 21.8713 8.11253 20.75 7.91034V3.67439C20.75 3.44707 20.6597 3.22905 20.499 3.06831C20.3382 2.90757 20.1202 2.81726 19.8929 2.81726H4.77224C3.77206 2.81817 2.8131 3.21589 2.10586 3.92313C1.39863 4.63036 1.00091 5.58932 1 6.5895V21.7119C1 21.9392 1.0903 22.1572 1.25105 22.318C1.41179 22.4787 1.62981 22.569 1.85713 22.569H6.87392C7.10125 22.569 7.31926 22.4787 7.48001 22.318C7.64075 22.1572 7.73105 21.9392 7.73105 21.7119C7.74467 20.8869 8.08195 20.1004 8.67015 19.5218C9.25836 18.9432 10.0504 18.619 10.8754 18.619C11.7005 18.619 12.4925 18.9432 13.0807 19.5218C13.6689 20.1004 14.0062 20.8869 14.0198 21.7119ZM6.09136 20.8547H2.71426V6.5895C2.71517 6.04419 2.93219 5.52148 3.31778 5.1359C3.70337 4.75031 4.22608 4.53329 4.77138 4.53238H19.0358V8.69118C19.0358 8.91851 19.1261 9.13652 19.2868 9.29727C19.4476 9.45801 19.6656 9.54831 19.8929 9.54831C20.7178 9.56193 21.5044 9.89921 22.083 10.4874C22.6615 11.0756 22.9858 11.8676 22.9858 12.6927C22.9858 13.5178 22.6615 14.3098 22.083 14.898C21.5044 15.4862 20.7178 15.8235 19.8929 15.8371C19.6656 15.8371 19.4476 15.9274 19.2868 16.0881C19.1261 16.2489 19.0358 16.4669 19.0358 16.6942V20.8547H15.6587C15.4492 19.7393 14.8565 18.7321 13.9831 18.0074C13.1097 17.2826 12.0104 16.886 10.8754 16.886C9.74049 16.886 8.64122 17.2826 7.76778 18.0074C6.89433 18.7321 6.30164 19.7393 6.09222 20.8547H6.09136Z" fill="#ED9144" stroke="#ED9144" stroke-width="0.2"/>
<path d="M45.2271 11.836H30.1047C29.8774 11.836 29.6593 11.9263 29.4986 12.0871C29.3379 12.2478 29.2476 12.4658 29.2476 12.6932V17.7099C29.2476 17.9373 29.3379 18.1553 29.4986 18.316C29.6593 18.4768 29.8774 18.5671 30.1047 18.5671C30.9296 18.5807 31.7162 18.918 32.2948 19.5062C32.8733 20.0944 33.1976 20.8864 33.1976 21.7115C33.1976 22.5365 32.8733 23.3286 32.2948 23.9168C31.7162 24.505 30.9296 24.8422 30.1047 24.8559C29.8774 24.8559 29.6593 24.9462 29.4986 25.1069C29.3379 25.2676 29.2476 25.4857 29.2476 25.713V29.3249H25.8687C25.6665 28.2037 25.0768 27.1891 24.2026 26.4584C23.3284 25.7278 22.2253 25.3275 21.0859 25.3275C19.9466 25.3275 18.8435 25.7278 17.9693 26.4584C17.0951 27.1891 16.5053 28.2037 16.3032 29.3249H12.0681C11.8407 29.3249 11.6227 29.4152 11.462 29.576C11.3012 29.7367 11.2109 29.9547 11.2109 30.1821V45.3044C11.2121 46.3043 11.6098 47.2629 12.3168 47.97C13.0238 48.677 13.9824 49.0747 14.9823 49.0758H45.2271C46.2271 49.0749 47.1859 48.6773 47.8931 47.9703C48.6003 47.2632 48.9981 46.3045 48.9993 45.3044V15.6074C48.9982 14.6075 48.6004 13.6489 47.8934 12.9419C47.1864 12.2349 46.2278 11.8372 45.2279 11.836H45.2271ZM34.9629 21.7128C34.9616 20.5731 34.5604 19.47 33.8292 18.5959C33.0981 17.7217 32.0833 17.1318 30.9618 16.9291V13.552H45.2253C45.7708 13.5527 46.2937 13.7696 46.6795 14.1552C47.0653 14.5408 47.2824 15.0637 47.2833 15.6091V29.3241H43.1237C42.8963 29.3241 42.6783 29.4144 42.5176 29.5751C42.3568 29.7359 42.2665 29.9539 42.2665 30.1812C42.2529 31.0062 41.9156 31.7927 41.3274 32.3713C40.7392 32.9499 39.9472 33.2741 39.1221 33.2741C38.2971 33.2741 37.5051 32.9499 36.9168 32.3713C36.3286 31.7927 35.9914 31.0062 35.9777 30.1812C35.9777 29.9539 35.8874 29.7359 35.7267 29.5751C35.566 29.4144 35.3479 29.3241 35.1206 29.3241H30.9618V26.4955C32.0831 26.2929 33.0978 25.7031 33.829 24.8291C34.5601 23.9551 34.9614 22.8523 34.9629 21.7128ZM12.9261 45.3044V31.0392H17.0857C17.313 31.0392 17.5311 30.9489 17.6918 30.7882C17.8525 30.6274 17.9428 30.4094 17.9428 30.1821C17.9428 29.3482 18.2741 28.5486 18.8637 27.959C19.4533 27.3693 20.253 27.0381 21.0868 27.0381C21.9206 27.0381 22.7203 27.3693 23.3099 27.959C23.8995 28.5486 24.2308 29.3482 24.2308 30.1821C24.2308 30.4094 24.3211 30.6274 24.4818 30.7882C24.6426 30.9489 24.8606 31.0392 25.0879 31.0392H29.2476V34.418C28.1263 34.6202 27.1117 35.2099 26.3811 36.0841C25.6504 36.9583 25.2501 38.0615 25.2501 39.2008C25.2501 40.3402 25.6504 41.4433 26.3811 42.3175C27.1117 43.1917 28.1263 43.7814 29.2476 43.9836V47.3616H14.9832C14.4379 47.3606 13.9152 47.1436 13.5296 46.758C13.144 46.3724 12.927 45.8497 12.9261 45.3044ZM45.2262 47.3616H30.9627V43.2028C30.9627 42.9754 30.8724 42.7574 30.7116 42.5967C30.5509 42.4359 30.3329 42.3456 30.1055 42.3456C29.2716 42.3456 28.4718 42.0143 27.8821 41.4247C27.2924 40.835 26.9612 40.0352 26.9612 39.2012C26.9612 38.3673 27.2924 37.5675 27.8821 36.9778C28.4718 36.3881 29.2716 36.0568 30.1055 36.0568C30.3329 36.0568 30.5509 35.9665 30.7116 35.8058C30.8724 35.6451 30.9627 35.427 30.9627 35.1997V31.5861H34.3398C34.5415 32.7078 35.131 33.723 36.0054 34.4542C36.8797 35.1853 37.9832 35.5859 39.123 35.5859C40.2628 35.5859 41.3663 35.1853 42.2406 34.4542C43.1149 33.723 43.7045 32.7078 43.9062 31.5861H47.2842V45.3044C47.2833 45.8497 47.0662 46.3724 46.6807 46.758C46.2951 47.1436 45.7715 47.3606 45.2262 47.3616Z" fill="#ED9144" stroke="#ED9144" stroke-width="0.2"/>
</svg>
