<svg width="36" height="36" viewBox="0 0 36 36" fill="none" xmlns="http://www.w3.org/2000/svg">
<g clip-path="url(#clip0_675_6836)">
<path d="M18 6C15.6266 6 13.3066 6.70379 11.3332 8.02236C9.35977 9.34094 7.8217 11.2151 6.91345 13.4078C6.0052 15.6005 5.76756 18.0133 6.23058 20.3411C6.6936 22.6689 7.83649 24.8071 9.51472 26.4853C11.193 28.1635 13.3312 29.3064 15.6589 29.7694C17.9867 30.2324 20.3995 29.9948 22.5922 29.0866C24.7849 28.1783 26.6591 26.6402 27.9776 24.6668C29.2962 22.6935 30 20.3734 30 18C29.9966 14.8185 28.7312 11.7682 26.4815 9.51852C24.2318 7.26883 21.1815 6.00344 18 6ZM18 28C16.0222 28 14.0888 27.4135 12.4443 26.3147C10.7998 25.2159 9.51809 23.6541 8.76121 21.8268C8.00433 19.9996 7.8063 17.9889 8.19215 16.0491C8.578 14.1093 9.53041 12.3275 10.9289 10.9289C12.3275 9.53041 14.1093 8.578 16.0491 8.19215C17.9889 7.8063 19.9996 8.00433 21.8268 8.7612C23.6541 9.51808 25.2159 10.7998 26.3147 12.4443C27.4135 14.0888 28 16.0222 28 18C27.9971 20.6513 26.9426 23.1931 25.0679 25.0679C23.1931 26.9426 20.6513 27.9971 18 28Z" fill="#708090"/>
<path d="M18.719 11.0631C18.1423 10.958 17.5496 10.981 16.9827 11.1303C16.4159 11.2797 15.8889 11.5518 15.4388 11.9274C14.9888 12.303 14.6269 12.7729 14.3786 13.3039C14.1303 13.8349 14.0017 14.4139 14.002 15.0001C14.002 15.2653 14.1073 15.5196 14.2948 15.7072C14.4824 15.8947 14.7367 16.0001 15.002 16.0001C15.2672 16.0001 15.5215 15.8947 15.7091 15.7072C15.8966 15.5196 16.002 15.2653 16.002 15.0001C16.0017 14.7059 16.0664 14.4152 16.1913 14.1488C16.3163 13.8825 16.4985 13.647 16.725 13.4591C16.9514 13.2712 17.2165 13.1357 17.5014 13.062C17.7862 12.9884 18.0838 12.9785 18.373 13.0331C18.768 13.1098 19.1312 13.3025 19.4162 13.5866C19.7012 13.8707 19.895 14.2333 19.973 14.6281C20.0517 15.0425 19.9973 15.4712 19.8177 15.8528C19.6381 16.2345 19.3424 16.5496 18.973 16.7531C18.3611 17.1075 17.8555 17.6196 17.5089 18.2359C17.1622 18.8522 16.9872 19.5501 17.002 20.2571V21.0001C17.002 21.2653 17.1073 21.5196 17.2948 21.7072C17.4824 21.8947 17.7367 22.0001 18.002 22.0001C18.2672 22.0001 18.5215 21.8947 18.7091 21.7072C18.8966 21.5196 19.002 21.2653 19.002 21.0001V20.2571C18.9894 19.9091 19.0688 19.5639 19.232 19.2564C19.3953 18.9488 19.6367 18.6897 19.932 18.5051C20.6565 18.1071 21.2399 17.4945 21.602 16.7515C21.9642 16.0084 22.0872 15.1714 21.9542 14.3556C21.8213 13.5398 21.4388 12.7852 20.8595 12.1956C20.2801 11.606 19.5323 11.2103 18.719 11.0631Z" fill="#708090"/>
<path d="M19.002 24C19.002 23.4477 18.5542 23 18.002 23C17.4497 23 17.002 23.4477 17.002 24C17.002 24.5523 17.4497 25 18.002 25C18.5542 25 19.002 24.5523 19.002 24Z" fill="#708090"/>
</g>
<defs>
<clipPath id="clip0_675_6836">
<rect width="24" height="24" fill="white" transform="translate(6 6)"/>
</clipPath>
</defs>
</svg>
