<svg width="13" height="12" viewBox="0 0 13 12" fill="none" xmlns="http://www.w3.org/2000/svg">
<path d="M11.4946 4.31402L11.6704 4.13809L11.6757 4.14336C11.7062 4.17388 11.7424 4.19809 11.7822 4.21461C11.8221 4.23113 11.8648 4.23963 11.9079 4.23963C11.9511 4.23963 11.9938 4.23113 12.0336 4.21461C12.0735 4.19809 12.1097 4.17388 12.1401 4.14336L12.412 3.87148C12.4425 3.84099 12.4668 3.80478 12.4833 3.76493C12.4998 3.72508 12.5083 3.68236 12.5083 3.63922C12.5083 3.59608 12.4998 3.55336 12.4833 3.51351C12.4668 3.47366 12.4425 3.43745 12.412 3.40696L11.6992 2.69401C11.6366 2.63431 11.5535 2.60101 11.467 2.60101C11.3805 2.60101 11.2973 2.63431 11.2348 2.69401L10.9629 2.96589C10.9324 2.99638 10.9081 3.03259 10.8916 3.07244C10.8751 3.1123 10.8666 3.15501 10.8666 3.19815C10.8666 3.2413 10.8751 3.28401 10.8916 3.32387C10.9081 3.36372 10.9324 3.39993 10.9629 3.43042L10.968 3.43557L10.7822 3.62136C10.1472 3.1227 9.39079 2.80222 8.5908 2.69287V2.15229H8.94264C9.04766 2.15219 9.14834 2.11042 9.2226 2.03616C9.29686 1.9619 9.33863 1.86122 9.33873 1.7562V1.3082C9.33862 1.20318 9.29686 1.1025 9.2226 1.02824C9.14834 0.953981 9.04766 0.912216 8.94264 0.912109H6.99868C6.89366 0.912218 6.79298 0.953983 6.71872 1.02824C6.64447 1.1025 6.6027 1.20318 6.60259 1.3082V1.7562C6.6027 1.86121 6.64446 1.9619 6.71872 2.03616C6.79298 2.11042 6.89367 2.15218 6.99869 2.15229H7.35072V2.69316C7.109 2.72537 6.87027 2.77698 6.63685 2.84751C6.58386 2.86368 6.53947 2.90024 6.51344 2.94915C6.48741 2.99805 6.48188 3.05529 6.49805 3.10827C6.51423 3.16126 6.55079 3.20565 6.59969 3.23168C6.64859 3.25771 6.70583 3.26324 6.75882 3.24707C7.4615 3.03253 8.20854 3.00833 8.92363 3.17696C9.63873 3.34558 10.2963 3.70098 10.8291 4.20687C11.3619 4.71275 11.7508 5.35098 11.9563 6.05638C12.1617 6.76178 12.1763 7.50906 11.9984 8.22192C11.8206 8.93477 11.4567 9.58765 10.944 10.1139C10.4312 10.6401 9.78802 11.0208 9.08002 11.2171C8.37203 11.4134 7.62461 11.4183 6.91412 11.2312C6.20362 11.0442 5.5555 10.6719 5.03596 10.1524C5.0166 10.1328 4.99357 10.1173 4.9682 10.1067C4.94282 10.0961 4.91559 10.0905 4.88808 10.0905C4.86056 10.0904 4.83331 10.0958 4.80788 10.1063C4.78244 10.1168 4.75934 10.1322 4.73988 10.1516C4.72043 10.1711 4.70501 10.1942 4.69451 10.2196C4.68401 10.2451 4.67864 10.2723 4.67871 10.2998C4.67878 10.3273 4.68429 10.3546 4.69491 10.38C4.70553 10.4053 4.72107 10.4284 4.74062 10.4477C5.57004 11.2781 6.68734 11.7573 7.86067 11.7859C9.034 11.8145 10.1733 11.3902 11.0421 10.6011C11.911 9.81208 12.4427 8.7188 12.5269 7.54814C12.6112 6.37749 12.2415 5.21935 11.4946 4.31402ZM11.4669 3.05248L12.0537 3.63917L11.908 3.7849L11.3212 3.19821L11.4669 3.05248ZM11.2633 3.73096L11.3751 3.84273L11.2136 4.00421C11.1765 3.96677 11.1383 3.93053 11.0999 3.89438L11.2633 3.73096ZM7.02031 1.73458V1.32982H8.92102V1.73458H7.02031ZM7.76843 2.65707V2.15229H8.17309V2.65479C8.10595 2.65185 8.03862 2.64966 7.97076 2.64966C7.90306 2.64966 7.83583 2.65413 7.76843 2.65707Z" fill="#E35959"/>
<path d="M10.6839 9.91522C11.3978 9.19917 11.7986 8.22932 11.7985 7.21826C11.7985 6.20719 11.3976 5.23738 10.6837 4.52139C10.6811 4.51844 10.6802 4.51463 10.6773 4.5118C10.6745 4.50897 10.6707 4.50807 10.6677 4.50543C9.95201 3.79109 8.98197 3.39012 7.97076 3.39063C7.74096 3.39059 7.51161 3.4111 7.28545 3.45192C7.25847 3.45679 7.2327 3.46693 7.20964 3.48176C7.18657 3.4966 7.16665 3.51582 7.15102 3.53835C7.13539 3.56088 7.12434 3.58627 7.11852 3.61307C7.11269 3.63986 7.11221 3.66754 7.11708 3.69453C7.12196 3.72152 7.1321 3.74728 7.14693 3.77034C7.16176 3.79341 7.18099 3.81333 7.20352 3.82896C7.22605 3.8446 7.25144 3.85564 7.27823 3.86146C7.30503 3.86729 7.33271 3.86777 7.3597 3.8629C7.49276 3.83991 7.62706 3.8248 7.76191 3.81765V4.14437C7.76191 4.19976 7.78391 4.25288 7.82308 4.29205C7.86225 4.33122 7.91537 4.35322 7.97076 4.35322C8.02616 4.35322 8.07928 4.33122 8.11845 4.29205C8.15762 4.25288 8.17962 4.19976 8.17962 4.14437V3.81892C8.93759 3.8647 9.65826 4.16356 10.2262 4.66763L9.99673 4.89709C9.97718 4.91644 9.96164 4.93947 9.95102 4.96485C9.94039 4.99023 9.93489 5.01746 9.93481 5.04497C9.93474 5.07248 9.94011 5.09974 9.95061 5.12517C9.9611 5.1506 9.97652 5.17371 9.99598 5.19316C10.0154 5.21262 10.0385 5.22804 10.064 5.23854C10.0894 5.24903 10.1167 5.2544 10.1442 5.25433C10.1717 5.25427 10.1989 5.24876 10.2243 5.23814C10.2497 5.22751 10.2727 5.21198 10.2921 5.19243L10.5215 4.96297C11.0256 5.53092 11.3244 6.25162 11.3702 7.00962H11.0449C10.9895 7.00962 10.9364 7.03163 10.8972 7.0708C10.858 7.10996 10.836 7.16309 10.836 7.21848C10.836 7.27387 10.858 7.327 10.8972 7.36617C10.9364 7.40533 10.9895 7.42734 11.0449 7.42734H11.3702C11.3244 8.18532 11.0256 8.90601 10.5215 9.47394L10.2921 9.24443C10.2528 9.20563 10.1998 9.18395 10.1446 9.1841C10.0895 9.18426 10.0366 9.20625 9.99756 9.24527C9.95855 9.28429 9.93656 9.33717 9.9364 9.39235C9.93625 9.44753 9.95793 9.50053 9.99673 9.53976L10.2262 9.76927C9.65825 10.2733 8.93759 10.5722 8.17964 10.6179V10.2925C8.17964 10.2371 8.15763 10.184 8.11846 10.1448C8.07929 10.1056 8.02617 10.0836 7.97078 10.0836C7.91539 10.0836 7.86226 10.1056 7.82309 10.1448C7.78393 10.184 7.76192 10.2371 7.76192 10.2925V10.6199C7.06684 10.5806 6.40099 10.327 5.8559 9.89395C5.83439 9.87694 5.80974 9.86433 5.78336 9.85685C5.75698 9.84937 5.72939 9.84715 5.70215 9.85034C5.67492 9.85352 5.64857 9.86203 5.62463 9.87539C5.60069 9.88876 5.57961 9.9067 5.5626 9.92821C5.54559 9.94972 5.53299 9.97437 5.5255 10.0007C5.51802 10.0271 5.51581 10.0547 5.51899 10.082C5.52217 10.1092 5.53069 10.1355 5.54405 10.1595C5.55741 10.1834 5.57536 10.2045 5.59687 10.2215C6.33102 10.8022 7.25266 11.0934 8.18718 11.04C9.12169 10.9866 10.0042 10.5923 10.6674 9.93177C10.6704 9.92904 10.6744 9.9281 10.6773 9.92515C10.6803 9.92221 10.6812 9.91828 10.6839 9.91522Z" fill="#E35959"/>
<path d="M9.75366 5.43619C9.73427 5.41679 9.71125 5.4014 9.68591 5.3909C9.66058 5.3804 9.63342 5.375 9.60599 5.375C9.57857 5.375 9.55141 5.3804 9.52607 5.3909C9.50073 5.4014 9.47771 5.41679 9.45832 5.43619L8.28762 6.60689C8.1902 6.55497 8.08163 6.52744 7.97124 6.52667C7.8344 6.52666 7.70062 6.56723 7.58684 6.64325C7.47305 6.71926 7.38436 6.82731 7.33198 6.95374C7.27961 7.08016 7.2659 7.21927 7.29258 7.35349C7.31927 7.48771 7.38515 7.61099 7.48191 7.70776C7.57867 7.80453 7.70194 7.87044 7.83615 7.89715C7.97037 7.92385 8.10948 7.91016 8.23591 7.8578C8.36234 7.80545 8.47041 7.71677 8.54644 7.603C8.62248 7.48922 8.66307 7.35546 8.66308 7.21861C8.66231 7.10824 8.63481 6.99969 8.58292 6.90227L9.75366 5.73153C9.77306 5.71214 9.78845 5.68912 9.79895 5.66378C9.80945 5.63844 9.81485 5.61129 9.81485 5.58386C9.81485 5.55643 9.80945 5.52927 9.79895 5.50394C9.78845 5.4786 9.77306 5.45558 9.75366 5.43619ZM7.97124 7.49274C7.92614 7.49277 7.88172 7.48168 7.84193 7.46045C7.80214 7.43922 7.7682 7.40849 7.74312 7.37101C7.71804 7.33352 7.7026 7.29042 7.69816 7.24554C7.69372 7.20065 7.70043 7.15537 7.71768 7.1137C7.73493 7.07202 7.76219 7.03525 7.79705 7.00663C7.83192 6.97802 7.8733 6.95844 7.91754 6.94965C7.96177 6.94085 8.0075 6.9431 8.05065 6.95621C8.09381 6.96931 8.13307 6.99285 8.16495 7.02476C8.2033 7.06308 8.2295 7.11203 8.24009 7.1652C8.25068 7.21837 8.24526 7.27349 8.22451 7.32358C8.20376 7.37366 8.16863 7.41647 8.12354 7.44658C8.07846 7.4767 8.02545 7.49276 7.97124 7.49274Z" fill="#E35959"/>
<path d="M5.57531 3.80834H4.25671C4.20132 3.80834 4.14819 3.78633 4.10902 3.74717C4.06986 3.708 4.04785 3.65487 4.04785 3.59948C4.04785 3.54409 4.06986 3.49097 4.10902 3.4518C4.14819 3.41263 4.20132 3.39062 4.25671 3.39062H5.57531C5.63071 3.39062 5.68383 3.41263 5.723 3.4518C5.76217 3.49097 5.78417 3.54409 5.78417 3.59948C5.78417 3.65487 5.76217 3.708 5.723 3.74717C5.68383 3.78633 5.63071 3.80834 5.57531 3.80834Z" fill="#E35959"/>
<path d="M3.58166 3.80834H3.15905C3.10366 3.80834 3.05054 3.78633 3.01137 3.74717C2.9722 3.708 2.9502 3.65487 2.9502 3.59948C2.9502 3.54409 2.9722 3.49097 3.01137 3.4518C3.05054 3.41263 3.10366 3.39062 3.15905 3.39062H3.58166C3.63705 3.39062 3.69017 3.41263 3.72934 3.4518C3.76851 3.49097 3.79051 3.54409 3.79051 3.59948C3.79051 3.65487 3.76851 3.708 3.72934 3.74717C3.69017 3.78633 3.63705 3.80834 3.58166 3.80834Z" fill="#E35959"/>
<path d="M6.21985 5.18334H2.72741C2.67202 5.18334 2.6189 5.16133 2.57973 5.12217C2.54056 5.083 2.51855 5.02987 2.51855 4.97448C2.51855 4.91909 2.54056 4.86597 2.57973 4.8268C2.6189 4.78763 2.67202 4.76562 2.72741 4.76562H6.21985C6.27524 4.76562 6.32836 4.78763 6.36753 4.8268C6.4067 4.86597 6.4287 4.91909 6.4287 4.97448C6.4287 5.02987 6.4067 5.083 6.36753 5.12217C6.32836 5.16133 6.27524 5.18334 6.21985 5.18334Z" fill="#E35959"/>
<path d="M4.71654 6.55834H1.06726C1.01186 6.55834 0.958739 6.53633 0.919571 6.49717C0.880403 6.458 0.858398 6.40487 0.858398 6.34948C0.858398 6.29409 0.880403 6.24097 0.919571 6.2018C0.958739 6.16263 1.01186 6.14062 1.06726 6.14062H4.71654C4.77193 6.14062 4.82505 6.16263 4.86422 6.2018C4.90339 6.24097 4.92539 6.29409 4.92539 6.34948C4.92539 6.40487 4.90339 6.458 4.86422 6.49717C4.82505 6.53633 4.77193 6.55834 4.71654 6.55834Z" fill="#E35959"/>
<path d="M5.79757 6.55834H5.40515C5.34975 6.55834 5.29663 6.53633 5.25746 6.49717C5.21829 6.458 5.19629 6.40487 5.19629 6.34948C5.19629 6.29409 5.21829 6.24097 5.25746 6.2018C5.29663 6.16263 5.34975 6.14062 5.40515 6.14062H5.79757C5.85296 6.14062 5.90608 6.16263 5.94525 6.2018C5.98442 6.24097 6.00642 6.29409 6.00642 6.34948C6.00642 6.40487 5.98442 6.458 5.94525 6.49717C5.90608 6.53633 5.85296 6.55834 5.79757 6.55834Z" fill="#E35959"/>
<path d="M6.60358 7.93334H3.50866C3.45327 7.93334 3.40015 7.91133 3.36098 7.87217C3.32181 7.833 3.2998 7.77987 3.2998 7.72448C3.2998 7.66909 3.32181 7.61597 3.36098 7.5768C3.40015 7.53763 3.45327 7.51562 3.50866 7.51562H6.60358C6.65897 7.51562 6.71209 7.53763 6.75126 7.5768C6.79043 7.61597 6.81243 7.66909 6.81243 7.72448C6.81243 7.77987 6.79043 7.833 6.75126 7.87217C6.71209 7.91133 6.65897 7.93334 6.60358 7.93334Z" fill="#E35959"/>
<path d="M2.62621 9.30834H2.25378C2.19839 9.30834 2.14526 9.28633 2.10609 9.24717C2.06693 9.208 2.04492 9.15487 2.04492 9.09948C2.04492 9.04409 2.06693 8.99097 2.10609 8.9518C2.14526 8.91263 2.19839 8.89062 2.25378 8.89062H2.62621C2.68161 8.89062 2.73473 8.91263 2.7739 8.9518C2.81307 8.99097 2.83507 9.04409 2.83507 9.09948C2.83507 9.15487 2.81307 9.208 2.7739 9.24717C2.73473 9.28633 2.68161 9.30834 2.62621 9.30834Z" fill="#E35959"/>
<path d="M5.79675 9.30834H3.29089C3.2355 9.30834 3.18237 9.28633 3.1432 9.24717C3.10404 9.208 3.08203 9.15487 3.08203 9.09948C3.08203 9.04409 3.10404 8.99097 3.1432 8.9518C3.18237 8.91263 3.2355 8.89062 3.29089 8.89062H5.79675C5.85214 8.89062 5.90527 8.91263 5.94444 8.9518C5.9836 8.99097 6.00561 9.04409 6.00561 9.09948C6.00561 9.15487 5.9836 9.208 5.94444 9.24717C5.90527 9.28633 5.85214 9.30834 5.79675 9.30834Z" fill="#E35959"/>
</svg>
