<svg width="22" height="22" viewBox="0 0 22 22" fill="none" xmlns="http://www.w3.org/2000/svg">
<path d="M11.0384 19.3691C10.8367 19.3691 10.6485 19.2706 10.5332 19.1049L8.7308 16.517L2.80559 16.505C1.81031 16.5026 1 15.6915 1 14.6962V4.04444C0.9992 3.05156 1.80711 2.24365 2.79998 2.24365H19.2625C20.2201 2.24365 21 3.02274 21 3.98118V14.6978C21 15.6931 20.1905 16.5026 19.1952 16.5026H13.2444L11.5549 19.0897C11.4428 19.2618 11.253 19.3659 11.048 19.3691C11.0448 19.3691 11.0416 19.3691 11.0392 19.3691H11.0384ZM2.79998 3.12443C2.29234 3.12443 1.87998 3.53759 1.87998 4.04444V14.6954C1.87998 15.2063 2.29554 15.6226 2.80639 15.6234L9.19041 15.6362L11.0312 18.2786L12.7672 15.6202H19.1952C19.7053 15.6202 20.1192 15.2055 20.1192 14.6962V3.98118C20.1192 3.50877 19.7349 3.12443 19.2625 3.12443H2.79998Z" fill="#7544F1" stroke="#7544F1" stroke-width="0.4"/>
<path d="M16.4207 6.56681H13.8857C13.6423 6.56681 13.4453 6.36984 13.4453 6.12642C13.4453 5.88301 13.6423 5.68604 13.8857 5.68604H16.4207C16.6641 5.68604 16.8611 5.88301 16.8611 6.12642C16.8611 6.36984 16.6641 6.56681 16.4207 6.56681Z" fill="#7544F1" stroke="#7544F1" stroke-width="0.4"/>
<path d="M18.1991 8.73356H13.8857C13.6423 8.73356 13.4453 8.53658 13.4453 8.29317C13.4453 8.04976 13.6423 7.85278 13.8857 7.85278H18.1991C18.4425 7.85278 18.6395 8.04976 18.6395 8.29317C18.6395 8.53658 18.4425 8.73356 18.1991 8.73356Z" fill="#7544F1" stroke="#7544F1" stroke-width="0.4"/>
<path d="M18.1991 10.901H13.8857C13.6423 10.901 13.4453 10.7041 13.4453 10.4607C13.4453 10.2172 13.6423 10.0203 13.8857 10.0203H18.1991C18.4425 10.0203 18.6395 10.2172 18.6395 10.4607C18.6395 10.7041 18.4425 10.901 18.1991 10.901Z" fill="#7544F1" stroke="#7544F1" stroke-width="0.4"/>
<path d="M18.1991 13.0678H13.8857C13.6423 13.0678 13.4453 12.8708 13.4453 12.6274C13.4453 12.384 13.6423 12.187 13.8857 12.187H18.1991C18.4425 12.187 18.6395 12.384 18.6395 12.6274C18.6395 12.8708 18.4425 13.0678 18.1991 13.0678Z" fill="#7544F1" stroke="#7544F1" stroke-width="0.4"/>
<path d="M9.99007 13.5976C9.85716 13.5976 9.72344 13.5656 9.60013 13.5007L7.79855 12.5495L5.99376 13.4943C5.71031 13.6424 5.37401 13.6176 5.11618 13.4295C4.85756 13.2413 4.73105 12.929 4.78629 12.6135L5.1338 10.6062L3.67732 9.18172C3.44912 8.95832 3.36825 8.63083 3.46753 8.32656C3.56682 8.0231 3.82465 7.80611 4.14173 7.76047L6.1579 7.47061L7.0627 5.645C7.20442 5.35915 7.49027 5.1814 7.80976 5.1814H7.81136C8.13084 5.1814 8.41669 5.36075 8.55841 5.64741L9.45681 7.47541L11.4722 7.77168C11.7885 7.81812 12.0463 8.03591 12.144 8.34018C12.2417 8.64444 12.1608 8.97193 11.9318 9.19453L10.4705 10.6142L10.8116 12.6223C10.8652 12.9378 10.7379 13.2493 10.4785 13.4367C10.3328 13.5424 10.1622 13.596 9.99007 13.596V13.5976ZM7.79855 11.6623C7.93226 11.6623 8.06598 11.6943 8.18769 11.7592L9.92682 12.6768L9.59773 10.7383C9.55209 10.4676 9.64177 10.1922 9.83874 10.0008L11.2488 8.63083L9.30307 8.34498C9.03163 8.30494 8.79702 8.13439 8.67612 7.88778L7.80895 6.12303L6.93619 7.88457C6.81448 8.13039 6.57907 8.30014 6.30763 8.33938L4.36112 8.61882L5.76716 9.99363C5.96333 10.1858 6.05221 10.4612 6.00577 10.7319L5.67027 12.6696L7.41181 11.7576C7.53271 11.6943 7.66563 11.6623 7.79855 11.6623Z" fill="#7544F1" stroke="#7544F1" stroke-width="0.4"/>
</svg>
