<svg width="50" height="51" viewBox="0 0 50 51" fill="none" xmlns="http://www.w3.org/2000/svg">
<g clip-path="url(#clip0_184_54)">
<path d="M24.7145 40.5381C24.4381 40.5381 24.173 40.4288 23.977 40.2339L10.5874 26.8443C10.3988 26.6563 10.2894 26.4032 10.2817 26.137C10.2739 25.8708 10.3684 25.6118 10.5458 25.4131L20.5812 14.1714C27.5958 5.96515 39.0187 0.654737 48.9791 0.823487C49.2467 0.829837 49.5016 0.938989 49.6909 1.12829C49.8803 1.31759 49.9894 1.57251 49.9958 1.84015C50.227 11.8068 44.8562 23.2235 36.6291 30.2527L25.4062 40.2735C25.2163 40.4443 24.9699 40.5386 24.7145 40.5381ZM12.7562 26.0672L24.7541 38.0652L35.2603 28.686C42.7728 22.2652 47.7624 12.0318 47.9166 2.90474C38.7895 3.05682 28.5583 8.0464 22.1499 15.5422L12.7562 26.0672Z" fill="#323756"/>
<path d="M28.6998 48.163C28.5987 48.1634 28.4981 48.148 28.4018 48.1172C28.0268 47.9922 27.7185 47.7047 27.6643 47.313L26.2352 37.3401C26.2136 37.0752 26.2938 36.812 26.4596 36.6043C26.6254 36.3965 26.8642 36.2598 27.1273 36.2221C27.3904 36.1844 27.658 36.2484 27.8755 36.4012C28.0929 36.554 28.244 36.784 28.2977 37.0443L29.4143 44.836C33.0651 40.4789 35.0744 34.9807 35.0935 29.2964C35.0935 29.0201 35.2033 28.7552 35.3986 28.5598C35.594 28.3645 35.8589 28.2547 36.1352 28.2547C36.4114 28.2547 36.6764 28.3645 36.8717 28.5598C37.0671 28.7552 37.1768 29.0201 37.1768 29.2964C37.1768 36.1985 34.381 42.9547 29.506 47.8276C29.2977 48.036 28.9935 48.163 28.6998 48.163ZM13.6268 24.5922C13.5773 24.5928 13.5279 24.5893 13.4789 24.5818L3.50601 23.1526C3.31395 23.1251 3.13341 23.0444 2.98472 22.9198C2.83604 22.7951 2.72513 22.6314 2.66448 22.4471C2.60384 22.2628 2.59588 22.0652 2.6415 21.8766C2.68712 21.688 2.7845 21.5159 2.92268 21.3797C7.85845 16.4465 14.5443 13.6645 21.5227 13.6401C21.7989 13.6401 22.0639 13.7499 22.2592 13.9452C22.4546 14.1406 22.5643 14.4055 22.5643 14.6818C22.5643 14.9581 22.4546 15.223 22.2592 15.4184C22.0639 15.6137 21.7989 15.7235 21.5227 15.7235C15.8539 15.7235 10.2914 17.7714 5.97268 21.4006L13.7748 22.5193C14.0357 22.5565 14.2729 22.6912 14.4384 22.8964C14.604 23.1015 14.6856 23.3618 14.6668 23.6247C14.6481 23.8876 14.5303 24.1337 14.3373 24.3132C14.1443 24.4928 13.8904 24.5925 13.6268 24.5922ZM35.6935 20.3297C35.0095 20.331 34.332 20.1972 33.6999 19.9358C33.0678 19.6745 32.4935 19.2908 32.0102 18.8068C31.0357 17.8287 30.4885 16.5042 30.4885 15.1235C30.4885 13.7427 31.0357 12.4183 32.0102 11.4401C32.9878 10.4646 34.3124 9.91675 35.6935 9.91675C37.0746 9.91675 38.3992 10.4646 39.3768 11.4401C40.3513 12.4183 40.8985 13.7427 40.8985 15.1235C40.8985 16.5042 40.3513 17.8287 39.3768 18.8068C38.8936 19.2909 38.3193 19.6746 37.6872 19.936C37.0551 20.1973 36.3775 20.3311 35.6935 20.3297ZM35.6935 12.0006C34.8935 12.0006 34.0914 12.3047 33.4831 12.9131C32.8986 13.5002 32.5705 14.295 32.5705 15.1235C32.5705 15.9519 32.8986 16.7467 33.4831 17.3339C34.0705 17.9178 34.8652 18.2456 35.6935 18.2456C36.5218 18.2456 37.3165 17.9178 37.9039 17.3339C38.4884 16.7467 38.8165 15.9519 38.8165 15.1235C38.8165 14.295 38.4884 13.5002 37.9039 12.9131C37.3169 12.3284 36.522 12.0003 35.6935 12.0006ZM1.04143 50.8172C0.879184 50.8172 0.719191 50.7792 0.574202 50.7064C0.429213 50.6336 0.303236 50.528 0.206311 50.3978C0.109386 50.2677 0.0441935 50.1168 0.0159288 49.957C-0.0123358 49.7973 -0.00289086 49.6331 0.0435109 49.4776C0.385178 48.3381 3.44559 38.2672 5.67476 36.038C6.8832 34.8321 8.52068 34.1549 10.2279 34.1549C11.9351 34.1549 13.5726 34.8321 14.781 36.038C15.9869 37.2465 16.6642 38.884 16.6642 40.5912C16.6642 42.2984 15.9869 43.9359 14.781 45.1443C12.5518 47.3735 2.48101 50.4339 1.34143 50.7755C1.24371 50.8027 1.14283 50.8167 1.04143 50.8172ZM10.2289 36.236C9.11226 36.236 7.99768 36.661 7.14768 37.5089C5.94559 38.713 3.94559 44.0901 2.62476 48.1922C6.72476 46.8714 12.1039 44.8714 13.306 43.6693C14.1214 42.8515 14.5792 41.7439 14.5792 40.5891C14.5792 39.4343 14.1214 38.3266 13.306 37.5089C12.9022 37.1046 12.4225 36.784 11.8944 36.5655C11.3664 36.3471 10.8004 36.2351 10.2289 36.236Z" fill="#323756"/>
</g>
<defs>
<clipPath id="clip0_184_54">
<rect width="50" height="50" fill="white" transform="translate(0 0.817261)"/>
</clipPath>
</defs>
</svg>
