<svg width="22" height="23" viewBox="0 0 22 23" fill="none" xmlns="http://www.w3.org/2000/svg">
<g clip-path="url(#clip0_675_6894)">
<path d="M21.0833 17.9163V16.0829C21.08 13.5688 20.1384 11.1465 18.443 9.29007C16.7475 7.4337 14.4202 6.27697 11.9167 6.04634V4.82901C12.2662 4.62722 12.5393 4.31574 12.6938 3.94288C12.8482 3.57002 12.8753 3.15662 12.7709 2.76679C12.6664 2.37696 12.4362 2.03249 12.1161 1.78681C11.7959 1.54113 11.4036 1.40796 11 1.40796C10.5964 1.40796 10.2041 1.54113 9.88394 1.78681C9.56376 2.03249 9.33359 2.37696 9.22914 2.76679C9.12468 3.15662 9.15178 3.57002 9.30622 3.94288C9.46066 4.31574 9.73382 4.62722 10.0833 4.82901V6.04634C7.57982 6.27697 5.25252 7.4337 3.55704 9.29007C1.86156 11.1465 0.919995 13.5688 0.916667 16.0829V17.9163C0.673552 17.9163 0.440394 18.0128 0.268485 18.1847C0.0965771 18.3566 0 18.5898 0 18.8329C0 19.076 0.0965771 19.3092 0.268485 19.4811C0.440394 19.653 0.673552 19.7496 0.916667 19.7496H21.0833C21.3264 19.7496 21.5596 19.653 21.7315 19.4811C21.9034 19.3092 22 19.076 22 18.8329C22 18.5898 21.9034 18.3566 21.7315 18.1847C21.5596 18.0128 21.3264 17.9163 21.0833 17.9163ZM2.75 16.0829C3.18358 5.14342 18.8201 5.15167 19.25 16.0829V17.9163H2.75V16.0829Z" fill="#708090"/>
</g>
<defs>
<clipPath id="clip0_675_6894">
<rect width="22" height="22" fill="white" transform="translate(0 0.5)"/>
</clipPath>
</defs>
</svg>
