<svg width="23" height="23" viewBox="0 0 23 23" fill="none" xmlns="http://www.w3.org/2000/svg">
<g clip-path="url(#clip0_243_6377)">
<path d="M22.3262 2.69531H18.8443C18.5313 1.15934 17.17 0 15.543 0C13.9159 0 12.5547 1.15934 12.2416 2.69531H0.673828C0.301695 2.69531 0 2.99701 0 3.36914C0 3.74127 0.301695 4.04297 0.673828 4.04297H12.2416C12.5546 5.57894 13.9159 6.73828 15.543 6.73828C17.17 6.73828 18.5313 5.57894 18.8443 4.04297H22.3262C22.6983 4.04297 23 3.74127 23 3.36914C23 2.99701 22.6983 2.69531 22.3262 2.69531ZM15.543 5.39062C14.4285 5.39062 13.5218 4.4841 13.5215 3.36972C13.5215 3.36954 13.5215 3.36937 13.5215 3.36914C13.5215 3.36892 13.5215 3.36874 13.5215 3.36856C13.5218 2.25418 14.4285 1.34766 15.543 1.34766C16.6576 1.34766 17.5645 2.25449 17.5645 3.36914C17.5645 4.48379 16.6576 5.39062 15.543 5.39062Z" fill="#F2BE22"/>
<path d="M22.3262 10.8262H10.7584C10.4454 9.2902 9.0841 8.13086 7.45703 8.13086C5.82996 8.13086 4.46874 9.2902 4.15568 10.8262H0.673828C0.301695 10.8262 0 11.1279 0 11.5C0 11.8721 0.301695 12.1738 0.673828 12.1738H4.15568C4.46869 13.7098 5.82996 14.8691 7.45703 14.8691C9.0841 14.8691 10.4453 13.7098 10.7584 12.1738H22.3262C22.6983 12.1738 23 11.8721 23 11.5C23 11.1279 22.6983 10.8262 22.3262 10.8262ZM7.45703 13.5215C6.34256 13.5215 5.43586 12.615 5.43555 11.5006C5.43555 11.5004 5.43559 11.5002 5.43559 11.5C5.43559 11.4998 5.43555 11.4996 5.43555 11.4994C5.43586 10.385 6.34256 9.47852 7.45703 9.47852C8.57168 9.47852 9.47852 10.3854 9.47852 11.5C9.47852 12.6146 8.57168 13.5215 7.45703 13.5215Z" fill="#F2BE22"/>
<path d="M22.3262 18.957H18.8443C18.5313 17.4211 17.17 16.2617 15.543 16.2617C13.9159 16.2617 12.5547 17.4211 12.2416 18.957H0.673828C0.301695 18.957 0 19.2587 0 19.6309C0 20.003 0.301695 20.3047 0.673828 20.3047H12.2416C12.5546 21.8407 13.9159 23 15.543 23C17.17 23 18.5313 21.8407 18.8443 20.3047H22.3262C22.6983 20.3047 23 20.003 23 19.6309C23 19.2587 22.6983 18.957 22.3262 18.957ZM15.543 21.6523C14.4285 21.6523 13.5218 20.7458 13.5215 19.6314C13.5215 19.6313 13.5215 19.6311 13.5215 19.6309C13.5215 19.6306 13.5215 19.6305 13.5215 19.6303C13.5218 18.5159 14.4285 17.6094 15.543 17.6094C16.6576 17.6094 17.5645 18.5162 17.5645 19.6309C17.5645 20.7455 16.6576 21.6523 15.543 21.6523Z" fill="#F2BE22"/>
</g>
<defs>
<clipPath id="clip0_243_6377">
<rect width="23" height="23" fill="white"/>
</clipPath>
</defs>
</svg>
