<svg width="23" height="23" viewBox="0 0 23 23" fill="none" xmlns="http://www.w3.org/2000/svg">
<g clip-path="url(#clip0_243_6347)">
<path d="M17.4975 1.6162C17.3524 1.47194 17.1347 1.429 16.9458 1.50756C16.7568 1.58612 16.6335 1.77076 16.6335 1.97538V4.67862C13.8972 4.78747 12.527 5.9218 12.3176 6.11039C10.9371 7.24334 9.99451 8.82214 9.65215 10.5747C9.48097 11.4215 9.4503 12.2906 9.56171 13.1473L9.56211 13.1503C9.5631 13.1578 9.56428 13.1655 9.56547 13.1731L9.67313 13.7919C9.70934 14.0003 9.87142 14.1643 10.0794 14.2031C10.2876 14.2419 10.4978 14.1471 10.6066 13.9656L10.9292 13.4279C11.9202 11.7801 13.1553 10.6877 14.6005 10.1813C15.2524 9.95073 15.943 9.84961 16.6335 9.88325V12.6831C16.6335 12.8881 16.7572 13.0731 16.9467 13.1513C17.1365 13.2296 17.3546 13.1857 17.4993 13.0403L22.8529 7.65951C23.0502 7.46122 23.0494 7.14043 22.8511 6.94313L17.4975 1.6162ZM17.6469 11.4553V9.4275C17.6469 9.17895 17.4664 8.967 17.2208 8.92742C16.7874 8.85756 15.6315 8.74655 14.2655 9.22525C12.8082 9.73582 11.5474 10.7405 10.509 12.2168C10.5061 11.7318 10.552 11.2475 10.6462 10.7716C10.9541 9.21476 11.7362 7.90708 12.9704 6.88535C12.9813 6.87644 12.9916 6.86714 13.0017 6.85724C13.0371 6.82439 14.3238 5.66275 17.1361 5.68373H17.1399C17.4197 5.68373 17.6467 5.45674 17.6469 5.17692V3.19422L21.7775 7.30409L17.6469 11.4553Z" fill="#F2BE22"/>
<path d="M21.1435 16.3867C20.8638 16.3867 20.6368 16.6134 20.6368 16.8933V19.0343C20.6361 19.8734 19.9561 20.5531 19.117 20.5541H2.53305C1.69398 20.5531 1.01421 19.8734 1.01322 19.0343V6.96469C1.01421 6.12562 1.69398 5.44585 2.53305 5.44486H6.03678C6.3166 5.44486 6.54339 5.21807 6.54339 4.93825C6.54339 4.65843 6.3166 4.43164 6.03678 4.43164H2.53305C1.13473 4.43322 0.00158316 5.56637 0 6.96469V19.0343C0.00158316 20.4326 1.13473 21.5658 2.53305 21.5673H19.117C20.5153 21.5658 21.6485 20.4326 21.6501 19.0343V16.8933C21.6501 16.6134 21.4233 16.3867 21.1435 16.3867Z" fill="#F2BE22"/>
</g>
<defs>
<clipPath id="clip0_243_6347">
<rect width="23" height="23" fill="white"/>
</clipPath>
</defs>
</svg>
