<svg width="22" height="23" viewBox="0 0 22 23" fill="none" xmlns="http://www.w3.org/2000/svg">
<g clip-path="url(#clip0_928_886)">
<path d="M21.1986 9.54565L19.2269 7.57115V5.99632C19.2264 5.26897 18.9375 4.5715 18.4235 4.05685C17.9095 3.54219 17.2125 3.25236 16.4851 3.2509H14.9121L12.9404 1.27732C11.9036 0.240568 10.0978 0.240568 9.06195 1.27732L7.0902 3.2509H5.5172C4.78978 3.25212 4.09256 3.54187 3.57854 4.05658C3.06451 4.57129 2.77569 5.2689 2.77545 5.99632V7.57115L0.802784 9.54565C0.289867 10.0614 0.00195313 10.7593 0.00195312 11.4867C0.00195313 12.2141 0.289867 12.9119 0.802784 13.4277L2.77453 15.4022V16.9771C2.77502 17.7044 3.06392 18.4019 3.57789 18.9165C4.09185 19.4312 4.78894 19.721 5.51628 19.7225H7.08928L9.06103 21.6961C9.57895 22.214 10.2683 22.5 11.0007 22.5C11.7331 22.5 12.4215 22.214 12.9394 21.6961L14.9112 19.7225H16.4842C17.2116 19.7213 17.9088 19.4315 18.4229 18.9168C18.9369 18.4021 19.2257 17.7045 19.226 16.9771V15.4022L21.1986 13.4277C21.7115 12.9119 21.9994 12.2141 21.9994 11.4867C21.9994 10.7593 21.7115 10.0614 21.1986 9.54565ZM16.6868 9.86007L12.0539 14.4388C11.4911 14.998 10.7495 15.2785 10.0089 15.2785C9.2682 15.2785 8.53028 14.9989 7.96562 14.4416L5.5832 12.1508C5.49767 12.0661 5.42967 11.9653 5.38308 11.8543C5.3365 11.7433 5.31223 11.6241 5.31168 11.5037C5.31113 11.3833 5.3343 11.264 5.37986 11.1526C5.42543 11.0411 5.4925 10.9397 5.57724 10.8542C5.66199 10.7687 5.76275 10.7007 5.87378 10.6541C5.9848 10.6075 6.10392 10.5832 6.22432 10.5827C6.34472 10.5821 6.46406 10.6053 6.57551 10.6509C6.68695 10.6964 6.78834 10.7635 6.87387 10.8482L9.25537 13.1381C9.45609 13.3362 9.7268 13.4474 10.0089 13.4474C10.2909 13.4474 10.5616 13.3362 10.7624 13.1381L15.3961 8.5584C15.5688 8.38725 15.8025 8.29172 16.0457 8.29284C16.2888 8.29396 16.5216 8.39163 16.6927 8.56436C16.8639 8.73709 16.9594 8.97074 16.9583 9.21391C16.9572 9.45707 16.8595 9.68891 16.6868 9.86007Z" fill="#969696"/>
</g>
<defs>
<clipPath id="clip0_928_886">
<rect width="22" height="22" fill="white" transform="translate(0 0.5)"/>
</clipPath>
</defs>
</svg>
