<svg width="14" height="14" viewBox="0 0 14 14" fill="none" xmlns="http://www.w3.org/2000/svg">
<path d="M13.9635 5.29038C13.9187 5.14561 13.8341 5.0178 13.7202 4.92286C13.6063 4.82793 13.4681 4.77007 13.3229 4.75652L9.28214 4.37362L7.68432 0.471063C7.56647 0.18507 7.29817 0 7.00006 0C6.70195 0 6.43362 0.185098 6.31582 0.471777L4.71797 4.37365L0.676549 4.75652C0.531519 4.77038 0.393577 4.82835 0.279825 4.92325C0.166074 5.01815 0.0815157 5.14581 0.0366352 5.29038C-0.0555428 5.58622 0.0295803 5.91068 0.254215 6.11521L3.30859 8.91037L2.40792 13.0503C2.34202 13.3547 2.45522 13.6694 2.69727 13.852C2.82735 13.9501 2.97958 14 3.13306 14C3.26541 14 3.39666 13.9628 3.51452 13.8892L7.00006 11.7154L10.4843 13.8892C10.7393 14.0493 11.0607 14.0346 11.3022 13.852C11.4204 13.7627 11.5109 13.6391 11.5624 13.4965C11.6138 13.354 11.624 13.1988 11.5916 13.0503L10.6909 8.91037L13.7453 6.11578C13.8551 6.01564 13.9344 5.88403 13.9732 5.73728C14.012 5.59054 14.0086 5.43514 13.9635 5.29038Z" fill="#FFCD07"/>
</svg>
