<svg width="32" height="32" viewBox="0 0 32 32" fill="none" xmlns="http://www.w3.org/2000/svg">
<path d="M16.5023 23.6802L13.8023 31.0068C13.7224 31.2221 13.5785 31.4077 13.3899 31.5389C13.2014 31.67 12.9772 31.7403 12.7476 31.7403C12.5179 31.7403 12.2938 31.67 12.1052 31.5389C11.9167 31.4077 11.7728 31.2221 11.6929 31.0068L8.99289 23.6802C8.93591 23.5256 8.84605 23.3851 8.72951 23.2686C8.61298 23.152 8.47254 23.0622 8.31789 23.0052L0.991329 20.3052C0.77603 20.2253 0.590345 20.0814 0.459221 19.8929C0.328096 19.7043 0.257812 19.4802 0.257812 19.2505C0.257812 19.0209 0.328096 18.7967 0.459221 18.6082C0.590345 18.4196 0.77603 18.2757 0.991329 18.1958L8.31789 15.4958C8.47254 15.4388 8.61298 15.349 8.72951 15.2324C8.84605 15.1159 8.93591 14.9755 8.99289 14.8208L11.6929 7.49426C11.7728 7.27896 11.9167 7.09328 12.1052 6.96215C12.2938 6.83103 12.5179 6.76074 12.7476 6.76074C12.9772 6.76074 13.2014 6.83103 13.3899 6.96215C13.5785 7.09328 13.7224 7.27896 13.8023 7.49426L16.5023 14.8208C16.5592 14.9755 16.6491 15.1159 16.7656 15.2324C16.8822 15.349 17.0226 15.4388 17.1773 15.4958L24.5038 18.1958C24.7191 18.2757 24.9048 18.4196 25.0359 18.6082C25.1671 18.7967 25.2373 19.0209 25.2373 19.2505C25.2373 19.4802 25.1671 19.7043 25.0359 19.8929C24.9048 20.0814 24.7191 20.2253 24.5038 20.3052L17.1773 23.0052C17.0226 23.0622 16.8822 23.152 16.7656 23.2686C16.6491 23.3851 16.5592 23.5256 16.5023 23.6802Z" fill="#7544F1"/>
<path d="M21.75 1.25V8" stroke="#7544F1" stroke-width="2.25" stroke-linecap="round" stroke-linejoin="round"/>
<path d="M25.125 4.625H18.375" stroke="#7544F1" stroke-width="2.25" stroke-linecap="round" stroke-linejoin="round"/>
<path d="M28.5 9.125V13.625" stroke="#7544F1" stroke-width="2.25" stroke-linecap="round" stroke-linejoin="round"/>
<path d="M30.75 11.375H26.25" stroke="#7544F1" stroke-width="2.25" stroke-linecap="round" stroke-linejoin="round"/>
</svg>
