<svg width="22" height="22" viewBox="0 0 22 22" fill="none" xmlns="http://www.w3.org/2000/svg">
<path d="M18.8233 6.11108H3.17827C2.09821 6.11108 1.22266 6.98664 1.22266 8.0667V17.8448C1.22266 18.9248 2.09821 19.8005 3.17827 19.8005H18.8233C19.9033 19.8005 20.779 18.9248 20.779 17.8448V8.0667C20.779 6.98664 19.9033 6.11108 18.8233 6.11108Z" stroke="#7544F1" stroke-width="1.41176" stroke-linecap="round" stroke-linejoin="round"/>
<path d="M14.9124 19.8006V4.15558C14.9124 3.63691 14.7063 3.13949 14.3395 2.77274C13.9727 2.406 13.4754 2.19995 12.9567 2.19995H9.04546C8.5268 2.19995 8.02939 2.406 7.66263 2.77274C7.29588 3.13949 7.08984 3.63691 7.08984 4.15558V19.8006" stroke="#7544F1" stroke-width="1.41176" stroke-linecap="round" stroke-linejoin="round"/>
</svg>
