<svg width="22" height="23" viewBox="0 0 22 23" fill="none" xmlns="http://www.w3.org/2000/svg">
<path d="M11 0.5C8.82441 0.5 6.69767 1.14514 4.88873 2.35383C3.07979 3.56253 1.66989 5.2805 0.83733 7.29048C0.00476615 9.30047 -0.213071 11.5122 0.211367 13.646C0.635804 15.7798 1.68345 17.7398 3.22183 19.2782C4.76021 20.8166 6.72022 21.8642 8.85401 22.2886C10.9878 22.7131 13.1995 22.4952 15.2095 21.6627C17.2195 20.8301 18.9375 19.4202 20.1462 17.6113C21.3549 15.8023 22 13.6756 22 11.5C21.9969 8.58359 20.8369 5.78753 18.7747 3.72531C16.7125 1.66309 13.9164 0.503154 11 0.5ZM11 20.6667C9.18701 20.6667 7.41473 20.1291 5.90728 19.1218C4.39983 18.1146 3.22491 16.6829 2.53111 15.0079C1.83731 13.3329 1.65578 11.4898 2.00947 9.71167C2.36317 7.93351 3.23621 6.30017 4.51819 5.01819C5.80017 3.73621 7.43352 2.86317 9.21168 2.50947C10.9898 2.15577 12.8329 2.3373 14.5079 3.0311C16.1829 3.72491 17.6146 4.89982 18.6218 6.40727C19.6291 7.91472 20.1667 9.68701 20.1667 11.5C20.164 13.9303 19.1974 16.2604 17.4789 17.9789C15.7604 19.6974 13.4303 20.664 11 20.6667Z" fill="#708090"/>
<path d="M11.6599 5.14105C11.1312 5.04474 10.5879 5.06578 10.0683 5.20269C9.54875 5.3396 9.0656 5.58903 8.65309 5.93333C8.24058 6.27763 7.90877 6.70839 7.68116 7.19512C7.45355 7.68185 7.3357 8.21265 7.33594 8.74997C7.33594 8.99308 7.43252 9.22624 7.60442 9.39815C7.77633 9.57006 8.00949 9.66664 8.2526 9.66664C8.49572 9.66664 8.72888 9.57006 8.90079 9.39815C9.07269 9.22624 9.16927 8.99308 9.16927 8.74997C9.16904 8.48026 9.22832 8.21383 9.34288 7.96966C9.45744 7.7255 9.62446 7.50962 9.83204 7.33741C10.0396 7.16521 10.2826 7.04092 10.5437 6.97342C10.8049 6.90591 11.0777 6.89685 11.3427 6.94689C11.7048 7.01718 12.0378 7.19382 12.299 7.45425C12.5602 7.71468 12.7379 8.04707 12.8094 8.40897C12.8815 8.78884 12.8317 9.18179 12.667 9.53164C12.5024 9.8815 12.2314 10.1703 11.8927 10.3569C11.3318 10.6818 10.8684 11.1512 10.5506 11.7161C10.2328 12.281 10.0724 12.9209 10.0859 13.5689V14.25C10.0859 14.4931 10.1825 14.7262 10.3544 14.8981C10.5263 15.0701 10.7595 15.1666 11.0026 15.1666C11.2457 15.1666 11.4789 15.0701 11.6508 14.8981C11.8227 14.7262 11.9193 14.4931 11.9193 14.25V13.5689C11.9078 13.2499 11.9805 12.9335 12.1302 12.6516C12.2798 12.3696 12.5011 12.1321 12.7718 11.9629C13.4359 11.5981 13.9707 11.0366 14.3027 10.3554C14.6346 9.67429 14.7474 8.90705 14.6255 8.1592C14.5036 7.41135 14.153 6.71964 13.622 6.17917C13.0909 5.63871 12.4054 5.27604 11.6599 5.14105Z" fill="#708090"/>
<path d="M11.9193 17C11.9193 16.4938 11.5089 16.0834 11.0026 16.0834C10.4963 16.0834 10.0859 16.4938 10.0859 17C10.0859 17.5063 10.4963 17.9167 11.0026 17.9167C11.5089 17.9167 11.9193 17.5063 11.9193 17Z" fill="#708090"/>
</svg>
