<svg width="13" height="12" viewBox="0 0 13 12" fill="none" xmlns="http://www.w3.org/2000/svg">
<path d="M11.4941 4.17289L11.67 3.99696L11.6752 4.00224C11.7057 4.03276 11.7419 4.05697 11.7818 4.07349C11.8216 4.09001 11.8643 4.09851 11.9074 4.09851C11.9506 4.09851 11.9933 4.09001 12.0331 4.07349C12.073 4.05697 12.1092 4.03276 12.1397 4.00224L12.4115 3.73036C12.4421 3.69987 12.4663 3.66366 12.4828 3.62381C12.4993 3.58396 12.5078 3.54124 12.5078 3.4981C12.5078 3.45496 12.4993 3.41224 12.4828 3.37239C12.4663 3.33254 12.4421 3.29633 12.4115 3.26584L11.6987 2.55289C11.6361 2.49319 11.553 2.45988 11.4665 2.45988C11.38 2.45988 11.2968 2.49319 11.2343 2.55289L10.9624 2.82477C10.9319 2.85526 10.9077 2.89147 10.8911 2.93132C10.8746 2.97118 10.8661 3.01389 10.8661 3.05703C10.8661 3.10017 10.8746 3.14289 10.8911 3.18274C10.9077 3.2226 10.9319 3.2588 10.9624 3.28929L10.9675 3.29445L10.7817 3.48024C10.1467 2.98158 9.3903 2.6611 8.59031 2.55175V2.01117H8.94215C9.04717 2.01107 9.14785 1.9693 9.22211 1.89504C9.29637 1.82078 9.33814 1.7201 9.33824 1.61508V1.16708C9.33814 1.06206 9.29637 0.961378 9.22211 0.887119C9.14785 0.81286 9.04717 0.771095 8.94215 0.770988H6.99819C6.89318 0.771097 6.79249 0.812862 6.71823 0.88712C6.64398 0.961377 6.60221 1.06206 6.6021 1.16708V1.61507C6.60221 1.72009 6.64398 1.82078 6.71823 1.89504C6.79249 1.9693 6.89318 2.01106 6.9982 2.01117H7.35023V2.55204C7.10852 2.58425 6.86979 2.63586 6.63636 2.70639C6.58337 2.72256 6.53898 2.75912 6.51295 2.80802C6.48692 2.85693 6.48139 2.91417 6.49756 2.96715C6.51374 3.02014 6.5503 3.06453 6.5992 3.09056C6.6481 3.11659 6.70534 3.12212 6.75833 3.10595C7.46101 2.89141 8.20805 2.86721 8.92315 3.03584C9.63824 3.20446 10.2958 3.55986 10.8286 4.06574C11.3614 4.57163 11.7504 5.20986 11.9558 5.91526C12.1612 6.62066 12.1758 7.36794 11.9979 8.0808C11.8201 8.79365 11.4562 9.44653 10.9435 9.97275C10.4307 10.499 9.78753 10.8797 9.07953 11.076C8.37154 11.2723 7.62413 11.2772 6.91363 11.0901C6.20313 10.903 5.55502 10.5308 5.03547 10.0113C5.01611 9.99172 4.99309 9.97618 4.96771 9.96556C4.94233 9.95493 4.9151 9.94943 4.88759 9.94936C4.86007 9.94929 4.83282 9.95465 4.80739 9.96515C4.78195 9.97565 4.75885 9.99107 4.73939 10.0105C4.71994 10.03 4.70452 10.0531 4.69402 10.0785C4.68352 10.1039 4.67815 10.1312 4.67822 10.1587C4.67829 10.1862 4.6838 10.2135 4.69442 10.2388C4.70505 10.2642 4.72058 10.2872 4.74013 10.3066C5.56956 11.137 6.68685 11.6162 7.86018 11.6448C9.03351 11.6733 10.1728 11.2491 11.0416 10.46C11.9105 9.67095 12.4422 8.57767 12.5264 7.40702C12.6107 6.23637 12.241 5.07823 11.4941 4.17289ZM11.4664 2.91136L12.0532 3.49805L11.9075 3.64378L11.3207 3.05709L11.4664 2.91136ZM11.2628 3.58984L11.3746 3.70161L11.2132 3.86309C11.1761 3.82565 11.1378 3.78941 11.0994 3.75326L11.2628 3.58984ZM7.01982 1.59346V1.1887H8.92054V1.59346H7.01982ZM7.76794 2.51595V2.01117H8.1726V2.51367C8.10546 2.51073 8.03813 2.50853 7.97027 2.50853C7.90257 2.50853 7.83534 2.51301 7.76794 2.51595Z" fill="#4A8C67"/>
<path d="M10.6835 9.7733C11.3973 9.05724 11.7981 8.0874 11.798 7.07633C11.798 6.06527 11.3971 5.09546 10.6832 4.37947C10.6806 4.37652 10.6797 4.37271 10.6769 4.36988C10.674 4.36705 10.6702 4.36615 10.6672 4.36351C9.95152 3.64917 8.98148 3.2482 7.97028 3.2487C7.74047 3.24866 7.51112 3.26918 7.28496 3.30999C7.25798 3.31487 7.23222 3.32501 7.20915 3.33984C7.18608 3.35467 7.16617 3.3739 7.15053 3.39643C7.1349 3.41896 7.12385 3.44435 7.11803 3.47114C7.11221 3.49794 7.11172 3.52562 7.11659 3.55261C7.12147 3.57959 7.13161 3.60535 7.14644 3.62842C7.16127 3.65149 7.1805 3.6714 7.20303 3.68704C7.22556 3.70267 7.25095 3.71372 7.27774 3.71954C7.30454 3.72536 7.33222 3.72585 7.35921 3.72098C7.49227 3.69798 7.62657 3.68287 7.76142 3.67572V4.00244C7.76142 4.05784 7.78342 4.11096 7.82259 4.15013C7.86176 4.1893 7.91488 4.2113 7.97028 4.2113C8.02567 4.2113 8.07879 4.1893 8.11796 4.15013C8.15713 4.11096 8.17913 4.05784 8.17913 4.00244V3.677C8.9371 3.72278 9.65777 4.02164 10.2257 4.52571L9.99624 4.75516C9.97669 4.77452 9.96115 4.79755 9.95053 4.82293C9.9399 4.84831 9.9344 4.87553 9.93433 4.90305C9.93426 4.93056 9.93962 4.95782 9.95012 4.98325C9.96062 5.00868 9.97603 5.03179 9.99549 5.05124C10.0149 5.0707 10.038 5.08612 10.0635 5.09661C10.0889 5.10711 10.1162 5.11248 10.1437 5.11241C10.1712 5.11234 10.1984 5.10684 10.2238 5.09622C10.2492 5.08559 10.2722 5.07006 10.2916 5.0505L10.521 4.82105C11.0251 5.389 11.324 6.1097 11.3697 6.8677H11.0444C10.989 6.8677 10.9359 6.88971 10.8967 6.92887C10.8575 6.96804 10.8355 7.02117 10.8355 7.07656C10.8355 7.13195 10.8575 7.18507 10.8967 7.22424C10.9359 7.26341 10.989 7.28542 11.0444 7.28542H11.3697C11.324 8.0434 11.0251 8.76409 10.521 9.33202L10.2916 9.1025C10.2523 9.06371 10.1993 9.04202 10.1441 9.04218C10.089 9.04234 10.0361 9.06433 9.99708 9.10335C9.95806 9.14237 9.93607 9.19525 9.93591 9.25043C9.93576 9.3056 9.95745 9.3586 9.99624 9.39784L10.2257 9.62735C9.65776 10.1314 8.9371 10.4302 8.17915 10.476V10.1506C8.17915 10.0952 8.15714 10.042 8.11797 10.0029C8.07881 9.96371 8.02568 9.94171 7.97029 9.94171C7.9149 9.94171 7.86177 9.96371 7.82261 10.0029C7.78344 10.042 7.76143 10.0952 7.76143 10.1506V10.478C7.06635 10.4387 6.4005 10.1851 5.85541 9.75202C5.8339 9.73502 5.80925 9.72241 5.78287 9.71493C5.75649 9.70745 5.7289 9.70523 5.70166 9.70841C5.67443 9.7116 5.64809 9.72011 5.62414 9.73347C5.6002 9.74683 5.57912 9.76478 5.56211 9.78629C5.5451 9.8078 5.5325 9.83245 5.52501 9.85883C5.51753 9.8852 5.51532 9.9128 5.5185 9.94003C5.52168 9.96727 5.5302 9.99361 5.54356 10.0176C5.55692 10.0415 5.57487 10.0626 5.59638 10.0796C6.33053 10.6603 7.25218 10.9515 8.18669 10.8981C9.1212 10.8447 10.0037 10.4504 10.6669 9.78985C10.67 9.78712 10.6739 9.78617 10.6769 9.78323C10.6798 9.78028 10.6807 9.77636 10.6835 9.7733Z" fill="#4A8C67"/>
<path d="M9.75317 5.29413C9.73378 5.27473 9.71076 5.25934 9.68543 5.24884C9.66009 5.23834 9.63293 5.23294 9.6055 5.23294C9.57808 5.23294 9.55092 5.23834 9.52558 5.24884C9.50024 5.25934 9.47722 5.27473 9.45784 5.29413L8.28713 6.46483C8.18971 6.41291 8.08115 6.38538 7.97075 6.38461C7.83391 6.3846 7.70014 6.42517 7.58635 6.50119C7.47256 6.5772 7.38387 6.68526 7.3315 6.81168C7.27912 6.9381 7.26541 7.07722 7.29209 7.21143C7.31878 7.34565 7.38467 7.46893 7.48142 7.5657C7.57818 7.66247 7.70145 7.72838 7.83567 7.75509C7.96988 7.78179 8.109 7.7681 8.23543 7.71574C8.36186 7.66339 8.46992 7.57471 8.54596 7.46094C8.62199 7.34716 8.66258 7.2134 8.66259 7.07655C8.66182 6.96618 8.63432 6.85763 8.58243 6.76021L9.75317 5.58947C9.77257 5.57008 9.78796 5.54706 9.79846 5.52172C9.80896 5.49638 9.81436 5.46923 9.81436 5.4418C9.81436 5.41437 9.80896 5.38721 9.79846 5.36188C9.78796 5.33654 9.77257 5.31352 9.75317 5.29413ZM7.97075 7.35068C7.92565 7.35071 7.88123 7.33962 7.84144 7.31839C7.80165 7.29716 7.76771 7.26643 7.74263 7.22895C7.71755 7.19146 7.70211 7.14836 7.69767 7.10348C7.69324 7.0586 7.69994 7.01331 7.71719 6.97164C7.73444 6.92996 7.7617 6.89319 7.79657 6.86457C7.83143 6.83596 7.87281 6.81638 7.91705 6.80759C7.96129 6.79879 8.00701 6.80104 8.05017 6.81415C8.09332 6.82725 8.13258 6.85079 8.16446 6.8827C8.20282 6.92102 8.22902 6.96997 8.2396 7.02314C8.25019 7.07631 8.24477 7.13143 8.22402 7.18152C8.20328 7.2316 8.16814 7.27441 8.12305 7.30452C8.07797 7.33464 8.02497 7.3507 7.97075 7.35068Z" fill="#4A8C67"/>
<path d="M5.57458 3.66642H4.25598C4.20058 3.66642 4.14746 3.64441 4.10829 3.60524C4.06912 3.56608 4.04712 3.51295 4.04712 3.45756C4.04712 3.40217 4.06912 3.34904 4.10829 3.30988C4.14746 3.27071 4.20058 3.2487 4.25598 3.2487H5.57458C5.62997 3.2487 5.6831 3.27071 5.72227 3.30988C5.76143 3.34904 5.78344 3.40217 5.78344 3.45756C5.78344 3.51295 5.76143 3.56608 5.72227 3.60524C5.6831 3.64441 5.62997 3.66642 5.57458 3.66642Z" fill="#4A8C67"/>
<path d="M3.58117 3.66642H3.15856C3.10317 3.66642 3.05005 3.64441 3.01088 3.60524C2.97171 3.56608 2.94971 3.51295 2.94971 3.45756C2.94971 3.40217 2.97171 3.34904 3.01088 3.30988C3.05005 3.27071 3.10317 3.2487 3.15856 3.2487H3.58117C3.63656 3.2487 3.68968 3.27071 3.72885 3.30988C3.76802 3.34904 3.79002 3.40217 3.79002 3.45756C3.79002 3.51295 3.76802 3.56608 3.72885 3.60524C3.68968 3.64441 3.63656 3.66642 3.58117 3.66642Z" fill="#4A8C67"/>
<path d="M6.21887 5.0415H2.72643C2.67104 5.0415 2.61792 5.0195 2.57875 4.98033C2.53958 4.94116 2.51758 4.88804 2.51758 4.83264C2.51758 4.77725 2.53958 4.72413 2.57875 4.68496C2.61792 4.64579 2.67104 4.62379 2.72643 4.62379H6.21887C6.27426 4.62379 6.32738 4.64579 6.36655 4.68496C6.40572 4.72413 6.42773 4.77725 6.42773 4.83264C6.42773 4.88804 6.40572 4.94116 6.36655 4.98033C6.32738 5.0195 6.27426 5.0415 6.21887 5.0415Z" fill="#4A8C67"/>
<path d="M4.7158 6.4166H1.06652C1.01113 6.4166 0.958007 6.3946 0.918839 6.35543C0.87967 6.31626 0.857666 6.26314 0.857666 6.20774C0.857666 6.15235 0.87967 6.09923 0.918839 6.06006C0.958007 6.02089 1.01113 5.99889 1.06652 5.99889H4.7158C4.7712 5.99889 4.82432 6.02089 4.86349 6.06006C4.90266 6.09923 4.92466 6.15235 4.92466 6.20774C4.92466 6.26314 4.90266 6.31626 4.86349 6.35543C4.82432 6.3946 4.7712 6.4166 4.7158 6.4166Z" fill="#4A8C67"/>
<path d="M5.79683 6.4166H5.40441C5.34902 6.4166 5.2959 6.3946 5.25673 6.35543C5.21756 6.31626 5.19556 6.26314 5.19556 6.20774C5.19556 6.15235 5.21756 6.09923 5.25673 6.06006C5.2959 6.02089 5.34902 5.99889 5.40441 5.99889H5.79683C5.85223 5.99889 5.90535 6.02089 5.94452 6.06006C5.98369 6.09923 6.00569 6.15235 6.00569 6.20774C6.00569 6.26314 5.98369 6.31626 5.94452 6.35543C5.90535 6.3946 5.85223 6.4166 5.79683 6.4166Z" fill="#4A8C67"/>
<path d="M6.60284 7.79175H3.50793C3.45254 7.79175 3.39941 7.76975 3.36025 7.73058C3.32108 7.69141 3.29907 7.63829 3.29907 7.5829C3.29907 7.5275 3.32108 7.47438 3.36025 7.43521C3.39941 7.39604 3.45254 7.37404 3.50793 7.37404H6.60284C6.65824 7.37404 6.71136 7.39604 6.75053 7.43521C6.7897 7.47438 6.8117 7.5275 6.8117 7.5829C6.8117 7.63829 6.7897 7.69141 6.75053 7.73058C6.71136 7.76975 6.65824 7.79175 6.60284 7.79175Z" fill="#4A8C67"/>
<path d="M2.62597 9.16684H2.25353C2.19814 9.16684 2.14502 9.14484 2.10585 9.10567C2.06668 9.0665 2.04468 9.01338 2.04468 8.95799C2.04468 8.90259 2.06668 8.84947 2.10585 8.8103C2.14502 8.77113 2.19814 8.74913 2.25353 8.74913H2.62597C2.68136 8.74913 2.73449 8.77113 2.77365 8.8103C2.81282 8.84947 2.83483 8.90259 2.83483 8.95799C2.83483 9.01338 2.81282 9.0665 2.77365 9.10567C2.73449 9.14484 2.68136 9.16684 2.62597 9.16684Z" fill="#4A8C67"/>
<path d="M5.79602 9.16684H3.29016C3.23476 9.16684 3.18164 9.14484 3.14247 9.10567C3.1033 9.0665 3.0813 9.01338 3.0813 8.95799C3.0813 8.90259 3.1033 8.84947 3.14247 8.8103C3.18164 8.77113 3.23476 8.74913 3.29016 8.74913H5.79602C5.85141 8.74913 5.90453 8.77113 5.9437 8.8103C5.98287 8.84947 6.00488 8.90259 6.00488 8.95799C6.00488 9.01338 5.98287 9.0665 5.9437 9.10567C5.90453 9.14484 5.85141 9.16684 5.79602 9.16684Z" fill="#4A8C67"/>
</svg>
