<svg width="20" height="20" viewBox="0 0 20 20" fill="none" xmlns="http://www.w3.org/2000/svg">
<g clip-path="url(#clip0_388_7566)">
<path d="M1.09375 3.85541H10.1338C10.4062 5.09437 11.5137 6.0245 12.8345 6.0245C14.1553 6.0245 15.2628 5.0944 15.5353 3.85541H18.9062C19.2341 3.85541 19.5 3.58981 19.5 3.26223C19.5 2.93465 19.2341 2.66906 18.9062 2.66906H15.535C15.262 1.43073 14.153 0.5 12.8345 0.5C11.5154 0.5 10.4069 1.43058 10.134 2.66906H1.09375C0.765852 2.66906 0.5 2.93465 0.5 3.26223C0.5 3.58981 0.765852 3.85541 1.09375 3.85541ZM11.2572 3.26379L11.2572 3.25741C11.2598 2.39112 11.9674 1.68639 12.8345 1.68639C13.7005 1.68639 14.4081 2.39015 14.4118 3.25604L14.4119 3.26475C14.4106 4.13253 13.7035 4.83819 12.8345 4.83819C11.9659 4.83819 11.2591 4.13324 11.2571 3.26598L11.2572 3.26379ZM18.9062 16.1446H15.535C15.262 14.9063 14.153 13.9755 12.8345 13.9755C11.5154 13.9755 10.4069 14.9061 10.134 16.1446H1.09375C0.765852 16.1446 0.5 16.4101 0.5 16.7377C0.5 17.0653 0.765852 17.3309 1.09375 17.3309H10.1338C10.4062 18.5699 11.5137 19.5 12.8345 19.5C14.1553 19.5 15.2628 18.5699 15.5353 17.3309H18.9062C19.2341 17.3309 19.5 17.0653 19.5 16.7377C19.5 16.4101 19.2341 16.1446 18.9062 16.1446ZM12.8345 18.3137C11.9659 18.3137 11.2591 17.6087 11.2571 16.7414L11.2572 16.7393L11.2572 16.7329C11.2598 15.8666 11.9674 15.1618 12.8345 15.1618C13.7005 15.1618 14.4081 15.8656 14.4118 16.7315L14.4119 16.7402C14.4107 17.6081 13.7036 18.3137 12.8345 18.3137ZM18.9062 9.40683H9.86622C9.59376 8.16787 8.48627 7.23777 7.16547 7.23777C5.84468 7.23777 4.73719 8.16787 4.46473 9.40683H1.09375C0.765852 9.40683 0.5 9.67242 0.5 10C0.5 10.3276 0.765852 10.5932 1.09375 10.5932H4.46503C4.73804 11.8315 5.84702 12.7622 7.16547 12.7622C8.48464 12.7622 9.59313 11.8316 9.866 10.5932H18.9062C19.2341 10.5932 19.5 10.3276 19.5 10C19.5 9.67242 19.2341 9.40683 18.9062 9.40683ZM8.74285 9.99844L8.74281 10.0048C8.74021 10.8711 8.03265 11.5758 7.16547 11.5758C6.29953 11.5758 5.59193 10.8721 5.58818 10.0062L5.58807 9.99755C5.58937 9.12966 6.29648 8.42412 7.16547 8.42412C8.03406 8.42412 8.74092 9.12903 8.74288 9.99633L8.74285 9.99844Z" fill="#708090" stroke="#708090" stroke-width="0.2"/>
</g>
<defs>
<clipPath id="clip0_388_7566">
<rect width="20" height="20" fill="white"/>
</clipPath>
</defs>
</svg>
