<svg width="70" height="70" viewBox="0 0 70 70" fill="none" xmlns="http://www.w3.org/2000/svg">
<rect width="70" height="70" rx="8" fill="#6554C0"/>
<g clip-path="url(#clip0_675_6967)">
<path d="M27.5 53.001C29.1568 53.001 30.5 51.6578 30.5 50.001C30.5 48.3441 29.1568 47.001 27.5 47.001C25.8431 47.001 24.5 48.3441 24.5 50.001C24.5 51.6578 25.8431 53.001 27.5 53.001Z" fill="white"/>
<path d="M42.5 53.001C44.1568 53.001 45.5 51.6578 45.5 50.001C45.5 48.3441 44.1568 47.001 42.5 47.001C40.8431 47.001 39.5 48.3441 39.5 50.001C39.5 51.6578 40.8431 53.001 42.5 53.001Z" fill="white"/>
<path d="M52.5273 19.0031C52.246 18.7219 51.8646 18.564 51.4668 18.564C51.0691 18.564 50.6876 18.7219 50.4063 19.0031L42.6678 26.7491L40.3413 24.3206C40.2048 24.1786 40.0417 24.0649 39.8612 23.9859C39.6807 23.9069 39.4865 23.8643 39.2895 23.8604C39.0926 23.8565 38.8968 23.8914 38.7133 23.9632C38.5299 24.0349 38.3624 24.1421 38.2203 24.2786C38.0783 24.4152 37.9646 24.5783 37.8856 24.7588C37.8066 24.9392 37.764 25.1335 37.7601 25.3304C37.7522 25.7282 37.9026 26.1128 38.1783 26.3996L40.5993 28.9181C40.8573 29.1968 41.1691 29.4202 41.5159 29.5749C41.8626 29.7296 42.2372 29.8123 42.6168 29.8181H42.6663C43.0384 29.8194 43.407 29.7467 43.7508 29.6043C44.0946 29.4619 44.4066 29.2526 44.6688 28.9886L52.5273 21.1241C52.8085 20.8429 52.9665 20.4614 52.9665 20.0636C52.9665 19.6659 52.8085 19.2844 52.5273 19.0031Z" fill="white"/>
<path d="M49.85 30.524C49.6561 30.489 49.4571 30.4925 49.2645 30.5344C49.072 30.5762 48.8895 30.6557 48.7277 30.7681C48.5658 30.8805 48.4277 31.0237 48.3212 31.1895C48.2147 31.3554 48.1419 31.5405 48.107 31.7345L47.915 32.798C47.7279 33.8365 47.1818 34.7762 46.3721 35.4529C45.5624 36.1296 44.5407 36.5002 43.4855 36.5H25.127L23.717 24.5H33.5C33.8978 24.5 34.2794 24.342 34.5607 24.0607C34.842 23.7794 35 23.3978 35 23C35 22.6022 34.842 22.2206 34.5607 21.9393C34.2794 21.658 33.8978 21.5 33.5 21.5H23.363L23.3 20.972C23.1707 19.8779 22.6446 18.8692 21.8213 18.1372C20.998 17.4051 19.9347 17.0005 18.833 17H18.5C18.1022 17 17.7206 17.158 17.4393 17.4393C17.158 17.7206 17 18.1022 17 18.5C17 18.8978 17.158 19.2794 17.4393 19.5607C17.7206 19.842 18.1022 20 18.5 20H18.833C19.2004 20 19.555 20.1349 19.8296 20.3791C20.1041 20.6232 20.2795 20.9596 20.3225 21.3245L22.3865 38.8745C22.6008 40.6997 23.4777 42.3827 24.8509 43.604C26.224 44.8254 27.9978 45.5 29.8355 45.5H45.5C45.8978 45.5 46.2794 45.342 46.5607 45.0607C46.842 44.7794 47 44.3978 47 44C47 43.6022 46.842 43.2206 46.5607 42.9393C46.2794 42.658 45.8978 42.5 45.5 42.5H29.8355C28.9048 42.5002 27.9969 42.2118 27.2369 41.6745C26.4769 41.1372 25.9022 40.3775 25.592 39.5H43.4855C45.2439 39.5001 46.9465 38.8823 48.2957 37.7547C49.645 36.627 50.5551 35.061 50.867 33.3305L51.059 32.2655C51.1294 31.8743 51.0416 31.4711 50.8149 31.1446C50.5882 30.818 50.2411 30.5948 49.85 30.524Z" fill="white"/>
</g>
<defs>
<clipPath id="clip0_675_6967">
<rect width="36" height="36" fill="white" transform="translate(17 17)"/>
</clipPath>
</defs>
</svg>
