<svg width="70" height="70" viewBox="0 0 70 70" fill="none" xmlns="http://www.w3.org/2000/svg">
<rect width="70" height="70" rx="8" fill="#3C82F6"/>
<g clip-path="url(#clip0_675_6959)">
<path d="M52.4146 33.2539L49.8376 27.8659C49.6798 27.536 49.4068 27.275 49.0701 27.1322C48.7334 26.9894 48.356 26.9745 48.0091 27.0904L34.9936 31.4344L21.9601 27.0919C21.613 26.9765 21.2357 26.9917 20.899 27.1348C20.5623 27.2779 20.2894 27.5389 20.1316 27.8689L17.6536 33.0784C17.3008 33.6606 17.0843 34.3151 17.0201 34.9928C16.9559 35.6705 17.0459 36.3539 17.2831 36.9919C17.7481 38.2519 18.7291 39.2284 19.9846 39.6844L19.9756 43.1569C19.9736 44.7322 20.468 46.2681 21.3887 47.5463C22.3093 48.8246 23.6094 49.7802 25.1041 50.2774L31.6516 52.4614C33.8081 53.1757 36.1375 53.1752 38.2936 52.4599L44.8471 50.2759C46.34 49.78 47.6389 48.8266 48.5595 47.5509C49.48 46.2752 49.9755 44.7421 49.9756 43.1689L49.9846 39.6859C50.6097 39.4689 51.1787 39.1157 51.6505 38.6518C52.1224 38.188 52.4853 37.6252 52.7131 37.0039C53.1871 35.7169 53.0536 34.3039 52.4146 33.2539ZM20.2906 34.4989L22.2676 30.3544L32.8651 33.8854L30.4351 38.7694C30.2605 39.0633 29.9905 39.2884 29.6701 39.4074C29.3497 39.5264 28.9982 39.5321 28.6741 39.4234L21.0526 36.8809C20.8332 36.8088 20.6331 36.6879 20.4671 36.5274C20.3011 36.3668 20.1736 36.1708 20.0941 35.9539C19.9321 35.5144 19.9786 35.0299 20.2906 34.4989ZM26.0536 47.4334C25.1567 47.1352 24.3766 46.5619 23.824 45.795C23.2715 45.0281 22.9746 44.1066 22.9756 43.1614L22.9816 40.6864L27.7276 42.2689C29.7466 42.9379 31.9171 42.1339 33.0661 40.2109L33.4816 39.3784L33.4756 49.8469C33.1803 49.7872 32.8888 49.7101 32.6026 49.6159L26.0551 47.4334H26.0536ZM43.8976 47.4304L37.3441 49.6144C37.0591 49.7089 36.7681 49.7869 36.4741 49.8469L36.4801 39.3544L36.9586 40.3144C37.4813 41.1969 38.2916 41.8727 39.2535 42.2286C40.2154 42.5844 41.2704 42.5987 42.2416 42.2689L46.9816 40.6894L46.9756 43.1659C46.976 44.1103 46.6789 45.0308 46.1263 45.7966C45.5738 46.5624 44.7939 47.1331 43.8976 47.4304ZM49.8976 35.9629C49.8204 36.1733 49.6969 36.3635 49.5362 36.5196C49.3754 36.6756 49.1816 36.7935 48.9691 36.8644L41.2921 39.4219C40.6351 39.6424 39.8896 39.3679 39.5881 38.8744L37.1071 33.8914L47.7031 30.3559L49.7761 34.6759C49.892 34.8677 49.9631 35.0832 49.9841 35.3063C50.0052 35.5294 49.9756 35.7529 49.8976 35.9629ZM24.8206 25.8439C24.6812 25.7048 24.5706 25.5395 24.4951 25.3575C24.4197 25.1755 24.3808 24.9804 24.3808 24.7834C24.3808 24.5864 24.4197 24.3914 24.4951 24.2094C24.5706 24.0274 24.6812 23.8621 24.8206 23.7229L30.6661 17.8789C31.2293 17.3176 31.992 17.0024 32.7871 17.0024C33.5822 17.0024 34.3449 17.3176 34.9081 17.8789L37.3021 20.2729C38.4316 19.6954 39.9091 19.8679 40.8316 20.7904L44.2141 24.1729C44.3534 24.3122 44.4639 24.4775 44.5392 24.6595C44.6146 24.8415 44.6534 25.0365 44.6534 25.2334C44.6534 25.4304 44.6146 25.6254 44.5392 25.8074C44.4639 25.9893 44.3534 26.1547 44.2141 26.2939C44.0748 26.4332 43.9095 26.5437 43.7276 26.6191C43.5456 26.6944 43.3506 26.7332 43.1536 26.7332C42.9567 26.7332 42.7616 26.6944 42.5797 26.6191C42.3977 26.5437 42.2324 26.4332 42.0931 26.2939L38.7106 22.9114L33.9841 27.6379C33.8451 27.7777 33.6799 27.8886 33.4979 27.9643C33.3159 28.04 33.1207 28.079 32.9236 28.079C32.7265 28.079 32.5313 28.04 32.3493 27.9643C32.1673 27.8886 32.0021 27.7777 31.8631 27.6379C31.7237 27.4988 31.6131 27.3335 31.5376 27.1515C31.4622 26.9695 31.4233 26.7744 31.4233 26.5774C31.4233 26.3804 31.4622 26.1854 31.5376 26.0034C31.6131 25.8214 31.7237 25.6561 31.8631 25.5169L35.0836 22.2964L32.7886 20.0014L26.9431 25.8454C26.8041 25.9852 26.6389 26.0961 26.4569 26.1718C26.2749 26.2475 26.0797 26.2865 25.8826 26.2865C25.6855 26.2865 25.4903 26.2475 25.3083 26.1718C25.1263 26.0961 24.9611 25.9852 24.8221 25.8454L24.8206 25.8439Z" fill="white"/>
</g>
<defs>
<clipPath id="clip0_675_6959">
<rect width="36" height="36" fill="white" transform="translate(17 17)"/>
</clipPath>
</defs>
</svg>
