<svg width="70" height="70" viewBox="0 0 70 70" fill="none" xmlns="http://www.w3.org/2000/svg">
<rect width="70" height="70" rx="8" fill="#12B981"/>
<g clip-path="url(#clip0_675_6951)">
<path d="M38.972 25.2395C40.2815 24.188 41.63 22.775 42.314 21.056C42.4894 20.6114 42.5531 20.1306 42.4995 19.6557C42.4459 19.1808 42.2766 18.7263 42.0065 18.332C41.7294 17.922 41.356 17.5862 40.9191 17.354C40.4821 17.1218 39.9948 17.0002 39.5 17H30.5C29.4965 17 28.559 17.498 27.9935 18.332C27.7237 18.7264 27.5547 19.1809 27.5011 19.6558C27.4475 20.1306 27.511 20.6114 27.686 21.056C28.37 22.7735 29.7185 24.188 31.028 25.2395C24.044 27.8315 18.5 36.7385 18.5 44C18.5 48.9635 22.5365 53 27.5 53H42.5C47.4635 53 51.5 48.9635 51.5 44C51.5 36.7385 45.956 27.8315 38.972 25.2395ZM39.5255 19.9475C38.7515 21.893 36.3845 23.537 34.997 24.3125C33.6125 23.543 31.2545 21.9125 30.4985 20L39.5255 19.9475ZM42.4985 50H27.5C24.191 50 21.5 47.309 21.5 44C21.5 36.1355 28.565 27.5 35 27.5C41.435 27.5 48.5 36.1355 48.5 44C48.5 47.309 45.8075 50 42.4985 50ZM34.9985 50C34.6007 50 34.2191 49.842 33.9378 49.5607C33.6565 49.2794 33.4985 48.8978 33.4985 48.5V47H33.0965C32.3071 46.9986 31.5318 46.7903 30.848 46.3957C30.1642 46.0012 29.5958 45.4343 29.1995 44.7515C29.0099 44.4078 28.9626 44.0034 29.0678 43.6252C29.173 43.2469 29.4222 42.925 29.762 42.7285C30.1019 42.532 30.5052 42.4765 30.8855 42.574C31.2658 42.6715 31.5926 42.9142 31.796 43.25C32.063 43.712 32.5625 44 33.0965 44H36.4985C37.325 44 37.9985 43.3265 37.9985 42.5C37.9992 42.2262 37.9024 41.961 37.7254 41.7521C37.5484 41.5432 37.3027 41.4042 37.0325 41.36L32.4695 40.5995C31.498 40.4402 30.615 39.9401 29.9787 39.1889C29.3424 38.4377 28.9944 37.4845 28.997 36.5C28.997 34.019 31.016 32 33.497 32V30.5C33.497 30.1022 33.655 29.7206 33.9363 29.4393C34.2176 29.158 34.5992 29 34.997 29C35.3948 29 35.7764 29.158 36.0577 29.4393C36.339 29.7206 36.497 30.1022 36.497 30.5V32H36.899C38.4995 32 39.9935 32.8625 40.796 34.25C40.9856 34.5937 41.0329 34.9981 40.9277 35.3763C40.8225 35.7546 40.5733 36.0765 40.2335 36.273C39.8936 36.4695 39.4903 36.525 39.11 36.4275C38.7297 36.33 38.4029 36.0873 38.1995 35.7515C38.0673 35.5237 37.8776 35.3345 37.6494 35.2029C37.4212 35.0713 37.1624 35.0019 36.899 35.0015H33.497C32.6705 35.0015 31.997 35.675 31.997 36.5015C31.997 37.0685 32.4035 37.5485 32.963 37.6415L37.526 38.402C38.4975 38.5613 39.3805 39.0614 40.0168 39.8126C40.6531 40.5638 41.0011 41.517 40.9985 42.5015C40.9985 44.9825 38.9795 47.0015 36.4985 47.0015V48.5015C36.4985 48.8993 36.3405 49.2809 36.0592 49.5622C35.7779 49.8435 35.3963 50 34.9985 50Z" fill="white"/>
</g>
<defs>
<clipPath id="clip0_675_6951">
<rect width="36" height="36" fill="white" transform="translate(17 17)"/>
</clipPath>
</defs>
</svg>
