<svg width="23" height="23" viewBox="0 0 23 23" fill="none" xmlns="http://www.w3.org/2000/svg">
<path d="M11.3357 11.0792C12.8577 11.0792 14.1756 10.5333 15.2526 9.45621C16.3294 8.37932 16.8754 7.06167 16.8754 5.53942C16.8754 4.01769 16.3295 2.69987 15.2525 1.62262C14.1754 0.545905 12.8576 0 11.3357 0C9.81342 0 8.49577 0.545905 7.41887 1.6228C6.34198 2.69969 5.7959 4.01752 5.7959 5.53942C5.7959 7.06167 6.34198 8.37949 7.41887 9.45639C8.49612 10.5331 9.81394 11.0792 11.3357 11.0792ZM8.37206 2.57581C9.19837 1.74949 10.1677 1.34783 11.3357 1.34783C12.5035 1.34783 13.473 1.74949 14.2995 2.57581C15.1258 3.4023 15.5276 4.3718 15.5276 5.53942C15.5276 6.70738 15.1258 7.67671 14.2995 8.5032C13.473 9.32969 12.5035 9.73136 11.3357 9.73136C10.1681 9.73136 9.19872 9.32952 8.37206 8.5032C7.54557 7.67689 7.14373 6.70738 7.14373 5.53942C7.14373 4.3718 7.54557 3.4023 8.37206 2.57581Z" fill="#F2BE22"/>
<path d="M21.0292 17.6853C20.9981 17.2372 20.9353 16.7483 20.8428 16.232C20.7495 15.7119 20.6293 15.2202 20.4854 14.7709C20.3366 14.3064 20.1346 13.8477 19.8846 13.4081C19.6254 12.9519 19.3208 12.5546 18.9789 12.2277C18.6215 11.8857 18.1839 11.6107 17.6778 11.4101C17.1735 11.2106 16.6146 11.1096 16.0167 11.1096C15.7819 11.1096 15.5549 11.2059 15.1164 11.4914C14.8465 11.6674 14.5308 11.8709 14.1784 12.0961C13.8772 12.288 13.469 12.4679 12.9649 12.6307C12.473 12.7899 11.9736 12.8706 11.4805 12.8706C10.9878 12.8706 10.4884 12.7899 9.99615 12.6307C9.49254 12.4681 9.08421 12.2882 8.78344 12.0963C8.43442 11.8732 8.11856 11.6697 7.84465 11.4912C7.40648 11.2057 7.17942 11.1094 6.94463 11.1094C6.34661 11.1094 5.7879 11.2106 5.28375 11.4103C4.77803 11.6105 4.34022 11.8855 3.98243 12.2279C3.6406 12.5549 3.33597 12.952 3.07697 13.4081C2.82727 13.8477 2.62512 14.3062 2.47632 14.771C2.3326 15.2204 2.2124 15.7119 2.11905 16.232C2.0264 16.7476 1.96375 17.2366 1.93269 17.6859C1.90216 18.1251 1.88672 18.5822 1.88672 19.044C1.88672 20.2446 2.26838 21.2166 3.02099 21.9334C3.76431 22.6408 4.74768 22.9994 5.94389 22.9994H17.0185C18.2144 22.9994 19.1978 22.6408 19.9412 21.9334C20.694 21.2171 21.0757 20.2448 21.0757 19.0439C21.0755 18.5804 21.0599 18.1233 21.0292 17.6853ZM19.0119 20.9569C18.5208 21.4244 17.8687 21.6516 17.0183 21.6516H5.94389C5.09336 21.6516 4.44129 21.4244 3.95031 20.9571C3.46863 20.4986 3.23455 19.8726 3.23455 19.044C3.23455 18.6131 3.24876 18.1875 3.27719 17.779C3.30491 17.3782 3.36159 16.938 3.44565 16.4702C3.52865 16.0081 3.63428 15.5745 3.75992 15.182C3.88047 14.8056 4.04489 14.4329 4.2488 14.0739C4.4434 13.7317 4.66731 13.4381 4.91438 13.2016C5.14548 12.9803 5.43677 12.7992 5.78 12.6634C6.09743 12.5377 6.45418 12.469 6.84145 12.4586C6.88865 12.4837 6.97271 12.5316 7.10888 12.6204C7.38595 12.801 7.70532 13.007 8.05838 13.2325C8.45636 13.4862 8.9691 13.7154 9.58168 13.9131C10.208 14.1156 10.8467 14.2185 11.4807 14.2185C12.1147 14.2185 12.7536 14.1156 13.3795 13.9133C13.9926 13.7152 14.5052 13.4862 14.9037 13.2321C15.265 13.0012 15.5754 12.8011 15.8525 12.6204C15.9887 12.5318 16.0727 12.4837 16.1199 12.4586C16.5074 12.469 16.8641 12.5377 17.1817 12.6634C17.5248 12.7992 17.8161 12.9805 18.0472 13.2016C18.2942 13.4379 18.5181 13.7315 18.7127 14.074C18.9168 14.4329 19.0814 14.8058 19.2018 15.1818C19.3276 15.5749 19.4334 16.0083 19.5162 16.47C19.6001 16.9387 19.657 17.3791 19.6847 17.7792V17.7796C19.7133 18.1865 19.7277 18.6118 19.7279 19.044C19.7277 19.8728 19.4936 20.4986 19.0119 20.9569Z" fill="#F2BE22"/>
</svg>
