<svg width="52" height="52" viewBox="0 0 52 52" fill="none" xmlns="http://www.w3.org/2000/svg">
<circle cx="26" cy="26" r="26" fill="#F2BE22"/>
<path fill-rule="evenodd" clip-rule="evenodd" d="M36.1012 20.4295C33.9752 22.5555 28.9852 27.5445 27.7682 28.7575C27.5052 29.0195 27.1922 29.2265 26.8562 29.3615C25.8802 29.7665 23.4992 30.7005 22.7992 30.7475C22.3822 30.7755 21.9732 30.6215 21.6772 30.3255C21.3812 30.0295 21.2272 29.6205 21.2552 29.2035C21.3022 28.5035 22.2362 26.1245 22.6342 25.1525C22.7732 24.8075 22.9802 24.4945 23.2432 24.2325L31.5732 15.9015C31.9762 15.4985 32.5242 15.2715 33.0942 15.2715C33.6642 15.2715 34.2122 15.4985 34.6152 15.9015L36.1012 17.3875C36.5042 17.7905 36.7312 18.3385 36.7312 18.9085C36.7312 19.4785 36.5042 20.0265 36.1012 20.4295ZM22.7582 29.2445C23.4422 29.1585 25.4412 28.3245 26.2812 27.9755C26.2842 27.9745 26.2872 27.9735 26.2892 27.9725C26.4462 27.9095 26.5882 27.8155 26.7072 27.6965L26.7082 27.6955C27.9272 26.4825 32.9152 21.4945 35.0402 19.3685C35.1622 19.2465 35.2312 19.0815 35.2312 18.9085C35.2312 18.7355 35.1622 18.5705 35.0402 18.4485L33.5542 16.9625C33.4322 16.8405 33.2672 16.7715 33.0942 16.7715C32.9212 16.7715 32.7562 16.8405 32.6342 16.9625L24.3032 25.2935C24.1832 25.4125 24.0892 25.5555 24.0262 25.7125L24.0242 25.7165C23.6792 26.5585 22.8442 28.5595 22.7582 29.2445Z" fill="white"/>
<path fill-rule="evenodd" clip-rule="evenodd" d="M34.1198 21.3501C34.4118 21.6431 34.4118 22.1181 34.1198 22.4111C33.8268 22.7041 33.3518 22.7041 33.0588 22.4111L29.5918 18.9441C29.2988 18.6511 29.2988 18.1761 29.5918 17.8831C29.8848 17.5911 30.3598 17.5911 30.6528 17.8831L34.1198 21.3501Z" fill="white"/>
<path fill-rule="evenodd" clip-rule="evenodd" d="M27.9987 27.47C28.2917 27.762 28.2917 28.238 27.9987 28.53C27.7067 28.823 27.2307 28.823 26.9387 28.53L23.4717 25.063C23.1787 24.771 23.1787 24.295 23.4717 24.003C23.7637 23.71 24.2397 23.71 24.5317 24.003L27.9987 27.47Z" fill="white"/>
<path fill-rule="evenodd" clip-rule="evenodd" d="M22.501 17.25C22.915 17.25 23.251 17.586 23.251 18C23.251 18.414 22.915 18.75 22.501 18.75H19.001C17.758 18.75 16.751 19.757 16.751 21V33C16.751 33.597 16.988 34.169 17.41 34.591C17.832 35.013 18.404 35.25 19.001 35.25H32.001C32.598 35.25 33.17 35.013 33.592 34.591C34.014 34.169 34.251 33.597 34.251 33V29.5C34.251 29.086 34.587 28.75 35.001 28.75C35.415 28.75 35.751 29.086 35.751 29.5V33C35.751 33.995 35.356 34.948 34.653 35.652C33.949 36.355 32.996 36.75 32.001 36.75H19.001C18.006 36.75 17.053 36.355 16.349 35.652C15.646 34.948 15.251 33.995 15.251 33V21C15.251 18.929 16.93 17.25 19.001 17.25H22.501Z" fill="white"/>
</svg>
