<svg width="23" height="23" viewBox="0 0 23 23" fill="none" xmlns="http://www.w3.org/2000/svg">
<path d="M7.31421 4.98818V4.674C7.31421 4.07685 6.83013 3.59277 6.23298 3.59277H5.60466C5.00752 3.59277 4.52344 4.07685 4.52344 4.674C4.52344 5.13939 4.82122 5.55258 5.26276 5.69974L6.57493 6.13715C7.01642 6.28431 7.31425 6.6975 7.31425 7.1629C7.31425 7.76004 6.83018 8.24412 6.23303 8.24412H5.60471C5.00756 8.24412 4.52348 7.76004 4.52348 7.1629V6.84871" stroke="#F2BE22" stroke-width="0.6" stroke-miterlimit="10" stroke-linecap="round" stroke-linejoin="round"/>
<path d="M5.91895 3.12793V8.70947" stroke="#F2BE22" stroke-width="0.6" stroke-miterlimit="10" stroke-linecap="round" stroke-linejoin="round"/>
<path d="M12.3336 15.6862H9.27051C8.96037 15.6862 8.70898 15.4348 8.70898 15.1247V12.0615C8.70898 11.7514 8.96037 11.5 9.27051 11.5H12.3336C12.6437 11.5 12.8951 11.7514 12.8951 12.0615V15.1247C12.8951 15.4348 12.6437 15.6862 12.3336 15.6862Z" stroke="#F2BE22" stroke-width="0.6" stroke-miterlimit="10" stroke-linecap="round" stroke-linejoin="round"/>
<path d="M17.9157 21.2677H14.8525C14.5424 21.2677 14.291 21.0163 14.291 20.7062V12.0615C14.291 11.7514 14.5424 11.5 14.8525 11.5H17.9157C18.2258 11.5 18.4772 11.7514 18.4772 12.0615V20.7062C18.4772 21.0163 18.2258 21.2677 17.9157 21.2677Z" stroke="#F2BE22" stroke-width="0.6" stroke-miterlimit="10" stroke-linecap="round" stroke-linejoin="round"/>
<path d="M12.3336 21.2682H9.27051C8.96037 21.2682 8.70898 21.0168 8.70898 20.7067V17.6436C8.70898 17.3334 8.96037 17.082 9.27051 17.082H12.3336C12.6437 17.082 12.8951 17.3334 12.8951 17.6436V20.7067C12.8951 21.0168 12.6437 21.2682 12.3336 21.2682Z" stroke="#F2BE22" stroke-width="0.6" stroke-miterlimit="10" stroke-linecap="round" stroke-linejoin="round"/>
<path d="M7.31406 14.9258V15.1247C7.31406 15.4348 7.06268 15.6862 6.75254 15.6862H3.68945C3.37931 15.6862 3.12793 15.4348 3.12793 15.1247V12.0615C3.12793 11.7514 3.37931 11.5 3.68945 11.5H6.75254C7.06268 11.5 7.31406 11.7514 7.31406 12.0615V13.3535" stroke="#F2BE22" stroke-width="0.6" stroke-miterlimit="10" stroke-linecap="round" stroke-linejoin="round"/>
<path d="M6.75254 21.2682H3.68945C3.37931 21.2682 3.12793 21.0168 3.12793 20.7067V17.6436C3.12793 17.3334 3.37931 17.082 3.68945 17.082H6.75254C7.06268 17.082 7.31406 17.3334 7.31406 17.6436V20.7067C7.31406 21.0168 7.06268 21.2682 6.75254 21.2682Z" stroke="#F2BE22" stroke-width="0.6" stroke-miterlimit="10" stroke-linecap="round" stroke-linejoin="round"/>
<path d="M8.01172 8.70898H9.40708" stroke="#F2BE22" stroke-width="0.6" stroke-miterlimit="10" stroke-linecap="round" stroke-linejoin="round"/>
<path d="M4.52344 13.5928H5.91885" stroke="#F2BE22" stroke-width="0.6" stroke-miterlimit="10" stroke-linecap="round" stroke-linejoin="round"/>
<path d="M10.1045 13.5928H11.4999" stroke="#F2BE22" stroke-width="0.6" stroke-miterlimit="10" stroke-linecap="round" stroke-linejoin="round"/>
<path d="M5.2207 12.8955V14.2909" stroke="#F2BE22" stroke-width="0.6" stroke-miterlimit="10" stroke-linecap="round" stroke-linejoin="round"/>
<path d="M4.52344 18.4766L5.9188 19.872" stroke="#F2BE22" stroke-width="0.6" stroke-miterlimit="10" stroke-linecap="round" stroke-linejoin="round"/>
<path d="M5.9188 18.4766L4.52344 19.872" stroke="#F2BE22" stroke-width="0.6" stroke-miterlimit="10" stroke-linecap="round" stroke-linejoin="round"/>
<path d="M11.4999 18.4766L10.1045 19.872" stroke="#F2BE22" stroke-width="0.6" stroke-miterlimit="10" stroke-linecap="round" stroke-linejoin="round"/>
<path d="M15.6865 15.6865H17.0819" stroke="#F2BE22" stroke-width="0.6" stroke-miterlimit="10" stroke-linecap="round" stroke-linejoin="round"/>
<path d="M15.6865 17.082H17.0819" stroke="#F2BE22" stroke-width="0.6" stroke-miterlimit="10" stroke-linecap="round" stroke-linejoin="round"/>
<path d="M21.2679 7.06536V7.58618C21.2679 8.20642 20.7651 8.70923 20.1448 8.70923H14.0186C13.3983 8.70923 12.8955 8.20642 12.8955 7.58618V1.45996C12.8955 0.839725 13.3983 0.336914 14.0186 0.336914H20.1448C20.765 0.336914 21.2678 0.839725 21.2678 1.45996V5.49309" stroke="#F2BE22" stroke-width="0.6" stroke-miterlimit="10" stroke-linecap="round" stroke-linejoin="round"/>
<path d="M17.7793 2.48438C18.5808 2.68419 19.1747 3.40887 19.1747 4.27227V5.22052" stroke="#F2BE22" stroke-width="0.6" stroke-miterlimit="10" stroke-linecap="round" stroke-linejoin="round"/>
<path d="M14.9883 5.22052V4.27227C14.9883 3.40887 15.5821 2.68419 16.3836 2.48438" stroke="#F2BE22" stroke-width="0.6" stroke-miterlimit="10" stroke-linecap="round" stroke-linejoin="round"/>
<path d="M16.3838 5.22046V2.42969C16.3838 2.30566 16.4844 2.20508 16.6084 2.20508H17.5545C17.6786 2.20508 17.7792 2.30566 17.7792 2.42969V5.22046" stroke="#F2BE22" stroke-width="0.6" stroke-miterlimit="10" stroke-linecap="round" stroke-linejoin="round"/>
<path d="M19.3277 5.2207H14.8364C14.5859 5.2207 14.423 5.48426 14.535 5.70828L14.6124 5.86304C14.8432 6.32457 15.3149 6.61611 15.8309 6.61611H18.3331C18.8492 6.61611 19.3209 6.32457 19.5516 5.86304L19.629 5.70828C19.741 5.48426 19.5781 5.2207 19.3277 5.2207Z" stroke="#F2BE22" stroke-width="0.6" stroke-miterlimit="10" stroke-linecap="round" stroke-linejoin="round"/>
<path d="M6.12678 1.73242H3.12793V10.1048H18.4772V8.70937" stroke="#F2BE22" stroke-width="0.6" stroke-miterlimit="10" stroke-linecap="round" stroke-linejoin="round"/>
<path d="M12.8958 1.73242H7.69922" stroke="#F2BE22" stroke-width="0.6" stroke-miterlimit="10" stroke-linecap="round" stroke-linejoin="round"/>
<path d="M14.0186 0.336914H3.30469C2.43635 0.336914 1.73242 1.04084 1.73242 1.90918V21.0908C1.73242 21.9592 2.43635 22.6631 3.30469 22.6631H18.3001C19.1685 22.6631 19.8724 21.9592 19.8724 21.0908V8.70923" stroke="#F2BE22" stroke-width="0.6" stroke-miterlimit="10" stroke-linecap="round" stroke-linejoin="round"/>
</svg>
