<svg width="23" height="23" viewBox="0 0 23 23" fill="none" xmlns="http://www.w3.org/2000/svg">
<g opacity="0.5">
<path d="M14.0365 14.9473H8.96383C8.5815 14.9473 8.27051 15.2583 8.27051 15.6406V17.1964C8.27051 17.5787 8.5815 17.8898 8.96383 17.8898H14.0365C14.4189 17.8898 14.7299 17.5788 14.7299 17.1964V15.6406C14.7298 15.2583 14.4188 14.9473 14.0365 14.9473ZM13.8384 16.9984H9.16189V15.8387H13.8384V16.9984Z" fill="#F2BE22"/>
<path d="M22.7743 11.0943L22.7815 11.0907L19.439 4.48253C19.1688 3.94841 18.6293 3.61666 18.0309 3.61666H17.3957V3.00236C17.3957 2.75618 17.1961 2.55664 16.95 2.55664H6.05008C5.80391 2.55664 5.60436 2.75618 5.60436 3.00236V3.61666H4.96912C4.37072 3.61666 3.83121 3.94841 3.561 4.48253L0.218545 11.0907L0.225688 11.0943C0.0825215 11.3301 0 11.6066 0 11.9021V18.8833C0 19.7441 0.700332 20.4444 1.56112 20.4444H21.4389C22.2997 20.4444 23 19.7441 23 18.8833V11.9021C23 11.6066 22.9175 11.3301 22.7743 11.0943ZM17.3956 4.60714H18.0309C18.2536 4.60714 18.4545 4.73072 18.5552 4.92964L21.2922 10.341H19.4311V8.67594C19.4311 8.42977 19.2316 8.23023 18.9854 8.23023H18.434V5.83917C18.434 5.593 18.2344 5.39346 17.9882 5.39346H17.3956V4.60714ZM18.5397 9.12161V10.341H16.1876C15.7841 10.341 15.4162 10.5787 15.2503 10.9466L14.6081 12.3711C14.602 12.3845 14.5886 12.3932 14.5738 12.3932H8.42622C8.41144 12.3932 8.39801 12.3845 8.3919 12.371L7.74974 10.9467C7.58389 10.5787 7.21598 10.341 6.8124 10.341H4.46034V9.12161H18.5397ZM6.49579 3.44807H16.5042V5.39341H6.49579V3.44807ZM17.5425 6.28484V8.23018H5.45747V6.28484H17.5425ZM4.44484 4.92964C4.54546 4.73068 4.74636 4.60714 4.96912 4.60714H5.60436V5.39341H5.01175C4.76558 5.39341 4.56604 5.59296 4.56604 5.83913V8.23018H4.01462C3.76845 8.23018 3.56891 8.42973 3.56891 8.6759V10.341H1.70775L4.44484 4.92964ZM21.4389 19.4539H1.56112C1.24649 19.4539 0.990482 19.1979 0.990482 18.8833V11.9021C0.990482 11.5875 1.24645 11.3315 1.56112 11.3315H6.8124C6.82714 11.3315 6.84066 11.3402 6.84677 11.3537L7.48893 12.7781C7.65478 13.146 8.02264 13.3837 8.42622 13.3837H14.5738C14.9774 13.3837 15.3453 13.146 15.5111 12.7782L16.1533 11.3537V11.3537C16.1594 11.3402 16.1728 11.3315 16.1876 11.3315H21.4389C21.7535 11.3315 22.0094 11.5875 22.0094 11.9021V18.8833H22.0095C22.0095 19.198 21.7536 19.4539 21.4389 19.4539Z" fill="#F2BE22"/>
</g>
</svg>
