<svg width="25" height="23" viewBox="0 0 25 23" fill="none" xmlns="http://www.w3.org/2000/svg">
<path d="M22.497 7.19474L22.869 6.82266L22.8801 6.83383C22.9446 6.89837 23.0211 6.94958 23.1054 6.98451C23.1897 7.01945 23.28 7.03743 23.3712 7.03743C23.4624 7.03743 23.5528 7.01945 23.637 6.98451C23.7213 6.94958 23.7979 6.89837 23.8623 6.83383L24.4373 6.25882C24.5019 6.19434 24.5531 6.11776 24.588 6.03348C24.623 5.94919 24.6409 5.85885 24.6409 5.76761C24.6409 5.67637 24.623 5.58603 24.588 5.50174C24.5531 5.41745 24.5019 5.34088 24.4373 5.2764L22.9297 3.76857C22.7974 3.64231 22.6215 3.57187 22.4386 3.57187C22.2557 3.57187 22.0798 3.64231 21.9475 3.76857L21.3725 4.34358C21.308 4.40806 21.2568 4.48464 21.2218 4.56892C21.1869 4.65321 21.1689 4.74355 21.1689 4.83479C21.1689 4.92603 21.1869 5.01638 21.2218 5.10066C21.2568 5.18495 21.308 5.26152 21.3725 5.326L21.3834 5.3369L20.9905 5.72984C19.6474 4.67522 18.0477 3.99742 16.3558 3.76616V2.62289H17.0999C17.322 2.62266 17.5349 2.53433 17.692 2.37728C17.849 2.22023 17.9374 2.00728 17.9376 1.78518V0.837702C17.9374 0.615599 17.849 0.402657 17.692 0.245606C17.5349 0.0885557 17.322 0.000225684 17.0999 0H12.9886C12.7665 0.000229188 12.5535 0.0885597 12.3965 0.245608C12.2394 0.402657 12.1511 0.615594 12.1509 0.837693V1.78517C12.1511 2.00727 12.2394 2.22022 12.3965 2.37727C12.5535 2.53432 12.7665 2.62265 12.9886 2.62288H13.7331V3.76678C13.2219 3.83489 12.717 3.94405 12.2233 4.0932C12.1113 4.12741 12.0174 4.20473 11.9623 4.30816C11.9073 4.41158 11.8956 4.53264 11.9298 4.6447C11.964 4.75676 12.0413 4.85064 12.1447 4.90569C12.2482 4.96074 12.3692 4.97245 12.4813 4.93824C13.9674 4.4845 15.5473 4.43333 17.0597 4.78996C18.572 5.14659 19.9627 5.89823 21.0895 6.96813C22.2163 8.03802 23.039 9.38783 23.4735 10.8797C23.908 12.3715 23.9387 13.952 23.5626 15.4596C23.1864 16.9673 22.4169 18.348 21.3325 19.4609C20.2481 20.5738 18.8878 21.379 17.3904 21.7942C15.8931 22.2093 14.3124 22.2196 12.8097 21.824C11.3071 21.4284 9.93638 20.6411 8.83758 19.5424C8.79664 19.5011 8.74794 19.4682 8.69427 19.4457C8.64059 19.4233 8.58301 19.4116 8.52482 19.4115C8.46663 19.4113 8.40899 19.4227 8.3552 19.4449C8.30142 19.4671 8.25254 19.4997 8.2114 19.5408C8.17025 19.582 8.13764 19.6308 8.11544 19.6846C8.09324 19.7384 8.08189 19.7961 8.08203 19.8542C8.08218 19.9124 8.09382 19.97 8.11629 20.0237C8.13876 20.0774 8.17161 20.1261 8.21297 20.167C9.96712 21.9232 12.3301 22.9367 14.8116 22.9971C17.2931 23.0576 19.7026 22.1603 21.5401 20.4915C23.3777 18.8227 24.5022 16.5105 24.6803 14.0347C24.8585 11.5588 24.0766 9.10945 22.497 7.19474ZM22.4384 4.5267L23.6794 5.76751L23.3714 6.07572L22.1304 4.83491L22.4384 4.5267ZM22.0079 5.96162L22.2443 6.19801L21.9029 6.53954C21.8244 6.46036 21.7434 6.38371 21.6623 6.30725L22.0079 5.96162ZM13.0343 1.73946V0.883415H17.0542V1.73946H13.0343ZM14.6165 3.69045V2.62289H15.4723V3.68562C15.3304 3.6794 15.1879 3.67476 15.0444 3.67476C14.9013 3.67476 14.7591 3.68422 14.6165 3.69045Z" fill="#F2BE22"/>
<path d="M20.7819 19.0392C22.2915 17.5248 23.1392 15.4737 23.1391 13.3353C23.139 11.197 22.2912 9.14596 20.7814 7.6317C20.7758 7.62547 20.7739 7.61742 20.7679 7.61143C20.762 7.60545 20.7539 7.60353 20.7476 7.59795C19.2339 6.08718 17.1824 5.23916 15.0437 5.24024C14.5577 5.24015 14.0727 5.28353 13.5944 5.36986C13.5373 5.38017 13.4828 5.40162 13.434 5.43299C13.3853 5.46435 13.3431 5.50502 13.3101 5.55267C13.277 5.60031 13.2536 5.654 13.2413 5.71068C13.229 5.76735 13.228 5.8259 13.2383 5.88297C13.2486 5.94004 13.27 5.99452 13.3014 6.0433C13.3328 6.09209 13.3734 6.13421 13.4211 6.16728C13.4687 6.20034 13.5224 6.2237 13.5791 6.23602C13.6358 6.24833 13.6943 6.24936 13.7514 6.23905C14.0328 6.19043 14.3169 6.15847 14.602 6.14335V6.83433C14.602 6.95148 14.6486 7.06384 14.7314 7.14667C14.8142 7.22951 14.9266 7.27605 15.0437 7.27605C15.1609 7.27605 15.2733 7.22951 15.3561 7.14667C15.4389 7.06384 15.4855 6.95148 15.4855 6.83433V6.14604C17.0885 6.24287 18.6127 6.87493 19.8137 7.94099L19.3285 8.42627C19.2871 8.46721 19.2543 8.51591 19.2318 8.56958C19.2093 8.62326 19.1977 8.68084 19.1975 8.73903C19.1974 8.79722 19.2088 8.85486 19.2309 8.90865C19.2531 8.96244 19.2858 9.01131 19.3269 9.05245C19.368 9.0936 19.4169 9.12621 19.4707 9.14841C19.5245 9.17061 19.5821 9.18197 19.6403 9.18182C19.6985 9.18168 19.7561 9.17003 19.8098 9.14757C19.8634 9.1251 19.9121 9.09224 19.9531 9.05089L20.4384 8.56561C21.5044 9.76678 22.1365 11.291 22.2333 12.8941H21.5452C21.4281 12.8941 21.3157 12.9406 21.2329 13.0235C21.1501 13.1063 21.1035 13.2187 21.1035 13.3358C21.1035 13.453 21.1501 13.5653 21.2329 13.6482C21.3157 13.731 21.4281 13.7775 21.5452 13.7775H22.2333C22.1365 15.3806 21.5044 16.9048 20.4384 18.1059L19.9531 17.6205C19.8701 17.5385 19.758 17.4926 19.6413 17.493C19.5246 17.4933 19.4128 17.5398 19.3303 17.6223C19.2477 17.7048 19.2012 17.8167 19.2009 17.9334C19.2006 18.0501 19.2464 18.1622 19.3285 18.2451L19.8138 18.7305C18.6126 19.7965 17.0885 20.4286 15.4855 20.5254V19.8371C15.4855 19.7199 15.439 19.6076 15.3561 19.5247C15.2733 19.4419 15.1609 19.3954 15.0438 19.3954C14.9266 19.3954 14.8143 19.4419 14.7314 19.5247C14.6486 19.6076 14.6021 19.7199 14.6021 19.8371V20.5296C13.132 20.4465 11.7238 19.9101 10.571 18.9942C10.5255 18.9582 10.4734 18.9316 10.4176 18.9157C10.3618 18.8999 10.3034 18.8952 10.2458 18.902C10.1882 18.9087 10.1325 18.9267 10.0819 18.955C10.0312 18.9832 9.98666 19.0212 9.95069 19.0667C9.91471 19.1122 9.88805 19.1643 9.87223 19.2201C9.8564 19.2759 9.85172 19.3342 9.85845 19.3918C9.86518 19.4494 9.88319 19.5051 9.91145 19.5558C9.93971 19.6064 9.97767 19.651 10.0232 19.687C11.5758 20.915 13.525 21.5309 15.5014 21.418C17.4779 21.3051 19.3442 20.4711 20.7469 19.0742C20.7534 19.0684 20.7617 19.0664 20.7679 19.0602C20.7742 19.054 20.7761 19.0457 20.7819 19.0392Z" fill="#F2BE22"/>
<path d="M18.8141 9.56691C18.7731 9.52588 18.7244 9.49334 18.6708 9.47113C18.6173 9.44893 18.5598 9.4375 18.5018 9.4375C18.4438 9.4375 18.3864 9.44893 18.3328 9.47113C18.2792 9.49334 18.2305 9.52588 18.1895 9.56691L15.7136 12.0428C15.5075 11.933 15.2779 11.8748 15.0445 11.8732C14.755 11.8732 14.4721 11.959 14.2315 12.1197C13.9908 12.2805 13.8033 12.509 13.6925 12.7764C13.5817 13.0438 13.5527 13.338 13.6092 13.6218C13.6656 13.9057 13.8049 14.1664 14.0096 14.3711C14.2142 14.5758 14.4749 14.7151 14.7588 14.7716C15.0426 14.8281 15.3368 14.7992 15.6042 14.6884C15.8716 14.5777 16.1002 14.3901 16.261 14.1495C16.4218 13.9089 16.5076 13.626 16.5076 13.3366C16.506 13.1031 16.4478 12.8736 16.3381 12.6675L18.8141 10.1915C18.8551 10.1505 18.8877 10.1018 18.9099 10.0482C18.9321 9.99466 18.9435 9.93722 18.9435 9.87922C18.9435 9.82121 18.9321 9.76378 18.9099 9.71019C18.8877 9.6566 18.8551 9.60792 18.8141 9.56691ZM15.0445 13.9163C14.9491 13.9164 14.8551 13.893 14.771 13.8481C14.6868 13.8031 14.615 13.7382 14.562 13.6589C14.509 13.5796 14.4763 13.4885 14.4669 13.3935C14.4575 13.2986 14.4717 13.2028 14.5082 13.1147C14.5447 13.0266 14.6023 12.9488 14.6761 12.8883C14.7498 12.8277 14.8373 12.7863 14.9309 12.7677C15.0244 12.7491 15.1211 12.7539 15.2124 12.7816C15.3037 12.8093 15.3867 12.8591 15.4541 12.9266C15.5353 13.0076 15.5907 13.1112 15.6131 13.2236C15.6354 13.3361 15.624 13.4526 15.5801 13.5586C15.5362 13.6645 15.4619 13.755 15.3666 13.8187C15.2712 13.8824 15.1591 13.9164 15.0445 13.9163Z" fill="#F2BE22"/>
<path d="M9.97753 6.12366H7.18878C7.07163 6.12366 6.95928 6.07712 6.87645 5.99429C6.79361 5.91145 6.74707 5.7991 6.74707 5.68195C6.74707 5.5648 6.79361 5.45245 6.87645 5.36961C6.95928 5.28677 7.07163 5.24023 7.18878 5.24023H9.97753C10.0947 5.24023 10.207 5.28677 10.2899 5.36961C10.3727 5.45245 10.4192 5.5648 10.4192 5.68195C10.4192 5.7991 10.3727 5.91145 10.2899 5.99429C10.207 6.07712 10.0947 6.12366 9.97753 6.12366Z" fill="#F2BE22"/>
<path d="M5.76322 6.12366H4.86945C4.7523 6.12366 4.63995 6.07712 4.55711 5.99429C4.47427 5.91145 4.42773 5.7991 4.42773 5.68195C4.42773 5.5648 4.47427 5.45245 4.55711 5.36961C4.63995 5.28677 4.7523 5.24023 4.86945 5.24023H5.76322C5.88037 5.24023 5.99272 5.28677 6.07556 5.36961C6.15839 5.45245 6.20493 5.5648 6.20493 5.68195C6.20493 5.7991 6.15839 5.91145 6.07556 5.99429C5.99272 6.07712 5.88037 6.12366 5.76322 6.12366Z" fill="#F2BE22"/>
<path d="M11.3396 9.03187H3.95343C3.83628 9.03187 3.72393 8.98533 3.64109 8.90249C3.55826 8.81965 3.51172 8.7073 3.51172 8.59015C3.51172 8.473 3.55826 8.36065 3.64109 8.27781C3.72393 8.19497 3.83628 8.14844 3.95343 8.14844H11.3396C11.4568 8.14844 11.5691 8.19497 11.652 8.27781C11.7348 8.36065 11.7813 8.473 11.7813 8.59015C11.7813 8.7073 11.7348 8.81965 11.652 8.90249C11.5691 8.98533 11.4568 9.03187 11.3396 9.03187Z" fill="#F2BE22"/>
<path d="M8.15963 11.9401H0.441714C0.324564 11.9401 0.212212 11.8935 0.129375 11.8107C0.0465375 11.7279 0 11.6155 0 11.4984C0 11.3812 0.0465375 11.2689 0.129375 11.186C0.212212 11.1032 0.324564 11.0566 0.441714 11.0566H8.15963C8.27678 11.0566 8.38913 11.1032 8.47197 11.186C8.55481 11.2689 8.60135 11.3812 8.60135 11.4984C8.60135 11.6155 8.55481 11.7279 8.47197 11.8107C8.38913 11.8935 8.27678 11.9401 8.15963 11.9401Z" fill="#F2BE22"/>
<path d="M10.4455 11.9401H9.61554C9.49839 11.9401 9.38604 11.8935 9.3032 11.8107C9.22037 11.7279 9.17383 11.6155 9.17383 11.4984C9.17383 11.3812 9.22037 11.2689 9.3032 11.186C9.38604 11.1032 9.49839 11.0566 9.61554 11.0566H10.4455C10.5626 11.0566 10.675 11.1032 10.7578 11.186C10.8407 11.2689 10.8872 11.3812 10.8872 11.4984C10.8872 11.6155 10.8407 11.7279 10.7578 11.8107C10.675 11.8935 10.5626 11.9401 10.4455 11.9401Z" fill="#F2BE22"/>
<path d="M12.1493 14.8483H5.60382C5.48667 14.8483 5.37432 14.8017 5.29148 14.7189C5.20865 14.6361 5.16211 14.5237 5.16211 14.4066C5.16211 14.2894 5.20865 14.1771 5.29148 14.0942C5.37432 14.0114 5.48667 13.9648 5.60382 13.9648H12.1493C12.2665 13.9648 12.3788 14.0114 12.4616 14.0942C12.5445 14.1771 12.591 14.2894 12.591 14.4066C12.591 14.5237 12.5445 14.6361 12.4616 14.7189C12.3788 14.8017 12.2665 14.8483 12.1493 14.8483Z" fill="#F2BE22"/>
<path d="M3.7411 17.7565H2.95343C2.83628 17.7565 2.72393 17.7099 2.64109 17.6271C2.55826 17.5443 2.51172 17.4319 2.51172 17.3148C2.51172 17.1976 2.55826 17.0853 2.64109 17.0024C2.72393 16.9196 2.83628 16.873 2.95343 16.873H3.7411C3.85825 16.873 3.9706 16.9196 4.05344 17.0024C4.13628 17.0853 4.18282 17.1976 4.18282 17.3148C4.18282 17.4319 4.13628 17.5443 4.05344 17.6271C3.9706 17.7099 3.85825 17.7565 3.7411 17.7565Z" fill="#F2BE22"/>
<path d="M10.4455 17.7565H5.14582C5.02867 17.7565 4.91631 17.7099 4.83348 17.6271C4.75064 17.5443 4.7041 17.4319 4.7041 17.3148C4.7041 17.1976 4.75064 17.0853 4.83348 17.0024C4.91631 16.9196 5.02867 16.873 5.14582 16.873H10.4455C10.5627 16.873 10.675 16.9196 10.7578 17.0024C10.8407 17.0853 10.8872 17.1976 10.8872 17.3148C10.8872 17.4319 10.8407 17.5443 10.7578 17.6271C10.675 17.7099 10.5627 17.7565 10.4455 17.7565Z" fill="#F2BE22"/>
</svg>
