<svg width="20" height="20" viewBox="0 0 20 20" fill="none" xmlns="http://www.w3.org/2000/svg">
<g clip-path="url(#clip0_2038_2033)">
<path d="M11.5374 14.3894L8.81906 17.1077C8.02983 17.8758 6.9699 18.3023 5.8686 18.295C4.7673 18.2876 3.71319 17.8469 2.93432 17.0683C2.15546 16.2896 1.71447 15.2356 1.70678 14.1343C1.69909 13.033 2.12531 11.973 2.89323 11.1835L5.61156 8.4627C5.76782 8.30634 5.85556 8.0943 5.85548 7.87324C5.8554 7.65219 5.76751 7.44021 5.61115 7.28396C5.45478 7.1277 5.24274 7.03996 5.02168 7.04004C4.80063 7.04012 4.58865 7.12801 4.4324 7.28437L1.7149 10.0052C0.616788 11.1039 9.77544e-05 12.5937 0.000488467 14.1471C0.000879179 15.7004 0.618319 17.19 1.71698 18.2881C2.81564 19.3862 4.30552 20.0029 5.85887 20.0025C7.41222 20.0021 8.90179 19.3847 9.9999 18.286L12.7182 15.5677C12.87 15.4105 12.954 15.2 12.9521 14.9815C12.9502 14.763 12.8626 14.554 12.7081 14.3995C12.5536 14.245 12.3446 14.1574 12.1261 14.1555C11.9076 14.1536 11.6971 14.2376 11.5399 14.3894H11.5374Z" fill="#708090"/>
<path d="M18.2867 1.71801C17.7445 1.17202 17.0992 0.739074 16.3884 0.444256C15.6776 0.149437 14.9154 -0.0013921 14.1459 0.000508815C13.3768 -0.00153429 12.6149 0.148907 11.9043 0.443135C11.1937 0.737363 10.5484 1.16954 10.0059 1.71468L7.2834 4.43384C7.12703 4.5901 7.03914 4.80207 7.03906 5.02313C7.03898 5.24419 7.12672 5.45623 7.28298 5.61259C7.43924 5.76896 7.65121 5.85685 7.87227 5.85693C8.09333 5.85701 8.30536 5.76927 8.46173 5.61301L11.1826 2.89468C11.5705 2.50438 12.0321 2.19493 12.5404 1.98422C13.0488 1.77352 13.5939 1.66576 14.1442 1.66718C14.9728 1.66745 15.7827 1.91337 16.4715 2.37384C17.1603 2.83432 17.6971 3.48867 18.0141 4.25419C18.3311 5.01971 18.414 5.86203 18.2523 6.67466C18.0907 7.48729 17.6917 8.23375 17.1059 8.81968L14.3876 11.538C14.2312 11.6944 14.1434 11.9065 14.1434 12.1276C14.1434 12.3487 14.2312 12.5608 14.3876 12.7172C14.5439 12.8735 14.756 12.9614 14.9771 12.9614C15.1983 12.9614 15.4104 12.8735 15.5667 12.7172L18.2851 10.0005C19.3818 8.90142 19.9978 7.41226 19.9981 5.8596C19.9985 4.30695 19.383 2.81754 18.2867 1.71801Z" fill="#708090"/>
<path d="M11.9111 6.91068L6.91115 11.9107C6.83155 11.9875 6.76807 12.0795 6.72439 12.1812C6.68072 12.2828 6.65773 12.3922 6.65677 12.5028C6.65581 12.6135 6.67689 12.7232 6.71879 12.8256C6.76069 12.928 6.82257 13.0211 6.90082 13.0993C6.97906 13.1776 7.0721 13.2395 7.17452 13.2814C7.27693 13.3233 7.38666 13.3443 7.49731 13.3434C7.60796 13.3424 7.71731 13.3194 7.81898 13.2758C7.92065 13.2321 8.01261 13.1686 8.08948 13.089L13.0895 8.08901C13.2413 7.93185 13.3253 7.72135 13.3234 7.50285C13.3215 7.28435 13.2338 7.07534 13.0793 6.92083C12.9248 6.76633 12.7158 6.67869 12.4973 6.67679C12.2788 6.67489 12.0683 6.75889 11.9111 6.91068Z" fill="#708090"/>
</g>
<defs>
<clipPath id="clip0_2038_2033">
<rect width="20" height="20" fill="white"/>
</clipPath>
</defs>
</svg>
