<svg width="20" height="20" viewBox="0 0 20 20" fill="none" xmlns="http://www.w3.org/2000/svg">
<g clip-path="url(#clip0_2038_2026)">
<path d="M10.8337 16.6667C11.9383 16.6654 12.9974 16.2259 13.7785 15.4448C14.5596 14.6637 14.999 13.6047 15.0003 12.5V5.20251C15.0016 4.76448 14.916 4.33055 14.7483 3.92586C14.5807 3.52118 14.3343 3.1538 14.0237 2.84501L12.1553 0.976681C11.8465 0.665993 11.4792 0.419684 11.0745 0.252031C10.6698 0.0843791 10.2359 -0.00128163 9.79782 1.44913e-05H5.83366C4.729 0.00133771 3.66996 0.440749 2.88884 1.22186C2.10773 2.00298 1.66832 3.06202 1.66699 4.16668V12.5C1.66832 13.6047 2.10773 14.6637 2.88884 15.4448C3.66996 16.2259 4.729 16.6654 5.83366 16.6667H10.8337ZM3.33366 12.5V4.16668C3.33366 3.50364 3.59705 2.86776 4.06589 2.39891C4.53473 1.93007 5.17062 1.66668 5.83366 1.66668C5.83366 1.66668 9.93283 1.67835 10.0003 1.68668V3.33335C10.0003 3.77538 10.1759 4.1993 10.4885 4.51186C10.801 4.82442 11.225 5.00001 11.667 5.00001H13.3137C13.322 5.06751 13.3337 12.5 13.3337 12.5C13.3337 13.1631 13.0703 13.7989 12.6014 14.2678C12.1326 14.7366 11.4967 15 10.8337 15H5.83366C5.17062 15 4.53473 14.7366 4.06589 14.2678C3.59705 13.7989 3.33366 13.1631 3.33366 12.5ZM18.3337 6.66668V15.8333C18.3323 16.938 17.8929 17.9971 17.1118 18.7782C16.3307 19.5593 15.2717 19.9987 14.167 20H6.66699C6.44598 20 6.23402 19.9122 6.07774 19.7559C5.92146 19.5997 5.83366 19.3877 5.83366 19.1667C5.83366 18.9457 5.92146 18.7337 6.07774 18.5774C6.23402 18.4211 6.44598 18.3333 6.66699 18.3333H14.167C14.83 18.3333 15.4659 18.07 15.9348 17.6011C16.4036 17.1323 16.667 16.4964 16.667 15.8333V6.66668C16.667 6.44567 16.7548 6.23371 16.9111 6.07743C17.0673 5.92115 17.2793 5.83335 17.5003 5.83335C17.7213 5.83335 17.9333 5.92115 18.0896 6.07743C18.2459 6.23371 18.3337 6.44567 18.3337 6.66668Z" fill="#7544F1"/>
</g>
<defs>
<clipPath id="clip0_2038_2026">
<rect width="20" height="20" fill="white"/>
</clipPath>
</defs>
</svg>
