<svg width="20" height="20" viewBox="0 0 20 20" fill="none" xmlns="http://www.w3.org/2000/svg">
<g clip-path="url(#clip0_434_5037)">
<path d="M10.8842 8.75033V4.30642C11.8348 4.46692 12.7318 4.85694 13.4975 5.44264C13.65 5.54733 13.8302 5.60443 14.0151 5.60674C14.6098 5.60674 15.0946 5.12826 15.1009 4.53365C15.1021 4.27861 15.0023 4.03347 14.8231 3.85192C13.7155 2.90351 12.3273 2.34469 10.8716 2.2612V0.77146C10.8716 0.345988 10.5269 0.00133577 10.1014 0.00133577C10.0926 8.5757e-05 10.0837 8.5757e-05 10.0749 8.5757e-05C9.64315 -0.00624243 9.28714 0.338448 9.28081 0.77146V2.21069C6.44023 2.41269 4.50865 4.16755 4.50865 6.50312C4.50865 9.36893 6.94524 10.1643 9.28081 10.7955V15.8455C8.04861 15.6801 6.88715 15.1688 5.93523 14.3684C5.75597 14.2257 5.53374 14.1462 5.30397 14.1412C4.72197 14.1816 4.2738 14.6689 4.28134 15.2521C4.28008 15.5072 4.37995 15.7523 4.55908 15.9339C5.86284 17.108 7.53979 17.7832 9.29338 17.8402V19.2289C9.29338 19.2378 9.29463 19.2466 9.29463 19.2555C9.31483 19.6872 9.68222 20.0205 10.114 19.9991C10.5395 19.9991 10.8841 19.6544 10.8841 19.2289V17.815C14.3307 17.5878 15.7194 15.492 15.7194 13.2701C15.7195 10.2906 13.2198 9.38158 10.8842 8.75033ZM9.29346 8.34634C7.91736 7.94235 6.84426 7.52575 6.84426 6.35163C6.84426 5.17752 7.81638 4.33165 9.29346 4.21806V8.34634ZM10.8842 15.8707V11.2753C12.3108 11.6793 13.4217 12.2222 13.4091 13.5478C13.4091 14.5073 12.7526 15.6435 10.8842 15.8707Z" fill="#708090"/>
</g>
<defs>
<clipPath id="clip0_434_5037">
<rect width="20" height="20" fill="white"/>
</clipPath>
</defs>
</svg>
