<svg width="22" height="22" viewBox="0 0 22 22" fill="none" xmlns="http://www.w3.org/2000/svg">
<path d="M19 0H3C1.34315 0 0 1.34315 0 3V19C0 20.6569 1.34315 22 3 22H19C20.6569 22 22 20.6569 22 19V3C22 1.34315 20.6569 0 19 0Z" fill="#0077B5"/>
<path d="M7.92188 6C7.92188 6.37084 7.81191 6.73335 7.60588 7.04169C7.39985 7.35004 7.10702 7.59036 6.76441 7.73227C6.4218 7.87419 6.0448 7.91132 5.68108 7.83897C5.31737 7.76663 4.98327 7.58805 4.72105 7.32583C4.45883 7.0636 4.28025 6.72951 4.2079 6.36579C4.13556 6.00208 4.17269 5.62508 4.3146 5.28247C4.45652 4.93986 4.69684 4.64702 5.00518 4.44099C5.31352 4.23497 5.67604 4.125 6.04688 4.125C6.54416 4.125 7.02107 4.32254 7.3727 4.67417C7.72433 5.02581 7.92188 5.50272 7.92188 6ZM7.49688 9.125V17.4088C7.49721 17.4699 7.48545 17.5304 7.4623 17.587C7.43914 17.6435 7.40503 17.695 7.36193 17.7383C7.31884 17.7816 7.2676 17.816 7.21118 17.8395C7.15475 17.8629 7.09424 17.875 7.03313 17.875H5.05688C4.99576 17.8752 4.93522 17.8633 4.87873 17.8399C4.82224 17.8166 4.77092 17.7824 4.7277 17.7392C4.68449 17.696 4.65025 17.6446 4.62694 17.5881C4.60363 17.5317 4.59171 17.4711 4.59188 17.41V9.125C4.59188 9.00168 4.64087 8.8834 4.72807 8.7962C4.81528 8.70899 4.93355 8.66 5.05688 8.66H7.03313C7.15624 8.66033 7.27419 8.70947 7.36112 8.79664C7.44806 8.88381 7.49688 9.00189 7.49688 9.125ZM17.8269 13.4375V17.4475C17.827 17.5037 17.8161 17.5594 17.7947 17.6113C17.7732 17.6632 17.7418 17.7104 17.702 17.7502C17.6623 17.7899 17.6151 17.8214 17.5632 17.8428C17.5112 17.8642 17.4556 17.8752 17.3994 17.875H15.2744C15.2182 17.8752 15.1625 17.8642 15.1106 17.8428C15.0586 17.8214 15.0115 17.7899 14.9717 17.7502C14.932 17.7104 14.9005 17.6632 14.8791 17.6113C14.8577 17.5594 14.8467 17.5037 14.8469 17.4475V13.5613C14.8469 12.9813 15.0169 11.0213 13.3306 11.0213C12.0244 11.0213 11.7581 12.3625 11.7056 12.965V17.4475C11.7056 17.5598 11.6615 17.6676 11.5826 17.7476C11.5038 17.8276 11.3967 17.8734 11.2844 17.875H9.23188C9.17579 17.875 9.12027 17.8639 9.06847 17.8424C9.01667 17.8209 8.96963 17.7894 8.93003 17.7497C8.89043 17.71 8.85906 17.6629 8.83771 17.611C8.81637 17.5591 8.80546 17.5036 8.80563 17.4475V9.08875C8.80546 9.03267 8.81637 8.97711 8.83771 8.92525C8.85906 8.87339 8.89043 8.82625 8.93003 8.78654C8.96963 8.74682 9.01667 8.71531 9.06847 8.69382C9.12027 8.67232 9.17579 8.66125 9.23188 8.66125H11.2844C11.3978 8.66125 11.5065 8.70629 11.5867 8.78646C11.6668 8.86663 11.7119 8.97537 11.7119 9.08875V9.81125C12.1969 9.08375 12.9156 8.5225 14.4494 8.5225C17.8469 8.5225 17.8269 11.695 17.8269 13.4375Z" fill="white"/>
</svg>
