<svg width="22" height="22" viewBox="0 0 22 22" fill="none" xmlns="http://www.w3.org/2000/svg">
<g clip-path="url(#clip0_1340_960)">
<path d="M11.0026 5.5C10.2774 5.5 9.5685 5.71505 8.96552 6.11794C8.36254 6.52084 7.89257 7.0935 7.61505 7.76349C7.33753 8.43349 7.26491 9.17073 7.40639 9.882C7.54787 10.5933 7.89709 11.2466 8.40988 11.7594C8.92267 12.2722 9.57601 12.6214 10.2873 12.7629C10.9985 12.9044 11.7358 12.8317 12.4058 12.5542C13.0758 12.2767 13.6484 11.8067 14.0513 11.2038C14.4542 10.6008 14.6693 9.89186 14.6693 9.16667C14.6693 8.19421 14.283 7.26157 13.5953 6.57394C12.9077 5.88631 11.9751 5.5 11.0026 5.5ZM11.0026 11C10.64 11 10.2856 10.8925 9.98406 10.691C9.68257 10.4896 9.44759 10.2033 9.30883 9.86825C9.17007 9.53325 9.13376 9.16463 9.2045 8.809C9.27524 8.45337 9.44985 8.1267 9.70624 7.8703C9.96264 7.61391 10.2893 7.4393 10.6449 7.36856C11.0006 7.29782 11.3692 7.33413 11.7042 7.47289C12.0392 7.61165 12.3255 7.84663 12.527 8.14812C12.7284 8.44961 12.8359 8.80407 12.8359 9.16667C12.8359 9.6529 12.6428 10.1192 12.299 10.463C11.9552 10.8068 11.4888 11 11.0026 11Z" fill="#708090"/>
<path d="M10.9983 21.9999C10.2264 22.0038 9.46485 21.8228 8.77731 21.4719C8.08977 21.1211 7.4963 20.6106 7.04658 19.9832C3.55317 15.1643 1.78125 11.5416 1.78125 9.21513C1.78125 6.77061 2.75233 4.42621 4.48087 2.69767C6.20941 0.96913 8.55381 -0.00195312 10.9983 -0.00195312C13.4429 -0.00195312 15.7873 0.96913 17.5158 2.69767C19.2443 4.42621 20.2154 6.77061 20.2154 9.21513C20.2154 11.5416 18.4435 15.1643 14.9501 19.9832C14.5004 20.6106 13.9069 21.1211 13.2194 21.4719C12.5318 21.8228 11.7702 22.0038 10.9983 21.9999ZM10.9983 1.99913C9.08472 2.00131 7.2501 2.76246 5.89697 4.1156C4.54383 5.46873 3.78268 7.30335 3.7805 9.21696C3.7805 11.0595 5.51575 14.4667 8.66542 18.8108C8.9328 19.1791 9.28359 19.4788 9.68907 19.6855C10.0946 19.8922 10.5432 20 10.9983 20C11.4535 20 11.9021 19.8922 12.3076 19.6855C12.7131 19.4788 13.0639 19.1791 13.3313 18.8108C16.4809 14.4667 18.2162 11.0595 18.2162 9.21696C18.214 7.30335 17.4528 5.46873 16.0997 4.1156C14.7466 2.76246 12.912 2.00131 10.9983 1.99913Z" fill="#708090"/>
</g>
<defs>
<clipPath id="clip0_1340_960">
<rect width="22" height="22" fill="white"/>
</clipPath>
</defs>
</svg>
