<svg width="20" height="21" viewBox="0 0 20 21" fill="none" xmlns="http://www.w3.org/2000/svg">
<g clip-path="url(#clip0_1340_945)">
<path d="M19.2697 8.72354L17.4772 6.92854V5.49687C17.4768 4.83565 17.2141 4.20159 16.7469 3.73372C16.2796 3.26585 15.6459 3.00237 14.9847 3.00104H13.5547L11.7622 1.20687C10.8197 0.264375 9.17803 0.264375 8.23636 1.20687L6.44386 3.00104H5.01386C4.35257 3.00215 3.71873 3.26556 3.25144 3.73347C2.78415 4.20139 2.52158 4.83558 2.52136 5.49687V6.92854L0.728028 8.72354C0.261739 9.19244 0 9.82684 0 10.4881C0 11.1494 0.261739 11.7838 0.728028 12.2527L2.52053 14.0477V15.4794C2.52097 16.1406 2.7836 16.7747 3.25085 17.2425C3.71809 17.7104 4.35181 17.9739 5.01303 17.9752H6.44303L8.23553 19.7694C8.70636 20.2402 9.33303 20.5002 9.99886 20.5002C10.6647 20.5002 11.2905 20.2402 11.7614 19.7694L13.5539 17.9752H14.9839C15.6452 17.9741 16.279 17.7107 16.7463 17.2428C17.2136 16.7749 17.4761 16.1407 17.4764 15.4794V14.0477L19.2697 12.2527C19.736 11.7838 19.9977 11.1494 19.9977 10.4881C19.9977 9.82684 19.736 9.19244 19.2697 8.72354ZM15.168 9.00937L10.9564 13.1719C10.4447 13.6802 9.77053 13.9352 9.09719 13.9352C8.42386 13.9352 7.75303 13.681 7.23969 13.1744L5.07386 11.0919C4.99611 11.0148 4.93429 10.9232 4.89194 10.8223C4.84959 10.7214 4.82753 10.6131 4.82703 10.5036C4.82652 10.3942 4.84758 10.2857 4.88901 10.1844C4.93043 10.083 4.9914 9.99088 5.06844 9.91312C5.14549 9.83537 5.23709 9.77355 5.33802 9.7312C5.43895 9.68885 5.54724 9.66679 5.6567 9.66629C5.76616 9.66579 5.87464 9.68685 5.97596 9.72827C6.07727 9.76969 6.16944 9.83066 6.24719 9.90771L8.41219 11.9894C8.59467 12.1695 8.84077 12.2705 9.09719 12.2705C9.35362 12.2705 9.59972 12.1695 9.7822 11.9894L13.9947 7.82604C14.1517 7.67045 14.3641 7.58361 14.5852 7.58462C14.8063 7.58564 15.0179 7.67443 15.1734 7.83146C15.329 7.98849 15.4159 8.2009 15.4149 8.42195C15.4138 8.64301 15.3251 8.85378 15.168 9.00937Z" fill="#1CC95B"/>
</g>
<defs>
<clipPath id="clip0_1340_945">
<rect width="20" height="20" fill="white" transform="translate(0 0.5)"/>
</clipPath>
</defs>
</svg>
