<svg width="40" height="40" viewBox="0 0 40 40" fill="none" xmlns="http://www.w3.org/2000/svg">
<g clip-path="url(#clip0_2037_2000)">
<path d="M2.72727 35.0039H9.09094V19.5494L4.92391 12.2729L0 12.7312V32.2766C0 33.7834 1.22047 35.0039 2.72727 35.0039Z" fill="#0085F7"/>
<path d="M30.9092 35.0039H37.2729C38.7796 35.0039 40.0001 33.7834 40.0001 32.2766V12.7312L35.0833 12.2729L30.9093 19.5494V35.0039H30.9092Z" fill="#00A94B"/>
<path d="M30.9089 7.73118L27.1709 14.8642L30.9089 19.5494L39.9999 12.7312V9.09485C39.9999 5.72438 36.1521 3.79938 33.4544 5.82212L30.9089 7.73118Z" fill="#FFBC00"/>
<path fill-rule="evenodd" clip-rule="evenodd" d="M9.09076 19.5492L5.52881 12.0249L9.09076 7.73096L19.9998 15.9128L30.9089 7.73096V19.5492L19.9998 27.731L9.09076 19.5492Z" fill="#FF4131"/>
<path d="M0 9.09485V12.7312L9.09094 19.5494V7.73118L6.54547 5.82212C3.84773 3.79938 0 5.72438 0 9.09485Z" fill="#E51C19"/>
</g>
<defs>
<clipPath id="clip0_2037_2000">
<rect width="40" height="40" fill="white"/>
</clipPath>
</defs>
</svg>
