<svg width="24" height="24" viewBox="0 0 24 24" fill="none" xmlns="http://www.w3.org/2000/svg">
<path d="M15.6157 11.1284C17.1514 10.0084 18.1514 8.19581 18.1514 6.15384C18.1514 2.76061 15.3908 0 11.9976 0C8.60434 0 5.84373 2.76061 5.84373 6.15384C5.84373 8.19581 6.84372 10.0084 8.37944 11.1284C4.56194 12.5892 1.84375 16.2905 1.84375 20.6154C1.84375 22.4817 3.36208 24 5.22836 24H18.7668C20.6331 24 22.1514 22.4817 22.1514 20.6154C22.1514 16.2905 19.4332 12.5892 15.6157 11.1284ZM7.68991 6.15384C7.68991 3.77859 9.62233 1.84617 11.9976 1.84617C14.3728 1.84617 16.3053 3.77859 16.3053 6.15384C16.3053 8.52909 14.3728 10.4616 11.9976 10.4616C9.62233 10.4616 7.68991 8.52909 7.68991 6.15384ZM18.7668 22.1538H5.22836C4.38006 22.1538 3.68992 21.4637 3.68992 20.6153C3.68992 16.0344 7.41667 12.3076 11.9976 12.3076C16.5786 12.3076 20.3053 16.0344 20.3053 20.6153C20.3053 21.4637 19.6151 22.1538 18.7668 22.1538Z" fill="#708090"/>
</svg>
